/* XPM */
static char *frame7[] = {
/* columns rows colors chars-per-pixel */
"61 64 236 2 ",
"   c #241C13",
".  c #39271A",
"X  c #482E1D",
"o  c #4C3223",
"O  c #473B29",
"+  c #513821",
"@  c #443D31",
"#  c #595A32",
"$  c #50532F",
"%  c #705230",
"&  c #5B6333",
"*  c #6C7C3B",
"=  c #687838",
"-  c #636D36",
";  c #4C5650",
":  c #685B46",
">  c #5C6A4C",
",  c #6B7A46",
"<  c #777749",
"1  c #677855",
"2  c #6C6A4C",
"3  c #5E7670",
"4  c #707A6C",
"5  c #B57939",
"6  c #BC7D39",
"7  c #B97A37",
"8  c #A6733B",
"9  c #936938",
"0  c #C07F39",
"q  c #967448",
"w  c #877B57",
"e  c #957E59",
"r  c #896E49",
"t  c #857D6C",
"y  c #6E8039",
"u  c #73863B",
"i  c #758A3C",
"p  c #788E3E",
"a  c #708237",
"s  c #79903F",
"d  c #6F8141",
"f  c #728343",
"g  c #798E41",
"h  c #738547",
"j  c #7D9343",
"k  c #748157",
"l  c #7D8579",
"z  c #7A8967",
"x  c #BE803B",
"c  c #829443",
"v  c #9C8256",
"b  c #A7895F",
"n  c #A98A5F",
"m  c #B1915E",
"M  c #85867A",
"N  c #998C73",
"B  c #999475",
"V  c #8C8D6C",
"C  c #AA8C60",
"Z  c #B59465",
"A  c #B59569",
"S  c #A69679",
"D  c #B49C7C",
"F  c #A79269",
"G  c #A8A47A",
"H  c #B2A27B",
"J  c #B7A87F",
"K  c #BAB97E",
"L  c #8CA17F",
"P  c #C4A268",
"I  c #7B8B88",
"U  c #6F8C8D",
"Y  c #7CA5AA",
"T  c #838D84",
"R  c #928D85",
"E  c #8A9788",
"W  c #989688",
"Q  c #8B9895",
"!  c #9A9C98",
"~  c #A49B85",
"^  c #A89D94",
"/  c #B19B80",
"(  c #95AA8B",
")  c #97A88A",
"_  c #9BAB97",
"`  c #9DB493",
"'  c #9EB59C",
"]  c #8AA493",
"[  c #A9A988",
"{  c #B8A884",
"}  c #BBB48D",
"|  c #A9A798",
" . c #B5A99A",
".. c #A5B899",
"X. c #B9B497",
"o. c #ABB68C",
"O. c #89A7A4",
"+. c #9AA9A7",
"@. c #98B2AB",
"#. c #8DB5BD",
"$. c #97B8B9",
"%. c #8EAFB2",
"&. c #A7ABA7",
"*. c #B6ACA3",
"=. c #AAB9A6",
"-. c #BCB4AD",
";. c #B6B5A8",
":. c #A6BDB9",
">. c #B8BBB6",
",. c #C5AA88",
"<. c #C6BB95",
"1. c #DABA96",
"2. c #C7B68D",
"3. c #C3B5AB",
"4. c #C7BAAE",
"5. c #CCBDB3",
"6. c #C2BCB3",
"7. c #AAC29E",
"8. c #96C4BC",
"9. c #8CC6BD",
"0. c #ADC5A2",
"q. c #AEC7A6",
"w. c #B2CAAA",
"e. c #B8D5AD",
"r. c #B6D2AB",
"t. c #B4C3B2",
"y. c #B8C7B6",
"u. c #BFDDB3",
"i. c #BDD3BA",
"p. c #BBD5B7",
"a. c #A4C3BE",
"s. c #CEC299",
"d. c #D6C799",
"f. c #D4D291",
"g. c #E9C69D",
"h. c #EBC89F",
"j. c #E5C39D",
"k. c #EFDE9F",
"l. c #E5D49B",
"z. c #F0DD9D",
"x. c #EAED9C",
"c. c #C8C6A9",
"v. c #D9CCA2",
"b. c #DFD1A3",
"n. c #C9C6B8",
"m. c #D5C4BA",
"M. c #D9C9BE",
"N. c #D2C3B8",
"B. c #C1DFB4",
"V. c #C1DABC",
"C. c #D7D8BB",
"Z. c #ECC8A1",
"A. c #EFDEA4",
"S. c #EEDEAC",
"D. c #E4D6A6",
"F. c #F0DEA3",
"G. c #F0DFA9",
"H. c #EEDEB0",
"J. c #C3E0B6",
"K. c #C6E3B9",
"L. c #C8E6BD",
"P. c #CAE9BF",
"I. c #EFE0AC",
"U. c #E9EBA0",
"Y. c #F1E0A3",
"T. c #F0E0AC",
"R. c #EFE4AD",
"E. c #DFE19B",
"W. c #95BCC5",
"Q. c #8EB7C0",
"!. c #A0BCC0",
"~. c #99C5C8",
"^. c #95D4C9",
"/. c #9BCAD5",
"(. c #9AD9D4",
"). c #8DD0C5",
"_. c #A5C5C7",
"`. c #B9C7C4",
"'. c #A4D4DD",
"]. c #A7CCD2",
"[. c #98E8D9",
"{. c #A7D9E6",
"}. c #9FF4E4",
"|. c #9EEFE1",
" X c #AEE1EE",
".X c #A0F5E5",
"XX c #AEE5F3",
"oX c #B4ECFA",
"OX c #B1E7F5",
"+X c #B0E2EE",
"@X c #9FD3E0",
"#X c #C5C5C3",
"$X c #C8C9C7",
"%X c #CCCDCB",
"&X c #C7C9C4",
"*X c #DDCDC3",
"=X c #D0CFC2",
"-X c #C4DDC2",
";X c #C7D1CD",
":X c #D1D1CF",
">X c #D7D6C7",
",X c #D4D5D2",
"<X c #DCDCDA",
"1X c #D7DAD8",
"2X c #CAD6D4",
"3X c #E3D1C6",
"4X c #E6D4CA",
"5X c #E9D6CB",
"6X c #EBD8CD",
"7X c #E0D5CB",
"8X c #C6E2C4",
"9X c #C9E6C3",
"0X c #CCEAC4",
"qX c #CFEDCB",
"wX c #CAE5C9",
"eX c #D0EECD",
"rX c #CFF0CD",
"tX c #D1F0CF",
"yX c #D9E8D7",
"uX c #D4F3D3",
"iX c #D8F5D6",
"pX c #CFF1D0",
"aX c #E8E8DB",
"sX c #F7F7D6",
"dX c #CFEEEE",
"fX c #E4E4E3",
"gX c #ECECEB",
"hX c #E7E9E7",
"jX c #F2F2ED",
"kX c #FCFCED",
"lX c #F4F4E6",
"zX c #F4F4F3",
"xX c #FEFEF2",
"cX c #FEFEFE",
"vX c #F8F7F7",
"bX c #EFF0EA",
/* pixels */
"e D D.G.F.A.A.A.A.A.I.S.I.S.S.S.H.S.C.I.A.S.S.S.S.S.H.S.S.I.S.S.I.S.S.S.S.S.S.S.H.S.S.H.S.H.T.G.D.b.<.2.} X.} X.X.,.X.<.d.",
"# w F d.T.Y.Y.A.A.A.Y.I.I.I.S.S.S.I.I.I.S.S.S.S.S.S.S.S.S.S.I.S.S.S.S.D.D.S.S.S.S.S.G.G.S.d.<.X.<.6.n.aXaXaXaXaXaXaXaX>Xn.",
"  . : e P T.F.F.A.A.A.I.I.I.S.S.I.I.S.S.S.S.S.S.H.S.H.S.S.S.S.I.S.I.b.[ X.I.S.S.H.H.D.<.X.n.>XlXkXxXxXxXxXxXxXxXxXxXxXxXxX",
"w O   O 2 J F.F.Y.A.A.I.I.H.S.S.I.R.D.S.S.S.S.S.s.S.S.S.S.S.S.S.I.v...#.;.I.S.S.A.<.X.>XkXxXxXxXkXlXaX>Xn.n.6.5.n.n.>XaXlX",
"A m r . @ 1.Y.k.A.G.G.I.I.H.S.S.R.I.I.I.S.S.I.v.I s.H.H.I.I.I.I.D.| {./.c.I.I.s.X.>XlXxXxXkXhX*X*.[ ~ S S N N N N N N N W ",
"Z A Z e N A.F.A.A.A.A.S.S.S.S.S.b.S.I.I.I.I.I.d.$.@.b.I.I.I.I.b.| {.oX~.s.I.<.n.lXxXxXkX=X .~ S S B N N S S D D / / / F N ",
"Z Z Z C H k.k.A.A.Y.Y.S.S.S.H.S.S.S.S.S.S.S.I.s./. X_ b.I.I.D.| {.oXoXW.v.<.=XkXxXxXaX| ~ / S N S { 1.j.j.Z.Z.g.Z.g.h.g.j.",
"Z Z Z C H k.Y.Y.S.A.G.S.I.S.H.S.S.S.S.S.S.S.T.<.].oX{.+.c.I.[ '.oXoXoX#.[ >XxXkXkXn.B [ S N / 1.Z.Z.j.j.g.g.j.g.g.j.h.h.h.",
"Z Z Z n D G.A.A.S.G.G.G.H.S.S.S.S.S.S.S.S.S.T.<._.oXoX X@.^ !.oXoXoXoX%.n.kXxXlX;.S [ N / j.Z.g.g.g.g.g.g.g.g.g.g.g.g.g.g.",
"Z Z Z b D G.A.G.G.S.S.I.H.S.S.S.S.S.S.H.H.H.I.d.!.oXoXoXOX/.OXOXoXoXoXW.hXxXlX .S S V ,.Z.Z.Z.g.g.j.g.g.g.g.g.g.g.g.g.g.g.",
"Z Z Z b H A.A.A.A.S.S.S.H.I.S.S.S.S.D.[ <.v.b.v.&.XXoXoXOX+XXXXXoXOXoX/.>.%X+.t E I 2 N A ,.2.d.g.Z.Z.Z.g.g.h.h.g.g.g.g.g.",
"Z Z Z b H Y.A.F.A.A.S.S.S.I.I.H.S.H.A.[ #.$.$.+.$.OX{.W.%.&.&.+.W.{.oXXX'.@X@X{.XXW.1 = = = = < w N D P 2.1.j.h.g.g.Z.g.g.",
"Z Z Z n D x.F.A.A.G.I.S.S.S.S.S.S.H.S.b.+.oXoXoXoX/.+.m.3X5X5X*X5.*.$.+XoXoXoXoXOXU y i i i a a = * = * * < w V F ,.2.1.j.",
"Z Z Z b H F.F.A.A.G.S.S.I.S.I.I.S.I.S.I.<._.oXoX@X&.7X6X5X5X5X5X5X5X5.+.+XoXoXoX/.1 i a u a i a a u u p p i p a * * * < w ",
"Z Z Z b D F.A.A.G.A.S.S.I.I.I.I.H.I.H.S.D.|  XOX%.*X6X6X5X5X5X5X5X5X6X5.$.OXoXoXU $ & $ $ # $ a u i u p i i p p g j p p p ",
"Z Z Z n D F.x.z.A.A.S.S.S.S.S.S.S.S.S.H.H.s.+.@X+.*X4X6X6X6X6X6X4X3X5X6X*.'.oX].: % % % % % . $ u a i i i i i p g j s j j ",
"Z Z Z n H k.k.Y.A.A.S.S.S.S.G.S.S.S.H.H.S.} !.#.%.%.&.-.-.-.&.&.&.O.6.6XN.W.oX#.r 5 0 0 0 7 o O * u u u i i i s s s j j j ",
"Z Z Z n H k.k.A.k.A.G.A.Y.T.S.S.S.S.D.s.| ~.oXU I %.Q.Q.Q.Q.Q.#.%.+.n.6X*X&.oXXX/.T q 5 6 7 + o & u u u i a p s s j j j c ",
"Z Z Z n H Y.A.F.k.A.A.A.S.I.I.S.S.H.2.E {.oX XQ m.*Xm.3.-.-.6.5.*X3X6X6X3X&.OXoXoXoX~.T q 8 + o # c u u i i s j c j j j j ",
"Z Z Z n J k.k.k.A.A.A.G.G.I.S.S.S.S.S.s.&.{.W.&.3.3.5.*X5X*XM.m.m.m.3X5X4X&. XoXoXoXXXW.4 9 + o # u u u i p s s j c c c c ",
"Z Z Z b H k.z.F.A.A.F.G.A.T.G.S.I.S.T.H.b.| U T #X<X%X&.m.R ! #X#X6.&.5.5X&. XoXXXW.M q 5 5 o o # * a i i i s s j c c c c ",
"Z Z Z b J F.k.z.z.k.A.A.A.A.A.G.T.S.I.I.H.s.I ! 3.3.-.6.3X5.3.6.6.-.-.*X4X&. X{.I q 7 0 0 5 + o % a i i i p s c c c c c c ",
"Z Z Z n H k.k.k.A.k.A.A.G.G.I.S.S.G.G.T.A.| /.Q 5.6X3X3.4X5X5X5.m.M.3.m.4X&.XX{.T 8 0 6 6 5 + o # i a i p p c s j c c c c ",
"Z Z Z b J Y.k.A.A.k.A.A.G.A.I.G.S.S.S.D.| ].{.I  .3.5.*.*X*X6X5.*.*.3.4X3X&.OXoX XO.q 7 0 5 + o # i i i p c s c j c c c c ",
"Z Z Z C H Y.Y.F.z.z.z.F.F.G.A.A.S.H.H.[ O.'.#.R 5.N.5.3. .m.6X6X5X6X6X6X3XR W.oXoXoX~.t 5 5 o o # u i i j j j j c c c c c ",
"Z Z Z C H Y.z.z.z.z.z.F.F.G.G.G.G.G.G.D.d. .R  .4X6X5.~ 3.6X5X5X5X5X5X5X*X .*.'.OX@XY ; % % . X # i u i j j j c c c c c c ",
"Z Z Z C H k.z.z.z.z.z.F.F.F.G.G.G.G.G.G.G.H.~ R 3X6X6X5.5X6X5X5X5X6X5X6XN.3.*.W.3 @ . . . . . X # u u p g j j c c c c c c ",
"A Z Z b H k.z.z.z.z.F.F.G.F.G.G.H.G.H.G.G.d.+.U  .5.m.5.5.5.*X4X4XM.5X6X3.R !.{.; X o . X X X . # i p g j j j c c c c c c ",
"A Z Z C H A.k.z.z.z.F.Y.A.A.F.S.G.H.S.G.S.S E T *.3.3.3.3.*.*. .3.^ 3X6X&.W.{.{.U & - = = = = = i i i s j c c c c j g c c ",
"Z A Z b { A.A.A.k.F.A.A.A.k.A.G.G.S.S.S.I.I.} U ^ 3X6X6X6X5X6X5.^ | *XM.+.U 1 4 > = y y a a i i i i s j j c c c g , # * h ",
"A Z Z b { Y.k.A.A.A.A.A.A.A.S.S.S.G.S.S.I.S.{ W | 6X6X6X5X5X5X3Xm.M.5X*.~.Y = = < B 3 > ; - i i i s j j j c c g 1 I I T M ",
"Z m Z C H Y.A.k.k.A.F.A.A.G.G.T.G.S.S.G.I.I.H.S.{ 5.6X6X5X5X5X5X6X6Xm.M R 3 * = X.qX@.(.l > i i i s j j c c c f R dXdXdXE ",
"A A A C K z.z.z.k.A.Y.Y.S.Y.S.Y.T.T.T.T.S.A.D.D.d.W 5.5X6X5X5X6X6X5.^ W / - * = X.>X8.'.l > u i p j j j c c c f E dXdXdXI ",
"N v V e N 2.1.d.f.l.l.D.A.I.T.A.b.} } [ [ | o.=.....| *.4.M.M.4.|  .=.=._ L V z ) | Y #.3 & i p p j j j c c c g z ! Q Q l ",
"V.-X9XV.V.V.y.0.X...o.[ [ [ } [ [ 0.u.B.9XeXuXiXiXiXiXp.W *. .-.^ t.p.y.t.t.wXpXqXwXi.a.@.L 1 d g j j c c c j j V n.c.C.X.",
"iXiXiXiXiXtXiXtXuXtXqXJ.u.` ) e.B.K.0XwXqXuXuXiXiXiXwX=.| 4X4XC.M >.1XyXfX:X=.uXiXiXiXiXpXpX8X..z h j j j j j i [ sXsXsXc.",
"yXiXiXuXuXuXeXtXtXeXL.B.u.( e.u.B.L.qXrXeXuXuXqXp.t.>.! ] %.+.@.O.,XcXcXcXcX1Xt.uXiXuXuXtXtXtXeXL.` > i j j j d X.sXsXsXC.",
"iXiXeXiXuXuXtXtXeX0XV.B.7.` J.u.K.0XqXrXpXuXuX=.,XzX,X&.(.}.|.}.).`.<XcXcXcXcX$Xi.iXiXuXpXtXeXqXL.L.L 1 i s j y [ C.C.C.[ ",
"iXiXuXuXeXtXeXeXeX0XB.B.( w.u.u.L.qXrXrXpXiX-X&XcXzX#X>.[.}.}.}.).<X&XcXcXcXcXvX>.-XuXuXpXtXeXqXL.J.7.( , g g i d h d d d ",
"uXuXuXuXuXtXeXeX0XK.J.e.( u.u.J.0XrXuXpXuXiXe.fXcX:X<Xa.}.}.}.}.).gX%XgXfXzXcXcXgX>.pXuXpXeXeXeXP.J.w.` L y j p g g j j j ",
"iXuXuXuXeXeXeXeXP.J.u.7.` J.J.L.0XrXuXuXuXuX=.hXgX$XzX$..X.X}.}.8.jXfX,XgX>.vXcXcX<Xt.uXuXqXqXqXP.J.r.' ` d j j j j j j j ",
"iXuXuXeXeXtXeXqXK.J.J.` 7.u.J.0XqXuXtXuXiX9X=.,X%XhXfX8..X.X}.}.8.zXvX&XcX>.>.cXcXcX$Xi.uXtXeXqXP.J.r.` 0.h j j j j j j j ",
"iXuXuXeXtXqXeX0XJ.J.u.( r.u.J.0XrXeXuXtXiXi.>.$X$XcX,X)..X.X.X}.~.vXcX$XzX%X' 1XcXcXvX>.wXtXeXqXP.K.0.' q.h j j j j j j j ",
"uXuXeXeXtXtXqXL.u.u.e.( u.J.L.0XeXuXuXuXuX>.%X&.hXcX&X(..X.X.X}.8.vXcX1XfX1Xy.>.zXcXcXhX=.0XqXqXP.K.7.7.0.h j j j j j j j ",
"iXtXeXqXqXrX0XL.J.u.7.` J.J.P.eXrXuXuXiXwXy.$X&.vXcX>.[.}.}.}.[.a.vXcXfX1X1XV.-Xy.vXcXcX,Xt.qX0X0XK.7.7.7.d j j j j j j j ",
"uXtXtXeXrXrX0XJ.u.J...7.J.J.0XtXtXrXuXiXp.:X%X#XfXvX:.}.}.}.}.[.a.cXcX:X<X<Xi.iXy.:XcXcXcXn.p.0XP.L.7.0.` d j j j j j j j ",
"uXtXtXtXqXeX0XB.u.u.( r.u.J.0XtXtXtXuXuXt.hX$XhX&XgX8.}.}.}.}.[.`.cX,X:XcX<XV.iXuXt.yXcXcXzX=.-X0XK.` w.( i j j j j j j j ",
"tXtXtXrXrXqXL.B.u.r.) u.u.L.0XtXtXuXuXeX>.jX&XvXy.:X).}.}.}.}.[.`.1X:XcXcX1Xi.iXiXqX=.zXcXcXfX=.L.L.` w.E d j g g j j j j ",
"tXtXrXrXtX0XL.u.J.7.` J.u.L.rXeXuXuXuX8X&XjX$X$X<X%X^..X}..X.X^.2X#XgXcXcX,Xi.iXuXuXp.`.cXcXcX%Xq.K.` r.L u s p p p p s p ",
"tXrXrXrXqX0XK.u.J.` 7.J.J.0XqXrXuXuXiXp.yXfX! fXcX`.[..X.X}..X).<XgX#XvXcX,X-XuXuXuXtXw.,XcXcXvX>.r.` r.z f p p p p p i p ",
"qXeXrXrXtX0XJ.B.u.( e.u.J.0XtXtXuXuXuX>.zX,X#XcXvX:..X.X.X}.}.9.fXcX1X:XcX&X-XuXtXtXeX0X=.hXcXcXgX=.( r.z u p p i i p p p ",
"qXeXqXrXeX0XB.u.r.( u.u.L.0XeXtXuXuXwXy.cX>.#XcXjX$.|..X}.}.}.9.gXcXcX#XgXy.wXuXtXeXrXqXV.t.vXfXvX<XM r.z i p g i i p i i ",
"uXqXqXqXqX0XB.B.7.` J.u.J.0XtXuXuXuXp.2XcX&.$XcXfX8..X}.}.}.}.8.vXcXzX$XzX>.uXrXtXeXqXqX0Xr.&.:XvXcX6.q.k , y y y i i g i ",
"eXqXqXeXqXL.B.J.7...J.u.L.qXtXtXpXpXq.gXcX&.:XcX%X^..X.X.X}.|.~.cXcX<X1XgXt.uXuXtXeXqXeXqXq.y.vXcXcX<X` 1 ( =.` M : $ # # ",
"eXeXqXqX0XL.u.B.` 0.u.J.L.rXuXtXeXwX>.cXvX&.,XcX`.[..X}..X.X[.`.cXcX$XzX,Xi.uXtXeXeXeXeXq.#XcXcXcXcX>.E q.9XuXuXpXJ.4 % % ",
"qX0X0XqX0XL.u.u.( r.u.B.P.tXtXtXtXe.,XcXgX>.,XvX$..X}..X.X.X^.`.cXhX$XcX>.qXuXtXtXeXtX' I a.;XjXcXzX=.V.wXqXqXeXuXpXV.1 r ",
"0XrXrX0XP.J.u.u.( e.u.B.0XrXrXrXqX=.jXcX1X&X,XhX8..X}..X}..X).1XcX%XgXzX>.uXuXuXtXqX0.l ] O.9.O.hX&XE ` ' ' ..q.p.wXJ.z q ",
"0X0X0X0XP.J.u.e.( u.u.B.P.rXrXuXt.,XcXcX$X<X%X,X^..X.X}..X}.).hXvX#XvX1Xi.uXuXuX9X( M 3X5XM.Q ] =.&.p.9X0XwXwX`.0...p.V e ",
"0X0XP.0XP.J.u.e.( u.u.J.wXqXrXu.y.vXcXzX$XgX%X`.[..X}.}..X}.8.vXfX,XcXn.0XuXuX`.o.G 5.5X6X5X^ q.E p.tXeXrXpXeXpXpXq.` w e ",
"0X0XP.P.K.J.u.r.( u.u.J.0XqXqX=.jXcXcXfX,XvXfX:.[..X}.}.}.|.8.cX$XgXvX>.uXtXr.7.f.B 3X5X5X5X| ` p.tXeXqXqXrXeXpXqXwXE V P ",
"P.P.P.L.J.J.u.r._ B.B.B.L.0Xq.1XcXcXvX-.hXcXhX8..X.X.X.X.X[.`.zX%XcXaXt.uX-Xo.U.f.t 3X5X5X5X .-XtXqXeXeXeXeXeXeXeX0X..< v ",
"L.K.K.J.J.u.u.w.` B.B.B.J.w.y.cXcXcX#X! cXcX:X^..X.X.X.X.X).2XvXvXcX:XV.rX..E.x.K W 5X5X5X6X*.-XtXqXqXeXeXpXpXuXeX9X..F P ",
"u.B.B.u.u.u.J.w.( B.B.B.r.=.jXcXcX1XE :XcXcX:.[..X.X.X.X}.).hXcXcXcX>.e.w.o.x.x.G | 4X5X4X=X*.V.eXeXeXeXeXeXpXuX0XL.( v m ",
"B.B.u.u.u.u.u.r.( B.B.e...hXcXcXjX| ..jXcXgX8.|.}.|..X.X}.8.zXcXcXcX=.e.) E.x.x.S | 5.3.5.*. .V.eXeXeXeXeXeXrXqX0XL.V r q "
};
