/* XPM */
static char *frame8[] = {
/* columns rows colors chars-per-pixel */
"61 64 235 2 ",
"   c #241D14",
".  c #39271A",
"X  c #462B1C",
"o  c #4B321F",
"O  c #4C3223",
"+  c #483B29",
"@  c #513821",
"#  c #443C33",
"$  c #55572E",
"%  c #595933",
"&  c #4E542C",
"*  c #715230",
"=  c #5B6333",
"-  c #6A7A39",
";  c #636D36",
":  c #4C554E",
">  c #5C684C",
",  c #697A48",
"<  c #767359",
"1  c #6F724A",
"2  c #5D7370",
"3  c #707E70",
"4  c #6F5D45",
"5  c #BB7D39",
"6  c #B57938",
"7  c #A6733B",
"8  c #986C3A",
"9  c #C07F39",
"0  c #967448",
"q  c #877B57",
"w  c #967E58",
"e  c #886D48",
"r  c #877E6B",
"t  c #6F813A",
"y  c #6E8036",
"u  c #74863B",
"i  c #758A3C",
"p  c #788E3E",
"a  c #708237",
"s  c #7A903F",
"d  c #6E8141",
"f  c #728343",
"g  c #7A8E41",
"h  c #738547",
"j  c #7D9342",
"k  c #738157",
"l  c #7C8478",
"z  c #788A6B",
"x  c #BF803A",
"c  c #829443",
"v  c #9C8256",
"b  c #A7895F",
"n  c #A98B5F",
"m  c #B0905E",
"M  c #9A8C73",
"N  c #999475",
"B  c #8B8C6E",
"V  c #A98B60",
"C  c #B59465",
"Z  c #B59569",
"A  c #A79779",
"S  c #B49C7E",
"D  c #A69269",
"F  c #A7A57B",
"G  c #B2A27B",
"H  c #B7A87F",
"J  c #BAB97F",
"K  c #8CA17F",
"L  c #C4A268",
"P  c #688685",
"I  c #7B8D8C",
"U  c #759BA4",
"Y  c #7DA6A8",
"T  c #838E87",
"R  c #8A9688",
"E  c #989788",
"W  c #889894",
"Q  c #95948D",
"!  c #A39A87",
"~  c #A79D94",
"^  c #94AA8B",
"/  c #96A88A",
"(  c #9AAB96",
")  c #9DB493",
"_  c #9DB49C",
"`  c #89A291",
"'  c #A9A989",
"]  c #B7A985",
"[  c #BBB48C",
"{  c #A8A899",
"}  c #B6A999",
"|  c #A5BC9B",
" . c #A5B698",
".. c #BAB597",
"X. c #ABB68C",
"o. c #9BACA9",
"O. c #8DB4BC",
"+. c #98B8B9",
"@. c #8FADAB",
"#. c #A5AAA5",
"$. c #A8ABA8",
"%. c #B5ACA1",
"&. c #BAADA3",
"*. c #AAB8A6",
"=. c #B9B4A9",
"-. c #A6BCB8",
";. c #B7BBB6",
":. c #909EA0",
">. c #C6AA88",
",. c #C5BB95",
"<. c #DABA96",
"1. c #CAB68D",
"2. c #C5B7AB",
"3. c #C8BCB2",
"4. c #AAC29E",
"5. c #96C4BC",
"6. c #8CC6BD",
"7. c #ACC5A2",
"8. c #AEC6A6",
"9. c #B4CCAC",
"0. c #B1C9A9",
"q. c #B6D2AA",
"w. c #B9D5AD",
"e. c #BAD8AE",
"r. c #B4C3B2",
"t. c #B8C6B7",
"y. c #BBD4B5",
"u. c #BFDDB3",
"i. c #BCD3BA",
"p. c #BBD7B9",
"a. c #A4C3BE",
"s. c #D6C89A",
"d. c #D2CD93",
"f. c #E9C69D",
"g. c #EBC89F",
"h. c #E5C39D",
"j. c #EFDE9F",
"k. c #E6D49B",
"l. c #F0DD9E",
"z. c #EAED9D",
"x. c #EEF19F",
"c. c #D9CDA4",
"v. c #C9C6B7",
"b. c #D4C4B9",
"n. c #DAC9BE",
"m. c #D4C5BA",
"M. c #C1DFB4",
"N. c #C1DBBC",
"B. c #C0D5BD",
"V. c #D1CFB0",
"C. c #EBC8A0",
"Z. c #EFDEA4",
"A. c #EEDEAC",
"S. c #E4D6A5",
"D. c #F0DEA3",
"F. c #F0DFA9",
"G. c #EFDFB0",
"H. c #C3E1B6",
"J. c #C6E3B9",
"K. c #C8E6BD",
"L. c #C9E8BF",
"P. c #EFE0AC",
"I. c #F1E0A3",
"U. c #F0E0AC",
"Y. c #F1E1B2",
"T. c #DFE19A",
"R. c #8FB9C2",
"E. c #98BDC4",
"W. c #A1BEC3",
"Q. c #8ECAC0",
"!. c #99C5C9",
"~. c #95D6CA",
"^. c #9BC9D4",
"/. c #9CD6D7",
"(. c #8DD4C8",
"). c #A6C5C5",
"_. c #B7C8C5",
"`. c #A4D3DC",
"'. c #A5CDD2",
"]. c #98E8D9",
"[. c #AADDEA",
"{. c #A7D8E4",
"}. c #9EF4E4",
"|. c #9EEFE1",
" X c #A0F5E5",
".X c #ADE4F3",
"XX c #B0E5F3",
"oX c #B4ECFA",
"OX c #B2E8F6",
"+X c #AEE2EF",
"@X c #9FD3E1",
"#X c #C5C5C3",
"$X c #C8C9C6",
"%X c #CCCDCB",
"&X c #C5CAC6",
"*X c #DDCCC2",
"=X c #D0CFC2",
"-X c #C7D9C6",
";X c #D1D1CF",
":X c #D7D6C7",
">X c #D4D5D2",
",X c #DCDCDA",
"<X c #D7DAD8",
"1X c #CAD6D4",
"2X c #E0CEC3",
"3X c #E3D1C6",
"4X c #E6D4CA",
"5X c #E9D6CB",
"6X c #EBD8CD",
"7X c #E4DDD5",
"8X c #C6E1C4",
"9X c #C9E5C3",
"0X c #CCEAC3",
"qX c #CFEDCB",
"wX c #CAE6C9",
"eX c #D0EECD",
"rX c #CFF0CD",
"tX c #D1F0CF",
"yX c #D8E8D7",
"uX c #D4F3D3",
"iX c #D8F5D6",
"pX c #E8E8DB",
"aX c #F7F7D6",
"sX c #CFEEEE",
"dX c #E4E4E3",
"fX c #ECECEB",
"gX c #E7E9E7",
"hX c #F2F2EE",
"jX c #FCFCED",
"kX c #F3F3E5",
"lX c #F4F4F3",
"zX c #FEFEF2",
"xX c #FEFEFE",
"cX c #F8F7F7",
"vX c #EFF0E8",
/* pixels */
"w S S.D.I.Z.I.Z.Z.Z.P.Z.P.P.A.A.P.A.A.A.A.A.G.P.P.P.A.A.P.P.P.P.P.A.P.P.P.P.P.G.G.A.A.A.A.F.Y.F.S.c.d.1.[ ..[ } [ ..,.,.s.",
"% q D s.I.j.Z.Z.Z.Z.Z.P.P.P.G.A.P.P.A.A.A.A.P.P.P.P.A.A.P.P.P.P.A.A.P.S.S.P.A.A.G.A.A.F.S.c.,.[ 2.2.=X:XpXpXpXpXpXpXpX:Xv.",
"  . 4 w >.j.l.D.I.Z.Z.P.P.A.A.A.P.P.P.P.A.A.A.P.G.A.A.A.S.P.P.P.A.P.c.N ..P.A.A.F.G.S.,...v.7XkXjXzXzXzXzXzXzXzXzXzXzXzXzX",
"q +   + 4 ] D.Z.Z.Z.I.P.P.A.A.A.P.S.P.P.A.A.A.V.s.A.A.P.P.P.P.P.P.c._ O.V.P.A.P.A.,...:XjXzXjXzXjXkXpX:Xv.v.3.3.v.v.:XpXkX",
"C m e . # <.D.D.Z.Z.Z.P.P.A.A.A.A.A.A.S.A.A.G.s.I V.Y.P.P.P.P.P.c.{ [.!.s.U.P.s...:XjXzXzXzXpX*X%.' ! A M M M M M M M M E ",
"C C Z w N Z.D.D.Z.Z.I.A.G.A.A.G.A.A.A.P.A.P.P.,.+.o.S.P.A.A.P.c.{ [.oXE.V.S.[ v.kXzXjXjX=X} ! ! A N M M A S S S ! ] A A M ",
"C C C V G l.l.D.Z.I.A.A.G.A.A.A.A.A.A.A.P.A.U.,.'.{. .S.P.G.c.{ [.oXoX+.c.,.:XzXzXzX7X{ ! ! A r A ] <.h.f.C.C.C.g.g.f.f.h.",
"C Z C V S z.D.D.Z.A.Z.A.A.A.G.A.A.A.A.A.A.A.U.[ `.oX^.#.c.A.{ `.oXoXOXO.] :XzXjXjXv.A ] A M ] <.C.C.h.h.h.f.f.f.f.f.f.f.f.",
"C C C n G I.Z.Z.A.A.F.U.A.A.A.A.A.A.A.A.A.A.A...`.oXoX{.o.{ W.OXoXoXoX@.v.zXzXjX&.N ] M ] <.C.C.f.f.f.f.f.f.f.f.f.f.f.f.f.",
"C C C n S I.Z.D.Z.A.A.A.A.G.A.A.A.A.A.P.P.A.A.d.W.oXoXoX.XE.oXXXoXoXoXR.kXzXkX{ A A r 1.C.C.C.C.f.f.f.g.f.f.f.f.f.f.f.f.f.",
"C C C b G I.Z.Z.Z.F.A.A.A.P.A.A.A.A.S.] s.c.S.s.#.oXoXoXoX+X[..XoXoXoX!.;.%X:.r R I > M S L <.<.f.f.C.g.f.f.f.f.f.f.f.f.f.",
"C C C b G I.Z.Z.Z.A.A.A.A.P.A.G.A.A.A.E O.+.o.o.+.oX[.R.o.$.$.$.E.{.oX.X{.{.{.+XXXR.1 - - ; - - q M S L 1.<.f.f.f.g.f.g.f.",
"C C C b G Z.Z.Z.Z.Z.A.A.A.A.A.A.A.A.G.s.-.oXoXOXoX^.o.3.3X5X4X2X3.$.+.XXoXoXoXoXXXP a i u a i a y - - - , 1 v B Z >.1.<.h.",
"C C C b G I.Z.Z.Z.U.F.A.A.A.P.G.G.P.A.A.} '.oXoX@X$.4X6X5X5X5X5X6X5X3.#.XXoXOXoX!., i a i i i a a i i p i i i a - - - 1 e ",
"C C C n G D.Z.Z.Z.F.A.P.P.P.P.P.P.P.G.A.S.{ +XXXO.*X6X6X5X5X6X6X5X5X6X3.+.OXOXOXl $ % $ $ & + - u i u i i i p p j g p j j ",
"C C C n G j.j.j.D.Z.A.A.A.A.A.P.A.A.A.A.F.,.E.@X=.6X6X4X6X6X4X4X6X5X5X5X%.{.oX^.: $ * * * 8 . & u a u i i u p g g j g j c ",
"C C C n G I.l.I.Z.Z.Z.U.Z.A.D.A.A.F.A.A.A.[ ).O.&.2X5X5X5X5X4X4X3X3X4X6X3.W.oXO.e 6 9 9 9 6 o + - i u i i i i i s s j j j ",
"C C C b G j.z.I.Z.Z.A.A.P.P.A.A.A.G.S.s.{ !..XU @.O.$.W.;.&.$.$.$.:.#X6X2Xo.oXXX^.R 0 6 9 6 @ O = i u u i i i p j j j j c ",
"C C C b S D.D.Z.j.D.Z.A.Z.P.P.A.A.G.] W {.oX[.I $.$.+.R.R.R.O.O.@.#.*X6X3X$.OXoXoXoX!.T 0 7 @ O % i u u i i s j j j j j c ",
"C C C b G l.j.D.Z.Z.D.Z.U.P.A.A.A.G.A.,.o.+XR.b.6X2X3.3.2.2.3.b.3X4X5X4X4X$.XXoXoXoX.XR.< 8 @ O * i - u i i s j j c c c j ",
"C C C b H I.l.D.Z.Z.Z.D.D.Z.D.A.P.A.A.U.c.{ U } &.&.&.2.6X3.&.2.&.%.} b.4X$.+XOX.XO.B 0 5 5 o O $ i i i a p s j j c c c c ",
"C C C V G I.j.j.l.j.D.Z.Z.D.A.U.P.P.P.P.Y.,.I 2.2X*Xb.2X6X4X3.n.*X*X3X4X4X#.XX@Xl 0 5 9 5 6 @ O % u a i i p j s c c c c c ",
"Z C C V H I.j.j.Z.D.Z.D.F.F.P.A.A.A.A.A.Z.{ !.W 3.6X2X2.5X6X5Xb.n.b.2.3X4X#.XX[.I 7 5 5 5 5 @ O % a p i p p s c c c c c c ",
"C Z C b G I.l.Z.Z.Z.Z.A.D.Z.F.F.A.F.A.S.} '.{.I ~ 2.2.2.*X2X5X2.%.&.b.5X3Xo.OXoXXX:.0 5 5 6 @ O % i a p p c c s j j c c c ",
"C C C b H I.l.D.D.l.l.D.D.A.Z.F.A.A.A.F :.[.O.Q 3.3.3.2.&.n.5X5X5X5X6X5X3XT W.OXoXoX^.r 6 6 @ o % u i i g j j j c c c c c ",
"C C C b G j.l.l.l.l.l.D.D.D.F.A.F.A.F.S.s.{ T } 6X6X3.~ &.5X5X5X5X5X5X5X*X%.%.{..X^.U : * * . o % i u i j c j c c c c c c ",
"C C C b G j.l.l.l.l.l.D.D.F.F.F.F.A.F.F.F.G.A Q 5X6X6X3.4X6X5X5X5X5X6X5Xb.&.&.E.2 # . . . . . X $ i i p g j j c c c c c c ",
"Z C C b G l.l.l.l.l.l.D.D.D.F.F.F.G.G.F.G.s.( I } 3.n.3.3.n.2X5X4X*X5X5X2.Q W.@X: X X X X X X . $ i i g j j j c c c c c c ",
"Z Z C b S I.j.l.l.l.Z.D.D.Z.D.P.F.G.A.F.A.A W I 2.&.2.&.2.%.&.} &.} *X6X$.E.@X[.P = ; ; ; - - - u i p j j c c c c c g c c ",
"C Z C b H I.D.Z.Z.Z.Z.j.Z.l.D.A.A.A.F.A.P.A.[ I ~ 3X6X6X5X5X6X3.~ ~ :X*X#.P > < > - a y y a i i i p j j c c c c g , % - g ",
"C C C b H I.j.Z.D.Z.Z.Z.Z.F.A.D.F.A.A.A.P.A.] R } 6X6X6X5X5X5X2Xn.2X6X%.!.Y d t k N > 2 : - u i i i j j c c c u < I I T l ",
"C C C b H Z.j.Z.Z.Z.D.Z.A.D.F.U.A.F.F.A.P.A.A.A.] 3.6X6X5X5X5X5X6X6Xb.r W 2 - - ..eX+.~.l > u i i j j j c c c u T sXsXsXR ",
"C C m b L I.l.l.j.Z.Z.I.D.F.A.Z.U.F.P.P.F.A.S.S.s.N 3.5X6X6X5X5X6X3.~ E ! ; u - ..:X+.].P > i u p j j j c c c f R sXsXsXT ",
"v B v B A 1.1.s.d.k.k.S.Z.F.U.Z.c.,.X.] ' X. .*.*.*. .} 3.n.n.v.{ $.*.*. .B z z /  .` R.2 > u p p j j j c c c g z :.W R l ",
"-XwX8X-X8Xp.9.7... .X.' ' ' [ ' ' 7.w.J.wXeXuXuXiXiXiXi.E } } &.! t.i.t.9.r.eXuXrX8X_.r.( B k d j j j j j j j j B V.V.V...",
"iXiXiXiXuXiXuXuXuXuXqXJ.u.) / e.M.K.L.0XeXtXuXuXiXuXwX*.{ 5X4X:XB ;.<X,XdX;X*.yXiXiXiXiXuXuX8X*.z h j j j j j g ' aXaXaXv.",
"uXiXuXuXuXuXeXuXeXeXK.M.u.^ q.u.M.K.0XeXuXuXuXwXy.;.;.~ ` @.o.@.@.>XxXxXxXxX<Xr.iXuXiXuXuXtXtXeXK.) , t j j j d 7.aXaXaXV.",
"uXiXiXuXuXuXeXtXeX0XJ.M.4.) H.u.J.0XqXtXrXuXrX8.>XlX>X#./.}.}.}.Q._.,XxXxXxXxX%Xi.iXuXuXtXtXeXqXK.J.R , g j j t ' :XV.V.' ",
"iXuXuXuXuXeXtXtXeX9XM.M.^ q.u.u.L.0XeXtXuXiX-X&XxXlX_.;.].}.}.}.Q.yX$XxXxXxXxXcX;.-XuXtXtXtXqXeXK.H.4.^ , j j u f h d d d ",
"iXuXiXuXtXtXeXeX0XJ.M.w.^ u.u.H.0XrXrXuXuXiX9.dXxX;X,X-.}.}.}.}.Q.fX%XfXdXlXxXxXhX-.eXuXtXtXtXqXL.H.q.) z g j g p g j j j ",
"yXuXuXtXtXtXqXqXL.H.H.4. .u.H.K.qXtXrXuXuXuX*.gXfX$XhX-.}.}.}.}.Q.hXdX>XfX;.cXxXxX,Xr.uXuXrXqXqXL.H.q.| ) d j j c j j j c ",
"uXiXuXtXtXtXtXqXH.M.H.) 4.u.H.0XrXrXuXuXiXwX*.;X%XgXgX5.}.}.}.}.5.lXcX#XxX;.;.xXxXxX$Xi.uXqXqXqX0XH.8.) 4.h j j j j j j j ",
"uXiXuXtXtXrXqXwXH.M.u.^ q.u.H.0XeXuXrXuXuXi.;.$X$XxX;X~. X}.}.}.!.cXxX$XlX%X_ ,XxXxXcX;.8XuXtX0XL.H.7.| 8.h j j j j c j j ",
"uXuXtXtXtXqXqXK.H.u.e.^ u.H.K.0XeXuXuXuXuXr.%X$.gXxX&X/.}.}.}.}.+.cXxX<XdX>Xy.r.lXxXxXgX*.qXeXqX0XJ.7.| 7.h j j c j j j j ",
"uXtXeXeXqXrXqXJ.M.H.4.^ M.H.L.eXtXtXuXuXwXt.%X$.cXxX-.].}.}.}.].a.xXxXpX<X<XB.-Xt.cXxXxX>Xr.qX0XL.J.4.4.| h j j j j j j j ",
"uXuXtXqXrXrX0XH.u.H.| 4.H.J.0XtXtXtXuXiXi.;X%X#XpXxX-.|.}.}.}.].a.xXxX%X,X,XB.iXy.%XxXxXxXt.y.rXL.J.4.7.) d j j j j j j j ",
"uXtXtXrXrXqX9XM.u.u./ q.M.H.0XtXtXtXuXuX;.gX#XgX$XfX5.}.}.}.}.]._.xX>X;XxX,XB.iXuXr.yXxXxXlX=.p.0XJ.) 0.^ i j g g g j j j ",
"uXeXtXrXrXqXK.M.M.q.^ M.H.H.0XtXtXtXuXeXr.hX$XcXt.>X5.}.}.}.}.]._.<X;XxXxX<Xi.iXiXwX;.lXxXxXdX*.K.J.) q.K h j g j g j j j ",
"rXrXqXrXrX0XJ.u.H.4.) H.u.K.rXtXtXuXiX-XB.hX#X$X,X;X/. X}. X X(.1X#XfXxXxX>Xi.iXuXuXy._.xXxXxX;X8.H.) 9.K u p p p p p p p ",
"rXrXrXrXtX0XJ.H.H.) 4.H.H.L.qXtXuXuXiXy.7XdX#.,XxXW.]. X X}. X(.,XfX#XcXxX;X-XuXuXuXeX0.>XxXxXcX;.q.) q.z u p p p i p p p ",
"qXeXqXrXqX0XH.u.u.^ q.u.H.0XtXtXuXuXuXr.lX>X#XxXzX-.|.|. X X X6.dXxX<X;XxX&X8XuXtXeXtXqX*.gXxXxXhX$.^ q.z u g i p i p i p ",
"tXqXrXrXeX0XM.u.q.^ u.u.H.0XeXtXuXuXwXt.xX;.#XxXhX-. X X X X}.6.fXxXxX#XfXt.wXuXtXeXqXqXM.r.cX,XcX,XB q.z i p j i p p i i ",
"eXeXqXtXqXL.M.H.7.) H.M.J.0XuXtXuXuXy.1XxX$.$XxX,X!. X}.}.}.}.5.cXxXcX$XlX;.tXtXtXqXqXqXrX9.*.%XxXxXt.8.< t - t - a u u i ",
"eXeXeXeXqXK.u.H.4.| u.u.K.qXtXtXuXuX8.fXxX$.;XxX%X~. X X X}.|.!.xXxX,X<XfX;.uXtXeXeXqXeX0X8.;.xXxXxX,X( 3 ^ 7.) B > $ % % ",
"eXeXqXtX0XK.M.H.^ 8.H.u.K.rXuXtXrX8X;.xXcX$.;XxXr.]. X X X X]._.xXxX$XlX>XB.uXtXeXqXeXeX0.&XxXxXxXxX;.R 4.8XtXuXuXp.z * * ",
"qXwX0X0X0XJ.u.u.^ q.u.M.L.rXtXtXeXy.>XxXgX;.>XcX+. X X X X X~._.xXgX$XxXt.wXuXuXtXqXuX_ I )._.lXxXlX*.M.K.qXqXtXuXuXy.< e ",
"qXqXqX0XL.H.u.u.^ e.u.H.L.rXrXrXqX*.lXxX>X$X>XgX5. X}.}.}.}.(.<XxX%XgXhX;.uXuXuXqXqX*.l ` @.6.` dX#XR ) _ _  .7.p.0XJ.z 0 ",
"0X0X0X0XL.H.u.e.^ u.u.H.0XrXrXtX9.>XxXxX$X,X;X>X~. X}.}.}.}.Q.gXcX#XxX<Xi.uXuXuXJ./ R *X5Xb.W ( *.*.y.9XwXwXwXp.7._ y.B v ",
"L.0XL.0XK.H.u.e.^ u.u.H.0XtXtXp.t.cXxXcX$XfX%X_.]. X}.}.}.}.5.lXdX>XxXv.wXiXuXp.X.F 3.6X5X5X~ r.R y.tXeXeXeXeXuXqX8.( q w ",
"rXL.0XK.K.H.u.q.^ u.u.H.L.tX0X*.hXxXxXdX>XcXdX-.].}.}.}.}.}.a.cX$XfXcX;.tXuX9.X.T.N 2X5X5X5X' ( M.eXeXeXqXeXeXtXtX0XR B L ",
"L.L.L.K.H.M.u.0.^ H.M.H.J.0X8.<XxXxXcX=.gXxXgX5. X X X X X]._.lX;XxXdXr.uX8XX.z.d.B 3X5X5X5X%.K.eXeXeXeXeXeXeXtXtXqX .1 v ",
"J.J.H.H.H.u.u.q.) M.M.M.H.q.r.xXxXxX#X:.xXxX;X~. X}.}.}. X(.1XxXcXxX%Xy.rX_ T.x.J E 4X5X5X5X%.-XeXeXeXeXeXeXtXtXqX0X .D L ",
"u.M.H.M.M.u.M.q.^ M.M.M.w.*.lXxXxX<XR ;XxXzXa.].}.}. X X}.6.gXxXxXxXr.w.7.4.z.z.H ~ 4X4X4X=X%.N.eXeXeXeXtXtXtXtXL.K.^ v m ",
"u.M.M.u.u.u.u.w.^ M.M.y. .dXxXxXlX{  .lXxXfX+. X}.}. X X}.5.cXxXxXxX*.e.F T.z.T.N } 3.2.3.&.} B.eXeXeXwXtXtXtXtXL.K.B e 0 "
};
