/* XPM */
static char *frame11[] = {
/* columns rows colors chars-per-pixel */
"61 64 232 2 ",
"   c #241D13",
".  c #39271A",
"X  c #3D2D25",
"o  c #452B1C",
"O  c #4B321F",
"+  c #4B3223",
"@  c #473B29",
"#  c #513821",
"$  c #443D30",
"%  c #55582E",
"&  c #595932",
"*  c #4D562F",
"=  c #6F5130",
"-  c #596233",
";  c #6A7A39",
":  c #626C36",
">  c #4E524B",
",  c #5C6B4E",
"<  c #6B7A44",
"1  c #747A46",
"2  c #7A7759",
"3  c #6C6E4D",
"4  c #566D6E",
"5  c #6E786D",
"6  c #6E5D46",
"7  c #B57939",
"8  c #BC7D39",
"9  c #B67937",
"0  c #AA753A",
"q  c #876136",
"w  c #C07F3A",
"e  c #95744A",
"r  c #897B57",
"t  c #967E59",
"y  c #846D4A",
"u  c #847E76",
"i  c #6F813B",
"p  c #73863B",
"a  c #758A3C",
"s  c #788E3E",
"d  c #708237",
"f  c #79903F",
"g  c #728343",
"h  c #798E41",
"j  c #728448",
"k  c #7D9342",
"l  c #71804E",
"z  c #798666",
"x  c #748570",
"c  c #BE803A",
"v  c #829443",
"b  c #9C8256",
"n  c #A7895F",
"m  c #A98A5F",
"M  c #B0905D",
"N  c #978767",
"B  c #878579",
"V  c #998C74",
"C  c #9A9477",
"Z  c #849271",
"A  c #A98B60",
"S  c #B59465",
"D  c #B59568",
"F  c #A6967A",
"G  c #B39B7D",
"H  c #A7926A",
"J  c #A8A479",
"K  c #B2A27B",
"L  c #B9BA7F",
"P  c #8CA17F",
"I  c #C4A268",
"U  c #698585",
"Y  c #7D8D89",
"T  c #769296",
"R  c #7BA2A2",
"E  c #8A9687",
"W  c #979688",
"Q  c #879997",
"!  c #999D97",
"~  c #8B8D84",
"^  c #A39A87",
"/  c #A59C93",
"(  c #94AA8B",
")  c #96A88A",
"_  c #99AB96",
"`  c #9DB493",
"'  c #9DB59D",
"]  c #88A194",
"[  c #A8A888",
"{  c #B8A984",
"}  c #BBB58D",
"|  c #ADA399",
" . c #A8A998",
".. c #B4A898",
"X. c #A5BB9B",
"o. c #A5B698",
"O. c #B9B597",
"+. c #ABB68C",
"@. c #8BA5A5",
"#. c #9CABAC",
"$. c #97AAA5",
"%. c #9AB3AC",
"&. c #86AAB3",
"*. c #98B7B8",
"=. c #88B5B5",
"-. c #A8ABA7",
";. c #B5ACA3",
":. c #BAACA3",
">. c #AAB9A6",
",. c #B8B3AA",
"<. c #A6BBB8",
"1. c #B6BDB4",
"2. c #BBBAB6",
"3. c #CAB88C",
"4. c #C5BB95",
"5. c #DABA96",
"6. c #C7AA89",
"7. c #C3B5AB",
"8. c #C7B9AD",
"9. c #CBBDB3",
"0. c #C2BDB3",
"q. c #A9C29E",
"w. c #8CC7BE",
"e. c #96C4BC",
"r. c #ADC5A2",
"t. c #AEC7A6",
"y. c #B1C4AE",
"u. c #B3CCA9",
"i. c #B6D2AA",
"p. c #B9D4AD",
"a. c #BAD8AE",
"s. c #B7C6B6",
"d. c #BFDDB3",
"f. c #BDD4BA",
"g. c #BBD5B7",
"h. c #A4C3BE",
"j. c #D7C899",
"k. c #D2CF95",
"l. c #E9C69D",
"z. c #E9C69E",
"x. c #EFDE9F",
"c. c #E6D49B",
"v. c #F1DD9D",
"b. c #E9EC9C",
"n. c #EEF19F",
"m. c #C8C6B8",
"M. c #D5C5BA",
"N. c #D7C6BB",
"B. c #C1DEB4",
"V. c #C1DBBD",
"C. c #D5D0AE",
"Z. c #EBC8A0",
"A. c #E4D4A4",
"S. c #EFDEA3",
"D. c #EEDEAC",
"F. c #E7DAA7",
"G. c #F0DEA3",
"H. c #F0DFAA",
"J. c #C3E1B6",
"K. c #C6E3B9",
"L. c #C8E6BD",
"P. c #C9E8BF",
"I. c #EFE0AC",
"U. c #F1E0A3",
"Y. c #F0E0AD",
"T. c #F0E0B1",
"R. c #DFE19B",
"E. c #97BDC6",
"W. c #8BBAC6",
"Q. c #A0BFC2",
"!. c #9AC3C6",
"~. c #94D4C8",
"^. c #9BCBD7",
"/. c #99DAD3",
"(. c #8ED1C6",
"). c #A4C5C7",
"_. c #B8C7C4",
"`. c #A1CCD5",
"'. c #A6D5DD",
"]. c #98E8DA",
"[. c #ABDDEB",
"{. c #A5D7E4",
"}. c #9FF4E4",
"|. c #9DEFE0",
" X c #ABE0ED",
".X c #A0F5E5",
"XX c #ADE3F2",
"oX c #B1E6F4",
"OX c #B4ECFB",
"+X c #B1E8F7",
"@X c #C6C5C4",
"#X c #C8C8C7",
"$X c #CCCDCB",
"%X c #C5CAC6",
"&X c #DDCDC2",
"*X c #D1CFC7",
"=X c #C8D8C7",
"-X c #D1D1CF",
";X c #D8D6C8",
":X c #D4D5D2",
">X c #DCDCDA",
",X c #D7DAD8",
"<X c #CCD7D3",
"1X c #E4D1C6",
"2X c #E5D4CA",
"3X c #E9D6CC",
"4X c #EBD8CD",
"5X c #E0D7CD",
"6X c #C6E1C3",
"7X c #C9E6C3",
"8X c #CCEAC3",
"9X c #CFEDCC",
"0X c #C9E5C8",
"qX c #D0EECD",
"wX c #CFF0CD",
"eX c #D1F1CF",
"rX c #D7E9D5",
"tX c #D4F3D3",
"yX c #D8F5D6",
"uX c #E7E6DB",
"iX c #F7F7D6",
"pX c #CFEEEE",
"aX c #E4E4E3",
"sX c #ECECEB",
"dX c #E7E8E7",
"fX c #F2F2EE",
"gX c #F9F9EA",
"hX c #F4F4F3",
"jX c #FEFEF2",
"kX c #FEFEFE",
"lX c #F8F7F7",
"zX c #EFEFEA",
/* pixels */
"t G A.G.S.S.S.S.S.S.S.I.I.D.D.D.T.T.F.F.T.T.D.D.D.F.D.D.D.D.T.I.I.D.D.D.D.D.D.D.D.D.D.D.D.T.D.D.F.A.4.3.} } O.6.O.O.4.4.j.",
"& r H j.U.S.x.S.S.S.U.I.I.I.D.D.F.I.T.I.F.I.I.I.D.T.T.D.D.I.D.D.D.D.D.F.A.D.D.D.D.D.D.D.D.j.4.4.O.8.N.rXuXuXuXuXuXuXuX;Xm.",
"  . 6 t 6.x.G.G.S.S.S.I.I.D.D.D.I.I.I.I.I.D.T.T.T.I.T.I.D.F.D.D.D.D.D.4.W F.F.I.D.T.A.4.O.m.5XzXgXjXjXjXjXjXjXjXjXjXjXjXjX",
"r @   $ 6 { G.G.U.S.I.I.I.T.D.D.I.I.F.T.I.I.F.D.j.C.D.F.D.D.D.D.D.D.O.*.$.D.I.I.D.4.4.;XgXjXjXjXjXgXuX;Xm.m.0.0.m.m.;XuXgX",
"D M y . $ 3.G.G.S.G.G.Y.D.D.D.D.D.T.I.F.D.F.D.D.W _ I.I.I.I.D.F.D.O.E. X>.H.D.j.} ;XgXjXjXjXsX&XO.^ ^ F F V V V V V V V W ",
"S D D t F U.G.G.S.S.S.D.T.D.D.D.D.D.I.I.D.D.D.A.o.E.O.I.I.I.D.D...).OX{.>.D.3.m.zXjXjXgX*X| ^ ^ F C V V F G G G G { F F N ",
"S S S A G G.v.G.D.G.S.D.D.D.D.D.D.D.I.D.D.D.D.A.#.+X*.8.I.T.D.} !.OXOX{.o.k.#XjXjXjXuX .F { V t F { 5.5.Z.z.z.z.z.Z.z.z.z.",
"S S S A K b.G.G.D.S.D.D.T.D.T.D.F.I.I.F.D.D.T.j.*.OXoX*.O.T.O.).OXOXOX^.W N.jXjXjXm.C ^ F V 6.5.Z.Z.Z.z.z.z.z.z.z.z.z.z.z.",
"S S S m K Y.S.S.G.D.D.H.D.T.D.D.D.D.D.D.D.D.D.A.#.OXOX+XE./ -.+XOXOXOX^.1.jXjXgX,.^ { N { 5.Z.z.l.l.l.z.l.l.l.l.l.l.l.l.l.",
"S S S m G U.S.S.D.H.D.I.D.D.D.D.D.D.D.F.T.D.T.F.-.+X+XOX+X{. X+XOXOXOX^.:XjXgX .F F V 6.Z.Z.Z.z.l.l.l.z.l.l.l.l.l.l.l.l.l.",
"S S S m K b.S.S.G.H.D.D.D.D.D.D.D.D.D.{  .4.j.A.[ [.OXOXoX X[.oXOXOXOX{.<.$X! u E 5 5 r D { 5.5.z.z.Z.Z.l.l.l.l.l.l.l.z.l.",
"S S S m G G.S.S.G.D.D.D.D.I.D.T.D.D.T.4.$.^.!.*.*.oX XW.#.-.-.#.*.^.oXOX'.'.`.{.[.{.5 ; ; ; ; 1 r N H 6.3.5.z.Z.z.z.z.l.l.",
"S S S n K S.x.S.S.G.D.D.D.D.D.I.T.D.D.F...[.OXOXOX'.#.9.2X3X3X1XN.,.#.{.OXOXOXOXOX=.< p p a d d d ; ; ; ; 1 r N G I 3.5.l.",
"S S S m K U.S.S.S.Y.D.D.I.D.T.D.D.I.D.T.j.#.OXOX[.@.9.1X3X3X3X3X3X4XM.-.{.OXOXOX Xx p a p p a d p p a s s a s p < ; 1 1 r ",
"S S S m K S.S.S.G.S.D.I.I.I.I.I.I.I.D.D.H.O.`.OX&.R *.#.7.1X3X3X3X3X3XN.-.oX+XOXR * * * * * * ; p p p a a a s s s h s f a ",
"S S S m K U.x.S.G.S.D.D.D.I.D.D.D.D.D.D.D.A.$.E.T #.#.E.E.#.9.1X3X3X3X4X7.`.OX[.5 = = = = q . * p p p a a a a s s k s k k ",
"S S S n K U.v.G.S.S.D.H.D.S.H.D.D.D.D.T.F.} Q.E.-.1X1X7.#.E.W.#.-.-.,.2X&X#.OX^.y 0 w M w 8 O @ ; p p p a a a s f f k k k ",
"S S S n K v.v.G.x.S.S.D.I.I.D.D.D.D.A.}  .`.XX@.:.4X3X9.M.| #.#.&.&.Q 1X1X-.oXoX^.B 0 7 8 9 O + : p p p d a s s k v k k v ",
"S S S n K U.G.S.x.S.S.D.I.I.I.D.D.H.j.~ `.OX^.2.4X3X4X9.| | &X&X&X&X..M.4X-.[.OXOX+XE.B e 9 # + & p p p a a f k k k v k k ",
"S S S n K U.x.x.S.G.S.G.G.I.D.T.D.T.T.A. .`.&.~ ,.,.7.,.u ~ / 7.,.,.| ..4X-.[.OXOXOXOX^.5 q # + & p p p a a f f k k v v v ",
"S S S A K U.U.U.S.S.S.S.G.D.D.D.D.D.D.T.D...@.$XhXhXlXsX! 2.>XhXfXhX>X,.4X;.[.OX+X^.Q r 0 7 # + & p a d a v f v k v v v v ",
"S S S m K U.U.v.x.v.S.G.G.G.G.I.Y.H.D.H.H.j.@.<.hXkXlX#X,.7.kXkXkXkX$X9.4X;.[.[.Q e 0 c w 7 # + & p d a a a f f v v v v v ",
"S S S A K U.x.x.S.S.S.I.D.H.S.I.D.H.H.H.A. .'.Q :.2.,.W 2X9.0.$X:X@X2.1X5X-.[. XY 0 c 8 8 7 # + & a a a a f v v k v v v v ",
"S S S m K U.x.x.S.v.S.S.G.G.Y.H.T.H.H.j. .{.XXY | | :.:.N.&X&X9.8.9.7.9.2X-.XX+X[.@.e 8 8 7 # O & a a a a v v f k v v v v ",
"S S S A K U.U.v.v.x.G.G.G.S.D.H.D.D.H.{ _ !.&.W &X9.9.7.;.M.3X9...| 7.1X2XW Q.+X+XOXE.r 0 9 # O & a a p h k k v v v v v v ",
"S S S A K v.v.v.v.v.v.v.H.G.G.D.D.D.Y.Y.A.4.W | 1X4X9./ :.3X3X3X3X3X4X3X&X| :.{.OX[.W.4 = = . O & p a s k k k k v v v v v ",
"S S S A K U.v.v.v.v.v.G.G.G.H.H.H.D.D.D.Y.Y.^ ~ 1X3X4XN.1X3X3X3X3X3X3X3XM.:.:.E.U > X . . . . o % p a h h k k v v v v v v ",
"D S S n K U.x.v.v.v.G.G.G.G.H.H.H.H.D.H.Y.4.$.@.1X3X9.2X4X4X3X3X3X3X3X4X7.W <.'.> o o o o o o . % s p k k k v v v v v v v ",
"D S S m K U.v.v.v.x.G.S.G.G.G.D.H.T.D.H.D.K ! Y &X1X/ 9.1X9.2X3X3X3X3X4X-.E.[.XXT - : : : ; ; ; p a s k k k v v v v h v v ",
"S S S n { U.S.S.S.S.S.x.G.x.G.D.D.D.D.H.I.I.{ T 9.&X/ u 9./ &X3X3X3X3X&X#.U 2 5 , ; i d d d a a a s h k k v v v g < & < h ",
"S S S n K U.v.S.S.S.x.S.S.S.D.S.D.H.D.D.I.D.} [ | 4X&X:.| | 4X3X3X3X3X:.).R ; ; l C , 4 > ; p a a h k k v v v h 2 x Y Y x ",
"S S S N { U.v.G.G.S.S.S.S.H.H.Y.H.D.D.D.I.D.T.Y.6.9.4X1X9.1X4X3X3X4XM.B Q 4 ; ; O.rX%./.x , a a a h k k v v v j E pXpXpXW ",
"S S D A 6.U.v.v.G.v.b.I.H.U.I.I.Y.Y.H.H.G.D.F.A.j.F 7.2X4X4X4X4X3X9.! ^ F : i ; O.;X*./.U , a a a k k k v v v g E pXpXpX~ ",
"N N N r C 3.3.j.l.c.c.A.S.Y.Y.S.j.3...+.[ o...X.>.>.o.;.7.N.N.8.| -.y.>. .Z z z )  .@.=.5 , i h h k k k v k v k z _ ] E x ",
"=X7X=XV.B.g.u.t.o.+.+.[ [ [ } J +.r.a.B.7XqXtXtXyXyXyXf.! O.O.7.W g.f.s.y.s.eXtXqX0XV.h._ Z l g h k k k k k k k Z m.m.C.,.",
"yXyXyXyXyXtXyXtXtXtX9XK.B.` ) a.B.K.8X8X9XtXtXtXyXtX0X>.| 3X4XN.B 2.,X>XaX:X>.tXtXyXyXtXtXeX0X>.z j k k k k k a [ iXiXiXm.",
"tXyXyXtXtXtXqXqXqX9XK.B.d.( i.d.B.L.9X9XwXtXtX9Xg.1.s.! ] %.$.=.@.:XkXkXkXkX,Xs.tXyXtXtXtXqXqXqXP.q.< g k k k g O.iXiXiXC.",
"tXtXtXtXyXeXqXqXqX9XK.B.q.` J.d.K.8X9XwXtXtXeX>.:XhX:X-./.}.|.}.(._.>XkXkXkXkX%Xf.yXtXtXtXqXqX9XL.J.E 3 s f h a  .8XC.m.[ ",
"yXtXyXtXeXeXeXqXqX7XB.B.( u.d.B.L.9X9XeXtXtX6X@XkXhX_.1.]..X}.}.(.>X@XkXkXkXkXlXs.=XtXeXeXqXqX9XL.J.q.( l f f a g j g g i ",
"rXyXtXtXeXeXqXqX8XK.B.p.( d.d.K.8X9XwXtXtXtXg.aXkX$X>X<.|..X.X}.(.sX$XsXaXhXkXkXsX1.qXtXeXqXqXqXP.J.u.` x h f f f f k k k ",
"yXtXtXeXeXqXqXqX8XB.B.q.o.d.d.K.9XwXtXtXtXtX>.dXsX#XfX*..X.X}.}.w.sXaX:XsX2.lXkXkX>Xs.tXtXqXqX9XP.J.i.' ` g f k f v k k k ",
"tXyXtXeXqXeXqXqXK.B.J.` q.d.J.P.wXwXeXtXtX7X>.:X$XdXdXe..X.X}.}.e.hXhX#XkX,.2.kXkXkX%Xf.tXeXqX9X8XJ.r.` q.j k k k k k k k ",
"yXtXeXeXeX9XqX8XJ.B.a.( p.d.K.9XqXtXeXtXyXf.2.#X#XkX:X~..X.X.X}.e.lXkX$XhX$X' ,XkXkXhX1.0XqX9X9XP.K.r.X.r.j k k k k v v k ",
"tXtXeXqXwXqXqXL.J.d.a.( d.B.K.qXqXeXtXtXtXy.$X-.dXkX%X/..X.X}.|.e.lXkX,XaX:Xg.1.hXkXkXdX>.8X9X9XP.K.q.q.r.j k k v k k k k ",
"tXeXqX9X9XwX9XK.B.B.r.` d.J.8X9X9XtXtXtX0Xs.$X-.lXkX1.].}.}.}.].h.kXkXaX,X,XV.=Xs.kXkXkX,Xy.9X8XP.K.q.q.q.g k k k k k k k ",
"tXeXeXqXwXwX8XJ.d.J.o.q.J.J.8X9X9XeXtXyXf.-X$X@XaXjX*.}.}.}.}.].h.kXkX-X>X>Xf.yXg.$XkXkXlXm.g.qX8XL.q.r.` g k k k k k k k ",
"tXeXeXeXwXqXL.B.d.d.( i.d.K.8XwXeXtXtXtXy.aX@XdX%XsXw.}.}.}.}.]._.kX:X-XkX>Xf.yXqXy.>XkXkXhX>.V.P.K.X.r.( a k h k k k k k ",
"eXeXeX9XwXqXL.B.d.p.( d.d.K.9X9XwXtXyXqX1.hX@XlX2.<Xe.}.}.}.}.]._.,X-XkXkX>Xf.yXyX0X1.hXkXkXaX>.P.K.` u.E h k h h h h k k ",
"eXwXwXwXwX9XK.B.J.q.` J.J.L.9XeXtXtXtX=X%XsX@X#X>X$X/.}.}.}.}./.<X@XsXkXkX:Xf.yXtXtXf.s.kXkXkX-Xr.J.` i.P a h s s s s s s ",
"eXeX9XwXeX8XJ.d.J.` q.d.J.L.9XeXtXtXyXg.rXaX/ aXkX_.].}.}.}.}.(.>XsX@XlXkX-XV.tXtXtXeXy.:XkXkXlXs.i.` u.z a s s s s s s s ",
"9XqXeXwXwX8XK.B.d.( p.d.K.8XqXeXtXtXtXy.lX-X@XkXlX<.|.}.}.}.}.w.aXkX,X$XkX%X=XtXeXeXqX9X>.dXkXkXsX>.( i.z a s s a s a a s ",
"9XqX9XwXqXL.B.B.p.( d.d.J.8XqXeXtXyX0Xs.kX2.@XkXhX*.}.}.}.}.}.e.sXkXkX@XfXs.0XtXeXeX9XqXV.y.lX>XlX>XB p.z a a f s a s s s ",
"qXqX9XqX9XL.B.B.q.` J.B.K.8XeXeXeXyXg.<XkX-.#XkX>Xe.}.}.}.}..Xe.lXkXhX#XhX1.tXtXeX9X9X9X9Xu.>.$XkXkXs.y.l < i i ; p a g p ",
"qXqX9XqXqXL.d.J.q.X.d.d.L.9XeXeXeXtXt.sXkX-.-XkX$X/..X.X}.}.].h.kXkX>X>XdXs.tXeX9XwXqX9X9Xt.2.kXkXkX>X_ 5 ) >.` Z , * & % ",
"qXqX9X9X8XL.B.J.` q.d.J.L.wXeXeXwX7X1.kXlX-.-XkXs.].}.}.}.}.].).kXkX@XhX:Xf.tXeXqXqXqX9Xu.@XkXkXkXkX2.E q.7XeXeXeXV.z = = ",
"qX8X8X9X8XK.d.d.( p.d.J.P.eXtXeXeXg.:XkXdX2.:XlX*.}.}..X.X.X]._.kXdX#XkX2.9XtXeXeXeXeX' Y )._.zXkXhX>.B.8X9XqXeXeXeXg.2 y ",
"wXP.wXP.P.J.d.a.( a.d.J.8XwXwXwX9X>.fXkX,X#X:XdXe.}.}.}.}.}.(.,XkX$XdXsXs.tXtXqX9X9X>.x _ @.(.@.aX@XE ` ' o.%.r.g.8XK.z e ",
"P.wXP.wXP.J.B.a.( d.d.d.P.wXwXeXy.<XkXkX#X>X-X:X~.}.}.}.}.}.w.dXlX@XkX,Xf.yXtXtX6X) B 1X5XN.E ] >.>.g.6X8X0X7Xf.>.o.B.Z t ",
"P.wXP.P.P.J.d.i.( d.d.J.8X9XeXf.2.kXkXhX#XsX$X_.].}.}.}.}.}.e.hXaX,XkXm.0XtXtXf.+.J C.3X4X4X^ y.E g.tX9X9XqXqXtXeXt.' 2 t ",
"P.P.P.P.L.J.d.i.( d.d.J.P.wX9X>.fXkXkXaX:XlXaX<.|.}.}.}.}.}.).jX#XsXlX1.wXtXg.+.R.V N.3X4X4X .' g.qXqX9XqX9XqXqXwX8XE N I ",
"P.P.P.L.J.B.B.i.` B.B.B.K.P.t.,XkXkXlX1.dXkXdXe.}.}.}.}.}.].).hX-XkXuXs.tX_.q.b.k.B 1X3X3X4X;.K.eX9XqXqXqXqXqXeXwXwX` y n ",
"P.L.J.J.B.d.B.u._ B.B.B.K.u.s.kXkXkX@X! kXkX-X~.}.}.}.}.}.(.<XkXlXkX*Xs.9XX.R.n.L W 3X3X3X5X;.V.qXqXqXqXqXeXeXeX9X8XX.H I ",
"B.B.J.J.d.d.d.u.( J.B.B.i.>.hXkXkX>XE *XkXkX<.].}.}..X.X}.!.dXkXkXkXs.B.q.q.b.b.K  .3X3X2X&X;.=XqXqX9XqX9XeXwXwX8XL.) b M ",
"B.B.B.B.d.d.B.i._ B.B.a.o.dXkXkXzX-.o.fXkXsXe..X}.}..X.X}.e.hXkXkXkXX.i.J R.b.b.C | 9.7.9.....V.qX9XqX9XwXeXeXwX8XK.Z q e "
};
