/* XPM */
static char *frame13[] = {
/* columns rows colors chars-per-pixel */
"61 64 231 2 ",
"   c #241D14",
".  c #39271A",
"X  c #3E2E26",
"o  c #452B1C",
"O  c #4B331F",
"+  c #4C3123",
"@  c #483927",
"#  c #513821",
"$  c #443D30",
"%  c #55572E",
"&  c #595932",
"*  c #4D562F",
"=  c #6F5130",
"-  c #596233",
";  c #6A7A39",
":  c #626D37",
">  c #4E534C",
",  c #5C6B4E",
"<  c #6C7B43",
"1  c #7A7759",
"2  c #70714C",
"3  c #6F7A6D",
"4  c #5E6861",
"5  c #BC7E39",
"6  c #B67938",
"7  c #AA763A",
"8  c #846237",
"9  c #94744A",
"0  c #897A57",
"q  c #957E59",
"w  c #866C47",
"e  c #837D76",
"r  c #6F813A",
"t  c #73863B",
"y  c #758A3C",
"u  c #788E3E",
"i  c #708237",
"p  c #79903F",
"a  c #6F8145",
"s  c #798E40",
"d  c #728444",
"f  c #7D9342",
"g  c #738056",
"h  c #76866D",
"j  c #BF803A",
"k  c #829443",
"l  c #968256",
"z  c #A7895F",
"x  c #A98A5F",
"c  c #B0905D",
"v  c #968665",
"b  c #878678",
"n  c #998C73",
"m  c #999378",
"M  c #849171",
"N  c #AA8C60",
"B  c #B59465",
"V  c #B59668",
"C  c #A79679",
"Z  c #B49B7D",
"A  c #A79269",
"S  c #A8A479",
"D  c #B2A27B",
"F  c #B9BA7F",
"G  c #8DA17F",
"H  c #C4A268",
"J  c #698686",
"K  c #7A908F",
"L  c #7CA3A8",
"P  c #8A9687",
"I  c #979589",
"U  c #889A97",
"Y  c #9A9C98",
"T  c #8A8C84",
"R  c #A39B86",
"E  c #A59C92",
"W  c #94AA8B",
"Q  c #96A88A",
"!  c #88A59D",
"~  c #99A996",
"^  c #9DB493",
"/  c #9DB49D",
"(  c #8CA085",
")  c #A8A889",
"_  c #B7A984",
"`  c #BBB58C",
"'  c #A9A899",
"]  c #B4A89A",
"[  c #A5B899",
"{  c #BCB493",
"}  c #B8B69A",
"|  c #ABB68C",
" . c #8AA7A5",
".. c #9BABAC",
"X. c #95AAA8",
"o. c #99B3AB",
"O. c #99B8B8",
"+. c #8AB1B5",
"@. c #AAACA8",
"#. c #B4ACA2",
"$. c #B8ADA4",
"%. c #AAB8A6",
"&. c #B9B3AA",
"*. c #A7BBB8",
"=. c #B5BDB3",
"-. c #BBBAB6",
";. c #C6AA88",
":. c #C7BB8D",
">. c #C6BC95",
",. c #DABA96",
"<. c #D1B28E",
"1. c #C3B5AB",
"2. c #C8BAAE",
"3. c #CBBCB2",
"4. c #C1BDB3",
"5. c #A9C19D",
"6. c #8CC7BD",
"7. c #96C4BC",
"8. c #ADC5A2",
"9. c #AEC7A6",
"0. c #B1C4AE",
"q. c #B4CCAC",
"w. c #B2CCA6",
"e. c #B6D2AA",
"r. c #B9D5AD",
"t. c #BAD8AE",
"y. c #A7C5BB",
"u. c #B7C6B6",
"i. c #BBD4B6",
"p. c #BFDDB3",
"a. c #BDD3BB",
"s. c #BBD7B9",
"d. c #D7C899",
"f. c #D3CF94",
"g. c #E9C69D",
"h. c #EBC89F",
"j. c #E5C29D",
"k. c #EFDE9F",
"l. c #E6D49B",
"z. c #F0DD9D",
"x. c #E9EC9C",
"c. c #EEF19F",
"v. c #DECFA1",
"b. c #C9C6B7",
"n. c #D9C8BE",
"m. c #D3C4B9",
"M. c #C1DEB4",
"N. c #C1DBBC",
"B. c #D0D1B5",
"V. c #ECC8A1",
"C. c #EFDEA3",
"Z. c #EEDEAC",
"A. c #E4D5A5",
"S. c #F0DEA3",
"D. c #F0DFAA",
"F. c #EFDFB0",
"G. c #C3E0B6",
"H. c #C6E3B9",
"J. c #C8E6BD",
"K. c #C9E8BF",
"L. c #EFE0AB",
"P. c #F1E0A3",
"I. c #F0E1AD",
"U. c #F0E0B0",
"Y. c #DFE19B",
"T. c #97BDC6",
"R. c #8DBBC8",
"E. c #8ECBC1",
"W. c #99C3CA",
"Q. c #95D4C9",
"!. c #9CCBD6",
"~. c #9AD7D6",
"^. c #8DD4C8",
"/. c #A4C5C7",
"(. c #B8C8C4",
"). c #A2CDD6",
"_. c #A4D4DE",
"`. c #98E8D9",
"'. c #AADEEB",
"]. c #A7D8E5",
"[. c #9FF4E4",
"{. c #9EEEE0",
"}. c #ABE0EE",
"|. c #A0F5E5",
" X c #ADE3F2",
".X c #B4ECFB",
"XX c #B1E7F5",
"oX c #C5C5C3",
"OX c #C8C8C6",
"+X c #CCCDCB",
"@X c #C5CAC6",
"#X c #DCCCC2",
"$X c #D0CFC1",
"%X c #C9D7C8",
"&X c #D1D2CE",
"*X c #D8D6C8",
"=X c #D4D4D2",
"-X c #DCDCDA",
";X c #D7DAD8",
":X c #CAD6D4",
">X c #E1CEC3",
",X c #E4D1C6",
"<X c #E6D4CA",
"1X c #E9D6CC",
"2X c #EBD8CE",
"3X c #E0DFD8",
"4X c #C6E2C3",
"5X c #C9E5C4",
"6X c #CCEAC3",
"7X c #CFEDCC",
"8X c #CAE5C9",
"9X c #D0EECE",
"0X c #CFF0CD",
"qX c #D1F1CF",
"wX c #D6EAD4",
"eX c #D4F3D3",
"rX c #D8F5D6",
"tX c #CFF2D1",
"yX c #E7E7DB",
"uX c #F7F7D6",
"iX c #CFEEEE",
"pX c #E4E4E3",
"aX c #ECECEB",
"sX c #E7E8E7",
"dX c #F2F2EE",
"fX c #F9F9EA",
"gX c #F4F4F3",
"hX c #FEFEF2",
"jX c #FEFEFE",
"kX c #F8F7F7",
"lX c #EFF0E8",
/* pixels */
"q Z A.S.S.S.C.C.C.C.C.L.L.Z.F.Z.Z.Z.F.Z.Z.Z.F.Z.Z.F.Z.Z.Z.L.L.L.L.Z.Z.Z.L.Z.Z.Z.F.Z.Z.Z.Z.F.F.Z.A.d.d.;.` { { { { { { >.d.",
"& 0 A d.D.S.C.C.C.S.L.P.L.L.F.Z.Z.Z.Z.Z.Z.Z.Z.Z.Z.Z.Z.Z.Z.Z.Z.Z.Z.Z.L.L.A.Z.Z.Z.Z.Z.Z.D.A.d.>.{ &.b.n.wXyXyXyXyXyXyXyX*XOX",
"  . 2 q H Z.S.C.C.P.C.L.L.Z.Z.Z.Z.L.Z.Z.Z.Z.Z.Z.L.L.Z.Z.Z.Z.Z.Z.Z.Z.Z.>.m Z.Z.Z.L.U.A.>.>.b.3XuXfXhXhXhXhXhXhXhXhXhXhXhXhX",
"0 @   + 2 _ P.z.C.C.Z.L.L.Z.Z.Z.Z.A.Z.Z.Z.Z.Z.F.f.B.F.Z.Z.Z.L.Z.Z.Z.} +.X.A.Z.L.A.>.>.*XgXhXhXhXhXfXyX*Xb.b.4.4.3.b.*XyXfX",
"V N w . $ :.S.S.C.C.S.L.Z.Z.Z.Z.Z.Z.Z.Z.Z.Z.Z.Z.P ~ F.L.Z.Z.Z.Z.Z.{ T.}.o.D.Z.d.{ *XfXhXhXhXpX$X} R C C m m n n n n n n m ",
"V V B q C S.C.C.P.S.C.D.F.F.Z.Z.Z.L.Z.Z.A.Z.Z.A.' T.} F.L.Z.L.Z.` W..X'.[ D.>.b.lXhXhXfX$X] R C C n n n C Z Z Z R _ C C n ",
"B B B N Z P.k.C.Z.C.Z.Z.F.Z.Z.Z.Z.Z.Z.Z.L.Z.Z.A.o.XXO.>.Z.L.Z.{ W..X.X].} >.OXhXhXhX3X' C R C n C _ ,.j.j.V.V.V.g.V.g.g.g.",
"B B B N D k.C.C.C.Z.Z.Z.Z.Z.Z.Z.Z.Z.Z.Z.Z.Z.Z.v.O..XXXT.&.L.>.O..X.X.X!.I B.hXhXfXb.R _ C n _ ,.V.h.g.g.g.g.g.g.g.g.g.g.g.",
"B B B N D P.C.C.Z.D.D.D.Z.Z.F.Z.Z.Z.Z.F.Z.Z.Z.A.@..X.XXXT.E ..XXXX.X.X!.=.hXhXfX&.m _ n Z ,.V.h.g.g.g.g.g.g.g.g.g.g.g.g.g.",
"B B B z Z P.C.S.S.Z.Z.Z.F.Z.Z.Z.Z.Z.Z.A.F.F.F.Z.' XX.X.X.X_.}.XX.X.X.X_.:XhXlX] C C n <.V.V.V.V.g.g.g.h.g.g.g.g.g.g.g.g.g.",
"B B B N D P.C.C.S.D.Z.Z.Z.L.Z.Z.Z.Z.Z.) ) >.d.d.) '..X.XXX}.'. X.X.X.X].*.&XY e T 3 3 0 V ;.<.j.g.g.V.h.g.g.g.g.g.g.g.g.g.",
"B B B N D P.C.S.C.Z.Z.Z.Z.Z.F.L.Z.Z.Z.d.X.!.W.T.O.XX XR...@.@.@.O.!.XXXX].).)._.'.].h ; ; ; ; < 0 v A ;.<.,.j.l.g.h.V.g.g.",
"B B B z D S.C.C.C.C.Z.Z.Z.Z.Z.L.F.Z.Z.Z.' '..X.X.X!.K @.<X1X1X,X#X&...'..X.X.X.X.XR.< t t t i i i r ; ; ; 1 l v C H <.j.j.",
"B B B z Z S.C.C.S.L.Z.Z.Z.Z.Z.Z.Z.L.Z.Z.d....X.X!.L +.T.@.1X1X1X1X1X3.@.]..X.X.X'.h t d t t i i t t y y u y i i d ; ; 2 0 ",
"B B B z Z x.C.C.C.L.Z.Z.L.L.Z.Z.L.L.L.L.I.{ ).}.K ..@.O.T.@.<X2X1X1X1X#X@.XX.X.XL * - & * % * ; t t t y y y y u s s u p y ",
"B B B x D P.k.k.C.S.L.Z.Z.L.L.F.L.Z.L.L.I.A.Y ].Y >X1X2.T.R.@.n.>X>X,X2X&./..X}.4 & = = = 8 . * y t t t y y y u u f u u k ",
"B B B x D P.k.C.C.C.C.D.Z.C.D.Z.Z.Z.L.I.A.{ /.W.&.2X1X2X3...R.......X.#X#X...X).2 6 j j j 6 + @ ; y t t y y y u p p f f f ",
"B B B z D k.k.S.C.C.Z.Z.D.Z.Z.Z.Z.F.A.{ ' ). X .$.1X2X3.#X1.@.......U #X,X@.XXXX).P 9 6 j 6 # @ - y t t y y y p f f f f k ",
"B B B z D k.C.k.k.C.S.Z.Z.L.L.Z.Z.F.d.T !..X!.=.1X1X1Xm.E $.>X,X#X,X#.3.1X@.}..X.XXXR.b 9 6 # + & t t t t y y f f f f f f ",
"B B B z D P.k.C.C.S.C.C.S.I.Z.Z.Z.F.F.A.] /.+.T $.1.&.&.e T E 1.&.&.E #.2X$.'..X.X.X.X_.3 8 + + & t t t t y p f f k k k k ",
"B B B x D P.P.P.C.C.C.S.C.D.D.D.L.Z.Z.D.A.{  .:XgXkXkXaXY -.-XgXgXgXpX$.2X@.'..XXX!.U 0 7 6 # + & t y y y y p f f k k k k ",
"B B B x D P.k.k.z.k.C.C.C.S.C.Z.P.I.Z.Z.U.d. .*.gXkXkXOX&.1.jXjXjXjX+X3.2X#.].}.U 9 7 5 j 6 # + & t i y y y f k k k k k k ",
"B B V x D P.k.k.k.S.C.Z.D.D.S.Z.F.Z.Z.Z.A.' ).U $.-.$.I ,X3.-.&X=XOX&.<X1X@.'.'.K 7 5 5 j 6 + + & y y y k y k p f k k k k ",
"B B V N D P.k.k.C.S.C.C.S.C.Z.D.Z.Z.Z.d.' ].}.K ] ] $.$.#Xn.>X3.1.3.1.3.<X@. X.X}.! 9 5 j 6 # + & y y y y k p k f k k k k ",
"B B B N D P.P.P.z.z.S.S.C.Z.S.D.Z.F.Z.` ~ W.+.I #Xn.2.1.$.m.2X3.#.] 1.,X,XI T.XX.X.XR.0 7 6 # + % t y y f f f k k k k k k ",
"B B B z D k.z.z.z.z.z.z.S.C.D.Z.Z.D.D.Z.A.>.I E ,X2X3.E $.1X1X1X<X<X2X2X>X] #.]..X}.R.4 = = . + & y t y f f f f k k k k k ",
"B B B N D k.z.z.z.z.z.S.S.S.D.D.D.Z.Z.D.D.U.R T ,X1X2Xn.,X1X1X1X1X2X1X1Xm.1.$.T.J > X . . . . o & y y u f f f k k k k k k ",
"V B B z D k.z.k.z.z.S.S.S.S.D.D.D.Z.D.Z.I.>.X. .>X1X1X1X1X1X1X1X1X1X1X2X1.I O._.* o o X o o o . % y d f f f k k k k k k k ",
"V B B N D C.k.k.z.z.S.S.S.S.S.Z.D.Z.Z.D.Z._ I K #X2X3.3.2X1X1X1X1X1X1X2X@.T.'. XJ - ; : : ; ; r t y u s f k k k k k s k k ",
"B B B z _ C.k.C.S.S.S.S.z.S.S.Z.D.Z.D.Z.C.Z.` K 3.2X1.$.3.1.<X1X1X1X1X#X..J 1 3 , ; r r i i y y y u s s f k k k d < & ; s ",
"B B B z _ P.C.C.C.k.C.x.C.D.Z.D.Z.Z.D.Z.Z.A.:.) #.1X1.n ] ] ,X1X1X1X1X$.W.L ; ; g m 4 4 > < i y y p f f k k k d 1 h T K h ",
"B B B N D P.k.C.k.C.C.C.Z.S.S.D.D.Z.Z.Z.Z.Z.F.F.] 3.,X2.E ] <X1X1X2X#X3 P 3 ; ; } 9Xo.~.h , y y y f f f k k k d T iXiXiXU ",
"B B B N H P.z.z.z.S.S.S.L.I.L.P.I.I.D.D.Z.A.A.A.d.R 2.2Xm.>X2X2X1X2.E I R : t ; } *X7.~.J , y y u s f f k k k d P iXiXiXT ",
"v v v 0 m :.:.d.d.l.l.A.C.I.P.C.v.>._ | | | } [ %.[ [ ' 1.m.m.2.E @.0.%.' M M h Q ' ! +.3 : t s u s f f k k k f 3 ~ U U h ",
"%X4X4X4X%Xs.q.8.} [ | ) ) | ` ) ) 5.t.M.5X7XeXrXrXrXrXs.I $.$.2.Y u.i.u.u.0.6X9X7X8Xs.y.X.h g < f f f f f f f s M b.b.v.} ",
"rXeXrXrXrXrXeXeXeXqX9XM.t.^ ( t.p.J.5X6X7XeXeXeXrX9X8X%.] 1X2XB.b -.-XwXpX=X%.wXrXrXrXeXtXeX8X8.h d f k f f f y | uXuXuXb.",
"eXrXrXeXrXeX9X9XqX9XJ.M.G.W r.M.G.J.6X7XeXtXeX7Xi.=.u.Y ! o./ +.+.=XjXjXjXjX;X0.eXrXeXeXwXqXqXqXK.[ , s f f f d 8.fXuXuXB.",
"rXeXrXeXeXqX9X9XqX6XG.G.5.^ G.p.H.6X7X0XtXtXeX%.=XgX=X@.~.[.`.[.E.u.-XjXjXjXjX+Xa.rXeXeXtXqX7X7XJ.G.( < s f s r _ B.B.B.) ",
"rXeXeXeXeX9X9X9X9X5XM.M.W w.G.G.J.7X0XtXeXrX%XoXjXgXoX*.`.|.|.[.E.-XOXjXjXjXjXkX-.%XeXqXtXtX9X7XK.G.5.( a f f s r d a a r ",
"rXeXrXeXqX9XqX9X6XH.M.t.W t.p.G.6X7X0XeXeXrXq.pXjX&X-X*.{.|.[.[.E.aX+XaXpXgXjXjXaX=.9XqXtXtX7X9XK.G.w.^ h s s s s f s f f ",
"eXrXeXeX9XqX9X9X6XM.M.8.^ G.p.H.7X0XqXeXeXeX%.sXaXOXdX7.|.|.[.[.E.dXpX=XaX4.kXjXjX-X0.eXeX7X7X7X6XG.w.^ ^ a f p f f f f k ",
"eXeXeXqX0X7X7X7XH.M.M.^ 5.G.G.K.7X0XqXeXeX6X@.=X+XsXpX7.|.|.[.[.7.gXkX@XjX=.-.jXjXjX@Xa.eXqXqX7X6XG.w.^ 5.a f f f f f f f ",
"rXeXeX9X0X0X7X6XG.p.M.W e.G.G.7X0XtXeXeXrXi.u.OXOXjX=XQ.|.|.|.[.E.kXjXOXgX+X/ -XjXjXkX-.5XqX7X7X6XG.8.5.w.a f f f f k f f ",
"wXeXqXqXtX0X7XJ.G.M.t.W t.G.H.7X7XeXqXeXrX=.+X@.sXjX@X~.|.|.{.{.O.kXjX;XpX;Xu.0.gXjXjXsX%.6X9X7XK.H.8.5.9.a f f f f f f f ",
"eXqX9X7X7X0X7XH.p.G.8.^ M.M.6X7X9XqXeXeX8Xu.OX@.kXjX*.`.[.[.[.`./.jXjXpX;X;Xa.%Xu.jXjXjX=X0.9X6XK.H.5.5.5.a f f f s f f f ",
"eXqXqXqX0X0X6XG.M.M.^ 5.M.G.6X7X9XtXeXrXi.&X+XoXyXkX*.|.[.[.[.`.y.jXjX+X3X-XN.rXu.+XjXjXjXoXi.7XK.H.5.9.^ a f f f f f f f ",
"eXqXqXqX0X9X5XM.p.M.Q e.p.H.6XeX9XeXeXeX0.pXOXsXOXaX7.[.[.[.[.`.(.jX=X&XjX-Xa.rXeX0.-XjXjXgX%.N.6XH.^ w.W s f s f f f f f ",
"qXqXqX0X7X7XJ.M.p.r.W p.M.H.6XqX0XeXrXqX=.gXOXgX-.&XQ.[.[.[.[.`.(.;X&XjXjX;XN.wXrX7X=.dXjXjXpX%.J.H.^ q.( d f s s s f f f ",
"qXqX0X0XqX7XG.M.G.5.^ G.M.J.7XqXeXeXrX4X@XlXoXOX-X+X~.[.[.[.|.^.:XoXaXjXjX=Xs.rXrXrXN.u.jXjXjX+X9.H.[ w.M u p p p u u u p ",
"qXqX0X0XqX6XG.M.G.^ 5.G.G.K.7XqXqXeXrXu.wXpXE pXjX(.`.[.|.[.[.^.;XdXoXkXjX&XN.eXeXqXqX9.=XjXjXkX=.q.^ q.h y p p p y u y u ",
"0X9X9X0X7XK.G.M.M.W e.M.G.6X7XqXeXeXrX0.kX=XoXjXkXy.{.[.[.|.[.6.pXjX;X+XjX@X%XeX7X7X9X7X%.sXjXjXaX%.Q e.h y u y y y u u y ",
"7X9X7X0X9XK.M.M.t.W t.G.G.6XqXqXeXrX8Xu.jX-.oXjXdXO.[.[.[.[.[.6.aXjXjXoXdXu.8XeXtX7X9X9XN.0.kX3XkX-Xb r.h y u s u y u y u ",
"9X9X7X7X7XJ.M.M.5.^ G.M.H.6XqXqXeXeXt.:XjX@.OXjX-XE.[.[.[.[.[.7.kXjXkXOXgX=.eXeXtXtX7X7X7Xq.@.+XjXjX4.0.1 ; r r r i y d y ",
"9X9X9X9X7XJ.M.G.5.[ p.p.J.7XqXqXtXtX0.aXjX@.&XjX+X~.[.[.[.[.`.W.jXjX-X=XaX0.eXqXtX7X9X7X7X9.u.jXjXjXwX~ h ( %.^ M , % & & ",
"9X7X7X7X7XJ.M.M.^ w.G.p.J.qXqXeXqX6X=.jXkX@.&XjXu.`.[.[.[.[.`.(.jXjXOXgX=Xa.rXqX9X9X7X9Xq.b.jXjXjXjX-.P 8.4XtXeXeXs.h = = ",
"9X6X7X6XK.H.M.M.W e.M.G.K.qXqXqXqXu.=XjXsX-.=XkX*.{.[.[.[.[.`.(.jXsXOXjX-.8XeXqX9X9XqX/ K /.(.dXjXgX%.M.5X7X7XtXqXqXt.1 w ",
"0X6X6X7X6XG.p.t.W t.p.M.K.0X0X0X7X%.dXjX;X@X=XsX7.|.[.[.[.|.^.;XjX+XsXdX=.eXeXeX0X0X5.h !  .6.! pXoXP ^ / [ [ %.i.6XH.v 9 ",
"6X6X7X6XK.G.M.t.W t.p.G.6X0X0X0X0.=XjXjXOX-X&X=XQ.[.[.[.[.[.E.sXkXOXjX;Xa.eXeXeX6XG b <X2Xn.U ~ %.%.s.4X8X8X8XN.%.[ N.M q ",
"K.6X6XK.K.G.p.t.W M.p.M.6X7X0Xs.=.jXjXgXOXsX&X(.`.[.[.[.|.[.7.kXpX=XjXb.8XtXeXs.| S m.1X2X1XE %.P i.qX9X0XqX9XqXtX9.~ g q ",
"6X6X6XK.H.G.p.e.W M.M.M.K.7X6X0.dXjXjXpX=XkXpX*.{.[.[.[.[.{.7.kXOXaXkX=.tXtXi.| Y.n n.1X1X2X' ^ M.qX9X7X7X0X9X9XtX6XP v H ",
"6XK.K.J.G.G.M.e.Q G.M.M.H.6X9.;XjXjXkX=.sXjXsX7.[.[.[.|.|.`.(.gX&XjXpXu.eX(.5.x.f.b ,X1X1X2X] %X9X9X7X7X9X9X9XqXqX0X[ 2 l ",
"J.G.G.G.M.p.p.w.^ M.M.G.G.e.u.jXjXjXb.Y jXjX+XQ.[.[.[.[.|.^.:XjXkXjX+Xi.tX[ Y.c.F I <X1X1X2X#.N.9X9X9X7X9XqXqXqX7XK.^ N H ",
"p.p.p.p.M.p.M.w.Q G.M.M.e.%.gXjXjX-XP &XjXjXy.`.[.[.|.|.[.6.sXjXjXjX0.t.5.5.x.x.S ' 1X1X<Xn.#.N.9X7X7X9X9XqXqXqXK.K.Q z x ",
"p.G.p.p.p.M.M.r.Q G.M.i.[ pXjXjXaX@.[ dXjXaXO.|.[.[.|.|.[.7.kXjXjXjX} t.S Y.x.x.C ' 3.1.3.] #.N.9X9X7X7XqXqXqXqXK.H.M w 9 "
};
