/* XPM */
static char *frame21[] = {
/* columns rows colors chars-per-pixel */
"61 64 235 2 ",
"   c #231D13",
".  c #38271A",
"X  c #3E2E26",
"o  c #452B1C",
"O  c #4A321F",
"+  c #50371F",
"@  c #4B3123",
"#  c #473B2A",
"$  c #513821",
"%  c #55582E",
"&  c #595932",
"*  c #4D552F",
"=  c #6F5130",
"-  c #5A6233",
";  c #6A7939",
":  c #626D37",
">  c #4E534B",
",  c #5C6B4F",
"<  c #6B7A44",
"1  c #7B775A",
"2  c #6F714C",
"3  c #6E796D",
"4  c #5E6861",
"5  c #B57939",
"6  c #BC7E39",
"7  c #B77937",
"8  c #AA753A",
"9  c #856136",
"0  c #C07F39",
"q  c #957449",
"w  c #897A57",
"e  c #947C57",
"r  c #866B46",
"t  c #837E76",
"y  c #6E8039",
"u  c #73863B",
"i  c #768A3C",
"p  c #798E3F",
"a  c #7A903F",
"s  c #6E8043",
"d  c #728343",
"f  c #7A8E41",
"g  c #728448",
"h  c #7D9342",
"j  c #738156",
"k  c #7A8567",
"l  c #758671",
"z  c #BF803A",
"x  c #829443",
"c  c #968257",
"v  c #A7895F",
"b  c #A98B5F",
"n  c #B0905D",
"m  c #87867B",
"M  c #998C74",
"N  c #9A9477",
"B  c #8C8D6D",
"V  c #AA8C60",
"C  c #B59465",
"Z  c #B59569",
"A  c #A7967A",
"S  c #B49B7D",
"D  c #A4926B",
"F  c #A9A479",
"G  c #B2A27C",
"H  c #B9B97D",
"J  c #8DA17F",
"K  c #C4A168",
"L  c #698685",
"P  c #7C8E8A",
"I  c #779294",
"U  c #7DA3A7",
"Y  c #7598A0",
"T  c #8A9788",
"R  c #979687",
"E  c #889A97",
"W  c #989D98",
"Q  c #898D86",
"!  c #A39A88",
"~  c #A69D94",
"^  c #94AA8B",
"/  c #96A88A",
"(  c #98A996",
")  c #9DB493",
"_  c #9DB59D",
"`  c #89A193",
"'  c #A8A888",
"]  c #B7A984",
"[  c #BCB58D",
"{  c #A8A898",
"}  c #B5A999",
"|  c #A5BC9C",
" . c #A5B799",
".. c #BAB597",
"X. c #ACB68D",
"o. c #98AAA9",
"O. c #98B3AA",
"+. c #88AEB6",
"@. c #99B8B8",
"#. c #8DADAD",
"$. c #AAACA7",
"%. c #B5ACA2",
"&. c #B7AEA5",
"*. c #AAB7A6",
"=. c #B9B2A9",
"-. c #A7BBB8",
";. c #B5BCB3",
":. c #BBBAB7",
">. c #C6BB95",
",. c #DABA96",
"<. c #C8B08B",
"1. c #C3B5AB",
"2. c #C7B9AD",
"3. c #CBBDB3",
"4. c #C4BDB4",
"5. c #AAC19E",
"6. c #8CC7BD",
"7. c #96C4BC",
"8. c #ACC4A2",
"9. c #AEC6A8",
"0. c #B1C4AE",
"q. c #B4CCAC",
"w. c #B1CBA6",
"e. c #B6D1AA",
"r. c #B9D4AD",
"t. c #B7D4AB",
"y. c #B7C6B5",
"u. c #BAD4B6",
"i. c #BFDDB3",
"p. c #BDD2BB",
"a. c #BDD9BB",
"s. c #A4C3BE",
"d. c #D7C899",
"f. c #D4CD95",
"g. c #E9C69D",
"h. c #EBC89F",
"j. c #E5C29D",
"k. c #EFDE9F",
"l. c #E6D49B",
"z. c #F0DD9D",
"x. c #EAED9D",
"c. c #EFF19F",
"v. c #DCCEA1",
"b. c #C7C7B9",
"n. c #D4C4BA",
"m. c #D6C6BB",
"M. c #C1DEB4",
"N. c #C1DCBC",
"B. c #CFD0B4",
"V. c #ECC8A1",
"C. c #E4D4A4",
"Z. c #EFDEA3",
"A. c #EEDEAC",
"S. c #E7D9A7",
"D. c #F0DEA3",
"F. c #F0DFAA",
"G. c #C3E0B6",
"H. c #C6E3B9",
"J. c #C8E6BD",
"K. c #C9E8BF",
"L. c #EFE0AC",
"P. c #EFE0A7",
"I. c #F1E0A3",
"U. c #F0E0AD",
"Y. c #F1E1B0",
"T. c #DEE29A",
"R. c #98BEC5",
"E. c #8DBCC9",
"W. c #A0BFC0",
"Q. c #98C4C9",
"!. c #95D5C9",
"~. c #9CCBD6",
"^. c #99D8D6",
"/. c #8DD1C5",
"(. c #A4C5C8",
"). c #B7C9C5",
"_. c #A4D4DD",
"`. c #A2CDD6",
"'. c #99E8DA",
"]. c #9AF0DF",
"[. c #A9DAE7",
"{. c #9FF4E4",
"}. c #9DEDE0",
"|. c #AAE0EE",
" X c #A0F5E5",
".X c #ADE3F2",
"XX c #B4ECFB",
"oX c #B2E7F5",
"OX c #C5C5C3",
"+X c #C8C8C7",
"@X c #CCCDCB",
"#X c #C5C9C4",
"$X c #DCCCC2",
"%X c #D1CFC7",
"&X c #C4DDC2",
"*X c #CAD2CD",
"=X c #D1D2CE",
"-X c #D8D6C7",
";X c #D4D5D2",
":X c #DCDDDB",
">X c #D7DAD8",
",X c #CAD6D4",
"<X c #E1CEC3",
"1X c #E3D1C6",
"2X c #E6D4CA",
"3X c #E9D6CC",
"4X c #EBD8CE",
"5X c #E1DFD1",
"6X c #C6E2C4",
"7X c #C9E5C4",
"8X c #CCEAC3",
"9X c #CFEDCC",
"0X c #CBE5CA",
"qX c #D0EECE",
"wX c #CFF0CD",
"eX c #D0F0CF",
"rX c #D1EFD0",
"tX c #DEE0DC",
"yX c #D4F3D3",
"uX c #D8F5D6",
"iX c #E7E6DB",
"pX c #F7F7D6",
"aX c #CFEEEE",
"sX c #E4E4E3",
"dX c #ECECEB",
"fX c #E7E9E7",
"gX c #F0EFEA",
"hX c #F2F2EE",
"jX c #FCFCED",
"kX c #F4F4E6",
"lX c #F4F4F3",
"zX c #FFFFF2",
"xX c #FEFEFE",
"cX c #F8F7F7",
"vX c #EFF0EF",
/* pixels */
"e S C.D.D.D.D.Z.Z.A.A.P.L.A.A.A.A.A.A.A.A.A.A.A.A.A.A.Y.A.A.A.A.A.A.A.A.A.A.A.A.A.A.A.A.A.Y.F.F.S.C.>.>.<...[ ....[ >.>.d.",
"& w D d.D.D.Z.Z.Z.D.P.P.L.L.Y.A.A.S.A.A.A.A.A.A.A.A.A.Y.A.A.A.A.A.A.P.Z.C.A.A.A.A.A.F.F.S.v.>.....4.m.5XiXiXiXiXiXiXiX-Xb.",
"  . 2 e K A.D.D.Z.Z.Z.P.A.A.A.A.L.L.A.A.A.A.A.A.Y.Y.Y.B.A.A.A.A.A.Y.A.>.R S.A.S.A.Y.C.>...b.5XkXjXjXzXzXjXzXzXzXzXzXzXzXzX",
"w #   @ 2 ] D.Z.Z.Z.I.P.A.Y.A.A.L.L.A.S.A.A.A.A.f.v.L.L.A.A.A.A.L.S...@.o.S.L.Y.A.>...-XhXzXjXzXjXjXiX-Xb.b.4.4.4.n.-XiXkX",
"Z V r . # ,.I.D.Z.D.D.A.A.A.A.A.L.S.L.L.A.A.A.A.R ( A.Y.A.A.A.A.Z...Q.|.*.S.A.d...-XjXzXzXjXdX$X%.' ! M A M M M M M M M R ",
"C C Z e N P.D.D.Z.Z.Z.A.Y.A.A.A.L.L.L.L.A.A.A.C.$.Q.*.S.A.A.A.S.} (.XX[.*.A.>.b.kXzXjXjX%X} ! ! A N M M A S S S S S A A M ",
"C C C V G D.z.D.D.Z.A.A.A.A.A.A.S.L.A.A.A.A.A.C.O.oX@.d.A.Y.A...(.XXXX[.} >.B.zXjXjX5X} ! ! A e A ] ,.j.g.g.V.g.g.h.g.g.j.",
"C C C V F z.D.D.Z.A.A.A.Y.A.A.A.A.A.A.A.A.A.A.C.@.XXoX@...Y...(.XXoXXX~.T -XjXzXjXn.R ! A D ] ,.V.V.j.j.g.g.g.g.g.g.g.g.g.",
"C C C b G I.Z.Z.A.F.A.A.A.A.Y.A.A.A.A.A.A.A.A.v.$.XXXXoXR.W $.oXXXXXXX~.;.zXzXkX=.N ' M ! j.V.g.g.g.g.g.g.g.g.g.g.g.g.g.g.",
"C C C b G P.A.Z.F.A.A.A.Y.A.A.A.A.A.A.S.A.Y.A.S.{ oXXXXXXX_.|.oXXXoXXX~.,XzXkX} A ' e <.V.V.g.g.g.g.g.g.g.g.g.g.g.g.g.g.g.",
"C C C v G Z.Z.Z.D.P.A.Y.A.A.A.A.A.A.Y.] ' >.v.v.{ [.XXXX.X|.[..XXXXXXX[.$.*X~ t Q 3 3 e Z <.<.j.j.h.h.h.g.g.g.g.g.g.g.g.g.",
"C C C v G I.Z.Z.D.Z.A.A.A.A.A.A.A.A.A.>.#.~.R.R.@..X.XR.o.$.$.$.@.~.oXXX[._.~._.[.[.l < ; ; ; ; 1 v Z <.<.,.j.g.h.h.g.h.g.",
"C C C v S I.k.Z.Z.D.A.A.A.Y.A.A.A.A.A.A.} [.XXXXXX~.I &.2X4X3X1Xm.=.o.[.XXXXXXXXXXE.< u u i u u y ; ; ; ; 2 c B Z <.<.,.j.",
"C C C v G I.Z.I.Z.A.A.A.A.A.A.A.Y.L.A.A.d.o.XXXX~.U +.R.$.3X3X3X4X4Xm.$.[.XXXXXX|.l y u u i i u i i i i p i i u ; ; < < w ",
"C C C v G k.Z.Z.D.P.A.A.Y.L.A.A.L.L.A.A.L...`.|.Y o.$.@.R.$.3X3X4X4X4Xm.$..XXXXXU * - * * % % ; i u i i i i i p h f a a i ",
"C C C b G I.k.D.Z.Z.A.A.A.A.A.A.A.A.A.A.F.S.( _.W <X4X1.@.R.$.$X<X<X1X4X=.`.XX|.3 = = = = = . * u u u u u i p p f h a a x ",
"C C C b G I.z.I.D.Z.Z.L.A.P.F.A.A.A.F.U.S.[ R.Q.=.4X4X3X4.o.R.+.+.o.o.$X$X@.XX~.1 5 z z 6 5 + # ; u u u i i i a a a h h h ",
"C C C v G z.k.I.Z.Z.Z.P.L.L.A.A.Y.A.C...{ `.|.#.&.3X4X3.$X1.o.$.o.o.E $X1X$.oXoXQ.T q 5 0 5 + @ - i u u u i i a h h h h h ",
"C C C v G I.k.Z.Z.Z.Z.Z.A.L.L.A.A.Y.d.Q `.XX~.=.4X3X3Xn.~ &.1X<X1X2X%.3.4X$..XXXXXoXE.m q 5 $ @ & u u u u i a a h h h h x ",
"C C C v G I.k.k.Z.D.Z.Z.F.P.A.A.Y.A.A.C.} `.+.Q &.=.=.&.t Q ~ 1.=.1.~ } 4X&.[.XXXXXXXX_.3 9 $ @ & u u u i i a h h h x x x ",
"C C Z v ] I.z.Z.Z.D.Z.D.F.Z.A.A.A.A.A.Y.Z.} #.@XcXcXcXdXW 4.:XlXlXvXsX&.4X&.[.XXXX~.E w 8 5 $ @ & u u u i i a x h x x x x ",
"Z C C b G D.k.k.Z.z.Z.Z.Z.Z.I.P.A.A.Y.F.F.d.W -.lXcXcX+X&.:.xXxXxXxX@X3.3X&.[.[.E q 8 6 z 5 $ @ & u u i u x a a h x x x x ",
"C C Z b G z.k.k.Z.k.D.A.F.D.P.A.A.F.F.F.C.{ _.E &.4.=.R 1X3.1.=X;XOX=.2X4X$.[.[.m 8 n 0 6 5 @ @ & i i i i p x a h x x x x ",
"C C Z V G I.Z.k.k.D.Z.Z.D.A.U.F.F.A.F.d.( [.|.I ~ } &.&.m.$X1X3.2.3.1.3.4X$.oXXX.XE q 7 6 5 $ @ & i i i i x a x h x x x x ",
"C C C v G I.I.I.z.k.D.D.F.Z.P.F.A.A.Y.] ( (.+.R $Xm.2.1.&.3.4X3.} } 1.1X2XR R.oXXXXXE.w 8 6 $ @ % i i i f h h h x x x x x ",
"C C C v G I.z.z.z.z.z.z.D.Z.F.A.A.F.Y.F.C.>.R ~ 1X4X3.~ &.3X4X3X2X3X4X3X<X} %._.XX|.E.4 = = . @ & u i i h h x h x x x x x ",
"C C C b G z.z.z.z.z.z.D.D.Z.F.F.A.Y.A.A.F.Y.! m 1X4X4X3.1X3X3X3X4X3X3X3Xn.&.&.R.L > X . . . . o & d i f h h x x x x x x x ",
"Z C C v G z.z.z.z.z.z.D.D.D.F.F.A.F.A.F.F.>.o.#.1X4X4X4X3X3X3X3X2X3X3X4X1.W @._.* o o . o o o . % i i f h h x x x x x x x ",
"Z Z C v G I.k.k.k.k.z.I.D.Z.D.A.F.A.A.F.A.] R I <X4X3.3.3X3X3X3X4X3X3X4X%.R.[..XI - : ; ; ; ; y u i p f h x x x h h f h x ",
"C C C v G I.Z.k.D.D.Z.Z.D.k.D.A.F.A.Z.A.A.A.[ I 3.4X1.1.3.1.2X3X2X2X4X<Xo.L 3 3 , ; y y y y y i i p f h h x x f f < & < f ",
"C C C v ] I.I.I.Z.Z.Z.Z.Z.D.A.Z.F.F.A.A.A.A.[ ' } 4X1.t } } 1X3X4X3X4X&.Q.Y ; ; j N , 4 > : i u i a h h x x x f 3 l P T l ",
"C C C v G I.I.Z.k.Z.D.Z.Z.A.F.U.A.A.A.F.A.A.Y.A.} 3.1X3.~ } 2X3X3X4Xm.t T 3 ; ; ..qX@.^.l , i i i f h h x x x f Q aXaX>XE ",
"C C Z V H z.z.z.k.Z.x.I.A.Z.A.Z.L.P.F.F.A.Z.S.C.d.A 1.3Xn.$X4X4X3X2.W ! ! : y ; ..-X7.^.L , u i p f h h x x x d T aXaXaXQ ",
"M c B e M >.,.d.d.l.l.l.Z.F.U.Z.v.>.] X.'  .} | *.*. .} 1.m.m.4.' $.9.*. .B k k R  .` 6.4 , u p p h h h h h x h 3 ( E T l ",
"&X&X&XN.N.N.q.8. ... .' ' ] [ ' / 8.u.G.7X9XyXyXyXyXuXa.R 1...1.~ y.p.y.y.0.wXyX9X7X).y.O.m j y f h h h h h h f B B.b.B...",
"uXuXuXuXuXrXyXyXyXeX9XG.i.) / r.M.J.8X8X9XyXyXyXuXyX7X*.{ 2X3Xm.m :.>X:XsX;X*.yXyXuXuXuXyXqX7X5.k g h x h h h f X.pXpXpXb.",
"uXuXrXiXyXyXqXqXqXqXJ.M.i.^ e.M.G.K.8XeXyXyXyX9Xu.0.;.W ` #.o.O.#.;XxXxXxXxX>Xy.yXuXuXuXyXrXeXqXK.| , p h h h u >.pXpXpXB.",
"uXrXyXyXyXyXeXqXqX8XH.M.w.) i.i.H.K.8XeXyXyXeX9.;XcX;X$.'.].].{./.OX:XxXxXxXxX+Xp.uXyXrXeXrXqX9XJ.H.T < p a f u { K.B.B.' ",
"uXuXyXyXqXeXrXrXqX7XM.M.^ w.i.G.K.8XeXeXyXyX&XOXxXlXOX-.'.{.{.{.6.tXOXxXxXxXxXcX:.&XuXyXeXeXqX9XJ.G.8.^ s f h p < d d d s ",
"uXuXyXyXyXqXqXqX8XH.M.r./ i.i.G.8XeXeXyXyXyXq.sXxX=XtX-.].{.{.{./.fX@XdXsXlXxXxXdX;.eXyXeX9X9X9XK.G.w.) l f f f a h h a h ",
"uXyXyXyXqXqXqXqX8XM.M.w.) i.M.H.9XeXeXyXyXwX9.fXdX+XhX-.{.{.{.{.6.vXtX>XdX:.cXxXxX:X0.yXeX9X9X9XK.G.w.| ) d a h h h h h h ",
"rXuXyXeXqXqXeX8XH.M.G.) 5.i.M.8XeXeXyXyXuX8X$.=X@XfXsX7.{.{.{.{.7.lXcXOXxX:.:.xXxXxX@Xp.yX9XeX9X8XG.w.) 8.g h h h h h h h ",
"uXyXyXeXwXwXeX8XG.M.i.^ e.M.G.8XeXeXeXuXuXp.y.OXOXxX;X/.{.{.{.{.Q.cXxX@XlX@XO.>XxXxXcX;.6XwXqXqX8XH.8.| w.g h h h x h h x ",
"uXqXeXqX9XeX9XJ.G.i.t./ i.M.J.9XeXeXeXyXrX0.@X$.dXxX#X^.{. X{.{.7.cXxX;XsX;Xu.;.lXxXxXsX;.8XqX8XK.H.5.| 8.g h h h h h h h ",
"yXeXqXqXwXeX9XH.M.G.w.) i.G.8XqX9XrXrXuX0Xy.@X$.cXxX-.'.{.{.{.'.s.zXxXsX>X>Xb.6Xy.xXxXxX;Xy.qX8XK.H.5.5.| d h h h h h h h ",
"uXeXeXqX9XwX8XG.i.G.) 5.G.G.8X9XyXrXyXuXp.;X@XOXiXxX-.{.{.{.{.'.(.xXxX@XtX:Xp.uXy.@XxXxXxXy.a.8XK.H.5.8.) d h h h h h h h ",
"yXeXeXeXwXqX7XG.M.i.^ e.i.G.8X9X9XeXrXuX0.sXOXfX+XdX7.{.{.{.{.'.).xX;X=XxX:Xp.uXyX0.tXxXxXlX;.N.8XH.) w.^ d h f f h h h h ",
"yXeXeXeX9XqXH.M.i.t.^ i.M.H.9XeXeXyXuXrXy.vX+XlX:.=XQ.{.{.{.{.'.).;X=XxXxX>XN.uXyX9X;.vXxXxXtX*.J.H. .q.J f h f h f f f h ",
"eXeXqXqXwX9XH.M.G.8. .i.M.H.qXeXyXyXyX&X#XvXOXOX:X@X!. X{. X X/.*XOXdXxXxX;Xp.uXyXyXa.OXxXxXxX@X9.H.) q.J i a a p p a a p ",
"eXeXeXqXwX8XG.M.G.) 5.M.G.J.qXeXyXyXuXu.tXsX$.tXxX).'.{. X{.{./.>XdXOXcXxX@X&XyXyXeX9Xq.;XxXxXcX;.e.) e.l u p i p i i a p ",
"wX9X9XwXwX8XG.M.i.^ e.M.G.8XqXqXyXyXyX0.cX;XOXxXxX-. X X{. X X6.fXxX>X=XxX+X&XyXeXeXqX8X*.fXxXxXdX*./ e.k i p p i i i i i ",
"qXqX9XwX9X8XM.i.t.^ M.i.G.8XqXeXyXyX0Xy.xX:.OXxXdX@.}. X X X X6.vXxXxXOXvXy.0XyXeXeXqXqXN.0.cXsXcX:Xm r.k i p p p i p i p ",
"qXqX9XqX9XJ.M.G.8.) M.M.H.8XeXeXeXyXu.,XxX$.+XxXtXQ.{.{.{.{.{.7.lXxXcXOXlX:.rXyXeX9XqX9X9Xe.$.@XxXxXy.9.1 y y y y ; p d i ",
"qXqXqXqXqXJ.M.M.5.| M.M.H.qXeXyXeXeX0.vXxX$.@XxX*X!.{.{.{.{.{.s.xXxX:X>XdX0.yXyXrXqX9X9XwX9.y.cXxXxX:X( 3 / *.) B , % & & ",
"qXqX9X9X8XH.M.G.) 8.M.M.J.qXyXeXyX7X;.xXcX$.=XxX;.'.{.{.{.{.'.(.xXxXOXlX=XN.yXeXqXqXqXqX0.b.xXxXxXxX:.T 5.7XwXyXwXa.l = = ",
"9X8X8X9X8XH.M.i.^ e.M.M.K.qXyXqXeXu.;XxXdX:.;XcX-.{.{.{.{.{.'.).xXsX@XxX:.qXyXeXeXeXeXO.P (.).vXxXlX*.H.K.9X9XyXyXeXu.1 r ",
"wX8X8X9XK.H.i.i.^ r.i.M.K.wXwXeXwX*.hXxX:XOX;XdX7. X{.{. X{./.>XxX@XsXlX;.yXyXyXwX9X8.m ` #.6.` fXOXT ) _ _ | 8.u.8XH.k q ",
"8X9X8X8XK.G.i.r.^ i.M.M.8XwXwXeX0.=XxXxX@X:X@X=X!. X X X{.{./.sXcXOXxX>Xp.yXyXyX6X^ m $X3Xm.E ( $.$.a.6X8X9X7X).*.| i.B c ",
"K.8X8X8XK.H.i.t./ i.i.G.8XqXeXa.:.xXxXlXOXdX@X).'. X{.{. X{.7.cXsX;XxXOX0XyXyXa.' F 3.3X3X3X~ 9./ u.rXqX9XeXeXeXwX9.) 1 e ",
"8XK.K.J.H.G.i.t.^ G.M.G.8XqX8X*.vXxXxXsX;XcXsX-.].{.{.{.{.].7.xX+XdXcX;.wXyXu.X.T.N <X3X3X3X{ ) u.9X9XqXeX9XeXrXwX8XT B K ",
"8XK.K.J.G.G.i.e.( M.M.M.H.8X9.>XxXxXcX;.fXxXfX7. X X X X X'.).lX@XxXsXy.yX).X.c.f.B <X3X3X3X%.&XwXqX9X9X9XeX9XeXyX8X .2 c ",
"H.H.G.G.G.i.M.w.) M.M.M.G.w.y.xXxXxXOXW xXxX*X!. X}. X X X/.,XxXxXxX@Xu.wX| T.c.H R 2X2X3X3X%.N.qX9X9X9XqX9XeXeXqX8X .D K ",
"i.i.M.M.G.i.M.e.^ G.M.M.t.*.lXxXxX:XT =XxXxX;.'.{.{. X{.{.6.fXxXxXxXy.r.8.5.x.x.F { 2X2X2X$X&.N.eXqX9X9X9XeXeXeX8XJ./ v n ",
"i.M.i.i.i.i.i.e.^ M.i.i. .sXxXxXvX{  .hXxXdX@.{.{.{. X X].7.cXxXxXxX*.t.F T.x.x.A { 3.2.2.&.&.N.qX9X9XqXqXeXeXeX8XH.B r q "
};
