/* XPM */
static char *frame3[] = {
/* columns rows colors chars-per-pixel */
"61 64 232 2 ",
"   c #241C13",
".  c #39261A",
"X  c #3E2E26",
"o  c #462B1B",
"O  c #47301E",
"+  c #4C3123",
"@  c #483B29",
"#  c #513820",
"$  c #443D30",
"%  c #595932",
"&  c #4E562E",
"*  c #705130",
"=  c #5A6232",
"-  c #6B7C3A",
";  c #687737",
":  c #626C36",
">  c #4E534B",
",  c #5C6A4E",
"<  c #6B7A44",
"1  c #7C7558",
"2  c #6E714B",
"3  c #59706E",
"4  c #71796E",
"5  c #6E5D44",
"6  c #B57939",
"7  c #BC7D39",
"8  c #AA753A",
"9  c #856138",
"0  c #897B56",
"q  c #957D56",
"w  c #927248",
"e  c #837D76",
"r  c #6E8139",
"t  c #73863B",
"y  c #758A3C",
"u  c #788E3F",
"i  c #708237",
"p  c #7A903F",
"a  c #6F8044",
"s  c #728443",
"d  c #7A8D41",
"f  c #738645",
"g  c #7D9342",
"h  c #738157",
"j  c #798667",
"k  c #728573",
"l  c #BE803A",
"z  c #829443",
"x  c #9E8358",
"c  c #A7895F",
"v  c #A98B5F",
"b  c #B0905E",
"n  c #968665",
"m  c #85867A",
"M  c #998C73",
"N  c #849676",
"B  c #9A9476",
"V  c #848B6C",
"C  c #A98B60",
"Z  c #B59465",
"A  c #B59568",
"S  c #A79679",
"D  c #B39C7D",
"F  c #A69169",
"G  c #A8A479",
"H  c #B2A27B",
"J  c #B7A87F",
"K  c #BAB97E",
"L  c #8CA17E",
"P  c #C4A168",
"I  c #7C8B86",
"U  c #728C8E",
"Y  c #7CA4A9",
"T  c #8A9687",
"R  c #979588",
"E  c #889A98",
"W  c #91938D",
"Q  c #A49A86",
"!  c #A69D94",
"~  c #95AA8B",
"^  c #95A688",
"/  c #99A896",
"(  c #9DB493",
")  c #9EB59A",
"_  c #89A492",
"`  c #A8A888",
"'  c #B8A884",
"]  c #ACB48C",
"[  c #BBB48D",
"{  c #ADA399",
"}  c #A8A997",
"|  c #B4A999",
" . c #A5BB9B",
".. c #A6B698",
"X. c #B9B597",
"o. c #89A7A5",
"O. c #99ABA9",
"+. c #98B3AB",
"@. c #89ACB4",
"#. c #8DB3BA",
"$. c #98B9B8",
"%. c #91B0AD",
"&. c #AAABA6",
"*. c #B5ADA2",
"=. c #B8ADA3",
"-. c #AAB6A7",
";. c #BBB2AA",
":. c #B6B4A9",
">. c #A6BCB9",
",. c #B5BCB4",
"<. c #BCBEBA",
"1. c #B9B9B4",
"2. c #C6BB95",
"3. c #DBBB96",
"4. c #C9B28C",
"5. c #C3B6AC",
"6. c #C7BAAE",
"7. c #C9BDB3",
"8. c #A9C29D",
"9. c #8DC7BE",
"0. c #97C3BC",
"q. c #ACC5A2",
"w. c #AEC7A6",
"e. c #B2CDA6",
"r. c #B1C3AD",
"t. c #B4CCAC",
"y. c #B1C4A5",
"u. c #B6D3AB",
"i. c #B8D5AD",
"p. c #A6C5BB",
"a. c #B7C6B5",
"s. c #BBD4B6",
"d. c #BFDDB3",
"f. c #BCD3BA",
"g. c #BDD8BB",
"h. c #D7C99A",
"j. c #D4CD94",
"k. c #E9C69D",
"l. c #EBC89E",
"z. c #E5C39C",
"x. c #EFDE9E",
"c. c #E5D49B",
"v. c #F0DD9D",
"b. c #E9EC9D",
"n. c #CAC6B7",
"m. c #D4C5BA",
"M. c #D7C8BC",
"N. c #C1DFB4",
"B. c #C1DABD",
"V. c #D3CFB0",
"C. c #ECC9A0",
"Z. c #E4D5A4",
"A. c #EFDEA3",
"S. c #EEDEAB",
"D. c #E7D9A8",
"F. c #F0DEA3",
"G. c #F0DEA9",
"H. c #C3E1B6",
"J. c #C6E3BA",
"K. c #C8E6BD",
"L. c #CAE8BF",
"P. c #EFE0AC",
"I. c #F1E0A3",
"U. c #F0E0AC",
"Y. c #EFE9A8",
"T. c #DEE29B",
"R. c #99BDC4",
"E. c #8DBCC9",
"W. c #A1BEC0",
"Q. c #9AC4C8",
"!. c #95D6C9",
"~. c #9CCBD7",
"^. c #99D9D4",
"/. c #8DD0C5",
"(. c #A5C6C9",
"). c #B8C8C4",
"_. c #A4D4DD",
"`. c #A2CCD6",
"'. c #99E9DA",
"]. c #9AF0DF",
"[. c #AADEEC",
"{. c #A7D8E5",
"}. c #9FF4E3",
"|. c #9DEFE0",
" X c #ABE0EE",
".X c #A0F5E5",
"XX c #ADE4F3",
"oX c #B4ECFA",
"OX c #B1E7F5",
"+X c #B1E2EF",
"@X c #C6C5C3",
"#X c #C8C8C6",
"$X c #CCCDCB",
"%X c #C6CAC5",
"&X c #DDCCC2",
"*X c #D0CFC2",
"=X c #C7D7C8",
"-X c #D1D2CE",
";X c #D9D5C7",
":X c #D4D5D2",
">X c #DCDCDB",
",X c #D6DBD9",
"<X c #CBD5D3",
"1X c #E0CEC3",
"2X c #E5D4CA",
"3X c #E9D6CB",
"4X c #EBD8CD",
"5X c #E4D2C6",
"6X c #E1DFD0",
"7X c #C6E1C4",
"8X c #CCEAC4",
"9X c #CFEDCB",
"0X c #C9E5C7",
"qX c #D0EECD",
"wX c #CFF0CD",
"eX c #D1F0CF",
"rX c #D5EAD4",
"tX c #D4F3D3",
"yX c #D8F5D6",
"uX c #E7E7DB",
"iX c #F6F7D6",
"pX c #CFEEEE",
"aX c #E4E4E3",
"sX c #ECECEB",
"dX c #E7E9E7",
"fX c #F2F2EE",
"gX c #FCFCED",
"hX c #F5F4E6",
"jX c #F4F4F3",
"kX c #FEFEF2",
"lX c #FEFEFE",
"zX c #EFF0EA",
/* pixels */
"q D D.G.F.F.F.A.A.A.G.P.S.S.S.S.S.S.S.S.S.S.S.S.S.S.S.S.S.P.P.S.P.S.P.S.S.S.S.S.P.P.S.G.S.P.G.P.D.h.j.4.[ [ X.4.X.X.[ 2.h.",
"% 0 F h.F.b.F.A.A.A.S.G.U.P.S.S.S.S.S.S.S.S.S.S.S.S.S.S.D.S.S.S.S.P.P.P.Z.S.S.S.P.P.P.P.D.h.2.[ 5.6.M.rXuXuXuXuXuXuXuX;Xn.",
"  . 5 q 4.x.v.A.A.A.A.S.U.S.S.S.S.S.S.S.S.S.S.S.P.P.S.S.S.S.S.S.S.S.S.2.R D.D.P.U.U.D.2.;.n.6XhXgXkXkXkXgXkXkXkXkXkXkXkXkX",
"0 @   $ 5 J I.A.A.A.G.G.P.P.S.S.S.S.S.S.S.S.S.S.2.Z.L.S.S.S.S.P.S.S.X.#.O.D.P.P.D.2.X.;XgXgXgXkXgXhXuX;Xn.n.<.7.n.n.;XuXhX",
"Z b w . $ 2.I.A.A.F.G.G.P.P.P.P.S.S.S.S.S.S.S.S.Q / D.P.D.S.S.P.D.X.R. X+.G.S.h.X.;XhXkXkXgXuX*X*.` Q M S M M M M M M M R ",
"Z Z A q M A.A.A.A.F.S.G.P.S.S.S.S.S.S.S.S.S.S.D.&.Q.:.S.S.S.S.D.[ Q.oX[...U.2.n.hXkXgXgX*X| Q D S B M M S D D D D Q S S F ",
"Z Z Z C H I.x.A.S.F.G.S.S.S.S.S.D.S.S.S.S.S.P.Z.+.OX$.h.S.P.P.[ Q.oXoX{.X.2.M.gXgXgXuX{ Q Q S e S ' 3.z.z.C.C.C.C.C.C.k.z.",
"Z Z Z C D I.F.I.A.S.S.P.P.S.S.S.S.S.P.S.S.D.P.h.>.oXXX#.:.P.2.0.oXoXoX~.T *XkXkXgXn.R H S M ' 3.k.C.z.k.C.z.z.k.k.k.k.k.k.",
"Z Z Z v H U.A.A.S.G.S.G.P.P.S.S.S.S.S.S.S.S.P.Z.O.oXoXoXE.! O.OXoXOXoX~.,.kXgXhX:.B ` M D 3.C.k.k.k.k.k.k.k.k.k.k.k.k.k.k.",
"Z Z Z v D I.S.U.G.S.G.S.P.P.S.S.S.S.S.D.S.P.P.D.} XXoXoXoX_. XOXoXoXoX_.$XkXhX| Q D n 4.C.k.C.k.k.k.k.k.k.k.k.k.k.k.k.k.k.",
"Z Z Z v H b.A.F.G.S.S.S.S.S.S.S.P.P.P.` } 2.h.h.} {.oXoXOX X[.XXoXoXoX{.>.$X! e T 4 4 q A 4.4.h.z.l.C.l.k.k.k.k.k.k.k.k.k.",
"Z Z Z v D F.A.A.A.A.S.S.S.S.S.S.P.P.U.2.@.`.R.R.$.+X XR.O.&.&.&.$.~.XXOX{._.~._.[.{.4 - ; ; ; w 0 n D P 4.3.k.k.C.k.k.k.k.",
"Z Z Z c D I.x.A.G.G.P.S.S.S.S.S.P.P.S.S.| [.oXoXoX{.O.7.2X4X4X5XM.;.O.{.oXoXoXoXoXE.< t t t i i i r ; - - 1 0 n A 4.4.3.z.",
"Z Z Z c D v.A.A.A.P.P.P.S.S.P.P.P.P.S.S.h.+.OXoX[.O.1X4X2X3X3X3X3X4XM.&.{.oXoXoX X4 t y t y t i t t y y u y y i - - - < 0 ",
"Z Z Z v D b.A.A.G.S.S.P.P.P.P.P.P.P.S.S.U.X.~.OXR.#X4X4X2X3X4X4X4X4X4XM.&.+XOXoXY & = & & & & ; t t t y y u u u y d u p y ",
"Z Z Z v D F.x.v.A.G.S.S.S.S.S.P.G.S.S.G.U.Z.! ~.E &.1.&.1.&.=.;.;.;.#X4X5.`.oX X3 * * * * 9 . & y t t t y t u u d d p p z ",
"Z Z Z v H I.v.F.A.A.A.G.S.G.S.S.S.G.A.P.D.[ (.Y U E.E.@.#.#.@.@.@.@.E 5X&XO.oX~.1 6 l 7 7 6 # + - y t y y y y y p g g g g ",
"Z Z Z v H v.A.F.A.A.S.S.P.P.S.S.S.S.Z.X.&.Q.XXo.! m.7.{ 5.5.5.m.7.6.5.4X2X&.OXOX~.T w 6 7 6 # + = y t t y y y p g g g g z ",
"Z Z Z v H v.x.F.x.F.A.S.A.P.S.S.S.P.h.W `.oX~.;.4X4X4X7.{ { 1X4X4X3X=.7.2X&.+XoXOXXXQ.m w 6 # + % t i t t y p p g g z g g ",
"Z b Z v J I.x.A.A.A.F.G.U.U.G.S.S.S.P.Z.| `.@.W { ;.5.=.e W ! =.;.;.! *.4X&.{.oXoXoXoX_.4 9 # + % t t t y y p g g g z z z ",
"Z Z Z v H I.x.x.A.v.A.A.A.A.G.G.P.S.S.P.D.| o.<XsXjXjXjX! <.>XjXjXjX>X;.4X:.{.oXoX~.E 0 8 6 # + % t y t y y p z z z z z z ",
"Z Z Z v J F.x.v.x.F.A.A.A.F.P.S.S.S.P.S.G.h.o.>.jXlXlX#X=.5.lXlXlXlX$X7.4X*.{.[.E w 8 7 7 6 # + % t i y t z p p z z z z z ",
"Z Z Z v H I.x.x.x.x.A.P.G.G.P.S.P.S.S.P.Z.} _.E ;.1.;.W 2X7.5.:X:X#X;.2X3X&.[.[.I 8 7 7 7 6 # + % t t y y u z z g z z z z ",
"Z Z Z v H I.x.x.A.x.A.A.A.F.P.G.S.P.S.h.} _. XW { { =.=.&Xm.1X7.6.7.5.7.3X&.+XoX[.o.w 7 7 7 # + % z y y u z p z g z z z z ",
"Z Z Z C H I.v.v.A.x.x.v.F.S.A.G.S.S.S.[ / R.#.W 1Xm.6.5.=.7.4Xm.| | 5.5X5XW R.oXoXoXE.0 8 6 # + % y y y g g z g z z z z z ",
"Z Z Z C H I.v.v.v.v.v.F.A.F.F.S.S.S.G.G.D.2.R ! 5X4X7.! =.3X3X3X3X3X4X3X1X{ =._.oX XE.3 * * . o % t y y g g g z z z z z z ",
"Z Z Z C H I.v.v.v.v.v.F.G.F.G.G.G.S.S.G.S.P.Q m M.4X4XM.3X4X3X3X3X3X3X4Xm.5.5.R.U > X . . . . o % f y d d g g z z z z z z ",
"A Z Z c H I.v.v.v.v.v.F.F.F.G.G.S.S.S.S.G.2.O.U ! 6.6.6.7.7.1X3X5X&X3X4X5.W $.`.& o . X o o o . = y t g g g g z z z z z z ",
"A Z Z c H I.v.v.v.x.F.A.F.A.F.P.S.S.S.S.S.' W T 5.5.6.6.5.5.=.{ 5.{ 5X4X{ R.[.XXU = : ; ; ; ; ; i y y g z z z z z z u z z ",
"Z Z Z c ' I.A.x.A.A.A.x.v.x.A.F.S.S.G.S.S.S.' U ! 3X4X4X3X3X4X7.! { 1XM.O.U 1 4 , ; r r i i y y y y p g z z z z f - % < d ",
"Z Z Z v J I.x.A.A.A.A.A.A.A.P.S.G.S.G.G.S.S.X.` { 3X3X3X3X3X3X5Xm.M.3X=.Q.Y ; - h B 2 3 > : y y y u g g z z z f 1 k T I k ",
"Z Z Z n J F.A.v.x.A.x.F.S.G.G.U.S.S.G.G.S.S.G.U.4.7.4X3X3X3X3X3X4X4Xm.e E 3 ; ; X.6X%.^.k , y y y g g g z z z s T pXpXpXW ",
"Z Z Z C J v.F.v.x.A.I.I.G.F.S.I.P.P.G.G.S.A.D.Z.h.S 5.3X4X4X4X4X4X6.! R Q : i ; X.;X0.^.U , y y u g g z z z z s T pXpXpXT ",
"n n n q B j.4.j.j.c.c.D.A.U.U.A.h.2.' ] ] ] ..-.-.-.....5.m.m.6.! ..y.-.} N V j ^ } E 9.3 % t p p g z g z z z g 4 / E T k ",
"=X7X=XB.B.B.a.q...X.] ` ` ` [ ` } 8.s.N.7XqXtXtXyXyXyXg.R ;.X.5.! s.f.a.t.r.wXtX9X0XB.p.+.N h a d g g z z g g p V V.n.V.X.",
"yXtXyXyXyXeXtXtXtXtX8XJ.N.( ^ i.H.K.8X8X9XtXtXyXyXtX0X-.{ 3X4XM.m 1.>X>XaX:X-.eXyXyXyXtXtXeX7X .j f g g z g g f ] iXiXiXn.",
"yXyXyXtXyXtXeXeX9X9XK.N.d.~ i.d.H.K.8XwXwXtXtX0Xs.,.a.! Y / +.%.o.:XlXlXlXlX,Xa.tXyXtXtXeXeXqXqXK. ., y g g g t ;.iXiXiXV.",
"yXtXyXtXrXeXqXeXeX9XJ.N.8.( H.d.J.8XwXeXtXtXtXq.:XjX<X&.^.}.'.}./.).>XlXlXlXlX#Xs.yXtXtXeXwXqX9XK.H.^ , u g g r ] 8XV.V.` ",
"yXyXeXtXeXeXeXqXqX8XN.N.~ e.H.d.K.8XwXeXeXyX=X%XlXjX@X>.'.}.}.}./.>X#XlXlXlXlXlX<.=XtXtXeXwXqX9XK.H.q.^ a g g y < s s < a ",
"tXtXyXtXeXeXqXqX8XJ.N.u.~ d.d.H.8XeXeXeXyXyXt.aXlX-X>X>.].}.}.}./.sX$XsXaXfXlXlXsX,.qXtXeXeXqX9XK.H.e.( k d g u p p g g g ",
"yXeXtXtXqXeXeXqXK.H.H.8.( H.d.K.wXeXeXtXtXtX-.dXsX#XsX>.}.}.}.}.9.jX>X,XsX<.jXlXlX>Xa.tXeXqXqX9XL.H.e.) ( a g g z p g g g ",
"yXtXtXeX9XwX9X9XK.H.H.( 8.d.H.L.9XeXtXtXyX0X-.:X$XdXdX0..X}.}.}.0.jXjX#XlX1.1.lXlXlX#Xf.tXeXqX9X8XH.e.) q.f g g g z g g g ",
"yXyXtXqXwXwX9X8XH.d.d.~ u.d.J.L.eXtXeXtXyXf.<.#X@XlX:X/..X.X.X}.0.jXlX$XjX$X) >XlXlXjX,.0XeXeX8X8XJ.q. .e.f g g g g g g g ",
"tXeXqXqXqXeX9XK.H.d.i.~ d.d.K.9XqXeXtXtXtXr.#X&.sXlX#X^..X.X}.}.0.lXlX:XaX:Xf.r.jXlXlXsX-.9XeX9XL.J.8.8.q.a g g g z z g z ",
"tXtXeXqXqXwX9XJ.H.H.8.~ d.H.8XqXtXeXtXyX9Xa.#X&.jXlX,.].}.}.].'.p.lXlXaX,X>XB.=Xa.lXlXlX:Xr.9X8X8XJ.8.8.8.a g g g g g g g ",
"tXtXeX9XwXwX8XJ.d.H. .8.H.H.8XqX9XeXtXyXf.-X$X@XaXlX>.].}.}.}.'.(.lXlX$X>X>Xf.yXa.$XlXlXlXn.s.8X8XJ.8.q.( a g g g g g g g ",
"tXeXqXeXwX9XK.N.d.d.~ e.d.H.8XeXeXtXtXtXr.dX#XdX#XsX9.}.}.}.}.'.).lX:X:XlX>XB.yXtXr.rXlXlXjX-.=X8XJ.( e.~ y g g g g g g g ",
"eXqXeX9XwX9XK.N.d.u.~ d.H.J.8X9XwXtXtXqXa.jX#XjXa.-X9.}.}.}.}.'.).:X-XlXlX,Xf.rXyX9X,.jXlXlXaX-.K.J.( e.L a g d g d d g g ",
"eXeXeXqXeX8XJ.d.d.8.( H.H.K.9XeXtXtXyX=X%XfX).#X>X$X!..X}.}.}.!.<X@XsXlXlX:Xf.yXyXyX).a.lXlXlX$Xw.J...t.L y g u u u u u u ",
"eXeXwXwXqX8XJ.H.H.( 8.N.H.K.8XeXtXtXyXs.>XaX{ aXlX).'..X}.}.}./.,XsX@XjXlX-X=XtXeXeXtXr.-XlXlXlX,.u.( t.j f u u u y u y u ",
"9XqX9XwXqX8XN.N.d.~ u.d.J.8XeXeXtXtXtXr.jX<X#XlXlX>.|..X}.}.}.9.dXlX,X-XlX%X=XyXeXeXeX9X-.dXlXlXsX-.~ t.j y u u y y u u u ",
"qX9XeXwXqX8XN.N.i.~ d.d.J.8XeXeXtXyX0Xa.lX<.@XlXsX$..X.X}.}.}.9.sXlXlX@XsXa.0XtXeXeXeX9XJ.r.jX>XkX>Xm i.j t u d y u u y u ",
"qXqXqX9XqXK.J.N.8.( H.d.J.eXeXeXyXtXs.<XlX&.#XlX>XQ..X}..X}.}.0.jXlXjX#XjX,.eXtXeXeXqX8X8Xi.-.$XlXlX7.r.4 ; - r i y d f y ",
"qXqXqXqXqXK.N.N.8. .d.d.J.8XeXeXeXeXw.sXlX&.$XlX$X!..X}.}.}.}.p.lXlX>X,XsX,.tXeXeXeXqXqX8Xt.<.lXlXlXrX/ 4 ^ q.( N > % % % ",
"qX9X8X9X8XK.N.N.( 8.d.H.J.9XtXtXwX0X,.lXjX&.:XlXa.'..X}..X.X'.(.lXlX#XjX<XB.tXqXeXqXqXqXr.).lXlXlXlX<.T 8.8XeXeXqXB.4 * : ",
"9X9X9X8X8XJ.N.d.~ u.d.H.8XeXtXeXtXs.:XlXdX<.:XjX$..X.X.X}..X^.).lXsX#XlX<.9XtXtXwXeXeX) I >.=XfXlXjX-.N.L.8XwXtXeXqXf.2 w ",
"wXwX8X8X8XH.d.d.~ d.d.d.8XwXwXeX9X-.jXlX,X#X-XdX0..X.X}.}.}./.,XlX$XdXsXa.tXtXtXtX9X-.k / o.9.o.dX%XT ( ) ) -.q.s.8X7Xj q ",
"8X8X8X8XL.J.d.i.^ d.d.H.8XwXwXtXr.<XlXlX#X>X-X:X!..X.X}.}.}./.aXjX#XlX,Xf.tXtXyXJ.^ N 1X3X&XE _ -.&.g.0X9X0X7Xg.-. .d.V q ",
"L.8X8X8XK.H.d.i.~ d.d.d.8X9XwXg.a.lXlXjX#XsX-X).'..X}.}.}.}.0.jXaX:XlXn.0XyXtX).] G 7.3X3X4X! w.T s.eXqX9X9XeXtXtXw.( 1 q ",
"8X8X8XK.J.H.N.u.~ d.d.H.K.9X9X-.sXlXlXaX:XjXaX>.].].}.}.}.].0.lX#XsXlX,.tXtXi.] T.B 1X3X2X3X! ) d.9XqX9X9X9XwXwXwX8XT n P ",
"L.L.L.J.H.N.N.e.~ N.H.N.J.8Xw.>XlXlXlX1.sXlXdX0..X.X.X|..X'.).jX$XlXuXa.tX7X] Y.j.V 5X3X3X3X| =XqXqXqXqXqXwXwXwXqX8X( 1 x ",
"J.H.J.H.N.d.N.e.( N.N.N.J.e.a.lXlXlXa.! lXlX-X!..X.X.X.X.X/.<XlXlXlX$Xs.wX) T.b.K R 3X3X3X3X:.J.qX9X9XqXqXeXeXeXqXL...v P ",
"d.N.d.d.d.d.d.u.~ H.d.N.i.-.jXlXlX>XT -XlXlX>.'.}.}..X|.}./.dXlXlXlXr.s.q.8.b.b.G ! 2X3X;XM.*.=XqXqX9X9XqXeXeXeX8XK.L c b ",
"d.d.d.d.d.d.d.u.~ N.d.d...aXlXlXzX&...fXlXdX$.}.|..X.X.X}.0.jXlXlXlXq.u.G T.b.T.G { 7.5.7.=.| B.qX9X9XqXeXeXeXeXL.J.N w w "
};
