/* XPM */
static char *frame1[] = {
/* columns rows colors chars-per-pixel */
"61 64 235 2 ",
"   c #241C13",
".  c #39261A",
"X  c #3E2E26",
"o  c #462B1C",
"O  c #4B321E",
"+  c #4C3123",
"@  c #483B28",
"#  c #513720",
"$  c #443D30",
"%  c #5A5832",
"&  c #4F572E",
"*  c #705130",
"=  c #596232",
"-  c #6B7C3A",
";  c #687737",
":  c #626C36",
">  c #4E524B",
",  c #5C6A4E",
"<  c #6B7B44",
"1  c #70714D",
"2  c #59706D",
"3  c #71796D",
"4  c #6F5C43",
"5  c #B67A39",
"6  c #BD7E39",
"7  c #B37937",
"8  c #AA753A",
"9  c #856138",
"0  c #877A56",
"q  c #957C57",
"w  c #927248",
"e  c #837E76",
"r  c #6E813A",
"t  c #73863B",
"y  c #768A3C",
"u  c #788E3F",
"i  c #708237",
"p  c #7A903F",
"a  c #6F8145",
"s  c #728342",
"d  c #7A8E40",
"f  c #738644",
"g  c #7D9343",
"h  c #728156",
"j  c #7A8667",
"k  c #748772",
"l  c #BE803B",
"z  c #819443",
"x  c #9C8256",
"c  c #A7895F",
"v  c #A98B5F",
"b  c #B0915D",
"n  c #968665",
"m  c #85867A",
"M  c #9A8C71",
"N  c #968C75",
"B  c #849676",
"V  c #9B9375",
"C  c #868B6C",
"Z  c #A98B60",
"A  c #B59465",
"S  c #B59668",
"D  c #A79679",
"F  c #B39C7C",
"G  c #A69168",
"H  c #A8A479",
"J  c #B2A27B",
"K  c #BAB87E",
"L  c #8CA17D",
"P  c #C4A168",
"I  c #7C8A85",
"U  c #728D8E",
"Y  c #7CA4A8",
"T  c #8A9687",
"R  c #979588",
"E  c #889A98",
"W  c #92958E",
"Q  c #A49A86",
"!  c #A79D94",
"~  c #94AA8B",
"^  c #95A687",
"/  c #99A996",
"(  c #9CB493",
")  c #9EB59A",
"_  c #89A492",
"`  c #A8A889",
"'  c #B8A883",
"]  c #BBB38D",
"[  c #ADA399",
"{  c #A9A998",
"}  c #B4A899",
"|  c #A5BC9B",
" . c #A6B699",
".. c #B9B597",
"X. c #AAB68B",
"o. c #89A7A4",
"O. c #99ABA9",
"+. c #98B2AA",
"@. c #89ADB5",
"#. c #8DB3BA",
"$. c #98B9B8",
"%. c #91B0AD",
"&. c #A9ACA7",
"*. c #B4ABA2",
"=. c #BAADA4",
"-. c #A9B6A7",
";. c #BBB2AA",
":. c #B6B3A9",
">. c #A6BCB9",
",. c #B5BCB3",
"<. c #BABBB7",
"1. c #C7BA8D",
"2. c #C6BC95",
"3. c #DBBB96",
"4. c #CBAE8B",
"5. c #C3B6AC",
"6. c #C7B9AE",
"7. c #C9BDB2",
"8. c #A8C19D",
"9. c #8CC7BD",
"0. c #96C4BC",
"q. c #ACC5A1",
"w. c #AEC4AB",
"e. c #AEC9A5",
"r. c #B1CDA6",
"t. c #B2C8AB",
"y. c #B6D2AB",
"u. c #B8D5AD",
"i. c #A6C5BB",
"p. c #B3C3B2",
"a. c #B5CDB3",
"s. c #BBC4B9",
"d. c #BAD4B5",
"f. c #BFDEB3",
"g. c #BCD3BB",
"h. c #BCD8BA",
"j. c #D7C99A",
"k. c #D4CF95",
"l. c #E9C69D",
"z. c #EBC89E",
"x. c #E5C39C",
"c. c #EFDE9E",
"v. c #E5D49B",
"b. c #F0DD9D",
"n. c #E9EC9D",
"m. c #CAC6B7",
"M. c #D4C4BA",
"N. c #D7C8BC",
"B. c #C1DFB4",
"V. c #C2DBBC",
"C. c #D2CFB0",
"Z. c #E3D5A4",
"A. c #EFDEA3",
"S. c #EEDEAB",
"D. c #E7D9A8",
"F. c #F0DEA3",
"G. c #F0DFA9",
"H. c #EDC9A1",
"J. c #C3E1B6",
"K. c #C6E3BA",
"L. c #C9E6BD",
"P. c #CAE8BF",
"I. c #EFE0AC",
"U. c #F1E0A3",
"Y. c #F0E1AC",
"T. c #EFE8A8",
"R. c #DEE19B",
"E. c #99BDC4",
"W. c #8DBCC9",
"Q. c #99C5C7",
"!. c #95D6CA",
"~. c #9CCBD7",
"^. c #99D9D4",
"/. c #8DD1C5",
"(. c #A4C6C8",
"). c #B8C8C4",
"_. c #A4D4DE",
"`. c #A2CCD5",
"'. c #98E8DA",
"]. c #9BF0DF",
"[. c #AADEEC",
"{. c #A8D8E5",
"}. c #9FF4E3",
"|. c #9EEEE0",
" X c #ABE0EF",
".X c #A0F5E5",
"XX c #AEE5F3",
"oX c #B1E6F4",
"OX c #B4EBFA",
"+X c #B2E8F7",
"@X c #B0E2EF",
"#X c #C5C5C3",
"$X c #C8C8C6",
"%X c #CCCDCB",
"&X c #C6CAC5",
"*X c #DDCCC2",
"=X c #D1CFC7",
"-X c #C7D8C8",
";X c #D1D2CF",
":X c #D8D5C7",
">X c #D4D5D2",
",X c #DCDCDB",
"<X c #D7DAD8",
"1X c #CBD5D3",
"2X c #E0CEC3",
"3X c #E5D4C9",
"4X c #E9D6CB",
"5X c #EBD8CD",
"6X c #E4D2C7",
"7X c #E1DFD0",
"8X c #C6E2C4",
"9X c #C9E6C4",
"0X c #CCEAC4",
"qX c #CEEDCB",
"wX c #CBE6CA",
"eX c #D0EECD",
"rX c #CFF0CD",
"tX c #D1F0CE",
"yX c #D4F3D3",
"uX c #D8F5D6",
"iX c #DEE0DD",
"pX c #E7E7DB",
"aX c #F7F7D6",
"sX c #CFEEEE",
"dX c #E4E4E3",
"fX c #ECECEB",
"gX c #E8EAE6",
"hX c #F1F2EE",
"jX c #FCFCED",
"kX c #F5F4E6",
"lX c #F4F4F3",
"zX c #FEFEF2",
"xX c #FEFEFE",
"cX c #F8F7F7",
"vX c #EFF0EF",
/* pixels */
"q F D.F.A.A.c.A.A.A.A.I.I.S.S.S.S.S.S.I.I.S.S.S.S.S.S.S.S.S.I.I.S.S.D.I.I.I.I.I.S.S.S.S.S.Y.Y.G.D.j.j.] ] ..] 4.....] 2.j.",
"% 0 G j.A.c.A.A.A.A.I.I.I.I.S.S.I.I.S.D.S.S.S.S.S.S.S.S.S.S.S.S.S.S.I.D.Z.D.S.I.S.Y.S.Y.S.j.2.] ;.m.N.7XpXpXpXgXpXpXpX:Xm.",
"  . 4 q 4.c.A.A.A.A.A.I.Y.S.S.S.I.I.S.S.S.S.S.S.S.S.S.P.S.S.S.S.S.S.S.j.T D.I.I.Y.Y.D.2.=.m.:XkXjXjXjXzXzXzXzXzXjXzXzXzXzX",
"0 @   $ 4 K b.F.A.A.A.I.I.I.S.S.D.I.S.S.S.S.S.I.2.Z.Y.Y.S.S.S.S.I.D...#.O.S.D.I.D.2...:XjXzXzXzXjXkXpX:Xm.<.7.7.m.m.:XpXkX",
"S b w . $ 2.b.F.S.F.G.S.I.I.I.S.S.S.S.S.S.S.I.I.R { S.S.S.S.S.S.S...E. X+.G.G.j...:XjXjXzXjXpX*X:.Q Q D V V M M M M N N R ",
"A A S q M F.A.A.F.A.G.G.I.I.S.S.S.S.S.S.D.S.S.D.&.Q.:.I.S.S.S.S.} Q.OX{. .G.2.m.kXjXjXjX=X[ Q F D V M M D D F F F F D D G ",
"A A A Z J U.c.A.A.S.S.G.S.S.S.S.D.S.I.D.I.I.I.Z.+.+X$.2.I.I.D.] Q.+XOX{...2.=XjXzXzX7X{ D Q D e D ' 3.x.l.z.z.z.H.H.z.x.x.",
"A A A Z J F.F.A.S.F.G.I.S.S.S.S.I.I.I.S.I.I.I.j.$.OX+X$...I.2.E.OX+XOX~.T :XjXjXjXm.R ' D M ' 3.z.z.x.x.l.l.x.z.l.x.z.x.z.",
"A A A v J U.A.A.S.G.G.Y.I.I.S.S.S.S.S.I.I.S.I.Z.&.+X+X+XW.! &.+XOX+XOX~.,.zXzXkX:.D Q M ' 3.l.l.l.l.z.z.l.l.l.l.l.l.l.l.l.",
"A A A v F Y.A.G.G.S.S.S.I.I.S.S.S.S.S.D.S.S.I.S.&.+XOXOXOX_.[.+X+XOXOX_.-XzXkX} D ` n 4.H.l.l.l.l.x.x.z.l.l.l.l.l.l.l.l.l.",
"A A A c J U.A.A.F.F.S.S.S.S.S.S.S.S.S.' { j.j.j.` {.OXOXXX X XXXOXOXOX{.>.%X! e T 3 3 q S 4.4.x.x.z.H.H.l.l.l.l.l.l.l.l.l.",
"A A A c J U.A.F.A.S.S.S.S.S.S.S.S.S.S.6.o.~.W.#.$.XX XW.O.&.&.O.$.~.XX+X{.~.~.{.{.{.k - ; - - - 0 n D P 4.j.l.z.l.H.l.l.l.",
"A A A c F U.c.A.G.S.I.S.S.I.I.S.S.S.S.S.} [.OXOXOX{.O.7.3X5X5X6XN.;.O.{.OXOXOXOXOXW.< t t y i i i - ; - - 1 x n S 4.4.3.x.",
"A A A v F F.A.A.G.S.I.S.S.S.I.S.S.S.S.S.j.+.+X+X{.O.*X5X5X5X4X3X4X4XM.O.{.OX+XOX X2 i t t t i i y y t u y u t i - - < < 0 ",
"A A A v F n.A.A.G.G.S.S.I.I.I.I.I.I.I.S.Y.] ~.+XW.M.5X5X5X5X5X5X4X5X5X*X&.XX+XOX@.& & & & & & ; t t t y u t y u u u p p u ",
"A A A v F F.c.b.c.G.S.S.S.I.S.I.I.I.S.S.G.D.! ~.E ,.&.&.&.&.;.;.;.;.*X4X5.(.OX X3 * * * * 9 . & t t t y t y u u u g p p p ",
"A A A v J U.n.F.A.A.A.G.S.S.G.S.I.S.S.S.Z.] E.@.U W.@.W.@.@.@.@.@.@.E 6X*XO.OX~.0 5 l l l 5 # + - y t t y y y u p g g g g ",
"A A A c J U.b.F.A.A.S.S.I.F.G.S.S.I.Z...&.Q. Xo.! M.M.[ 5.5.5.7.7.6.;.5X3X&.oXoXQ.T w 5 l 5 # + = y t t t y y p g g z g g ",
"A A A c F F.b.A.A.F.A.A.I.I.I.S.S.S.j.W ~.OX~.;.5X4X5X7.[ [ 4X4X5X4X=.7.4X&.@X+XOXXXW.m w 7 # + % t t t t y u g g g g g z ",
"A A A c J b.c.A.A.A.F.S.F.I.S.S.I.S.S.Z.} (.@.W [ ;.5.5.e m ! 5.;.;.[ [ 5X*.{.OXOXOXOX_.3 9 # + % t t t y y u g g g z z z ",
"A A A Z J U.b.U.c.F.A.A.F.A.S.Y.I.S.S.G.S.} o.1XvXcXcXvX! <.dXcXlXvXdX;.5X*.{.OXOX~.E 0 8 5 + + % y i t y y p g g z z z z ",
"A A A Z J U.b.U.A.b.A.A.A.G.F.S.I.S.G.S.S.j.o.>.lXcXcX$X;.5.cXcXxXxX%X7.5X*.{. XE w 8 6 6 5 # + % t y y y p g g z z z z z ",
"A A A Z J b.n.b.c.A.A.S.S.G.G.S.S.G.S.S.Z.{ _.E ;.<.;.W 3X7.5.>X>X#X;.3X4X&.[.[.I 8 6 6 6 5 # + % y t y p p p z z z z z z ",
"A A A Z J G.b.b.c.A.A.A.F.F.Y.S.Y.I.S.j.{ _.{.E [ [ *.*.*XN.6X7.6.7.5.7.4X&.@X+X Xo.w 6 6 6 # + * y y y p p z z g z z z z ",
"A A A Z J U.b.F.b.c.A.c.F.S.A.G.S.S.I.] / (.@.W *XM.6.5.=.7.5X7.} } 5.6X6XW E.+XOXOXW.0 8 5 # + % y y y d g d z z z z z z ",
"A A A Z J b.b.b.b.b.b.b.F.S.F.S.S.G.S.S.Z.2.R ! 6X5X7.! =.4X4X4X4X4X5X4X2X[ *._.OX[.W.2 * * . o % y y y g z z z z z z z z ",
"A A A Z J U.b.b.b.b.b.F.F.F.G.G.G.G.G.S.S.Y.Q T N.5X5XN.4X5X4X4X4X4X4X4XM.=.5.E.U > X . . . . o % t y y d g d z z z z z z ",
"S A A Z J U.b.b.b.b.F.F.F.F.G.G.S.S.S.G.G.1.o.U ! 6.5.6.7.7.2X3X6X*X4X5X5.W >.`.& . o X o o o . % y y g g g z z z z z z z ",
"S S S c F A.b.b.b.c.A.A.F.b.F.I.S.S.S.S.S.' W T 5.5.7.5.5.5.*.[ 5.[ 2X5X*.E.{. XU = : ; ; ; ; - i y u g z z z z z z f z z ",
"A A A c ' A.A.c.A.A.A.c.c.A.A.A.S.S.S.I.S.S.' U [ 4X5X5X4X4X4XM.! [ 2XN.O.U 3 3 , ; r r i i y y y y p g z z z z d < % - d ",
"A A A c J U.c.F.c.A.A.A.A.S.G.S.S.S.G.G.S.S.] ! [ 4X6X4X4X4X4X6XM.N.4X:.(.Y ; ; h V , 2 > ; t y y p g z z z z z 3 k T I k ",
"A A A c ' F.c.A.A.A.c.F.S.F.G.Y.S.G.G.G.S.I.Y.Y.4.7.5X4X4X4X4X4X5X5XM.e T 2 ; - ..7X+.^.k , t y y p g g z z z - T sXsXsXW ",
"S A S x P U.b.b.c.A.U.U.F.I.I.I.I.I.Y.G.S.D.D.Z.j.D 6.4X5X4X5X5X5X6.! R Q : i ; ..:X0.^.U , y y u g g g z z z f T sXsXsXT ",
"n n n n D 1.1.j.j.v.v.Z.A.I.U.A.j.1.] ` `  ...| q.-.{  .5.M.M.6.! ..w.-.{ B C j W  .o.#.2 = y u u g g z g z z g e _ E T 3 ",
"-X8X8X-X-Xh.a.q... .X.` ` ` ] ` ` q.f.V.9XeXyXyXyXuXuXh.W 5...5.! a.a.a.a.p.rXyXeX8Xg.a.+.B h r d g z z z z g u C C.m.C...",
"yXyXuXuXuXyXyXyXyXtXqXJ.f.( ^ u.J.L.9X0XqXyXyXyXuXyX8X-.[ 6X4XN.m ,.,X,XiX;X-.rXuXyXyXuXyXtXK.-.j a g z g g g f X.aXaXaXm.",
"uXuXyXyXyXyXyXeXtXeXL.B.J.^ y.f.J.L.0XqXtXyXuXqXa.,.p.! _ %.O.%.o.>XxXxXxXxX<Xp.yXyXuXuXtXqXeXeXP.| , y g g g t ..aXaXaXC.",
"uXyXyXyXyXtXeXeXtX0XJ.J.8.( J.f.K.0XqXrXtXyXrXw.<XlX1X&.^.}.].}./.).,XxXxXxXxX$Xg.yXyXyXtXeXeXqXL.J.~ , u p g t { 0XC.C.` ",
"uXyXuXyXtXtXeXeXeX9XB.B.~ r.f.J.L.qXrXyXyXyX-X#XxXlX#X>.'..X}.}./.,X$XxXxXxXxXxXs.-XyXyXtXtXeXqXP.J.8.^ a g g y s s s a a ",
"uXuXyXyXtXtXeXeXqXK.B.u.~ f.f.J.0XqXrXyXyXuXa.dXxX;X,X>.].}.}.}./.fX$XfXgXvXxXxXfX,.qXyXtXtXeXqXL.J.r.( k d u p u g p g g ",
"uXuXyXyXeXeXtXeXP.J.J.8.( J.f.L.qXrXtXyXyXyX-.gXfX$XvX$..X.X]..X0.vXiX<XfX<.cXxXxX<X,.yXtXeXeXqXP.J.r.) ( a g g g g g g g ",
"uXtXyXtXtXtXqXqXK.f.J.( 8.f.J.P.qXrXtXyXyX9X-.>X%XgXgX0..X.X}..X0.lXcX#XxX,.<.xXxXxX$Xg.yXtXeXqX0XJ.r.) q.f g g g g g g g ",
"uXyXyXtXrXrXqX0XJ.f.f.~ y.f.J.0XeXyXtXyXyXg.<.#X$XxX>X!..X.X.X}.0.lXxX$XvX;X .,XxXxXcX,.8XyXeXqX0XJ.q.| e.a g g g g g g g ",
"yXtXtXeXtXtXqXL.J.f.y.~ f.f.L.qXeXyXyXyXyXp.%X&.gXxX&X!..X.X|.].0.xXxX<XdX>Xg.w.lXxXxXgX-.qXqX0XP.K.q.| e.f g g g z z g z ",
"yXtXtXtXeXrX0XK.J.f.e.( f.J.0XeXyXrXyXyXqXp.%X&.xXxX>.'.}.}.].'.i.xXxXiX,X,Xg.-Xs.xXxXxX>Xp.qX0X0XL.8.8.8.f g g g g g g g ",
"yXtXtXqXrXrX0XK.f.f.( 8.J.J.0XqXrXrXyXuXg.;X%X#XpXcX>.].}.}.}.'.(.xXxX;XiX,Xg.uXa.%XxXxXxXs.g.0X0XJ.8.q.( a p g g g g g g ",
"yXtXeXtXrXrX9XJ.f.f.~ y.f.J.0XqXrXrXyXyXp.gX$XgX$XfX0.}.}.}.}.'.).xX>X;XxX,Xg.uXyXw.,XxXxXlX,.K.0XJ.) e.~ f g g g d g g g ",
"tXtXeXrXrXqXK.B.f.y.^ f.J.J.qXqXyXyXyXeX,.vX$XcX<.>X9.}.}.}.}.'.).>X;XxXxX<Xg.uXyXqX,.lXxXxXiX-.P.J. .r.L f g d d d d g g ",
"tXtXtXqXrXqXJ.B.B.8.( J.f.L.qXtXyXyXyX8X$XvX#X#X,X%X!.}..X}..X!.1X#XfXxXxX>Xh.yXyXyXh.s.xXxXxX%Xe.K. .r.B u p u p u u u p ",
"tXtXrXrXqX0XJ.J.J.( 8.f.J.P.qXtXyXyXuXd.iXdX&.iXxX).'..X}.}..X/.<XvX#XcXxX;X-XyXyXtXyXw.;XxXxXxX,.y. .t.k y p p u u y u u ",
"tXqXtXrXqX0XB.B.f.~ y.f.J.0XtXtXyXyXyXw.cX>X#XxXcX>..X|..X}..X9.dXxX<X;XxX&X-XyXtXtXeXqX-.gXxXxXfX-.~ r.j f d d u y u u y ",
"eXeXqXrXeX0XJ.B.y.~ f.f.K.0XtXtXyXyXwXs.xX<.#XxXvX$..X.X}.}.}.9.vXxXxX#XfXs.wXyXqXeXeXqXJ.p.cX,XcX,Xm u.j y u d u y u y u ",
"eXeXeXeXqXL.B.B.8.( B.f.K.0XtXtXyXyXh.1XxX:.$XxXiXQ..X}..X}.}.0.lXxXcX#XcX,.yXyXyXeXeXqXqXy.&.%XxXxXs.q.h - r r r i y f y ",
"eXeXeXeXeXL.B.B.8.| J.f.K.qXtXyXtXtXw.fXxX&.%XxX%X!..X}.}..X].i.xXxX,X<XgX,.yXtXqXqXeXqX0Xe.s.xXxXxXiX/ 3 ^ | ( B , & % = ",
"eXqXqXqX0XL.B.B.( 8.B.f.P.tXtXyXyX9X,.xXcX&.;XxXs.'..X}.}..X'.(.xXxX#XcX>Xg.yXyXyXqXeXqXa.&XxXxXxXxX<.T q.8XtXyXtXh.k * * ",
"qXqX0X0X0XK.B.f.~ y.f.J.P.tXyXtXyXa.>XxXdX<.>XcX$.}..X.X.X.X^.).xXgX$XxXs.wXyXrXqXtXtX) I i.).hXxXlX-.K.9XqXqXyXrXyXg.1 w ",
"rX0X0X0X0XK.f.f.~ u.f.f.P.tXtXtXqX-.lXxX<X$X>XgX0..X}.}.}.}./.<XxX%XgXvX,.yXyXyXrXqX-.k / o.9.o.dX#XT ) ) ) -.q.d.0XJ.C w ",
"0X0XqX0XP.J.f.u.~ f.f.J.0XrXrXrXt.;XxXxX$X,X;X>X!..X}.}.}.}./.gXxX#XxX<Xg.yXyXuXK.^ T *X4XM.T o.-.-.h.8XwX9X8Xh.-.) B.C x ",
"0X0X0X0XL.J.B.u.~ f.f.J.0XqXtXh.<.xXxXlX$XgX%X).'..X}.}.}.}.0.cXdX>XxXm.wXyXyXh.X.H m.5X4X5X! q.T d.yXqXrXrXtXtXtXe.) 3 q ",
"P.0X0XL.J.J.f.y.~ f.f.J.P.rXqX-.vXxXxXdX<XcXdX>.].|.}.}.}.'.0.xX#XfXcX,.tXyXa.X.R.M 2X4X4X4X{ / f.tXqXqXqXqXtXrXrX0XT n P ",
"P.P.P.L.J.B.B.r.~ B.J.J.K.0Xt.<XxXxXxX<.gXxXgX0..X}.}.}.}.'.).vX%XxXdXp.yX8XX.T.k.C 6X4X4X4X..-XqXqXqXqXeXrXrXrXtXqX( 0 x ",
"K.J.J.J.B.f.B.r.( B.B.J.J.r.s.xXxXxXm.E xXxX%X!.}..X}.}.}./.1XxXcXxX;Xf.rX) R.n.K R 3X3X4X5X*.V.eXqXeXeXeXtXrXtX0XP.( G P ",
"f.J.f.f.f.f.f.y.~ J.f.B.y.-.hXxXxX,XT ;XxXxX>.'.}.}.}.}.}./.gXxXxXxXp.u.q.8.n.n.H [ 3X4X3X*X=.V.qXqXeXeXtXtXtXtX0XP.^ x b ",
"f.f.f.f.f.f.f.y.~ f.f.u. .gXxXxXfX&. .hXxXfX$.}.}.}.}.}.].0.cXxXxXxX-.u.H R.n.R.D [ 7.5.7.} } V.eXqXeXeXtXtXtXtXP.K.C w w "
};
