/* XPM */
static char *frame4[] = {
/* columns rows colors chars-per-pixel */
"61 64 236 2 ",
"   c #241D13",
".  c #39271A",
"X  c #3E2E26",
"o  c #462B1B",
"O  c #47301E",
"+  c #4C3123",
"@  c #483B29",
"#  c #513821",
"$  c #443D30",
"%  c #595932",
"&  c #51562F",
"*  c #705130",
"=  c #5A6232",
"-  c #6C7C3A",
";  c #687737",
":  c #626C36",
">  c #4F534B",
",  c #5C6B4F",
"<  c #6B7A45",
"1  c #7B7558",
"2  c #6F724A",
"3  c #59716E",
"4  c #71796D",
"5  c #6F5D45",
"6  c #B67939",
"7  c #BC7D39",
"8  c #B37837",
"9  c #AA753A",
"0  c #856138",
"q  c #897B57",
"w  c #957C57",
"e  c #927248",
"r  c #837E76",
"t  c #6F813A",
"y  c #73863B",
"u  c #758A3C",
"i  c #788E3E",
"p  c #708237",
"a  c #7A903F",
"s  c #6F8143",
"d  c #798D41",
"f  c #738444",
"g  c #7D9342",
"h  c #738157",
"j  c #7A8667",
"k  c #748672",
"l  c #BE803A",
"z  c #829443",
"x  c #9A8055",
"c  c #A7895F",
"v  c #A98B5F",
"b  c #A08559",
"n  c #B1915E",
"m  c #968665",
"M  c #85867A",
"N  c #9A8C72",
"B  c #968C76",
"V  c #999475",
"C  c #859172",
"Z  c #A98B60",
"A  c #B59465",
"S  c #B59568",
"D  c #A6967A",
"F  c #B39C7D",
"G  c #A6926A",
"H  c #B2A27B",
"J  c #B7A87F",
"K  c #AEAA7A",
"L  c #8DA17E",
"P  c #C4A268",
"I  c #698685",
"U  c #7C8A86",
"Y  c #778F91",
"T  c #7CA4A9",
"R  c #8A9687",
"E  c #969688",
"W  c #889A98",
"Q  c #90938C",
"!  c #A59B86",
"~  c #A69D94",
"^  c #94AA8B",
"/  c #96A88A",
"(  c #99A997",
")  c #9DB494",
"_  c #9EB699",
"`  c #88A291",
"'  c #A8A989",
"]  c #B7A884",
"[  c #BBB38C",
"{  c #AAA798",
"}  c #B1A59B",
"|  c #B8AD97",
" . c #A6B899",
".. c #BCB393",
"X. c #B8B69A",
"o. c #ABB68C",
"O. c #8BA8A4",
"+. c #9AABA9",
"@. c #98B3AB",
"#. c #89ADB5",
"$. c #8DB4BA",
"%. c #98B9B8",
"&. c #91B0AD",
"*. c #A9ABA6",
"=. c #B4ACA3",
"-. c #B9ADA3",
";. c #AAB6A7",
":. c #BBB2AA",
">. c #B6B3A8",
",. c #A6BCB9",
"<. c #B5BDB3",
"1. c #BBBBB7",
"2. c #859FA5",
"3. c #C6AA88",
"4. c #C4B78E",
"5. c #C7BC95",
"6. c #DBBB97",
"7. c #D1B28E",
"8. c #C3B6AC",
"9. c #C6BAAE",
"0. c #C8B9AE",
"q. c #C9BDB3",
"w. c #A9C29D",
"e. c #8CC8BE",
"r. c #96C3BC",
"t. c #ACC5A2",
"y. c #AEC5A8",
"u. c #B1C5AC",
"i. c #B4CCAC",
"p. c #B1CBA6",
"a. c #B7D3AB",
"s. c #B9D5AD",
"d. c #B6D4AB",
"f. c #B7C6B5",
"g. c #BBD4B6",
"h. c #BFDDB3",
"j. c #BDD3BB",
"k. c #BCD8BA",
"l. c #A4C3BE",
"z. c #D7C99A",
"x. c #D4CD94",
"c. c #E9C69D",
"v. c #EBC89F",
"b. c #E5C39D",
"n. c #EFDE9F",
"m. c #E5D49B",
"M. c #F0DD9D",
"N. c #E8EA9C",
"B. c #EEF09F",
"V. c #C9C6B8",
"C. c #D4C5BA",
"Z. c #D7C8BC",
"A. c #C1DFB4",
"S. c #C1DBBC",
"D. c #D3CFB0",
"F. c #ECC8A0",
"G. c #E4D4A4",
"H. c #EFDEA4",
"J. c #EEDEAC",
"K. c #E7D8A7",
"L. c #F0DEA3",
"P. c #F0DFA9",
"I. c #C3E1B6",
"U. c #C6E3BA",
"Y. c #C8E6BD",
"T. c #EFE0AC",
"R. c #F1E0A3",
"E. c #F0E0AC",
"W. c #F0E1B1",
"Q. c #99BDC4",
"!. c #8DBCC9",
"~. c #A1BEC0",
"^. c #99C5C7",
"/. c #95D7CA",
"(. c #9CCBD7",
"). c #98D9D4",
"_. c #8DD1C5",
"`. c #A5C6C8",
"'. c #B7C9C5",
"]. c #A4D4DE",
"[. c #A2CCD5",
"{. c #99E9DA",
"}. c #9CF0DF",
"|. c #AADEEC",
" X c #A7D8E5",
".X c #9FF4E4",
"XX c #9DEEE1",
"oX c #A0F5E5",
"OX c #ACE3F2",
"+X c #B4ECFA",
"@X c #B1E7F5",
"#X c #ACE1EE",
"$X c #C5C5C3",
"%X c #C8C8C6",
"&X c #CCCDCB",
"*X c #C6C9C5",
"=X c #DDCCC2",
"-X c #D0CFC2",
";X c #C7D8C8",
":X c #D1D2CE",
">X c #D9D5C7",
",X c #D4D5D2",
"<X c #DCDDDB",
"1X c #D7DAD8",
"2X c #CBD5D3",
"3X c #E0CEC3",
"4X c #E5D4CA",
"5X c #E9D6CB",
"6X c #EBD8CD",
"7X c #E4D2C7",
"8X c #E0DFD1",
"9X c #C6E1C4",
"0X c #C9E6C3",
"qX c #CCEAC4",
"wX c #CFEDCB",
"eX c #CAE5C9",
"rX c #D0EECD",
"tX c #CFF0CD",
"yX c #D1F0CF",
"uX c #DAE5D9",
"iX c #D4F3D3",
"pX c #D8F5D6",
"aX c #E7E7DB",
"sX c #F7F7D6",
"dX c #CFEEEE",
"fX c #E4E4E3",
"gX c #ECECEB",
"hX c #E7E9E7",
"jX c #F2F2EE",
"kX c #FCFCED",
"lX c #F4F4E6",
"zX c #F4F4F3",
"xX c #FEFEF2",
"cX c #FEFEFE",
"vX c #F8F7F7",
"bX c #EFEFEA",
/* pixels */
"w F K.P.L.H.H.H.H.H.H.T.T.J.J.J.J.J.J.J.J.J.J.J.J.J.J.J.J.J.T.T.J.W.J.J.J.J.J.J.J.J.W.J.J.P.P.P.J.z.x.[ [ X.| ........5.z.",
"% q G z.R.M.H.H.H.H.J.R.T.T.W.J.J.J.J.J.J.J.J.J.W.J.J.J.J.T.J.J.J.J.J.K.G.J.K.J.J.J.J.J.J.z.5...-.V.Z.8XaXaXaXaXaXaXaX>XV.",
"  . 5 w 4.n.L.H.H.R.H.E.T.J.J.J.J.J.J.K.J.J.J.J.W.J.J.J.J.J.J.J.J.T.T.x.R K.J.J.P.W.G.5.X.V.>XlXkXxXxXxXxXxXxXxXkXxXxXxXxX",
"q @   $ 5 J R.H.H.H.J.T.T.J.J.J.J.J.J.T.J.J.J.J.5.G.E.Y.J.J.J.J.J.K.X.&.@.K.J.J.J.5.X.>XkXxXxXxXkXlXaX>XV.V.q.q.V.V.>XaXlX",
"A n e . $ 5.R.H.H.L.L.J.W.J.J.J.T.T.K.T.J.J.J.J.E { J.J.J.J.J.J.K...Q.OX*.J.J.z.X.>XlXxXxXxXaX%X>.! ! D V V N N N N B B E ",
"A S S w N L.M.H.H.H.P.P.J.J.J.W.T.T.T.T.K.J.J.K.*.^.;.J.J.J.T.K.| ^.+X X;.T...V.lXxXxXkX-X} ! D D V N N D F F F F F D D G ",
"A A A Z H R.M.H.H.J.J.J.J.W.J.J.K.T.J.J.T.T.J.G.@.+X%.z.J.J.J.X.`.+X+X XX.5.-XkXxXxXaX{ ! ! D N D ] 7.b.b.F.F.F.F.F.v.b.b.",
"A A A Z H M.H.H.T.L.H.J.J.J.J.J.J.J.J.J.J.J.J.z.@.+X@X$.X.T.5.%.+X+X+X(.R >XkXxXxXV.V H D N ] 6.F.v.F.F.b.b.b.c.c.c.v.v.b.",
"A A A v H E.L.J.J.P.P.W.J.J.J.J.J.J.J.W.J.J.W.G.+.+X+X@XQ.~ *.+X+X+X+X(.1.xXxXkX>.D ' N ] 6.F.c.c.c.c.c.c.c.c.c.c.c.c.c.c.",
"A A A v H L.H.L.P.J.P.J.J.W.J.J.J.J.J.K.J.W.W.K.*.OX+X+X+X(.|.+X@X+X+X(.;XxXlX{ D D m 7.F.F.c.c.c.c.c.c.c.c.c.c.c.c.c.c.c.",
"A A A v F R.H.H.L.J.J.J.J.J.J.J.W.J.P.' ' 5.z.z.'  X+X+X@XOX|.OX+X+X+X X,.&X~ r R 4 4 w S 3.7.b.c.c.v.v.c.c.c.c.c.c.c.c.c.",
"A A A c H R.H.H.H.H.J.J.J.J.J.W.P.J.P.5.O.(.^.Q.%.@X|.Q.&.*.*.+.%.(.OX+X X(.(. X X X4 ; ; ; ; 2 q m D ] 7.6.b.m.v.v.c.c.c.",
"A A A c H H.H.H.H.L.J.J.J.J.J.J.J.J.J.J.{ |.+X+X+X X+.q.4X6X5X7XZ.:.+. X+X+X+X+X+X!.< u u y y p y - ; - - 1 x m G 3.7.6.b.",
"A A A v H R.H.H.H.T.P.J.W.J.J.J.W.T.W.J.z.*.+X+X|.+.=X6X6X6X5X5X5X6XZ.+. X+X+X+X|.k t u t u u p y y u u u u p p y - - 2 q ",
"A A A v H n.H.H.H.T.J.T.T.T.J.W.T.T.J.T.W...[.+XQ.%X6X6X6X6X6X6X6X5X6X=X*.OX+X+XT & = & & = & ; y y y u u u u i d g i a i ",
"A A A v H M.n.H.L.L.J.J.J.J.J.J.J.J.J.J.T.K.Q (.W >.>.*.*.*.:.:.:.:.Z.6X8.`.+X#X3 * * * * * . & y y y u u u i i a d a g a ",
"A A A v H R.N.L.H.H.H.P.J.H.P.J.J.J.J.J.K...%.T Y !.#.!.#.#.#.#.#.#.W 7X=X@.+X(.1 6 l l l 6 + + - u y u u u u a a a g g g ",
"A n A v H M.L.L.H.H.J.J.T.E.J.J.J.J.G...{ [.OXO.~ q.C.} 8.8.0.q.q.8.8.6X4X*.OX@X(.R e 6 l 6 # + = u y y u u u a g g g g g ",
"A A A c H L.L.L.n.L.H.H.H.T.J.J.W.J.z.R [.+X(.1.5X5X6Xq.~ } 7X4X5X5X-.q.5X*.#X+X@X@XQ.M e 8 # + % z p p u u a a g g z z z ",
"A A A v H M.M.H.H.L.J.P.E.T.P.J.J.J.W.G.} `.#.Q =.:.:.:.r Q ~ 8.:.8.~ *.6X=. X+X+X+X+X(.k 0 # + % p - z u i a a g g g z z ",
"A A A Z H M.M.L.H.H.H.L.H.L.P.J.J.J.J.W.J.| O.2XgXvXvXzX~ 1.<XzXzXzX<X:.6X>. X+X@X(.W q 9 6 + + % - u p u u a z g z z z z ",
"A A A Z ] L.M.M.M.M.H.H.H.L.J.T.J.J.J.W.P.z.2.,.zXcXvX%X:.8.cXcXcXcX&Xq.6X=. X#XW e 9 l 7 6 # + * u u p u i a a z z z z z ",
"A A A Z H L.N.M.H.n.L.J.E.L.J.P.J.J.J.W.G.{ ].W :.8.:.Q 4Xq.8.:X,X%X:.4X5X=.|.|.U 9 l l 7 6 # + % u u u i a z z g z z z z ",
"A A A Z H L.M.L.n.n.H.L.J.H.E.P.J.J.J.z.{ ].|.R ~ } =.=.=X=X7Xq.0.q.8.q.5X*.#X+X|.O.e 7 7 6 # + % u u u i a z a g z z z z ",
"A A A Z H R.M.L.M.M.L.L.H.H.J.P.J.J.J.[ ( ^.#.Q 3Xq.q.8.-.q.6Xq.} } 8.7X7XQ Q.+X+X+X!.q 9 6 # + % u u u g g g g z z z z z ",
"A A A Z H R.M.L.M.M.M.M.L.P.L.J.J.J.J.P.G.5.E ~ 7X6XZ.~ -.5X6X6X5X6X6X5X3X} =.].+XOX!.3 * * . + % y u u g g z z z z z z z ",
"A A A Z H R.M.M.M.M.M.L.L.L.P.P.P.P.P.P.J.P.D R q.5X5XZ.5X6X5X5X5X5X5X5XC.-.8.Q.I > X . . . . o % y u i g g g z z z z z z ",
"S A A c H M.M.M.M.M.L.L.L.L.P.P.P.J.J.J.J.5.+.Y } 0.0.0.q.q.=X5X7X3X5X5X8.Q ,.[.& . O . o o o . & u f g g g z z z z z z z ",
"S A A Z ! L.M.M.M.M.H.H.L.L.L.T.P.J.P.J.J.] Q U 8.8.0.0.8.:.-.} 8.} 3X5X=.Q.|.OXY = : ; ; ; ; ; y u i a g z z z z g d z z ",
"A A A Z ] R.L.L.H.L.H.n.L.n.L.J.W.J.J.J.J.H.] Y ~ 7X6X6X6X6X6Xq.~ ~ =X3X+.I 4 4 , ; t t p p u u i i a g z z z g d < % < d ",
"A A A b J L.M.L.n.L.H.H.H.J.P.H.J.J.J.J.J.J...' } 6X6X5X5X5X5X7XC.3X5XX.`.T ; - h V , 3 > ; y u u i g g z z z f 1 k R U k ",
"A A A Z J L.L.M.H.H.H.L.H.P.P.E.P.J.P.J.J.J.P.P.3.q.6X6X5X5X5X5X6X6XC.M R 3 ; ; X.8X@.).k , u u u g g g z z z s R dXdXdXQ ",
"A S S Z J M.M.M.n.H.R.L.L.J.H.J.T.E.E.E.K.K.G.G.z.D 8.5X5X5X5X5X5X0.~ ! ! : - ; X.>Xr.{.4 , p u a g g g z z z f R dXdXdXR ",
"m m m q N x.7.z.z.m.m.K.H.P.E.H.z.4.[ ' o.o.X.;.t.;.{  .9.Z.Z.9.~ *.u. . .C j j / { 2.$.3 , u i a g g z z z z g 4 ( W R k ",
";X0X;XS.S.A.i.y. .X.o.' ' ' [ ' ' t.g.U.eXrXiXiXpXpXpXk.E -.-.9.~ f.g.f.f.u.tXiXwX9XS.l.@.C h s d g z g g g g g C D.D.D.>.",
"pXpXpXpXpXiXiXiXiXyXqXU.A.) / d.A.Y.0XqXrXrXiXpXpXiXqX;.{ 5X5XZ.M <.<X<XfX,X;.iXpXpXpXiXiXyX9Xw.j s g z g g g u ' sXsXsXV.",
"pXyXpXpXiXiXyXiXyXrXY.A.A.^ d.A.I.Y.qXtXiXiXiXwXg.<.f.( ` &.+.&.O.,XcXcXcXcX1Xu.iXiXiXpXiXrXrXrXY._ , u a a g f p.sXsXsXD.",
"pXpXiXiXiXyXrXrXrXwXU.A.w.) I.A.U.qXtXtXyXiXyXy.,XzX,X*.).}.}..X_.$X<XcXcXcXcX&Xj.pXiXiXyXiXrXwXY.U.` 2 i a g t ' >XD.D.' ",
"pXiXpXiXiXyXiXrXrXY.A.A.^ p.A.I.Y.wXtXyXiXpX;X$XcXzX$X,.{.oX.X.X_.1X%XcXcXcXcXvX1.9XiXiXyXrXrXwXY.I.w.^ s g d u < f s s - ",
"iXiXiXiXrXrXrXrXqXU.A.s.^ h.A.I.qXtXtXiXiXpXi.fXcX&X<X,.}..X.X.X_.gX&XgXfXzXcXcXgX<.tXiXyXyXrXrXY.U.d.) C f g i i z g g g ",
"iXpXiXiXrXrXrXrXY.I.I.w.) I.I.U.wXyXyXiXiXiX;.hXgX%XjXr.oXoX.X.Xe.jXfX,XgX1.vXcXcX<Xf.yXwXyXwXwXY.I.d._ _ s g g z a g g g ",
"iXiXiXrXrXrXrXwXU.A.I.) w.A.I.qXwXyXyXiXpXqX*.,X&XhXfXr.oXoXoX}.r.zXzX*XcX<.1.cXcXcX%Xj.iXiXrXwXqXI.p._ w.f g g g z g g g ",
"pXiXiXiXwXwXwXqXI.A.h.^ d.h.I.qXyXyXiXiXpXj.f.%X%XcX,X/.oXoXoXoX^.vXcX&XzX&X_ 1XcXcXzX1.eXrXwXwXqXU.t._ p.s g g g g g g z ",
"pXiXrXrXyXrXwXY.A.h.d.^ h.A.Y.qXyXyXiXiXiX<.&X*.gXcX$X/.oXoXoX}.r.vXcX,XfX,Xg.<.zXcXcXhX;.wXwXwXY.Y.t.w.t.f g g g z z g g ",
"iXyXrXrXtXtXwXU.A.A.w.) I.I.Y.wXyXyXiXiXeXf.&X*.cXcX,.{..X.X.X{.l.cXcXfX1X1XS.;Xf.cXcXcX,Xu.wXqXqXU.w.w.w.s g g g g g g g ",
"pXyXyXrXtXtXqXI.A.A. .w.I.Y.Y.rXyXyXiXpXk.:X&X$XfXvX,.}..X.X.X{.l.cXcX:X<X<Xj.pXf.&XcXcXcX'.g.qXqXU.w.p.) s g g g g g g g ",
"yXyXyXyXtXrX0XA.h.h./ a.A.I.qXrXyXyXiXiX<.hX%XhX%XgXr..X.X.X.X{.'.cX,X:XcX<Xj.pXiXu.<XcXcXzX>.U.qXU. .p.^ u g g g g g g g ",
"yXyXrXtXtXrXY.A.A.d./ A.A.U.wXrXyXpXiXrXf.jX$XvX1.:X_..X.X.X.X).'.,X:XcXcX<Xj.pXpXwX<.jXcXcXfX;.Y.U.) p.L s g d g d d g g ",
"yXyXyXyXyXqXU.h.A.w.) I.A.U.tXyXiXiXiX9X*XjX$X$X<X&X/.oX.X.X.X/.2X$XgXcXcX,Xk.pXiXpXS.f.cXcXcX&Xy.U. .p.k g a a a a i i i ",
"yXyXtXwXyXqXU.I.A.) w.A.I.Y.yXyXiXiXpXf.uXfX*.fXcX'.{.oX.X.XoX_.1XgX$XvXcX:X;XiXiXrXiXu.:XcXcXvX<.i.) i.k u a a i i i i i ",
"tXyXyXwXrXqXI.A.A.^ d.A.I.qXrXyXiXiXiXu.zX,X$XcXcX,.}.XX.X.X.Xe.fXcX1X:XcX$X;XiXtXwXrXwX;.gXcXcXbX*.^ a.j d d d i u i u i ",
"rXwXyXtXrXqXA.A.d.^ h.h.U.qXrXyXiXpXeXf.cX1.$XcXbX%.oXoX.X.X.Xe.jXcXcX$XjXf.eXiXyXwXwXyXS.u.zXfXvX1XR a.j u d d u u i i i ",
"rXrXrXyXrXY.A.A.w.) A.h.U.wXyXyXiXiXk.2XcX>.%XcX<X^.oX.X.X.X.Xr.zXcXzX%XzX<.iXyXyXyXwXwXqXi.;.&XcXcX1.u.h - t t p p u f u ",
"rXrXrXyXrXY.A.A.w. .A.A.Y.wXtXyXyXyXy.gXcX*.&XcX&X/.oX.X.X.X.Xr.cXcX<X<XhX<.iXiXyXyXwXwXwXi.1.cXcXcX<X) 4 /  .) C , & % % ",
"rXrXqXqXqXY.A.A.) t.A.A.U.tXyXyXyXeX1.cXzX*.:XcXf.{..X.X.XoX{.'.cXcX$XzX:XS.pXyXyXyXwXwXi.V.cXcXcXcX1.R w.0XiXiXyXk.k * * ",
"wXqXqXrXqXY.A.A.^ d.A.I.qXyXyXiXwXg.,XcXhX1.,XvX%.oX.X.X.XoX).'.cXfX&XcX1.wXiXyXyXyXyX@.U `.'.bXcXzX;.I.qXwXwXyXyXiXk.2 e ",
"wXwXqXwXqXI.A.h.^ s.h.A.qXtXtXtXwX;.jXcX1X%X,XhXr..X.X.X.X.X_.1XcX&XhXjXu.iXiXiXtXwXt.k ( O.e.2.hX$XR _ _  .@.y.g.qX0Xj e ",
"qXqXqXqXY.I.A.d.^ A.h.A.qXtXtXtXu.2XcXcX&X<X:X,X/..X.X.X.X.X_.hXvX$XcX1Xj.pXiXiX9X^ R =X5XC.W ( ;.*.k.eXeXqX0Xk.;. .I.j b ",
"Y.qXqXqXY.I.h.d.^ h.h.I.qXwXyXk.1.cXcXzX$XhX:X'.{.}..X.X.X.Xr.zXfX,XcX$XeXpXiXk.o.K D.6X5X5X~ y.R g.rXrXwXwXyXiXyXy._ 1 w ",
"qXqXqXY.U.I.h.d.^ A.h.I.qXwXqXy.jXcXcXfX,XvXfX,.}.oX.X.X.X}.`.vX&XgXzX1.yXiXf.o.x.V =X5X5X4X~ _ h.tXwXwXrXrXyXyXyXqXR m P ",
"Y.Y.Y.Y.I.A.h.p.^ h.A.I.U.qXy.1XcXcXvX:.hXcXfX^..X.XoX.XoX{.'.zX&XcXaXf.pXS.o.R.x.C 4X5X5X5X=.0XrXwXrXrXrXwXyXyXtXwX) 1 x ",
"Y.U.U.U.I.h.h.d.) A.I.I.I.i.f.cXcXcX$X( cXcX&X/.oX.X.X.XoX_.2XvXvXcX&Xg.tX_ x.B.J B 4X5X5X5X=.;XrXrXrXrXrXtXyXyXwXY. .G P ",
"h.A.h.h.h.h.h.d.^ I.A.A.d.;.zXcXcX<XR :XcXcXu.{..XoX.X.X.X_.hXcXcXcX<.s.w.w.B.B.K { 4X5X4XZ.-.S.rXrXrXwXrXtXtXyXqXY./ b n ",
"h.A.h.h.h.h.h.d.^ A.A.g. .hXcXcXgX*. .jXcXgX%..X.X.X.X.X.Xr.zXcXcXcXt.h.L N.B.N.D } q.8.0.>.} S.rXwXwXrXyXyXyXyXqXU.C e e "
};
