/* XPM */
static char *frame6[] = {
/* columns rows colors chars-per-pixel */
"61 64 234 2 ",
"   c #241C13",
".  c #39271A",
"X  c #482E1D",
"o  c #4C3223",
"O  c #473B29",
"+  c #513821",
"@  c #443D31",
"#  c #595A32",
"$  c #50532F",
"%  c #705230",
"&  c #5B6333",
"*  c #6C7C3B",
"=  c #697837",
"-  c #636D36",
";  c #4C5650",
":  c #685B45",
">  c #5C6A4C",
",  c #6B7B45",
"<  c #777749",
"1  c #677855",
"2  c #6C6A4D",
"3  c #5E7670",
"4  c #707A6D",
"5  c #B57939",
"6  c #BC7D39",
"7  c #B97A37",
"8  c #A6733B",
"9  c #946938",
"0  c #967448",
"q  c #877B57",
"w  c #957E59",
"e  c #896E49",
"r  c #857D6C",
"t  c #6E8039",
"y  c #73863B",
"u  c #758A3C",
"i  c #788E3E",
"p  c #708237",
"a  c #79903F",
"s  c #6F8241",
"d  c #728343",
"f  c #778A43",
"g  c #7D9343",
"h  c #738157",
"j  c #7D8579",
"k  c #7A8966",
"l  c #BE803A",
"z  c #829443",
"x  c #9C8256",
"c  c #A7895F",
"v  c #A98A5F",
"b  c #B0915E",
"n  c #968766",
"m  c #85867A",
"M  c #9A8C73",
"N  c #999475",
"B  c #849171",
"V  c #A98C60",
"C  c #B59465",
"Z  c #B59569",
"A  c #A69679",
"S  c #B39C7D",
"D  c #A69269",
"F  c #A8A47A",
"G  c #B2A27B",
"H  c #B7A87F",
"J  c #BAB97F",
"K  c #8CA17F",
"L  c #C4A268",
"P  c #7B8B88",
"I  c #6F8C8D",
"U  c #7CA5AB",
"Y  c #838D85",
"T  c #928D85",
"R  c #8A9688",
"E  c #999788",
"W  c #8B9895",
"Q  c #9A9C98",
"!  c #A49A85",
"~  c #A79D93",
"^  c #94AA8B",
"/  c #96A88A",
"(  c #9AAB97",
")  c #9DB493",
"_  c #9EB59A",
"`  c #88A191",
"'  c #A9A988",
"]  c #B8A884",
"[  c #BBB48C",
"{  c #A9A798",
"}  c #B5A99A",
"|  c #A5B899",
" . c #B9B497",
".. c #ABB68C",
"X. c #8AA7A4",
"o. c #99AAA7",
"O. c #98B3AC",
"+. c #8DB5BD",
"@. c #98B8B9",
"#. c #8EAFB2",
"$. c #A8ABA7",
"%. c #B6ACA2",
"&. c #AAB9A6",
"*. c #BCB4AD",
"=. c #B7B5A7",
"-. c #A6BDB9",
";. c #B8BBB6",
":. c #C7B98D",
">. c #C6BB95",
",. c #DCBB97",
"<. c #C9AC8A",
"1. c #C4B6AC",
"2. c #CCBDB3",
"3. c #C2BCB3",
"4. c #A9C29E",
"5. c #96C4BC",
"6. c #8CC6BD",
"7. c #ADC5A2",
"8. c #AEC6A6",
"9. c #B4CCAC",
"0. c #B1C9A8",
"q. c #B8D5AD",
"w. c #B6D2AB",
"e. c #B4C3B2",
"r. c #B8C7B7",
"t. c #BBD4B5",
"y. c #BFDDB3",
"u. c #BCD3BA",
"i. c #BBD7B9",
"p. c #A4C3BE",
"a. c #CEC298",
"s. c #D6C799",
"d. c #D6D892",
"f. c #E9C69D",
"g. c #EBC89F",
"h. c #E5C39D",
"j. c #EFDE9F",
"k. c #E5D49B",
"l. c #F0DD9D",
"z. c #EAED9C",
"x. c #C8C6A9",
"c. c #D9CCA2",
"v. c #DFD1A3",
"b. c #C9C5B8",
"n. c #D5C4BA",
"m. c #D5C6BB",
"M. c #C1DFB4",
"N. c #C1DABC",
"B. c #D7D8BB",
"V. c #ECC8A1",
"C. c #EFDEA3",
"Z. c #EEDEAC",
"A. c #E4D6A6",
"S. c #F0DEA3",
"D. c #F0DFA9",
"F. c #EEDEB0",
"G. c #C3E0B6",
"H. c #C6E3B9",
"J. c #C8E6BD",
"K. c #EFE0AC",
"L. c #E9EBA0",
"P. c #F1E0A3",
"I. c #F0E0AC",
"U. c #EFE4AD",
"Y. c #DFE29C",
"T. c #95BCC5",
"R. c #8EB7C0",
"E. c #A0BCC0",
"W. c #99C5C8",
"Q. c #95D4C9",
"!. c #9BC9D5",
"~. c #98DAD3",
"^. c #8DD0C5",
"/. c #A5C5C7",
"(. c #B9C8C4",
"). c #A5D5DD",
"_. c #A7CCD2",
"`. c #99E9DA",
"'. c #A4D5E2",
"]. c #A9DBE8",
"[. c #9FF4E4",
"{. c #9EEFE1",
"}. c #AEE1EE",
"|. c #A0F5E5",
" X c #AEE5F3",
".X c #B4ECFA",
"XX c #B1E7F4",
"oX c #B0E2EE",
"OX c #9FD3E0",
"+X c #C5C5C3",
"@X c #C8C9C7",
"#X c #CCCDCB",
"$X c #C7C9C4",
"%X c #DDCDC2",
"&X c #D0CFC2",
"*X c #C4DDC2",
"=X c #C9D1CD",
"-X c #D1D2CF",
";X c #D7D6C8",
":X c #D4D5D2",
">X c #DCDCDA",
",X c #D7DAD8",
"<X c #CAD6D4",
"1X c #E3D1C7",
"2X c #E6D4CA",
"3X c #E9D6CB",
"4X c #EBD8CD",
"5X c #E0D5CB",
"6X c #C6E2C4",
"7X c #C9E6C3",
"8X c #CCEAC4",
"9X c #CFEDCC",
"0X c #CBE5C9",
"qX c #D0EECD",
"wX c #CFF0CD",
"eX c #D1F0CF",
"rX c #D9E8D7",
"tX c #D4F3D3",
"yX c #D8F5D6",
"uX c #CFF1D0",
"iX c #E8E8DB",
"pX c #F7F7D6",
"aX c #CFEEEE",
"sX c #E4E4E3",
"dX c #ECECEB",
"fX c #E7E9E7",
"gX c #F1F1EE",
"hX c #FCFCED",
"jX c #F4F4E6",
"kX c #F4F4F3",
"lX c #FEFEF2",
"zX c #FEFEFE",
"xX c #F8F7F7",
"cX c #EFF0E8",
/* pixels */
"w S A.D.C.C.C.C.C.C.Z.K.K.Z.Z.Z.Z.F.Z.Z.Z.Z.K.Z.Z.Z.Z.Z.A.K.K.K.K.K.Z.Z.Z.Z.Z.Z.Z.Z.Z.Z.Z.F.I.D.A.v.>.:.[  . .[ [ <.>.>.a.",
"# q D s.P.P.P.Z.C.C.P.K.K.K.Z.Z.Z.K.Z.Z.Z.Z.K.K.Z.K.Z.Z.K.K.K.K.K.K.Z.A.A.Z.Z.Z.Z.Z.D.I.A.c.>. .>.3.B.>XiXiXiXiXiXsXiX;Xb.",
"  . : w L K.S.S.C.C.P.K.K.Z.Z.Z.K.K.Z.K.Z.F.Z.U.F.Z.Z.Z.K.K.K.K.Z.K.v.'  .K.Z.Z.I.F.A.>. .b.5XjXhXhXlXlXlXlXlXlXlXlXlXlXlX",
"q O   O 2 ] P.j.C.C.C.K.K.K.Z.Z.U.A.Z.K.Z.Z.B.A.a.Z.Z.Z.K.K.A.K.K.c.| +.=.K.Z.Z.Z.>. .;XhXlXlXlXhXjXiX;Xb.b.3.2.b.b.;XiXjX",
"Z b e . @ ,.P.S.C.C.D.K.K.Z.Z.F.Z.A.K.K.Z.K.K.c.Y x.K.K.K.K.K.K.v.{ ].!.a.K.K.a. .;XjXlXhXxXiX@X%.' A A M M M M M M M M E ",
"C Z C w M C.S.C.D.C.C.D.Z.Z.Z.Z.K.K.K.K.Z.K.K.s.@.O.v.K.Z.K.K.v.{ ]..XT.x.K.>.b.jXlXlXhX&X} ! A A N M M A ! S S S ! A A M ",
"C C C V G j.j.C.C.C.P.Z.Z.Z.F.Z.A.U.Z.K.Z.Z.K.>./.].o.A.K.Z.v.{ ]..X.XT.c.>.&XhXlXhX4X{ ! ! A D A ] ,.h.V.g.V.f.V.V.g.f.f.",
"C C C v G j.P.P.P.Z.D.Z.K.Z.F.Z.Z.Z.Z.Z.Z.Z.K.>._..X'.o.c.Z.{ )..X.X.X@.' ;XlXhXhXb.E ] A M ] ,.V.V.h.h.g.f.f.f.f.f.f.f.f.",
"C C C v G P.C.C.Z.Z.D.D.Z.Z.Z.D.Z.Z.Z.Z.Z.Z.F.a._..X.X].O.~ E..X.X.X.X#.b.hXlXjX=.E H M ! h.g.f.f.f.f.f.f.f.f.f.f.f.f.f.f.",
"C C C v S I.C.Z.Z.D.Z.Z.Z.F.Z.F.Z.Z.Z.Z.F.F.I.c.@..X.X.XXX!.XXXX.X.XXXW.fXlXjX{ A S n <.V.V.g.f.f.f.f.g.f.f.f.f.f.f.f.f.f.",
"C C C c G P.C.C.D.Z.Z.Z.Z.K.Z.Z.Z.Z.A.' >.s.A.s.{ .X.X.XXX X]. X.X.X.X!.;.@XQ m R P > M Z <.<.s.f.f.g.g.f.f.g.f.f.f.f.f.f.",
"C C C c G P.C.C.S.C.Z.Z.Z.K.K.F.Z.Z.Z.' #.T.@.o.@..X].T.o.$.$.$.T.'..X X'.).'.]. XW.1 = = = * < q n D <.<.,.h.g.f.V.f.f.f.",
"C C C c S P.C.C.C.Z.Z.Z.Z.Z.K.Z.Z.Z.Z.v.o..X.X.X.X!.o.n.1X3X3X%X2.%.@.}..X.X.X.X XI t p u u p p p t = * * < q n D <.<.,.h.",
"C C C v S S.C.C.C.P.Z.Z.Z.Z.K.F.F.K.F.I.>./..X.XOXo.5X4X3X3X3X3X3X3X2.$.}..X.X.X!.1 u u u p u p y y u u i u u y * * * < q ",
"C C C v S z.C.C.C.Z.Z.K.K.K.K.K.F.K.F.Z.A.{ oXXX#.%X4X3X3X3X3X3X3X3X3X2.@.XX.X.XI $ # $ $ # $ p u y y u u u i i i a i i i ",
"C C C v G P.j.j.l.D.Z.Z.Z.Z.Z.K.Z.Z.Z.F.F.a.o.OXo.%X2X4X4X4X4X4X2X1X3X3X%.'..X!.: % % % % % . $ y y y u u u u i a z i z z ",
"C C C v G j.j.P.C.C.C.D.Z.D.D.Z.Z.D.D.F.Z.[ W.#.#.o.$.*.*.*.$.$.$.X.3.4X2.E..X+.e 5 6 6 6 7 o O * y y y p u u a a a g g g ",
"C C C c G j.C.P.C.C.Z.Z.P.Z.Z.Z.Z.Z.A.x.{ /..XI P #.R.R.R.R.R.+.#.o.2.4X1XO..XXX!.R 0 5 6 7 + o & y y y u u a a g g g g g ",
"C C C c G P.j.C.j.C.C.C.Z.K.K.Z.Z.F.:.Y ]..X}.W n.%X2.1.*.*.*.+X%X1X3X3X1X$.XX.X.XXXW.Y 0 8 + o # y y y u u a g g g z z z ",
"C C C c G P.j.j.C.C.C.D.D.K.Z.Z.Z.F.Z.a.$.].T.$.1.1.2.%X4X5Xn.m.2.%X1X3X2X$.oX.X.X.X XT.4 9 + o # y y y u u a g g g g z z ",
"C C C c H P.l.S.j.S.C.D.D.C.Z.D.K.Z.K.F.s.{ I Y +X>X#X$.n.T Q +X@X3.$.2.3X$.}..X XT.m 0 5 5 + o # y p u u u a g g z z z z ",
"C C C c G P.j.j.j.S.C.C.C.S.D.Z.I.K.K.Z.U.a.P ~ *.1.1.3.2X2.%.2.3.*.*.%X2X$.}.'.P 0 7 6 l 5 + o # y u u u i g g z z z z z ",
"C C C c G P.j.j.j.j.C.C.P.Z.K.Z.Z.D.Z.F.Z.{ !.W 2.4X1X1.3X4X3X2.n.m.1.n.2X$.XX].Y 8 6 6 6 5 o o # p u u i a a g g z z z z ",
"C C C c H P.j.j.C.C.C.C.C.D.D.D.Z.Z.Z.A.{ _.].P } 1.2.%.%X%X4X2.%.%.1.2X1X$.XX.X}.X.0 7 l 7 + o % u u u i a z g g z z z z ",
"C C C V H S.l.S.S.j.l.S.S.C.C.D.Z.F.Z.' X.'.+.T 2.n.1.1.%.m.4X4X3X3X4X3X1XT T.XX.X.XW.r 5 5 o o # u u u g g g g z z z z z ",
"C C C V G P.l.l.l.l.l.l.D.S.D.Z.D.Z.Z.C.s.} T { 3X4Xn.~ %.4X3X3X3X4X4X3X%X} } ].XXOXU ; % % . X # u y u g g z z z z z z z ",
"C C C c G j.l.l.l.l.l.S.D.S.D.D.D.D.Z.D.F.Z.! T %X4X3X2.2X4X3X3X3X3X3X3X2.%.%.T.3 @ . . . . . X # y y a a g z g z z z z z ",
"Z C C c G l.l.l.l.l.l.D.S.S.D.D.D.F.Z.D.Z.s.o.P } n.2.2.2.m.%X1X2X%X3X4X1.Q E.'.; X X X X X X . # y u a g g g z z z z z z ",
"Z Z C c G C.j.l.l.j.S.C.S.C.D.Z.F.Z.Z.D.Z.A R Y } 1.1.1.*.%.%.} 1.} %X4X%.T.].].I & - - = = = = p u a g g z z z z z f z z ",
"C C C c ] P.C.C.C.C.C.C.l.j.C.C.D.Z.D.Z.Z.Z.[ I ~ 1X4X4X3X3X4X2.~ ~ %X%Xo.I > 4 > = p t p p u u u u a g g z z z f * # , f ",
"C C C c ] P.j.C.C.C.C.C.C.C.Z.D.Z.D.Z.Z.Z.Z.] E } 4X4X3X3X3X3X1Xn.m.3X%.W.U * * h N 3 > ; - u u u a g g z z z f 1 P P Y j ",
"C C C c H C.j.j.j.C.S.C.Z.D.D.I.D.F.Z.Z.Z.Z.F.Z.] 2.4X4X3X3X3X3X4X4Xn.m T 3 = * ..rXO.~.j > u u u a g g z z z d T aXaXaXR ",
"C Z Z V H l.l.l.j.C.C.P.P.K.P.K.I.I.I.K.Z.Z.A.A.a.! 2.2X4X4X4X4X4X2.~ E ! - u =  .;X5.~.j > u u u g g g z z z f Y aXaXaXP ",
"n n n q D :.,.s.s.k.k.A.C.K.K.Z.v. .[ ' ' {  .|  .| | %.2.m.m.1.{ } e.| { B B h E | U +.3 > u f i g g g g z z g 4 ( W W j ",
"*X6X6X*Xi.i.9.8.|  ...' ' ' [ F ' 4.y.G.7XwXtXtXtXyXyXu.E %.} 1.Q r.t.r.e.e.9XtXwX7X(.r._ B h t f g g g g z g g N x.x.B. .",
"yXyXyXyXyXyXtXtXtXeX9XH.y.) ^ q.M.J.J.8XwXeXyXtXyXtX7X&.{ 4X2XB.m ;.,X>XsX-X&.uXyXyXyXtXtXuX6X&.k d g g g g g s ' pXpXpXx.",
"yXtXrXyXtXtXqXqXeXqXJ.G.M.^ q.y.G.J.8XwXeXtXtX9Xu.;.e.Q ` O.O.#.X.-XzXzXzXzX,Xe.tXtXtXtXtXqXqXqXJ.4., p g g g y  .pXpXpXB.",
"yXyXyXtXtXtXtXqXeX8XG.M.4.) M.y.G.8XwXwXuXtXtX&.:XkX:X$.~.[.`.[.^.+X>XzXzXzXzX#Xu.yXtXtXuXqXqX9XJ.G.R 1 u g g y ' B.B.B.' ",
"tXyXtXtXeXeXeXqXqX8XG.M.^ 0.M.M.J.9XeXeXtXtX*X+XzXkX+X-.`.[.[.[.^.rX$XzXzXzXzXxXr.*XtXtXuX9XqXqXJ.G.7.^ 1 i a u s s s s s ",
"yXyXtXtXeXeXeXqX8XG.M.q.^ M.M.G.8XwXwXtXtXtXt.sXzX#XsX-.{.[.[.[.^.dX#XdXsXkXzXzXdX;.9XtXuXuXqXqXJ.G.0.) B u a i g f g g g ",
"yXeXtXtXqXqXqXqXJ.G.G.4.) G.M.J.8XtXtXtXtXtX&.fXdX$XgX@.|.|.[.[.W.gXsX:XdX;.xXzXzX>Xe.tXwX9X9X9XJ.G.w._ _ s g g g g g g g ",
"yXyXtXeXeXeXeX8XH.G.M.) 4.M.G.J.wXwXeXtXyX0X&.-X#XfXfX5.|.|.[.[.6.gXxX+XzX;.;.zXzXzX@Xu.tXtXuX9X8XG.7.) 4.s g g g g g g g ",
"tXtXtXqXwX9XeX8XG.M.y.^ q.M.G.8XqXqXtXtXtXu.;.@X$XzX-XQ.|.|.|.[.W.xXzX@XkX#X_ ,XzXzXxX;.0XqX9X9X8XH.7.4.7.f g g g g g g g ",
"tXtXqXqXeXeX9XJ.M.y.q.^ y.M.J.9XqXtXeXtXtXe.#X$.dXzX$X~.|.|.|.{.@.xXzX,XsX:Xu.;.kXzXzXfX&.8XqX9XJ.H.4.4.4.h g g g g g g g ",
"yXeXqX9XwXwX9XH.M.M.4.) G.G.J.qXeXeXtXtX0Xr.@X$.zXzX;.`.[.[.[.`.p.zXzXsX,X>XN.*Xr.xXzXzX:Xe.9X8X8XJ.4.4.4.s g g g g g g g ",
"tXtXeXqXwX9X8XG.y.G.| 4.G.H.8XqXeXeXtXyXN.-X#X+XsXxX@.[.[.[.[.`.p.zXzX#X>X>Xu.yXu.#XzXzXzXb.t.9X8XH.4.7.) s g g g g g g g ",
"tXeXeXeXwX9X8XM.y.y.^ w.M.G.8XeXeXeXtXyX;.fX@XfX$XdX5.[.[.[.[.`.(.zX:X-XzX>Xu.yXtX;.rXzXzXkX&.N.J.H._ 0.^ f g g g g g g g ",
"eXqXqXwXwX9XJ.M.y.w./ y.G.H.8XeXeXtXtXqXe.gX+XxX;.:X6.[.[.[.[.`.(.,X-XzXzX>Xu.yXtX9X&.kXzXzXsX&.J.H.) 0.K f g f g f g g g ",
"wXwXwXwXwX8XH.y.G.4.) M.M.J.wXeXeXtXyX*X$XgX+X+X>X#XQ.|.|.[.|.Q.<X+XdXzXzX:Xu.yXyXtXi.(.zXzXzX#X0.H.) w.K u g a a u g a i ",
"eXwXwXwXwX8XH.G.G.) 4.M.G.J.wXwXtXtXyXt.rXsX$.>XzX(.`.|.[.|.|.^.>XdX+XxXzX-X*XtXtXeXqX8.:XzXzXxXe.q.) 9.k s u u u a u a u ",
"qXuX9XwXqX8XG.M.y./ q.M.H.8XwXeXtXtXtXe.xX:X+XzXxX-.{.|.[.[.|.6.sXzX,X-XzX$X*XtXeXeXwX9X&.fXzXzXdX&.^ w.k u u u u u a u a ",
"9XqX9XwX9X8XM.M.q.^ y.y.H.8XqXeXtXtX0Xr.zX;.+XzXgX@.|.|.|.[.[.6.gXzXzX+XdXr.0XtXwXqX9X9XG.;.xXsXxX>Xm q.k u g g a u a u u ",
"qXqX9XqX9X7XM.M.7.) M.M.H.9XqXeXtXtXt.<XzX*.@XzX>XW.|.[.[.[.[.5.kXzXkX+XkX;.qXtXeXeX9X9X8Xq.$.#XzXzX;.0.h * s t p y u f u ",
"uX9XqXqXqXJ.y.G.4.| M.M.H.9XeXeXuXuX8.dXzX$.#XzX-XQ.|.|.[.[.{.p.zXzX>X>XfX;.tXtXwX9XqX9X8X0.r.zXzXzX>X) 4 / | ) B : $ # # ",
"qX9X8X9X8XJ.M.G.) 4.M.M.J.wXtXeXuX0X;.zXkX$.-XzXe.`.|.|.[.|.`./.zXzX+XkX:XN.tXuXqXqXqXqX0.(.zXzXzXzX;.R 7.7XeXtXtX(.4 % : ",
"qX9X9X8X8XH.y.y.^ w.M.G.J.eXeXeX9Xt.:XzXfX;.:XxX@.|.|.|.[.|.~.(.zXfX@XzXr.0XtXtXeXqXeX_ P p.=XgXzXkX&.N.7X9X9XeXtXtXt.< e ",
"wXwX8X8XJ.G.y.y.^ q.y.M.8XwXwXwX9X&.gXzX,X+X:XfX5.|.|.[.[.[.^.,XzX#XfXgXe.yXtXuXeX9X&.j W X.6.X.fX$XR ) _ | | &.y.8XN.n e ",
"J.J.wXwXJ.G.y.q.^ y.y.G.J.uXwXuX8.:XzXzX@X>X-X:XQ.|.|.[.[.[.^.fXxX+XzX,X(.yXtXtX7X^ N ;X3Xm.R X.&.$.i.6X0X0X6XN.&.| M.B x ",
"8XJ.8XJ.J.H.y.w.^ y.y.G.8X9XwXN.r.zXzXxX@XdX#X(.`.[.[.[.[.[.5.xXsX:XzXb.0XtXtXi...F 2.3X3X4X~ 8.R t.qXqX9XuXuXuXwX0.( h x ",
"J.wX8XJ.H.G.y.w.^ y.y.G.8XwX0X8.gXzXzX>X:XxXsX-.{.[.[.[.[.{.W.xX@XdXxX;.uXtXt...d.N %X3X3X3X{ ( M.wXqXqX9XuXqXuXwX8XR n L ",
"wXJ.J.J.G.G.y.w.^ M.M.G.G.8X8.,XzXzXxX;.fXzXfX5.[.[.|.|.|.`.(.kX#XzXiXe.yX*X..L.d.r 3X3X3X3X%.*XqX9XqXqXqXqX9XuX9X9X| < x ",
"H.H.H.G.G.y.y.w.) G.M.M.G.w.e.zXzXzX+XQ zXzX=XQ.|.[.[.[.|.^.<XzXxXzX#Xt.9X| d.L.J T 3X3X3X3X%.*XqXqXqXqXqXuXtXuX9X8X| V Z ",
"y.M.G.y.y.y.y.0.^ M.M.M.q.&.kXzXzX,XR #XzXlX;.`.[.[.[.|.[.6.fXzXzXzXe.M.7.4.z.z.F { 3X3X2X%X%.N.qX9XqXqX9XuXuXuX8XJ.^ c b ",
"M.y.G.y.y.y.y.w.( M.M.t.| sXzXzXgX$.| kXzXdX5.[.[.|.{.|.[.5.xXzXzXzX=.q./ Y.z.z.A { 2.1.3.} } N.qXqX9XqXuXwXtXwX8XH.B e 0 "
};
