/* XPM */
static char *frame12[] = {
/* columns rows colors chars-per-pixel */
"61 64 226 2 ",
"   c #231D13",
".  c #39271A",
"X  c #3D2E25",
"o  c #452B1B",
"O  c #4B331F",
"+  c #4B3223",
"@  c #483B28",
"#  c #513821",
"$  c #443D30",
"%  c #595932",
"&  c #51562F",
"*  c #6F5130",
"=  c #596233",
"-  c #6A7A39",
";  c #626C36",
":  c #4E534C",
">  c #5C6B4E",
",  c #6B7A44",
"<  c #7A7659",
"1  c #70714C",
"2  c #6E786D",
"3  c #5E6861",
"4  c #B57939",
"5  c #BC7E39",
"6  c #B77937",
"7  c #AA763A",
"8  c #846137",
"9  c #95744A",
"0  c #897A57",
"q  c #967E59",
"w  c #866B46",
"e  c #837E76",
"r  c #6F813B",
"t  c #73863B",
"y  c #758A3C",
"u  c #788E3E",
"i  c #708237",
"p  c #79903F",
"a  c #6F8143",
"s  c #728343",
"d  c #798E41",
"f  c #728348",
"g  c #7D9342",
"h  c #738056",
"j  c #798666",
"k  c #758671",
"l  c #BF803A",
"z  c #829443",
"x  c #968156",
"c  c #A7895F",
"v  c #A98A5F",
"b  c #B0905D",
"n  c #968665",
"m  c #878678",
"M  c #998C73",
"N  c #999378",
"B  c #849171",
"V  c #AA8C60",
"C  c #B59465",
"Z  c #B59668",
"A  c #A79679",
"S  c #B49B7D",
"D  c #A7926A",
"F  c #B2A27B",
"G  c #ABAA7B",
"H  c #C4A268",
"J  c #698586",
"K  c #7D8D88",
"L  c #789295",
"P  c #7CA4A7",
"I  c #8A9687",
"U  c #989688",
"Y  c #889A97",
"T  c #989D98",
"R  c #8A8C84",
"E  c #A39A86",
"W  c #A59C92",
"Q  c #94AA8B",
"!  c #96A88B",
"~  c #88A59D",
"^  c #9AAA96",
"/  c #9DB493",
"(  c #9DB59D",
")  c #8DA183",
"_  c #A8A889",
"`  c #B7A984",
"'  c #BBB58D",
"]  c #A9A899",
"[  c #B4A89A",
"{  c #A5B899",
"}  c #BCB493",
"|  c #B8B69A",
" . c #ABB68B",
".. c #8AA7A5",
"X. c #9BABAC",
"o. c #96AAA8",
"O. c #99B3AA",
"+. c #99B8B8",
"@. c #8AB1B5",
"#. c #AAACA8",
"$. c #B4ACA3",
"%. c #B8ADA4",
"&. c #AAB8A6",
"*. c #B9B3AA",
"=. c #A7BBB8",
"-. c #B9BBB6",
";. c #C6AA88",
":. c #C6BB95",
">. c #DABA96",
",. c #CBB98D",
"<. c #C3B5AB",
"1. c #C8BAAE",
"2. c #CBBDB2",
"3. c #C1BDB3",
"4. c #A9C19D",
"5. c #8CC7BD",
"6. c #96C4BC",
"7. c #ACC5A2",
"8. c #AEC7A5",
"9. c #B1C4AE",
"0. c #B4CCAB",
"q. c #B1CBA6",
"w. c #B6D2AA",
"e. c #B9D5AD",
"r. c #BAD8AE",
"t. c #A7C4BB",
"y. c #B7C6B5",
"u. c #BBD4B6",
"i. c #BFDDB3",
"p. c #BDD3BB",
"a. c #BCD7B9",
"s. c #D6C899",
"d. c #D3CF94",
"f. c #E9C69D",
"g. c #EBC89F",
"h. c #E5C29D",
"j. c #EFDE9F",
"k. c #E6D49B",
"l. c #F0DD9D",
"z. c #E9EC9C",
"x. c #EEF19F",
"c. c #DDCEA1",
"v. c #C8C7B8",
"b. c #D5C6BB",
"n. c #C1DEB4",
"m. c #C1DBBC",
"M. c #D0D1B5",
"N. c #ECC8A1",
"B. c #EFDEA3",
"V. c #EEDEAC",
"C. c #E4D5A5",
"Z. c #F0DEA3",
"A. c #F0DFAA",
"S. c #C3E1B6",
"D. c #C6E3B9",
"F. c #C8E6BD",
"G. c #C9E8BF",
"H. c #EFE0AB",
"J. c #F1E0A3",
"K. c #F0E1AD",
"L. c #DFE19B",
"P. c #97BDC5",
"I. c #8CBBC7",
"U. c #98C2C9",
"Y. c #95D4C9",
"T. c #9CCBD6",
"R. c #98DAD4",
"E. c #8ED0C5",
"W. c #A3C5C7",
"Q. c #B8C8C5",
"!. c #A2CDD6",
"~. c #A4D4DE",
"^. c #98E8DA",
"/. c #AADEEB",
"(. c #A7D8E5",
"). c #9FF4E4",
"_. c #9EEEE0",
"`. c #ABE0EE",
"'. c #A0F5E5",
"]. c #ADE4F3",
"[. c #B4ECFB",
"{. c #B1E7F5",
"}. c #C6C5C3",
"|. c #C8C8C6",
" X c #CCCDCB",
".X c #C5CAC6",
"XX c #DCCCC2",
"oX c #D0CFC1",
"OX c #CED2CD",
"+X c #C4DCC4",
"@X c #D2D2CE",
"#X c #D8D6C7",
"$X c #D4D4D2",
"%X c #DCDCDA",
"&X c #D7DAD8",
"*X c #CAD6D4",
"=X c #E1CEC3",
"-X c #E4D1C6",
";X c #E6D4CA",
":X c #E9D6CC",
">X c #EBD8CD",
",X c #E0DFD8",
"<X c #C6E2C3",
"1X c #C9E6C3",
"2X c #CCEAC3",
"3X c #CFEDCC",
"4X c #CBE6C9",
"5X c #D0EECE",
"6X c #CFF0CD",
"7X c #D1F1CF",
"8X c #D8E8D7",
"9X c #D4F3D3",
"0X c #D8F5D6",
"qX c #E7E7DB",
"wX c #F7F7D6",
"eX c #CFEEEE",
"rX c #E4E4E3",
"tX c #ECECEB",
"yX c #E7E8E7",
"uX c #F1F2EE",
"iX c #F9F9EA",
"pX c #F4F4F3",
"aX c #FEFEF2",
"sX c #FEFEFE",
"dX c #F8F7F7",
"fX c #EFEFEA",
/* pixels */
"q S C.Z.Z.B.B.B.B.V.V.V.H.V.V.V.V.V.V.V.V.V.V.V.V.V.V.V.V.V.V.V.V.V.V.V.V.V.V.V.K.K.V.V.V.K.K.K.C.s.s.,.' } } } } ;.} :.s.",
"% 0 D s.Z.Z.B.B.B.Z.J.H.H.H.V.V.V.V.V.V.V.V.K.V.V.V.V.V.V.V.V.V.V.V.V.V.C.V.V.V.K.V.V.V.C.c.:.} | v.M.&XqXqXqXqXrXqXqX#X|.",
"  . 1 q H V.B.B.B.B.J.H.H.V.V.V.V.V.V.C.V.A.H.V.K.K.V.V.V.V.V.V.V.V.V.:.N V.V.V.H.K.C.:.| v.;XfXiXaXaXaXaXaXaXaXaXaXaXaXaX",
"0 @   + 1 ` J.j.B.B.B.H.K.K.V.V.V.V.V.V.V.F.V.K.:.c.V.V.V.V.V.V.V.V.| +.o.C.V.V.C.:.:.#XiXaXaXaXaXiXqX#Xv.3.3.2.v.v.#XqXiX",
"Z V w . $ ,.J.B.B.Z.Z.V.V.K.V.V.V.V.V.V.V.V.V.V.T ] K.K.V.V.V.K.V.} U.`.O.V.V.s.} #XiXaXaXaXrXXX| E E A M M M M M M M M N ",
"C Z Z q A Z.B.B.B.Z.V.V.K.K.V.V.V.V.V.V.V.V.V.C.{ U.| K.V.V.A.C. .W.[.(.&.B.:.v.fXaXaXiXoX[ E A A N M M A E S S E ` A A M ",
"C C C V S J.j.J.B.B.V.V.V.V.V.V.V.V.V.V.V.V.V.C.X.[.+.| K.K.V.} W.[.[.(.| :.b.aXaXaXqX] E S M M A ` >.h.g.g.g.g.g.g.f.N.h.",
"C C C V A J.J.J.Z.V.V.K.V.V.V.V.V.V.V.V.V.V.V.c.O.[.{.P.| K.:.P.[.[.[.T.I oXaXaXaXv.N E A M ;.>.N.N.h.f.f.f.f.f.f.f.f.f.f.",
"C C C c F J.B.B.V.A.A.A.K.K.V.V.V.V.V.V.V.V.V.C.#.[.[.{.P.W #.{.[.[.[.T.-.aXaXiX*.N ` M S >.N.f.f.f.f.f.f.f.f.f.f.f.f.f.f.",
"C C C V S J.B.B.A.V.V.V.K.V.V.V.V.V.V.C.K.K.K.C.] {.[.[.[.~.`.{.{.[.[.~.OXaXfX[ A A n ,.N.N.N.N.f.f.f.N.f.f.f.f.f.f.f.f.f.",
"C C C V F J.B.B.Z.V.V.V.V.V.V.V.V.V.V._ ] :.c.c._ /.[.[.].`./.].[.[.[.(.=. XT e R 2 2 0 Z ;.,.h.h.N.N.N.f.f.k.h.f.f.f.f.f.",
"C C C V F J.B.B.B.B.V.V.V.V.V.V.V.V.V.s...!.P.+.+.].].P.X.X.#.X.+.T.{.{.(.~.!.~./.(.k , - - - , 0 n A H ,.>.f.g.f.g.f.g.f.",
"C C C c F B.B.B.B.V.K.V.V.V.V.V.V.K.V.V.] (.[.[.[.T.L #.;X>X>X;XXX%.X.(.[.[.[.[.[.I., t t t i i t - - - - < x n Z ;.,.>.h.",
"C C C c F J.B.B.B.V.V.V.V.V.K.V.V.H.V.V.s.#.[.[.T.P @.P.#.>X:X:X:X:Xb.X.(.[.[.[./.k t t t t i i t t t u u y i i - - , , w ",
"C C C c F Z.B.B.B.B.V.K.K.V.V.K.K.H.H.H.K.} !.`.L X.#.+.P.#.;X:X:X:X>XXX#.{.[.[.P & & & & & & - t t t u u y y u d d u u g ",
"C C C c F j.j.B.B.B.V.V.V.V.V.V.H.V.V.H.K.C.T (.T -X:X<.+.I.#.XX=X=X-X>X*.W.[.`.2 % * * * 8 . & t y t t t t u u d d g g z ",
"C C C v F j.j.J.B.B.V.V.V.J.V.V.V.V.V.K.C.} W.U.*.>X>X>X2.X.I.X.X.X.o.XXb.X.[.T.< 4 l l 5 6 + @ - y t t y y y p p p g g g ",
"C C C c F J.B.Z.B.B.Z.V.H.H.V.V.K.A.C.| #.W.]...%.>X>X2.XX<.#.X.X.X.Y XX:X#.{.{.U.R 9 4 l 4 # + = y t t i y y p g g g g g ",
"C C C c F J.j.Z.B.Z.B.B.V.H.H.V.K.K.s.R T.[.T.-.>X>X;Xb.W %.=X-XXX=X%.2.>X#.`.[.[.[.I.m 9 4 # # % t t t y y p g g g g z z ",
"C C C c F J.j.j.B.B.B.Z.Z.H.K.V.V.V.V.C.] W.@.R %.*.%.<.e R W <.*.*.] [ >X$./.[.[.[.[.~.2 8 # + % t t t y y p p g z z z z ",
"C C C v F J.j.J.B.Z.B.B.B.A.A.V.V.K.V.K.V.} .. XpXpXdXtXT 3.%XpXpXpXrX%.>X#./.[.[.T.Y 0 7 4 + + % t i y y y p z g z z z z ",
"C C C v F J.j.j.j.l.B.B.B.Z.Z.H.V.V.V.K.K.s...=.pXdXdX|.%.3.dXsXsXsX X2.>X$././.Y w 6 b l 4 # + % t y y y z p z g z z z z ",
"C C C v F J.j.j.Z.B.B.Z.J.V.V.V.V.V.V.K.C.] !.Y %.}.%.U ;X2.<.$X$X}.*.;X;X#./.`.K 7 6 5 5 4 # + % i y y y u z p z z z z z ",
"C C Z V F J.j.J.B.B.B.V.B.Z.J.A.K.V.V.s._ (.`.L W [ %.%.XXXX-X2.1.2.<.2.;X#.].[.`.Y 7 6 5 4 # o % z i y y z p z g g z z z ",
"C C C V F J.J.Z.l.l.Z.Z.B.V.B.V.V.V.V.` ^ T.@.E XX2.2.<.%.b.:X2.$.[ <.-X-XU P.{.[.[.I.< 4 4 # + % y y y d g g g z z z z z ",
"C C C V F J.l.l.l.l.l.l.Z.Z.A.A.V.V.A.K.C.:.R W -X>XXXW %.:X:X:X;X;X>X:X=X[ $.(.[.`.I.3 * * . + % y t y g g z z z z z z z ",
"C C C c F j.l.l.l.l.l.Z.A.Z.A.A.A.V.K.A.K.K.E R -X:X;X2.-X:X:X:X:X:X:X:Xb.<.%.P.J : X . . . . o & y y d d g z g z z z z z ",
"Z C C c F j.j.l.l.l.l.Z.Z.Z.A.A.A.K.A.V.J.:.o...=X>X>X>X:X:X:X:X:X:X:X>X<.U +.~.& o O . o o + . % y y d g g g z z z z z z ",
"Z Z C c F B.j.j.l.l.j.B.B.Z.Z.V.V.V.V.A.V.` T K =X>X2.2.:X:X:X:X:X:X>X>X#.P./.`.L = ; ; ; - - i t y d g z z z z z g d g z ",
"C C C c ` J.j.B.Z.Z.B.B.Z.j.B.V.V.V.V.A.V.V.` L 2.>X<.<.2.<.:X:X:X:X:X=XX.J < 2 > - i i i i i y y y d g d z z z d , % , d ",
"C C C c ` J.B.B.B.B.j.B.B.V.A.H.A.V.A.V.V.V.' _ [ >X<.m [ [ =X:X:X:X>X%.U.P - - h N > 3 > > y y y p g g z z z d 2 k K I k ",
"C C C c F J.B.j.j.B.B.J.B.A.Z.J.V.A.V.V.B.V.K.K.[ 2.;X1.W [ -X:X:X>Xb.2 Y 2 - - { :X+.R.J ; i y y d g g z z z s I eXeX&XY ",
"C Z Z V H J.l.l.j.B.J.J.A.V.V.B.K.K.K.K.C.V.C.C.s.E 1.>Xb.XX>X>X:X1.E T S ; t - | #X6.R.J > t y p g g g z z z s I eXeXeXK ",
"n n n 0 N ,.,.s.s.k.k.C.B.K.J.B.c.| ` `  .{ | { { { ] ] <.b.b.1.] ] 9.&.^ B j j ! ] ~ @.2 > t d p g g g z z z g 2 ^ T I k ",
"+X+X<X+X<Xa.0.7.{ |  ._ _ _ ' _ / 4.e.n.1X5X9X9X0X0X0Xm.U *.%.<.T y.u.y.9.y.3X9X3X<Xa.t.^ k h a d g g g g g g g B M.v.M.| ",
"0X0X0X0X0X0X9X9X9X7X3XS.n./ Q e.S.F.2X2X5X5X9X0X0X0X<X&.] >X:XM.m -.%X%XrX$X&.9X0X0X0X9X9X7X4X7.B f g g g g g s _ wXwXwXv.",
"0X0X9X0X9X9X7X5X7X5XG.n.n.Q e.i.S.F.3X3X7X9X9X5Xu.9.-.T ~ o.o.O.@.$XsXsXsXsX&Xy.0X0X9X7X9X5X5X5XS./ > y g g g t q.wXwXwXM.",
"9X0X9X9X9X9X5X5X7X2XS.n.4./ S.i.S.G.2X7X7X9X7X&.$XpX&X#.R.)._.).E.y.%XsXsXsXsX.Xp.0X0X8X5X7X5X3XD.D.Q 1 d g g r _ M.M.M._ ",
"0X9X9X9X5X7X7X5X5X2XS.n.Q q.i.S.F.3X7X7X9X0X+X}.sXpX}.=.^.'.).).E.%X|.sXsXsXsXdX-.+X9X7X7X7X5X3XG.S.4.) f d g y , f s s i ",
"9X9X0X9X9X5X5X5X2XS.n.e.Q i.i.D.2X7X7X7X9X0X0.rXsX@X%X=.).).).).5.tX XtXrXpXsXsXuX=.5X9X7X7X3X5X2XS.q./ k d u p z z p p p ",
"9X0X9X9X5X5X5X5XG.n.n.7./ S.S.D.3X7X7X9X9X9X&.yXtX.XuX=.).).).).6.uXrX$XtX-.dXsXsX%Xy.7X7X7X5X3XG.S.q.4./ r g g u z g g g ",
"9X9X9X5X5X5X3X3XD.n.S./ 4.S.S.2X3X7X9X7X0X2X&.@X XyXyX6.'.).).).6.pXpX.XsX-.-.sXsXsX|.p.9X7X5X5X2XS.8./ 7.f g g g g g g g ",
"0X9X9X5X9X3X3X2XS.n.n.Q w.n.S.2X7X7X7X7X9Xu.-.|.|.sX$XY.).).).).U.dXsX|.uX X( &XsXsXdX-.<X7X5X2XG.D.7.( 8.f g g z g g g g ",
"0X9X5X5X3X3X3XG.S.S.r.Q r.S.G.2X5X7X7X0X9Xy. X#.yXsX.XR.).'.).).6.dXsX&XrX&Xu.-.uXsXsXyX&.3X5X5XG.D.4.4.7.f g g g z z g g ",
"0X7X7X5X6X6X3XD.n.n.8.Q n.S.2X5X7X7X9X9X4X-.|.#.dXsX-.^.).).).^.t.sXsXrX&X%Xm.+Xy.sXsXsX&X9.5X2XG.D.4.4.4.a g g g g g g z ",
"9X7X5X3X6X3X2XS.n.n.{ 4.S.S.2X3X6X6X9X0Xm.@X X}.rXdX+.).).).).^.t.sXsX X%X%Xp.0Xy. XsXsXdXv.u.2XG.F.4.8./ a g g g g g g g ",
"9X7X7X7X6X3X1XS.i.i.Q w.i.D.2X6X6X9X9X9X9.rX|.yX.XtX5.).).).).^.Q.sX$X$XsX%Xp.0X0X9.%XsXsXpX&.<XG.D./ q.Q d g d d g g g g ",
"7X5X7X6X6X3XF.i.i.e.Q i.i.D.2X7X6X9X9X9X-.uX|.dX-.@XY.).).).).^.Q.&X XsXsX%Xp.0X0X3X&.dXsXsXrX&.G.D./ w.) s g d d d d g g ",
"6X6X6X6X6X2XD.n.S.4./ S.n.D.6X7X7X9X9X<X.XpX}.|.%X XR.).).).'.Y.*X}.tXsXsX$Xa.0X9X9Xa.v.sXsXsXOX8.S./ 0.B g g u u u p p p ",
"7X6X6X6X6X2XS.S.S./ 4.n.S.G.5X7X9X9X0Xy.8XrX] %XsXQ.R.).).).).E.%XtX}.dXsXOX+X9X7X7X7X8.$XsXsXdX-.w./ 0.j s g u u u y u y ",
"6X3X7X6X5X2Xn.n.n.Q e.i.S.2X5X7X9X9X0X9.dX$X}.sXdX=.).).).).).5.rXsX&X XsX|.+X9X7X7X5X3X&.yXsXsXtX&.Q e.j y d d y y y y u ",
"5X5X3X6X5X2Xn.n.e.Q i.i.S.2X5X7X9X9X4Xy.sX-.}.sXpX+.).'.).).).5.tXsXsX}.uXy.4X9X7X5X5X5Xm.9.dX%XdX%Xm e.j t u d y u u u u ",
"5X5X5X3X3X1Xn.n.4./ S.n.D.2X7X7X7X9Xa.*XsX#.|.sX%XU.).).).).).6.dXsXpX|.pX-.3X6X7X7X3X4X2X0.&. XsXsX-.8.< - - r i - d d y ",
"5X5X5X5X3XF.n.S.4.{ n.i.F.3X7X7X9X7X8.tXsX#.@XsXOXY.).'.'.)._.6.sXsX%X%XtXy.9X9X5X7X5X5X3X9.-.sXsXsXqX^ 2 Q 7./ B > & % & ",
"5X5X3X5X2XF.i.n./ 7.S.i.F.6X7X7X6X1X-.sXdX#.@XsXt.^.).).).).^.Q.sXdX}.pX$Xp.9X7X7X3X5X3X0.v.sXsXsXsX-.I 7.<X7X7X9Xm.2 * 1 ",
"5X2X2X2X2XF.i.n.Q e.i.S.G.7X7X9X3Xu.$XsXyX-.$XdX=.).).'.'.'.R.Q.sXtX|.sX-.3X9X7X6X6X7XO.K W..XuXsXpX&.n.1X3X6X6X5X5Xa.1 8 ",
"3X6X2X3X2XS.i.i.Q r.i.n.G.6X6X6X3X&.uXsX&X.X$XyXU.'.).).'.'.E.*XsX XyXuX-.9X9X9X7X3X7.k ~ o.5.~ rX}.I / ( / &.8.u.2X1Xj 9 ",
"2X2X2X2XG.S.i.r.Q i.n.n.2X6X6X6X9.$XsXsX|.%X@X$XY.).).).).).E.yXdX}.sX%Xp.9X9X9X1X) m -X:Xb.Y ~ &.&.a.1X4X3X1XQ.&.{ a.n x ",
"G.G.G.2XG.S.i.e.Q i.i.n.2X3X7Xa.y.dXsXpX|.tX XQ.^.).).).'.).6.pXrX&XsXy.4X9X9Xa._ G 2.>X:X>XW 8.I u.7X3X6X6X5X7X9X8.^ h x ",
"2X2X2XG.D.S.S.w.Q i.i.S.G.6X3X&.pXsXsXrX$XdXrX=._.).).).)._.t.sX|.tXdX-.7X0X0. .z.N b.:X:X:XW { u.5X3X3X3X6X5X7X5X2XI n H ",
"2XG.G.F.S.n.i.q.Q n.n.S.D.2X8.&XsXsXdX*.yXsXqX6.).).).).'.^.Q.pX XsXqXy.9X+X .z.d.B =X>X:X:X| +X7X3X5X5X5X5X5X7X3X3X/ < x ",
"F.S.S.S.S.n.n.q./ n.n.S.S.w.y.sXsXsX}.T sXsX@XY.).).).).'.E.*XdXdXsX Xu.6X{ L.x.,.U -X:X:X:X$.+X7X5X5X5X5X5X7X7X3X2X .V H ",
"i.i.S.S.i.i.S.q.Q n.n.n.w.&.pXsXsX%XU OXsXsX=._.).).).).).E.yXsXsXsXy.e.7.4.z.z.G W ;X;X;XXX$.m.5X3X3X5X3X7X7X6X2XG.! c b ",
"i.n.i.i.i.i.S.q./ n.n.u.{ rXsXsXtX{ ( uXsXtX6.'.).).).).).6.pXsXsXsX&.e.G L.z.L.N [ 2.<.1.$.[ m.5X5X3X5X3X7X7X6X2XD.B w 9 "
};
