/* XPM */
static char *frame2[] = {
/* columns rows colors chars-per-pixel */
"61 64 234 2 ",
"   c #241C13",
".  c #39271A",
"X  c #3E2E26",
"o  c #462B1B",
"O  c #47301E",
"+  c #4C3123",
"@  c #483B29",
"#  c #513820",
"$  c #443D30",
"%  c #595932",
"&  c #4E562E",
"*  c #705130",
"=  c #5A6232",
"-  c #6B7C3A",
";  c #687737",
":  c #626C36",
">  c #4E534B",
",  c #5C6A4E",
"<  c #6B7B44",
"1  c #7C7558",
"2  c #6E714B",
"3  c #59716E",
"4  c #70796E",
"5  c #6E5D44",
"6  c #B57939",
"7  c #BC7D39",
"8  c #AA753A",
"9  c #856138",
"0  c #897B56",
"q  c #957D56",
"w  c #927248",
"e  c #837E76",
"r  c #6F8139",
"t  c #73863B",
"y  c #768B3C",
"u  c #788E3F",
"i  c #708237",
"p  c #7A903F",
"a  c #6F8043",
"s  c #728443",
"d  c #7A8D41",
"f  c #728547",
"g  c #7D9342",
"h  c #738156",
"j  c #798667",
"k  c #728573",
"l  c #BE803A",
"z  c #829443",
"x  c #9D8256",
"c  c #A7895F",
"v  c #A98B5F",
"b  c #A08558",
"n  c #B1905E",
"m  c #968665",
"M  c #858678",
"N  c #9A8C72",
"B  c #968C75",
"V  c #849576",
"C  c #9A9476",
"Z  c #838D6B",
"A  c #A98B60",
"S  c #B59465",
"D  c #B59568",
"F  c #A79679",
"G  c #B39C7D",
"H  c #A69269",
"J  c #A8A479",
"K  c #B2A27B",
"L  c #B7A87F",
"P  c #BAB97E",
"I  c #8CA17E",
"U  c #C4A168",
"Y  c #7C8B86",
"T  c #728C8E",
"R  c #7CA4A9",
"E  c #8A9787",
"W  c #979588",
"Q  c #889A98",
"!  c #91938D",
"~  c #A49A86",
"^  c #A69D94",
"/  c #95AA8B",
"(  c #95A688",
")  c #99A896",
"_  c #9DB493",
"`  c #9EB59A",
"'  c #89A492",
"]  c #A9A989",
"[  c #B8A884",
"{  c #BAB48D",
"}  c #ADA399",
"|  c #A8A997",
" . c #B4A998",
".. c #A5B899",
"X. c #B9B597",
"o. c #ABB68B",
"O. c #9AABA9",
"+. c #98B3AB",
"@. c #89ACB4",
"#. c #8DB3BA",
"$. c #98B9B8",
"%. c #8DABA7",
"&. c #A9ABA6",
"*. c #B4ACA2",
"=. c #B8ADA4",
"-. c #A9B7A7",
";. c #BBB2AA",
":. c #B7B4A8",
">. c #A6BCB9",
",. c #B5BCB3",
"<. c #BCBEBA",
"1. c #B9B9B4",
"2. c #849FA4",
"3. c #C4B88E",
"4. c #C7BC95",
"5. c #DBBB96",
"6. c #CBAE8B",
"7. c #C3B6AC",
"8. c #C7BAAE",
"9. c #C9BDB3",
"0. c #A9C29D",
"q. c #8DC7BE",
"w. c #97C3BB",
"e. c #ACC5A2",
"r. c #AEC6A7",
"t. c #B2CDA6",
"y. c #B2C7AB",
"u. c #B6D2AB",
"i. c #B8D5AD",
"p. c #B6D4AB",
"a. c #A6C5BB",
"s. c #B7C6B5",
"d. c #BAD4B6",
"f. c #BFDDB3",
"g. c #BDD3BA",
"h. c #BCD8BB",
"j. c #D7C99A",
"k. c #D4CD94",
"l. c #E9C69D",
"z. c #EBC89E",
"x. c #E5C39C",
"c. c #EFDE9E",
"v. c #E5D49B",
"b. c #F0DD9D",
"n. c #E9EC9D",
"m. c #CAC6B7",
"M. c #D4C5BA",
"N. c #D7C8BC",
"B. c #C1DFB4",
"V. c #C1DABD",
"C. c #D3CFB0",
"Z. c #ECC9A0",
"A. c #E4D5A4",
"S. c #EFDEA3",
"D. c #EEDEAC",
"F. c #E7D9A8",
"G. c #F0DEA3",
"H. c #F0DEA9",
"J. c #C3E1B6",
"K. c #C6E3BA",
"L. c #C8E6BD",
"P. c #C9E8BF",
"I. c #EFE0AC",
"U. c #F1E0A3",
"Y. c #F0E0AC",
"T. c #EFE9A8",
"R. c #DEE29B",
"E. c #99BDC4",
"W. c #8DBCC9",
"Q. c #A1BEC0",
"!. c #9AC4C8",
"~. c #95D6C9",
"^. c #9CCBD7",
"/. c #9BD8D5",
"(. c #8DD1C6",
"). c #A5C6C9",
"_. c #B8C8C4",
"`. c #A4D4DD",
"'. c #A2CCD6",
"]. c #98E8D9",
"[. c #99F0DF",
"{. c #AADEEC",
"}. c #A7D8E5",
"|. c #9FF4E3",
" X c #9DEFE0",
".X c #ABE0EE",
"XX c #A0F5E5",
"oX c #AEE4F3",
"OX c #B4ECFA",
"+X c #B1E7F5",
"@X c #B1E2EF",
"#X c #C6C5C3",
"$X c #C8C8C6",
"%X c #CCCDCB",
"&X c #C5CAC5",
"*X c #DDCCC2",
"=X c #D0CFC2",
"-X c #C7D8C7",
";X c #D1D2CE",
":X c #D9D5C7",
">X c #D4D5D2",
",X c #DCDCDB",
"<X c #D6DBD9",
"1X c #CBD5D3",
"2X c #E0CEC3",
"3X c #E5D4CA",
"4X c #E9D6CB",
"5X c #EBD8CD",
"6X c #E4D2C6",
"7X c #E1DFD0",
"8X c #C6E2C4",
"9X c #C9E5C4",
"0X c #CCEAC4",
"qX c #CFEDCB",
"wX c #CAE5C9",
"eX c #D0EECD",
"rX c #CFF0CD",
"tX c #D1F0CF",
"yX c #D5EAD4",
"uX c #D4F3D3",
"iX c #D8F5D6",
"pX c #E7E7DB",
"aX c #F6F7D6",
"sX c #CFEEEE",
"dX c #E4E4E3",
"fX c #ECECEB",
"gX c #E7E9E7",
"hX c #F2F2EE",
"jX c #FCFCED",
"kX c #F5F4E6",
"lX c #F4F4F3",
"zX c #FEFEF2",
"xX c #FEFEFE",
"cX c #EFF0EA",
/* pixels */
"q G F.H.G.S.S.S.S.S.S.I.I.D.D.D.D.D.D.D.D.D.D.D.D.D.D.D.D.D.D.D.D.D.D.D.D.I.I.I.D.I.D.D.D.Y.H.Y.F.j.j.3.{ X.{ 3. .3.3.3.j.",
"% 0 H j.U.b.S.S.S.S.I.U.I.I.D.D.D.D.D.D.D.D.D.D.D.D.D.D.D.D.D.D.D.D.D.I.A.F.D.D.I.Y.D.Y.F.j.4.{ ;.m.N.:XpXpXpXpXpXpXpX:Xm.",
"  . 5 q 3.b.b.S.S.S.S.I.I.I.D.D.D.D.I.I.D.D.D.D.I.I.D.D.D.D.D.D.D.D.D.4.E F.D.I.Y.Y.F.4.;.m.7XkXjXzXzXzXzXzXzXzXzXzXzXzXzX",
"0 @   $ 5 L U.S.U.S.I.I.I.I.D.D.D.D.F.I.D.D.D.D.j.C.I.D.D.D.D.D.D.D.X.#.O.F.D.I.F.4.X.:XjXjXjXzXjXkXpX:Xm.s.9.9.m.m.>XpXkX",
"S n w . $ 4.U.S.S.S.H.D.I.I.I.D.I.I.D.I.D.D.D.D.E ) D.D.D.D.I.I.F.X.E..X-.H.S.j.X.:XkXjXzXjXfX*X*.] ~ F C N N N B N B B W ",
"S D D q N S.G.S.S.G.H.I.I.I.D.D.F.D.F.D.D.D.D.A.-.!.:.Y.D.D.I.F.X.!.OX{.-.F.X.m.kXzXzXjX=X} ~ ~ F C N N F G G G G G G F N ",
"S S S A K U.c.S.S.S.D.H.D.D.D.D.D.D.D.D.D.D.D.A.+.OXE.4.D.I.D.{ !.+XOX}.X.3.N.jXjXjXpX^ ~ ~ F q F [ 5.x.x.Z.Z.Z.l.Z.l.l.x.",
"S S S A G c.U.S.H.D.H.I.D.D.D.D.D.D.D.D.D.D.F.A.+.OXoX#.X.I.4.E.OXOXOX^.E :XzXzXjXm.W [ F N [ 5.x.Z.x.l.x.Z.x.x.x.l.l.l.l.",
"S S S v K Y.S.S.D.H.D.D.D.I.D.I.D.D.D.D.D.D.D.A.&.OXOXOXW.^ &.+XOXOXOX^.,.zXzXjX:.F [ B ~ x.l.l.l.l.l.l.l.l.l.l.l.l.l.l.l.",
"S S S v G Y.S.H.H.D.D.I.D.D.D.D.D.D.D.F.I.I.D.D.| oXOXOXOX`..X+XOX+X+X`.%XzXkX| F ~ m 6.Z.Z.l.l.l.l.l.l.l.l.l.l.l.l.l.l.l.",
"S S S c K n.S.G.H.S.I.D.D.I.D.D.I.D.Y.] } 4.j.j.| }.OXOX+X.X{.oXOXOXOX}.>.%X^ e E 4 4 0 D 6.6.x.x.z.Z.z.l.l.l.l.l.l.l.l.l.",
"S S S c G G.S.S.S.S.I.I.D.D.I.I.I.I.I.4.%.^.W.E.$.oX.XW.O.&.&.O.$.'.oXOX}.`.^.`.}.}.k ; ; ; ; - Z m G U 6.5.l.l.Z.l.l.l.l.",
"S S S v K c.S.S.H.D.D.D.I.I.D.D.D.D.D.D. .@XOXOXOX}.O.9.3X4X4X6XM.;.O.{.OXOXOXOXOXW.< t t t y i ; ; - - - 1 0 m H 6.6.5.x.",
"S S S v K S.S.S.H.I.D.D.I.I.D.D.I.I.D.I.j.O.+XOX{.O.*X5X5X5X4X4X4X5X9.&.}.OXOXOX.X4 i t t t y i i y y y u y y i - - - < 0 ",
"S S S v G c.S.S.H.D.D.I.I.I.D.D.I.I.D.D.Y.X.'.+X$.$X5X5X5X5X4X5X5X5X5X*X&.oX+XOXR & % % & & & ; y y y y u y u y z d p p u ",
"S S S v G G.b.b.S.S.D.D.I.I.I.I.D.D.D.D.H.F.) ^.Q &.,.&.&.&.;.7.;.;.=X5X7.).OX.X4 % * * * 9 . & i y i y y y y u g d p g p ",
"S S S v K U.b.G.S.S.S.H.D.I.H.D.D.H.D.I.F.{ Q.R T W.W.@.#.#.@.@.@.@.Q 6X*XO.OX^.0 6 l l 7 7 + @ - t t t y y y u p g g g g ",
"S S S v K U.b.G.S.S.S.D.I.I.D.D.I.I.A.X.&.!.+X2.^ M.9.} 7.7.7.9.9.7.7.5X4X&.+X+X!.E w 6 l 6 # + = y t t i y y p g g g g z ",
"S n S c K U.G.G.S.G.S.S.S.I.D.D.D.I.j.! '.OX^.1.5X4X5X9.} } 2X6X5X4X=.9.4X&.@X+XOXoXW.M w 6 # + % z t t y y p p g g z g g ",
"S S S c K b.c.S.S.S.S.H.Y.Y.D.D.D.D.D.A. .).@.! } 7.7.;.e ! ^ 7.;.7.^ *.5X&.}.OXOXOXOX`.4 9 # + * t t t y y p g g g z z z ",
"S S S v K U.c.U.S.c.S.G.H.G.H.D.Y.D.D.Y.S. .%.1XlXlXlXfX^ <.,XlXhXlX,X;.5X&.{.+X+X`.Q 0 8 6 # + & i y t y y p z z z z z z ",
"S S S v K U.c.c.b.S.S.S.S.D.S.I.Y.D.Y.D.I.j.%.>.fXxXxX$X;.7.xXxXxXxX%X9.5X=.{.{.T q 8 7 l 6 # + % y i y y z p p z z z z z ",
"S S S v L U.c.c.c.c.S.I.H.H.S.I.D.D.D.Y.A.| '.2.=.<.;.! 2X9.7.;X>X$X;.3X4X&.{.{.E 8 l 7 7 6 # + % y y y y p z z g z z z z ",
"S S S v K U.c.c.S.c.S.S.G.S.Y.D.D.D.D.j.) `.{.! } } =.=.*X*X4X9.8.9.7.9.3X&.@XOX{.Q w 7 7 6 # + % y i y y z z p g z z z z ",
"S S S v K U.U.G.b.b.G.b.G.S.S.H.D.D.I.{ Q ).#.W *X9.9.7.} 9.5X9. .} 7.6X6X! Q.+XOXOXW.0 8 6 # + % t t y d g g g z z z z z ",
"S S S v K c.b.b.b.b.b.G.G.G.H.D.D.D.D.H.F.4.W ^ 3X5XN.^ 7.4X4X5X4X5X5X4X2X} *.}.OX{.W.3 # * . + % y y y g g z z z z z z z ",
"S S S v K c.c.b.b.b.b.G.H.G.H.H.H.D.D.D.H.Y.~ M N.5X4X9.4X4X4X4X5X4X4X4XM.=.=.E.T > X . o o . o % t t d g g g z z z z z z ",
"D S S c K b.b.c.b.b.b.G.G.G.H.H.D.D.D.H.D.4.O.T } 8.8.9.9.9.2X6X3X2X4X4X7.! >.`.& o o O o O o . % y d g g g z z z z z z z ",
"D D S c K U.c.c.b.c.S.S.S.S.H.D.D.D.D.D.H.[ ! E 7.7.9.8.7.7.7.} 7.} *X5X=.E.{..XT = : : ; ; ; ; t y y g g z z z z z d z z ",
"S D S c [ U.U.c.U.S.S.c.b.c.S.D.D.D.H.Y.D.D.[ T } 6X4X4X4X4X5X9.^ ^ *X*XO.T 4 4 , ; i i i i y y y y g g z z z g d < % < d ",
"n S S c [ U.S.S.S.S.c.U.S.I.S.S.D.H.D.H.D.D.3.^ } 4X4X4X4X4X4X2XN.2X4XX.).R ; ; h I , 3 > ; y y y u g g g z z d 1 k E Y 4 ",
"S S D c K U.c.S.c.S.S.S.S.H.Y.Y.H.D.H.H.D.D.D.I.6.9.4X4X4X4X4X4X5X5XM.e E 3 - ; X.7X+./.k , t y y g g g z z z f E sXsXsX! ",
"S S S b U U.b.b.c.c.S.U.H.H.S.S.Y.D.H.G.S.F.F.F.j.~ 8.5X5X5X4X5X5X8.^ W G : t ; X.:Xw.].k , t y y g g g z z z d E sXsXsXE ",
"m m m m F 3.3.j.j.v.v.A.S.Y.Y.S.j.3.{ o.o. .....X.....| 7.M.M.8.^ &.y.-.) V Z j ( | 2.#.3 , t d g g g g z z z g j Q ' ! 4 ",
"-X8X8X-X8Xh.y.r...X.o.] ] ] { ] ] e.d.V.9XqXuXiXuXiXiXh.W ;.*.8.^ d.d.s.y.s.qXuXqX9XV.a.` V h - d g g z z g g g B C.y.C.:.",
"uXiXiXiXiXuXuXiXuXtXqXK.f._ ( i.J.P.0X0XqXuXuXiXiXuX0X-.| 4X4XN.M 1.<X,XdX;X-.tXiXiXiXuXyXrX-Xe.j f g g g g g s ] aXaXaXC.",
"uXiXuXiXiXuXqXtXtXqXL.B.J./ p.f.J.L.qXqXuXrXiXrXg.,.s.Q ' %.+.+.%.>XxXxXxXxX<Xs.uXiXuXuXuXtXtXeXP..., y p g g t e.aXaXaXC.",
"iXuXuXuXuXuXqXeXtXqXK.B.0._ J.f.K.0XqXrXrXuXrX-.>XlX>X&./.|.[.|.(._.,XxXxXxXxX&Xg.iXuXuXrXrXeXqXL.K./ , d p g t ] :XC.C.| ",
"uXuXiXuXuXeXtXeXeX9XB.B./ t.f.J.P.qXqXuXuXuX-X#XxXlX#X>.].XX|.|.(.,X$XxXxXxXxXxX<.-XuXuXrXrXeXqXL.J.e.( f g p y s f s s < ",
"uXiXuXuXtXtXeXeX0XK.B.p./ f.f.J.0XqXuXrXuXiXu.dXxX;XdX>. X|.|.[.q.gX%XfXgXfXxXxXfX,.eXuXtXtXeXqXP.J.t._ k d p p u z g p g ",
"iXuXuXuXeXeXeXeX0XJ.J.0._ J.f.P.0XrXuXuXuXuX-.gXcX#XlX$.XX|.|.|.q.lXdX>XfX<.lXxXxX,Xs.uXuXqXqXqXP.J.p.` _ a g g u g g g g ",
"uXiXuXuXeXeXqXqXK.B.f._ 0.J.J.P.qXuXtXuXuX0X-.>X%XgXgXw.XX|.|.|.w.lXlX$XxX1.1.xXxXxX&Xg.uXqXeXqXP.J.t.` e.f g g g z g g g ",
"uXuXuXtXrXrXqX0XJ.f.f./ p.f.J.0XeXuXuXuXiXd.<.$X$XxX>X(.XX XXX|.w.lXxX%XlX;XO.,XxXxXlX<.wXuXqX0X0XK.e.` t.f g g g g g g g ",
"uXuXtXeXtXrXqXL.B.f.p.( f.f.K.rXeXtXtXuXuX,.%X&.gXxX#X/.XXXX|.[.w.xXxX>XdX>Xd.y.lXxXxXgX-.qXqXqXP.K.0.0.0.f g g g z z g z ",
"uXuXtXeXeXrX0XL.J.f.t._ f.J.0XeXrXuXuXuXwXs.%X&.xXxX>.].|.|.[.[.a.xXxXdX,X<Xg.-Xs.xXxXxX>Xy.qX0X0XK.0.0.0.a g g g g g g g ",
"uXuXeXqXrXqX0XK.f.B._ 0.J.J.0XeXuXrXrXiXh.;X%X#XdXzX>.[.|.|.|.].).xXxX%X,X,Xg.iXs.%XxXxXxXs.d.0XP.P.0.e._ a g g g g g g g ",
"uXtXeXtXrXqXL.B.f.f.( u.f.K.0XtXqXrXuXuXy.gX#XgX$XfXw.|.|.|.|.]._.xX>X>XxX,Xg.iXuXr.,XxXxXlX:.8X0XK.` t./ y g d d g g g g ",
"tXeXtXrXrXqXL.B.f.p.( f.f.K.0XtXtXuXiXtX,.lX$XlX<.;Xq.|.|.|.[.]._.>X;XxXxX,Xg.iXiXqX,.hXxXxXdX-.L.K._ t.I f g d g d d g g ",
"tXtXtXeXtX0XL.B.B.0._ J.f.L.0XtXtXuXiX8X&XhX9.$X,X%X~.|.XX|.XX~.1X#XgXxXxX>Xh.iXiXuX_.s.xXxXxX%Xr.K...t.j g g u u u u u u ",
"tXtXrXrXtX0XK.B.J._ 0.J.J.P.eXtXuXiXiXs.dXdXO.dXxX_.].|.|.|.XX(.<XfX#XxXxX;XV.iXtXuXuXy.;XxXxXxX1.u...t.k d g g u y u y u ",
"qXeXqXrXeX0XB.B.f./ p.f.K.0XeXtXuXuXuXy.lX;X#XxXxXa. XXX|.|.|.q.dXxX>X;XxX$X-XuXtXtXtX0X-.gXxXxXfX&.( t.j y u d y y u u u ",
"eXqXtXrXeX0XB.B.p./ f.f.K.0XeXtXuXuXwXs.xX<.#XxXfX$.XXXX|.|.|.q.fXxXxX#XhXs.wXuXtXtXeXeXV.y.lXdXlX<XE i.j y u y y u u y u ",
"eXeXeXqXeXP.B.B.0._ J.f.K.eXtXtXuXiXd.1XxX&.$XxX,X!.XX|.XXXX|.w.lXxXlX%XlX,.tXuXtXtXqX0X0Xd.-.%XxXxX<.e.h - r r r r y t y ",
"eXeXeXeXeXL.B.B.0...J.f.K.0XtXtXrXrXr.fXxX&.%XxX%X~.XX|.|.|. X).xXxX,X<XfXs.uXtXtXrXtXtX0Xt.<.lXxXxXpX) 4 ( -.` k 5 % % = ",
"eXqX0XqX0XL.B.B._ 0.J.B.L.tXtXtXrX9X,.xXlX&.>XxXs.].XX|.|.XX].).xXxX#XlX1X_.uXtXuXrX0XtXy.&XxXxXxXxX<.E e.9XrXuXuXV.4 5 : ",
"qXqXqX0X0XK.B.f./ p.f.J.P.tXtXuXuXd.>XxXfX1.>XlX$.XX|.|.XXXX~._.xXgX%XxX<.eXuXtXqXqXtX..Y )._.hXxXlX-.B.9X0XrXrXtXtXs.2 w ",
"qXrX0X0X0XJ.f.f./ i.f.B.0XtXrXrXqX-.hXxX<X&X>XgX$.XX|.|.XXXX(.yXxX%XgXhX,.iXuXtXrXqXe.k ) 2.q.2.dX#XE ` ` ` -.r.d.0X8XZ w ",
"0X0X0X0XP.J.f.f./ f.f.J.P.rXqXuXy.;XxXxX%X,X;X>X~.XXXXXX|. X(.gXlX#XxX<Xg.iXuXiX8X( E *X4XN.E ) -.&.h.9XqX9X8Xh.e...B.Z q ",
"0XP.0X0XP.J.f.p./ f.f.J.0XqXqXh.<.xXxXlX$XgX;X_.].XX|.|.|. Xw.lXgX>XxX#XwXuXuXg.o.J 9.4X4X4X^ r.( d.tXqXqXqXtXtXrXr.) h q ",
"0X0X0XP.K.J.B.p./ f.B.J.0XeXqX-.hXxXxXdX>XlXdX>.[. XXX|.|.[.!.lX#XhXlX,.tXtXd.o.R.N 2X4X4X4X^ ` d.0XeXqXqXqXrXrXrXqXE m U ",
"P.P.P.K.J.B.B.t./ J.B.B.L.0Xr.<XxXxXxX1.gXxXgXw.XX|.XX|.|.]._.lX%XxXpXs.uX_.0.n.k.Z 6X4X4X4X*.K.rXqXeXeXqXrXrXrXtX0X..1 x ",
"K.J.K.J.J.B.f.t._ B.B.B.J.t.s.xXxXxXm.Q xXxX%X~.XX|.XX|.XX(.1XxXxXxX%XB.rX..R.n.P W 4X4X4X5X*.-XeXeXqXeXeXrXtXtXeX0X_ A U ",
"B.B.f.B.f.f.B.t./ B.B.B.u.-.lXxXxX,XE ;XxXxXa.]. XXX|.|.|.(.gXxXxXxXs.i.0.0.n.n.J ^ 4X4X3XN.*.V.eXqXqXqXeXtXtXtX0XL.( x n ",
"f.f.f.f.f.f.f.t._ B.B.i...gXxXxXfX&...hXxXfX$.|.|.|.|.XX|.$.lXxXxXxX-.p.J R.n.n.J } 8.7.9.*.*.V.tXqXqXeXeXtXtXtX0XK.V w w "
};
