/* XPM */
static char *frame17[] = {
/* columns rows colors chars-per-pixel */
"61 64 226 2 ",
"   c #241D13",
".  c #39271A",
"X  c #3D2E26",
"o  c #452B1C",
"O  c #4B321F",
"+  c #4B3223",
"@  c #473B2A",
"#  c #513821",
"$  c #55572E",
"%  c #595932",
"&  c #4E552F",
"*  c #6F5130",
"=  c #5A6233",
"-  c #6A7A39",
";  c #626D37",
":  c #4E534C",
">  c #5C6B4F",
",  c #6C7A44",
"<  c #71724E",
"1  c #6E796D",
"2  c #5E6861",
"3  c #BC7D39",
"4  c #B67939",
"5  c #AA753A",
"6  c #856036",
"7  c #C07F39",
"8  c #877B57",
"9  c #947C57",
"0  c #917249",
"q  c #837E76",
"w  c #6E8139",
"e  c #73863B",
"r  c #758A3C",
"t  c #798E3F",
"y  c #79903F",
"u  c #6E8043",
"i  c #728443",
"p  c #798E41",
"a  c #738547",
"s  c #7D9342",
"d  c #738156",
"f  c #798667",
"g  c #758672",
"h  c #BF803A",
"j  c #829443",
"k  c #9C8257",
"l  c #A78A5F",
"z  c #A98A5F",
"x  c #B0905D",
"c  c #968765",
"v  c #878679",
"b  c #9A8C73",
"n  c #9B9477",
"m  c #849271",
"M  c #AA8C60",
"N  c #B59465",
"B  c #B59569",
"V  c #A79679",
"C  c #B49B7D",
"Z  c #A7926A",
"A  c #AAA37A",
"S  c #B2A27C",
"D  c #BAB97F",
"F  c #C4A168",
"G  c #698685",
"H  c #7C8D8A",
"J  c #779396",
"K  c #7DA4A7",
"L  c #8A9787",
"P  c #979687",
"I  c #889A96",
"U  c #9A9D98",
"Y  c #8B8D84",
"T  c #A39A87",
"R  c #A69D94",
"E  c #95AA8B",
"W  c #96A98A",
"Q  c #97A996",
"!  c #9DB494",
"~  c #9EB49A",
"^  c #89A190",
"/  c #A8A889",
"(  c #B7A984",
")  c #BBB58D",
"_  c #A8A899",
"`  c #B4A899",
"'  c #A5BB9B",
"]  c #A6B698",
"[  c #BAB598",
"{  c #ACB68D",
"}  c #98AAA9",
"|  c #99B3AB",
" . c #98ADB0",
".. c #99B8B8",
"X. c #89ADB0",
"o. c #A9ACA7",
"O. c #B4ACA2",
"+. c #B9ADA3",
"@. c #B5AEA8",
"#. c #AAB7A6",
"$. c #B9B3AA",
"%. c #A7BCB9",
"&. c #B5BDB3",
"*. c #BBBBB7",
"=. c #C6BB95",
"-. c #DABA96",
";. c #C7AF8B",
":. c #C3B5AB",
">. c #C7B9AD",
",. c #CBBCB2",
"<. c #C3BEB5",
"1. c #A9C19E",
"2. c #8DC6BD",
"3. c #97C4BC",
"4. c #ACC4A2",
"5. c #AFC6A7",
"6. c #B1C5AD",
"7. c #B4CCA9",
"8. c #B9D4AD",
"9. c #B6D2AA",
"0. c #B7C6B5",
"q. c #BAD4B5",
"w. c #BFDDB3",
"e. c #BDD3BB",
"r. c #BDD9BB",
"t. c #A4C3BE",
"y. c #D6C799",
"u. c #D4CD95",
"i. c #E9C69D",
"p. c #EBC89F",
"a. c #E6C39D",
"s. c #EFDE9F",
"d. c #E6D49B",
"f. c #F0DD9D",
"g. c #EAEC9E",
"h. c #DCCEA1",
"j. c #C8C6B8",
"k. c #D5C5BA",
"l. c #C1DEB4",
"z. c #C1DBBC",
"x. c #D0D1B5",
"c. c #EBC8A0",
"v. c #EFDEA4",
"b. c #EEDEAC",
"n. c #E5D5A5",
"m. c #F0DEA3",
"M. c #F0DFAA",
"N. c #C3E0B6",
"B. c #C6E3B9",
"V. c #C8E6BD",
"C. c #C9E8BE",
"Z. c #EFE0AC",
"A. c #EFE0A7",
"S. c #F1E0A3",
"D. c #F0E1AD",
"F. c #EFE9A8",
"G. c #DEE29A",
"H. c #98BEC5",
"J. c #8DBCC9",
"K. c #98C4C9",
"L. c #95D4C8",
"P. c #9CCBD6",
"I. c #99D9D5",
"U. c #8DD0C5",
"Y. c #A4C5C8",
"T. c #B7C9C5",
"R. c #A2CDD6",
"E. c #A4D4DD",
"W. c #98E8D9",
"Q. c #ABDEEC",
"!. c #A7D8E5",
"~. c #9DEEE0",
"^. c #9FF4E4",
"/. c #ABE1EE",
"(. c #A0F5E5",
"). c #ADE3F2",
"_. c #B1E6F4",
"`. c #B4ECFB",
"'. c #B2E9F7",
"]. c #C5C5C3",
"[. c #C8C8C6",
"{. c #CCCDCB",
"}. c #C5CAC4",
"|. c #DCCCC2",
" X c #D1CFC7",
".X c #C4DDC2",
"XX c #C9D4CC",
"oX c #D1D2CE",
"OX c #D8D6C7",
"+X c #D4D5D2",
"@X c #DCDDDB",
"#X c #D7DAD8",
"$X c #CAD4D2",
"%X c #E1CEC3",
"&X c #E4D1C6",
"*X c #E6D4CA",
"=X c #E9D6CC",
"-X c #EBD8CE",
";X c #E1DFD1",
":X c #C6E3C4",
">X c #C9E5C4",
",X c #CCEAC3",
"<X c #CFEDCC",
"1X c #CBE6CA",
"2X c #D0EECD",
"3X c #CFF0CD",
"4X c #D1F0CF",
"5X c #D1EFD0",
"6X c #DEE1DD",
"7X c #D4F3D3",
"8X c #D8F5D6",
"9X c #E7E6DB",
"0X c #F7F7D6",
"qX c #CFEEEE",
"wX c #E4E4E3",
"eX c #ECECEB",
"rX c #E7E8E7",
"tX c #F0EFEA",
"yX c #F2F2EE",
"uX c #FCFCED",
"iX c #F4F4E6",
"pX c #F4F4F4",
"aX c #FEFEF2",
"sX c #FEFEFE",
"dX c #F8F7F7",
"fX c #EFF0EF",
/* pixels */
"9 C n.b.m.m.v.v.v.v.b.D.b.b.b.b.b.b.b.b.b.b.b.C.D.Z.b.b.b.b.Z.b.b.b.b.b.b.b.b.b.b.b.b.b.b.D.M.M.n.y.y.) ;.) [ [ ) [ ;.=.y.",
"% 9 Z y.M.M.v.v.v.M.v.b.D.Z.b.b.b.b.n.b.b.b.b.b.D.Z.D.b.b.b.Z.b.b.b.b.Z.n.b.b.b.b.b.b.b.n.h.=.[ :.j.x.;X9X9X9X9X9X9X9XOXj.",
"  X * c F v.m.v.v.v.m.S.D.b.b.b.b.b.b.b.b.b.b.b.D.b.b.b.b.b.b.b.b.b.b.=.L b.b.b.D.D.n.=.+.j.;XiXuXaXaXaXaXaXaXaXaXaXaXaXaX",
"8 @   @ < ( m.m.v.v.v.b.Z.b.b.b.b.b.b.b.b.b.b.b.=.h.b.b.Z.n.b.b.b.b.[ ..} n.b.A.v.=.[ OXuXaXuXaXuXiX9XOXj.<.<.>.j.j.OX9XiX",
"N M 0 . @ =.m.m.v.m.b.M.b.D.b.b.n.Z.Z.b.b.b.b.b./ Q Z.Z.Z.Z.b.b.b.` K./.] b.b.y.[ OXiXaXaXuXeX%X+./ T b V b n b b b b b P ",
"N N B 9 n v.f.v.v.m.M.b.D.D.b.b.b.b.Z.Z.Z.b.b.n.o.P.[ Z.b.Z.b.b.) Y.`.!.#.b.;.j.iXaXaXuX X` T T V n b b V C C C C ( V V b ",
"N N N M S f.m.m.m.v.b.b.b.b.b.b.b.b.b.b.b.b.b.n.} '...:.Z.b.b.[ K.`.`.!.[ =. XuXaXaX;X_ V T V 9 V ( -.a.c.p.c.p.a.c.p.i.a.",
"N N N l C g.v.v.v.v.b.b.b.b.b.b.b.b.b.b.b.b.Z.h.| `.'...[ b.=.K.`.`.`.P.L OXuXaXuXj.P ( V b ( -.c.c.a.a.a.a.i.i.a.a.i.i.p.",
"N N N z S S.v.v.b.M.b.M.D.D.b.b.b.b.b.b.b.b.b.n.} `.`.'.J.R o.'.`.`.`.P.&.aXaXyX$.P ( b T a.c.c.i.i.i.i.i.i.i.i.i.i.i.i.i.",
"N N N z C S.v.m.M.b.b.b.D.b.b.b.b.b.b.n.b.b.b.n._ _.`.`.`.E.Q.'.'.`.`.P.$XaXiX` V A c ;.c.i.i.i.i.i.i.i.i.i.i.i.i.i.i.i.i.",
"N N N l S S.v.M.M.v.b.b.b.b.b.b.b.b.b.( _ =.y.h./ Q.`.`._.Q.Q._.`.`.`.!.o.$XU q Y 1 1 9 B ;.;.a.a.p.p.p.i.i.p.i.i.i.i.i.i.",
"N N N l S A.v.v.m.v.b.b.b.b.b.b.D.b.D.=.} P.K.H..._./.H. .o.o. ...P.'.`.!.E.R.E.Q.!.g - - - - , 8 c Z ;.;.y.a.p.p.p.p.p.i.",
"N N N l S v.v.v.v.b.b.b.b.b.b.b.D.b.b.b.` !.`.`.`.P.J @.*X-X-X&Xk.$. .!.`.`.`.`.`.J., e e e e e w - - - - < k c B ;.;.-.a.",
"N N N z S S.v.v.b.D.b.b.b.b.b.b.D.Z.b.D.y. .`.`.P.K X.H.o.-X-X*X-X-Xk.o.!.`.'.`.Q.g e e e e e e e e r t t r e w - - , , 8 ",
"N N N z S f.v.v.m.v.b.b.b.D.D.b.D.Z.b.b.D.) R.).J } o...H.@.*X-X=X=X-Xk.o._.`.`.K & % $ $ $ $ - e e e r r r r t p j t y t ",
"N N N z S s.s.f.v.M.D.b.b.b.b.b.b.b.b.D.D.n.U !.U %X=X:. .J.@.k.%X%X*X=X:.Y.`.).1 $ * * * * . & e e e r r r t t t s y y s ",
"N N N z S s.s.S.v.v.A.Z.b.v.M.b.b.b.M.D.b.) H.H.$.-X-X=X,. .H.H. . .} |.%X .`.P.< 4 h h h 4 + + - e e e r r r t y y s s s ",
"N N N l S s.s.S.f.v.v.Z.Z.Z.b.b.b.b.n.[ _ R.).X.@.-X-X,.|.:.R  . . .I |.&Xo.'.'.P.Y 0 4 h 4 # + ; e e e r r r t y s s s j ",
"N N N l S S.v.s.s.v.v.v.A.Z.Z.b.D.D.y.Y R.`.P.$.-X=X-X,.R ` &X&X|.%X+.,.-XO.Q.`.`.'.K.v 0 4 # + % e e e r r y y s s s s s ",
"N N N l S s.s.v.v.v.m.v.M.Z.b.b.D.b.b.n.` R.X.Y @.@.:.@.q Y R :.$.$._ ` *X@.!.`.`.`.`.E.1 6 # + % e e e r t y s s j j j j ",
"N N N M ( S.f.m.v.m.v.M.v.v.M.b.Z.b.b.b.v.` X.{.pXdXdXfXU *.@XpXpXpX@X$.-X@.!.`.`.P.I 8 5 4 # + % e e e r r y s s j j j j ",
"N N N l S S.s.s.v.f.v.v.v.v.S.b.Z.b.b.b.D.y.U %.fXsXdX[.@.:.sXsXsXsX{.,.-X@.Q.Q.I 0 4 x 7 4 # + * e e r r r y j j j j j j ",
"N N N M S S.s.s.v.s.v.v.D.M.Z.b.b.M.b.b.n._ E.I @.,.@.P *X,.:.oX+X].$.*X=Xo.Q.Q.v 5 3 3 3 4 # + % r e r r y j y s j j j j ",
"N N N M S S.s.s.f.v.v.v.M.v.S.M.M.b.b.y._ !.Q.J R ` +.+.|.|.*X,.>.,.:.,.*Xo.).`.).I 0 4 7 4 # + % r r r y y y j s j j j j ",
"N N N M S S.S.s.S.f.f.m.v.v.Z.M.b.b.D.) Q Y.X.U k.k.>.:.+.,.-X,.+.` :.&X*XY H.'.`.`.H.1 4 3 # + $ e r r p s s s j j j j j ",
"N N N M S S.f.f.f.f.f.m.m.v.M.b.b.M.b.v.n.=.P R *X-X|.T +.=X-X=X*X*X-X=X%X` +.!.`./.J.2 * * . o % r r r s s j j j j j j j ",
"N N N l S s.f.f.f.f.f.m.M.m.M.M.M.b.b.M.D.D.T v &X=X*X,.&X=X=X=X=X=X=X=Xk.:.+.H.G : X . . . . o % e r t s s s s j j j j j ",
"Z N N l S s.f.f.f.f.f.m.m.f.M.M.b.b.b.M.D.=.} X.%X-X-X-X=X=X=X=X=X=X=X-X:.Y %.E.& o o . o o o . $ r r p s s j j j j j j j ",
"B N B l S S.s.f.f.f.v.v.f.m.m.b.b.b.b.M.b.( U H %X=X,.,.=X=X-X=X=X=X-X-Xo.H.Q.).J = ; ; - - - w e r t p s j j j j s p j j ",
"N N N l ( S.v.m.m.m.v.v.m.s.v.M.b.b.M.b.b.b.( J ,.-X:.:.>.:.&X=X=X=X-Xk.} G 1 1 > - w w w w r r r p s s s j j j p , % - p ",
"N N N l ( S.m.v.v.v.m.S.v.v.Z.b.M.b.M.M.b.b.) / O.-X:.q ` ` &X=X=X=X*X+.K.K - - d n > 2 : ; e e r t s s j j j p 1 g Y H g ",
"N N N l S S.f.v.s.v.v.v.v.M.M.D.b.M.M.M.b.b.D.D.` ,.&X,.R ` =X=X=X-Xk.q L 1 - - [ 2X..I.g > e r r p s s j j j i Y qXqXqXI ",
"N N N M S g.f.f.f.s.s.v.A.A.A.Z.Z.D.D.D.b.n.n.n.u.V >.-Xk.k.-X-X=X>.R R V ; e - [ OX3.I.G > r r t s s s j j j a L qXqXqXL ",
"c c c 9 V ;.-.y.y.d.d.d.v.D.D.b.h.=.( / { { [ ' #.#.~ ` >.k.k.>.R #.6.' Q m m f P ] ^ ..2 > r t t s s s s j j p f U I L g ",
".X:X:Xz.z.e.9.5.' [ { ! / ( ) A ! 1.8.B.:X1X7X7X8X8X8Xr.U :.+.*.R 0.e.0.6.0.1X7X<X:XT.6.| g d u p s s s j j s p m x.j.x.[ ",
"8X8X8X8X8X7X7X7X7X4X<XN.w.! E 8.N.B.,X,X2X7X7X8X8X7X,X#.` k.=Xx.v &.#X6XwX+X#.5X8X8X8X8X7X3X,X4.f a s s s s s r / 0X0X0Xj.",
"7X7X8X8X7X4X4X2X2X2XC.l.w.E 8.w.N.C.,X4X3X7X7X3Xr.6.0.U ^ | | | X.+XsXsXsXsX#X0.7X7X7X8X7X2X2X2XV.! , w s s s e 7.0X0X0Xx.",
"8X8X8X5X7X7X4X2X2X,XB.l.1.! N.w.N.C.4X4X7X7X7X#.+XpX+Xo.I.^.W.^.U.].@XsXsXsXsX[.e.8X8X7X7X7X2X<XV.V.^ , r s s w / x.x.x./ ",
"8X5X8X5X7X2X2X5X2X,Xl.l.E 7.w.N.C.,X4X4X7X7X.X}.sXpX].%.W.^.^.^.2.6X[.sXsXsXsXdX0.XX8X7X4X2X2X<XC.N.4.^ d y y t , a i i , ",
"8X8X8X5X4X5X2X2X,XB.l.8.E l.w.N.,X4X4X4X7X8X0.6XsX+X@X%.~.^.^.^.2.eX{.eXwXpXsXsXeX&.2X7X4X<X2X2XC.N.7.! g t y y t j s y s ",
"8X5X7X7X2X4X2X2XC.N.N.1.! N.w.B.<X4X7X7X7X4X5.rXeX[.yX..(.(.^.^.2.pX9X+XeX<.pXsXsX#X0.7X2X<X2X<XC.N.7.' ! i y s j p s s s ",
"8X8X7X7X<X2X2X,XB.l.N.! 1.w.N.,X4X4X7X7X7X,Xo.oX{.rXrX3.(.(.^.^.2.pXpX}.sX&.*.sXsXsX}.e.7X2X<X<X,XB.4.! 7.a s s s j s s s ",
"7X7X7X2X3X<X4X,XN.N.w.E 9.w.B.,X4X4X4X7X7Xe.0.[.}.sX+XU.(.^.^.^.K.dXsX{.pX{.| #XsXsXdX&.:X7X4X2X,XN.4.' 1.a s s s s s s j ",
"8X5X5X2X3X3X<XC.N.N.8.E w.N.B.<X4X4X7X7X7X&.{.o.rXsX}.I.(.(.^.~.3.dXsX+XwX+Xq.&.pXsXsXrX#.<X2X,X,XB.4.1.4.a s s j s j s s ",
"7X4X4X<X<X3X<XB.l.l.4.E N.N.C.<X4X4X7X7X1X0.{.o.sXsX&.W.^.^.^.W.t.sXsXwX#X#Xj..X0.sXsXsX+X6.2X,XC.B.1.1.1.u s s s s s s s ",
"8X7X4X2X4X3X,XN.w.N.' 1.l.N.,X2X3X3X7X8Xe.oX{.].wXdX%.~.^.^.^.W.t.sXsXoX@X@Xe.8X0.{.sXsXsXj.e.,XC.B.1.5.! u y s s s s s s ",
"7X4X4X4X3X<X>XN.w.N.E 9.w.B.,X2X4X4X7X8X6.wX[.rX[.eX3.^.^.^.^.W.T.sX+XoXsX@Xe.8X7X6.6XsXsXpX#..X,XB.! 7.E w s p s s s s s ",
"7X2X2X3X3X<XV.l.w.9.E w.w.B.<X4X4X7X8X5X&.pX[.dX*.oXK.^.^.^.^.W.T.+XoXsXsX#Xz.8X8X1X&.pXsXsXwX#.C.B.! 7.E i s p s p p s s ",
"2X2X<X2X3X<XB.w.N.1.! N.N.B.3X4X7X7X8X:X}.fX].[.@X[.I.^.^.(.(.U.$X].eXsXsX+Xe.8X7X7Xe.e.sXsXsX{.5.B.] 7.m p s y t t y y y ",
"7X5X2X3X3X,XB.w.N.! 1.N.N.C.4X2X7X7X8X0.6XwX_ wXsXT.W.^.(.^.(.U.#XeX].dXsX{..X8X7X7X2X6.+XsXsXdX&.9.~ 7.g e s t t t r t t ",
"2X2X2X3X<X,XN.l.w.E 8.N.N.,X2X2X7X7X7X6.dX+X].sXdX%.~.(.^.(.^.U.wXsX#XoXsX[..X7X5X2X2X,X#.rXsXsXfX#.E 9.f p t p r r r r t ",
"2X<X4X<X<X,XN.l.8.E w.w.B.,X2X4X7X7X1X0.sX*.].sXfX..^.^.(.(.^.2.fXsXsX].fX0.1X7X7X2X2X<Xz.0.dX6XpX6Xv 9.f r t p t r t r r ",
"2X2X<X4X<XC.l.l.4.! l.l.B.,X7X4X7X7Xq.$XsX@.].sX6XK.^.^.^.^.^.3.pXsXpX[.pX0.2X4X2X2X2X<X<X9.o.{.sXsX0.6.d - - e w - p p r ",
"2X2X<X4X2XC.l.N.1.' N.l.B.2X7X4X3X7X5.fXsXo.oXsXXXL.^.^.^.^.~.t.sXsX@X#XeX0.7X7X2X5X2X2X,X5.0.sXsXsX@XQ 1 W ' ~ m > & % % ",
"2X<X<X<X,XB.l.l.E 7.w.l.C.2X7X2X7X>X&.sXpXo.oXsX0.W.^.^.^.^.~.Y.sXsX[.pX+XT.7X5X5X2X2X2X5.].dXsXsXsX*.L 1.,X7X7X7Xz.1 * * ",
"<X<X,X1X,XC.w.l.E 9.l.l.C.2X7X2X7X0.+XsXrX*.+XdX%.~.^.^.^.^.W.T.sXrX[.sX0.1X7X5X5X2X2X] H t.XXeXsXpX#.B.C.<X2X5X7X2Xr.< 0 ",
",X3X,X3XC.B.w.w.E w.w.N.,X3X3X4X<X#.fXsX#X[.+XrXK.(.^.^.^.^.U.#XsX{.eXyX&.5X8X7X3X<X4.g U X.2.X.rXj.L ~ ~ ~ ' 5.q.,XV.f 0 ",
",X,X,X,XC.N.w.8.E w.w.l.C.3X3X4X6.+XsXsX{.@XoXoXL.^.^.^.^.^.U.rXdX}.dX#Xe.8X7X7Xz.W Y |.=Xk.I Q #.o.r.:X1X<X>XT.#.] z.m l ",
",X,X,XC.C.B.w.9.E w.w.l.,X2X2Xr.*.sXsXpX}.eX{.T.W.(.^.^.^.^.3.pXwX+XsX].1X7X8Xr.{ A j.-X=X=XT 5.L r.7X<X3X3X2X5X4X5.~ < 9 ",
",X,XC.C.B.N.w.9.E w.w.N.,X<X<X#.fXsXsXwX+XdXwX%.~.^.^.^.^.^.3.sX[.eXdX&.3X7X0.{ G.n %X=X=X=X_ ~ q.<X2X<X<X4X4X5X4X,XL c F ",
"C.C.C.C.N.N.w.9.! l.l.l.B.,X5.#XsXsXdX&.rXsXrX3.^.(.(.(.(.W.T.pX{.sXwX0.7X:X{ F.u.c |.*X=X*XO..X4X<X<X<X<X2X2X5X2X,X! 8 9 ",
"C.B.N.N.N.N.w.7.Q l.l.l.N.7.0.sXsXsXj.U sXsX{.L.^.(.(.^.(.U.$XsXdXsX{.q.3X~ G.g.D P *X*X-X-XO..X4X2X<X<X<X7X4X4X<X,X] M F ",
"w.w.w.w.w.w.N.7.W N.l.l.9.#.pXsXsX#XP oXsXsX&.W.^.^.(.^.^.2.rXsXsXsX0.9.1.1.g.g./ _ *X*X*Xk.O.z.7X<X2X<X<X<X3X3X,X,XW k x ",
"w.w.w.w.w.w.w.8.E N.l.w.] wXsXsXfXo.~ yXsXeX3.^.^.^.(.^.^.3.pXsXsXsX4.8.A G.g.g.V ` ,.>.,.+.+.z.2X<X5X<X2X3X3X3X,XB.m 0 0 "
};
