/* XPM */
static char *frame20[] = {
/* columns rows colors chars-per-pixel */
"61 64 234 2 ",
"   c #231D13",
".  c #39271A",
"X  c #3E2E26",
"o  c #452B1C",
"O  c #4A321F",
"+  c #50371F",
"@  c #4B3123",
"#  c #473B2A",
"$  c #513821",
"%  c #55582E",
"&  c #595932",
"*  c #4D552F",
"=  c #6F5130",
"-  c #5A6233",
";  c #6A7939",
":  c #626D37",
">  c #4E534B",
",  c #5C6B4F",
"<  c #6B7A44",
"1  c #7B775A",
"2  c #6F714C",
"3  c #6E796D",
"4  c #5E6861",
"5  c #B57939",
"6  c #BC7E39",
"7  c #B77937",
"8  c #AA753A",
"9  c #856136",
"0  c #C07F39",
"q  c #957449",
"w  c #897A57",
"e  c #947C57",
"r  c #866B46",
"t  c #837E76",
"y  c #6E8039",
"u  c #73863B",
"i  c #768A3C",
"p  c #798E3F",
"a  c #7A903F",
"s  c #6E8043",
"d  c #728343",
"f  c #7A8E41",
"g  c #728448",
"h  c #7D9342",
"j  c #738156",
"k  c #7A8567",
"l  c #748671",
"z  c #BF803A",
"x  c #829443",
"c  c #968257",
"v  c #A7895F",
"b  c #A98B5F",
"n  c #B0905D",
"m  c #87867B",
"M  c #998C74",
"N  c #9A9477",
"B  c #8C8D6D",
"V  c #AA8C60",
"C  c #B59465",
"Z  c #B59569",
"A  c #A7967A",
"S  c #B49B7D",
"D  c #A4926B",
"F  c #A9A479",
"G  c #B2A27C",
"H  c #B9B97D",
"J  c #8DA17F",
"K  c #C4A168",
"L  c #698685",
"P  c #7C8E8A",
"I  c #779294",
"U  c #7DA3A7",
"Y  c #7598A0",
"T  c #8A9788",
"R  c #979687",
"E  c #889A97",
"W  c #989D98",
"Q  c #898D86",
"!  c #A39A88",
"~  c #A69D94",
"^  c #94AA8B",
"/  c #96A88A",
"(  c #98A996",
")  c #9DB493",
"_  c #9DB59D",
"`  c #89A193",
"'  c #A8A888",
"]  c #B7A984",
"[  c #BCB58D",
"{  c #A8A898",
"}  c #B5A999",
"|  c #A5BC9C",
" . c #A5B799",
".. c #BAB597",
"X. c #ACB68D",
"o. c #98AAA9",
"O. c #98B3AA",
"+. c #99B8B8",
"@. c #8CADB0",
"#. c #AAACA7",
"$. c #B5ACA2",
"%. c #B7AEA6",
"&. c #AAB7A6",
"*. c #B9B2A9",
"=. c #A7BBB8",
"-. c #B5BCB3",
";. c #BBBAB7",
":. c #C6BB95",
">. c #DABA96",
",. c #C8B08B",
"<. c #C3B5AB",
"1. c #C7B9AD",
"2. c #CBBDB3",
"3. c #C4BDB4",
"4. c #AAC19E",
"5. c #8CC7BD",
"6. c #96C4BC",
"7. c #ACC4A2",
"8. c #AEC6A8",
"9. c #B1C4AE",
"0. c #B4CCAC",
"q. c #B1CBA6",
"w. c #B6D1AA",
"e. c #B9D4AD",
"r. c #B7D4AB",
"t. c #B7C6B5",
"y. c #BAD4B6",
"u. c #BFDDB3",
"i. c #BDD2BB",
"p. c #BDD9BB",
"a. c #A4C3BE",
"s. c #D7C89A",
"d. c #D4CD95",
"f. c #E9C69D",
"g. c #EBC89F",
"h. c #E5C29D",
"j. c #EFDE9F",
"k. c #E6D49B",
"l. c #F0DD9D",
"z. c #EAED9D",
"x. c #EFF19F",
"c. c #DCCEA1",
"v. c #C7C7B9",
"b. c #D4C4BA",
"n. c #D6C6BB",
"m. c #C1DEB4",
"M. c #C1DCBC",
"N. c #CFD0B4",
"B. c #ECC8A1",
"V. c #E4D4A4",
"C. c #EFDEA3",
"Z. c #EEDEAC",
"A. c #E7D9A7",
"S. c #F0DEA3",
"D. c #F0DFAA",
"F. c #C3E0B6",
"G. c #C6E3B9",
"H. c #C8E6BD",
"J. c #C9E8BF",
"K. c #EFE0AC",
"L. c #EFE0A7",
"P. c #F1E0A3",
"I. c #F0E0AD",
"U. c #F1E1B0",
"Y. c #DEE29A",
"T. c #98BEC5",
"R. c #8EBCC9",
"E. c #A0BFC0",
"W. c #98C4C9",
"Q. c #95D5C9",
"!. c #9CCBD6",
"~. c #99D8D6",
"^. c #8DD1C5",
"/. c #A4C5C8",
"(. c #B7C9C5",
"). c #A4D4DD",
"_. c #A2CDD6",
"`. c #99E8DA",
"'. c #9AF0DF",
"]. c #A9DAE7",
"[. c #9FF4E4",
"{. c #9DEDE0",
"}. c #AAE0EE",
"|. c #A0F5E5",
" X c #ADE3F2",
".X c #B4ECFB",
"XX c #B2E7F5",
"oX c #C5C5C3",
"OX c #C8C8C7",
"+X c #CCCDCB",
"@X c #C5C9C4",
"#X c #DCCCC2",
"$X c #D1CFC7",
"%X c #C4DDC2",
"&X c #CAD2CD",
"*X c #D1D2CE",
"=X c #D8D6C7",
"-X c #D4D5D2",
";X c #DCDDDB",
":X c #D7DAD8",
">X c #CAD6D4",
",X c #E1CEC3",
"<X c #E3D1C6",
"1X c #E6D4CA",
"2X c #E9D6CC",
"3X c #EBD8CE",
"4X c #E1DFD1",
"5X c #C6E2C4",
"6X c #C9E5C4",
"7X c #CCEAC3",
"8X c #CFEDCC",
"9X c #CBE5CA",
"0X c #D0EECE",
"qX c #CFF0CD",
"wX c #D0F0CF",
"eX c #D1EFD0",
"rX c #DEE0DC",
"tX c #D4F3D3",
"yX c #D8F5D6",
"uX c #E7E6DB",
"iX c #F7F7D6",
"pX c #CFEEEE",
"aX c #E4E4E3",
"sX c #ECECEB",
"dX c #E7E9E7",
"fX c #F0EFEA",
"gX c #F2F2EE",
"hX c #FCFCED",
"jX c #F4F4E6",
"kX c #F4F4F3",
"lX c #FFFFF2",
"zX c #FEFEFE",
"xX c #F8F7F7",
"cX c #EFF0EF",
/* pixels */
"e S A.D.S.S.S.C.C.Z.C.K.K.Z.Z.Z.Z.Z.Z.Z.Z.Z.K.K.Z.K.U.Z.Z.Z.Z.Z.Z.Z.Z.Z.Z.Z.Z.Z.Z.Z.Z.Z.Z.U.D.U.A.s.s.,.,.[ ....[ ..:.:.s.",
"& w D s.D.S.C.C.C.S.D.C.K.K.U.Z.Z.Z.Z.Z.Z.Z.K.K.Z.Z.Z.Z.Z.Z.K.Z.Z.Z.Z.K.V.Z.Z.Z.Z.Z.D.D.V.c.:.[ %.v.N.;XuXuXuXuXuXuXuX=Xv.",
"  . = B K Z.S.S.C.C.S.D.Z.U.Z.Z.Z.Z.Z.Z.Z.Z.Z.J.Z.U.Z.Z.Z.Z.Z.Z.Z.Z.Z.:.T A.A.K.D.U.A.:...v.4XjXhXhXlXlXhXlXlXlXhXlXlXlXlX",
"w #   # 2 ] S.l.C.C.C.Z.Z.Z.Z.Z.Z.Z.Z.Z.Z.A.Z.U.:.c.Z.Z.Z.A.Z.Z.Z.Z...+.o.Z.K.K.Z.:...=XkXlXhXlXhXjXuX=Xv.v.3.3.2.v.=XuXjX",
"C n r . # >.S.S.C.S.D.Z.Z.Z.Z.Z.Z.K.A.Z.Z.Z.Z.Z./ { U.U.Z.Z.Z.U.A...T.}.#.D.Z.s...$XhXhXhXhXfX#X%.' ! A M M M M M M M M R ",
"C Z C e N C.C.S.l.C.C.Z.U.Z.Z.Z.Z.Z.Z.Z.Z.Z.Z.A.#.T...Z.Z.Z.Z.Z.} /..X]. .Z.:.v.jXlXhXhX$X} ! ! A N M M A S S S S S A A M ",
"C C C V G S.S.S.C.C.Z.Z.Z.Z.Z.Z.Z.Z.K.K.Z.Z.K.V.O.XX+.:.Z.Z.Z.../..X.X]. .:.n.lXlXlXuX{ ! S A e A ] >.h.f.f.g.g.f.B.g.f.h.",
"C C C V S z.S.S.L.C.Z.Z.U.Z.Z.Z.Z.Z.A.K.K.A.K.c.=.XXXXR...Z.:.T..X.X.X!.R =XlXhXhXb.N ! A M ] >.B.B.h.h.f.f.f.f.f.f.f.f.f.",
"C C C b G P.C.C.Z.Z.Z.D.U.Z.U.Z.Z.Z.Z.Z.Z.Z.Z.V.#..X.XXXR.~ #.XX.X.X.X!.;.lXlXhX%.R ] M ! h.B.B.f.f.f.f.f.f.f.f.f.f.f.f.f.",
"C C C b S P.D.D.D.D.Z.Z.U.Z.Z.Z.Z.Z.Z.A.Z.Z.Z.A.#. X.X.X.X).}.XXXX.X.X!.>XlXjX{ A A M ,.B.f.f.f.f.f.f.f.f.f.f.f.f.f.f.f.f.",
"C C C b F P.C.C.D.C.Z.Z.Z.Z.Z.Z.Z.Z.Z.] { :.s.c.' ]..X.X X}.}. X.X.X.X].#.&XW m T 3 1 w Z ,.,.h.f.g.g.g.f.f.f.f.f.f.f.f.f.",
"C C C b G P.C.C.C.C.Z.K.Z.Z.Z.Z.Z.Z.U.:.o.!.W.+.+. X XT.o.#.#.o.+.!.XX.X]._.!.).].).l < ; ; ; < 1 v S K ,.s.h.f.f.B.f.f.f.",
"C C C b G C.C.C.C.C.Z.Z.Z.Z.Z.Z.Z.Z.Z.Z.} ]..X.X.X!.I %.1X2X2X<Xn.*.o.]..X.X.X.X.XR.< u u u u u y ; ; ; ; 1 c B Z ,.,.>.h.",
"C C C b G P.C.C.C.Z.Z.Z.Z.Z.Z.Z.U.Z.Z.U.s.O..X.X!.U @.T.%.2X2X2X3X3Xn.#.]..X.X.X].l u i u i u u u u i i a i y u ; ; < < w ",
"C C C b G l.C.C.D.C.Z.U.Z.Z.Z.Z.Z.Z.Z.Z.I.[ _.}.Y o.#.T.T.#.2X3X2X3X3Xn.#. X.X.XU * & % * % % ; u u i i i i i p f h a a p ",
"C C C b G j.j.C.C.P.K.K.K.Z.Z.Z.Z.Z.Z.Z.U.A.W ).W ,X2X<.+.T.#.#X,X,X<X3X<./..X X3 & = = = = . * u i u u u i p p f h a a h ",
"C C C b G j.j.P.C.C.L.Z.C.K.D.Z.Z.D.Z.U.A.[ T.W.*.3X3X2X2.o.R.@.@.o.o.#Xn.=..X!.1 8 z z z 7 @ # ; u u u i i i p a a h h h ",
"C C C v G l.C.S.C.C.C.K.K.K.Z.Z.Z.Z.V.[ { _.}.@.*.2X2X2.#X<.#.o.o.o.E #X<X#.XXXXW.Q q 5 z 7 + @ : u u u i i i a a h h h h ",
"C C C v G P.j.j.C.j.C.C.C.K.K.Z.Z.U.s.Q _..X!.*.3X2X2Xb.~ $.,X<X<X1X$.2.2X#. X.X.X.XW.m q 5 $ @ & u u u u i a h h h h h x ",
"C C C v G P.j.C.C.S.C.D.I.Z.Z.Z.U.U.Z.V.} _.@.Q %.*.*.%.t Q ~ <.<.*.~ $.3X%.]..X.X.X.X).3 9 $ @ & u u u i i a a h x x x x ",
"C C C V G P.l.S.C.C.C.C.C.C.Z.Z.Z.Z.U.U.A...@.OXxXxXxXsXW ;.;XkXkXkX;X*.4X%.]..X.X!.E w 8 5 $ @ & u u u u i a a h x x x x ",
"C C C b ] S.j.j.l.C.C.S.C.S.D.K.Z.Z.Z.Z.D.s.W =.kXxXxXOX%.3.zXzXzXzX+X2.2X$.].].E q 7 n z 5 $ @ & u u i u x a x h x x x x ",
"C C C V G j.j.j.C.l.C.C.P.Z.K.K.Z.Z.Z.Z.V.{ ).E %.3.%.R <X2.<.+X-XoX*.1X2X$.}.}.Q 8 7 7 6 5 $ @ & i i i i p x a h x x x x ",
"C C C V G S.C.j.j.j.C.C.D.D.P.D.D.Z.U.s.{ ).}.I ~ } %.$.#X#X,X2.1.2.<.2.2X#. X.X}.E q 7 z 5 $ @ & i i i i x a x h x x x x ",
"C C C V G P.P.P.l.l.S.S.C.C.K.D.Z.Z.U.] ( W.@.R ,X2.2.<.$.b.3X2.} } <.<X1XQ T..X.X.XR.w 5 5 $ @ & i i i h h h x x x x x x ",
"C C C V G j.l.l.l.l.l.S.S.C.D.Z.Z.Z.D.I.A.:.R ~ <X3X2.~ %.2X2X2X1X2X3X3X#X} %.)..X XR.4 = = . @ & i i i h h h h x x x x x ",
"C C C v G P.l.l.l.l.l.l.D.C.D.D.D.Z.D.Z.D.U.! m <X3X3Xn.<X2X2X2X2X3X2X2Xb.%.<.T.L > X . . . . . % d i i f h h x x x x x x ",
"Z C C v G l.j.l.l.l.l.S.S.S.D.D.Z.U.Z.D.D.:.o.@.,X3X3X3X2X2X2X2X2X2X2X3X<.W +._.* . o X o o o . % i i f h h h x x x x x x ",
"Z Z C v G L.j.l.l.j.C.C.S.l.D.C.D.Z.Z.D.Z.] R I ,X2X2.2.2X2X2X2X2X2X2X2X$.R.]. XI - : : : ; ; ; i i p h h x x x x x p x x ",
"Z Z C v G P.j.C.S.C.C.S.S.S.C.Z.D.Z.Z.Z.C.Z.[ I 2.3X<.<.2.<.1X2X2X2X2X#XW I 3 3 , ; y y y y i i i i f h x x x x f ; & ; g ",
"n C C v ] P.j.C.C.S.C.C.C.C.K.C.D.D.Z.Z.Z.Z.[ ' } 3X<.t } } ,X2X2X2X1X%.W.Y ; ; 1 N , 4 , : i i i p h h x x x f 3 l P P m ",
"C C C v ] P.j.C.j.C.C.C.C.D.D.I.Z.Z.Z.D.K.Z.U.Z.} 2.<X2.~ } 2X2X2X3Xb.m T 3 ; ; ..0XO.~.l , u i i f h h x x x d Q pXpXpXT ",
"C C C V H l.l.l.S.z.P.P.D.L.L.K.K.K.I.I.L.A.A.V.s.N <.2Xb.#X3X3X2X1.W ! A - y ; ..N.6.).L , i i i h h h x x x d Q pXpXpXT ",
"c e M e N :.>.s.h.k.k.k.C.I.I.Z.c.:.] ' X.{ ..| &.&. .} <.n.n.3.~ &.8.&. .J k k / { ` R.3 - u i f h h h x h x h k ( ` T l ",
"%X9X%X%XM.y.0.7. .X.) ' ' ] [ F ) 4.e.G.6X8XtXyXyXyXyXp.R <.} <.! t.i.t.9.t.wXtX8X5X(.t.O.l j s f h h h h h h h B v.v.N.$.",
"yXyXtXyXyXtXtXtXtXtX8XF.u.) / r.F.G.7X7X8XqXtXtXyXtX6X&.{ 1X1X=Xm ;.;XrXaX-X&.wXyXyXyXyXtXqX9X7.k g h h h h h d ' iXiXiXN.",
"yXeXyXyXtXtX0X0X0X8XH.m.u.^ r.u.F.H.8X8XtXtXtX8Xy.9.t.W ` O.( O.@.-XzXzXzXzX:Xt.eXyXyXyXtXeX0XwXJ.| , i h h h u :.iXiXiXN.",
"yXyXeXyXtXtXwX0X0X8XG.m.7.) F.u.F.J.7XwXtXtXqX&.-XkX-X#.`.'.{.[.^.oX;XzXzXzXzXOXi.yXyXeXtX0X0X8XH.G.T < p h h u { J.N.N.' ",
"yXyXyXeX0XwXwX0X0X6Xm.m.^ q.m.F.J.7XwXwXtXtX%XoXzXkXoX=.`.[.[.[.5.rXoXzXzXzXzXxXt.%XtXtX8XtX0X8XH.F.7.^ s h h i < g s d s ",
"tXyXyXeXtX0X0X0X7XG.m.e.^ u.m.F.J.wXwXtXtXyX0.aXzX*X;X=.'.[.[.[.^.dX+XsXaXkXzXzXsX-.eXtXqX8X8X8XJ.F.q.) l f f p a a a h h ",
"tXyXtXtXeXeX8X8X7Xm.F.7.) F.u.G.8XwXtXtXtXtX7.dXsXoXgX+.|.[.[.[.5.cXuX-XsX;.kXzXzX;X9.tXtX8X8X8XJ.F.q.| ) s h h h h h h h ",
"yXtXeXeXeX8X8X8XG.m.m.) 4.m.F.7XwXwXtXtXtX7X&.+X+XsXaXW.|.[.[.[.6.kXkX@XzX;.;.zXzXzX+Xi.tX8X8X8X7XF.q.) 7.g h h h h h h h ",
"tXyXeXeXqXqX8X7XF.m.u.^ w.m.F.7XwXwXwXtXtXi.;.+XoXzX-X^.[.[.[.[.W.kXzX+XkX+X_ ;XzXzXxX-.5XtX8X8X7XG.7.| q.s h h h h h h h ",
"tXtXeXeXeXqX8XH.F.m.e.^ u.u.H.8XwXwXtXtXeX9.+X#.sXzX@X~.|.|.[.'.6.xXzX-XaX-Xi.9.kXzXzXdX&.8X0X8XJ.G.4.4.7.g h h x h x h h ",
"tXtX0X0X8XqX8XG.m.F.7.) u.F.7X8XqXqXtXyX9Xt.+X#.xXzX-.`.[.[.[.`.a.zXzXaX:X:X(.6Xt.zXzXzX-X9.8X7XJ.G.4.4.4.s h h h h h h h ",
"yXtXwX0XwX8X7XF.u.F.) 4.F.F.7X8XqXqXtXyXi.*X+XoXaXxX=.[.[.[.[.`.a.zXzX+XrX;Xv.yXt.+XzXzXzXv.y.7XJ.G.4.7.) d h h h h h h h ",
"tX0XwXqXqX8X7Xm.u.m.^ w.u.F.7X8XwXtXtXtX9.dXOXaXOXsX6.[.[.[.[.`.(.zX-X*XzX;Xi.yXtX9.;XzXzXkX&.5X7XG.| 8.^ u h h h h h h h ",
"eX0X0XqX8X8XH.m.m.r.^ u.m.G.8XwXqXtXyX8X;.cXOXxX;.*X^.[.[.[.[.`.(.:X*XzXzX:XM.tXyX8X&.xXzXzXaX&.H.F. .q.J d h p h f f f h ",
"tXwX0XqXqX8XG.m.F.4.) m.m.H.0X0XtXtXyX5X%XsXOX+X;X+XQ.[.[.[.|.Q.>XoXsXzXzX-XM.yXtXtXp.v.zXzXzX+X8.G. .q.J i a p p p p p a ",
"8XqX8XqXqX7XF.m.F.) 7.F.m.H.0X0XtXtXyXt.rXaX~ rXzX(.`.[.|.|.[.^.:XsXoXxXzX+X%XyXtXwXqX9.-XzXzXxX-.w.) 0.l u p p p p i p p ",
"eXqXqXqXqX7XF.m.u.^ r.u.F.7X0XwXtXtXtX9.kX-XoXzXzX=.{.|.[.|.[.5.aXzX:X+XzXOX%XtXwXqX0X8X&.dXzXzXsX&./ w.k i a i i i i i p ",
"8XeX8X8X0X7Xm.m.r./ m.m.F.7X0XwXtXtX9Xt.zX;.oXzXsX+.|.|.|.|.|.5.cXzXzXoXcX;.9XtXwXeX0X0XM.9.xXaXxX;XQ w.k i a p p i p i i ",
"eX8X0X0X8XH.m.m.7.) m.m.G.7X0XwXtXtXy.>XzX#.OXzX;XW.[.[.[.[.[.6.xXzXxXoXkX-.eXtXqXeX8X8X8X0.&.+XzXzX;.8.j ; y y y ; d f i ",
"0XeX0X0X0XH.u.F.4.| m.m.H.0XtXwXtXtX8.sXzX#.*XzX&XQ.[.|.[.[.'.W.xXzX;X;XsX9.tXtXeX8X8X8X8X8.;.xXzXzX;X) 3 / &.) B , % & & ",
"8X8X8X8X7XH.m.m.) 7.m.m.H.0XtX0XwX6X;.zXxX#.*XzXt.`.[.[.[.|.`.(.zXzXoXkX*XM.tXwX0X0X0X0X0.v.zXzXzXzX;.T 4.6XwXtXwXp.k = = ",
"8X8X7X7X7XG.u.u.^ w.m.m.J.0XtX0X8Xy.-XzXdX;.-XxX+.|.[.|.|.|.~.(.zXaX+XzX;.0XtXwXwXwXwXO.P /.(.cXzXkX&.F.7X8X8XwXtXwXy.1 r ",
"8X7X7X8XH.G.m.u.^ e.u.m.J.qXqXwX8X&.kXzX:XOX-XdX6.|.[.[.[.[.^.:XzX+XdXcX-.tXtXtXqX8X&.m ` @.5.` dXv.T  ._ _ _ &.y.7XH.k q ",
"7X8X7X7X7XF.m.r.^ u.m.m.7XqXqXwX9.-XzXzXOX;X*X-XQ.[.[.[.[.[.^.dXxXoXzX:Xi.tXtXtXG./ m =X2Xb.E ( &.#.y.5X7X8X6Xp.4.O.y.B c ",
"J.7X7X7XH.F.m.r./ m.m.F.7X0XwXp.t.zXzXkXOXsX+Xt.`.|.[.[.[.[.6.xXaX-XzXv.9XtXyX(.X.F b.2X2X2X! 9.T p.wX0X0X0X8XtXwX8.) k e ",
"7X7X7XH.G.F.u.r.^ m.m.m.7XwX7X&.cXzXzXaX-XxXaX=.{.[.[.[.[.'.6.zX+XsXxX-.tXtXe.X.Y.N n.2X2X2X' _ y.8X0X0X0X8XeXwXwX7XT c K ",
"J.J.J.H.F.m.m.w.) m.m.m.G.7X8.:XzXzXxX*.dXzXdX6.[.|.|.|.[.`.(.kX+XzXaXt.tX%XX.z.d.t <X2X2X4X} %XwX8X8X8X0X8X8XqXwX8X .2 c ",
"H.F.F.F.F.m.m.q.^ m.m.m.F.q.t.zXzXzXoXW zXzX*XQ.[.[.[.|.[.^.>XzXzXzX+Xy.qX_ Y.x.H R 1X2X2X2X$.%XwX0X8X8X8XwXwXtX0X7X .D K ",
"u.u.m.u.m.u.u.w.) m.u.m.e.&.kXzXzX;XT *XzXzX=.`.[.[.|.|.[.5.dXzXzXzXt.e.7.4.z.z.F { <X2X<X#X$.M.tX8X8XwX0XwXwXwX7XH./ v n ",
"u.m.u.u.u.u.u.0.^ m.u.u. .aXzXzXcX{  .gXzXsX+.[.[.|.|.|.[.+.xXzXzXzX&.r.F Y.z.z.A } 2.<.2.%.$.M.0X0X8X8XwXwXwXwXJ.G.B r q "
};
