/* XPM */
static char *frame23[] = {
/* columns rows colors chars-per-pixel */
"61 64 230 2 ",
"   c #241D14",
".  c #39271A",
"X  c #3D2E26",
"o  c #462C1C",
"O  c #4D341F",
"+  c #493425",
"@  c #513821",
"#  c #595832",
"$  c #51572F",
"%  c #6F5130",
"&  c #5A6233",
"*  c #6A7939",
"=  c #626D37",
"-  c #4E534B",
";  c #5C6B4E",
":  c #6C7B44",
">  c #71724F",
",  c #59726E",
"<  c #71796D",
"1  c #6E5D46",
"2  c #B67939",
"3  c #BD7E39",
"4  c #B77937",
"5  c #AA753A",
"6  c #846136",
"7  c #967449",
"8  c #887A57",
"9  c #947C57",
"0  c #896E49",
"q  c #837E76",
"w  c #6E8039",
"e  c #73863B",
"r  c #758A3C",
"t  c #798E3E",
"y  c #7A903F",
"u  c #728343",
"i  c #798D41",
"p  c #71824B",
"a  c #7D9342",
"s  c #71814E",
"d  c #798666",
"f  c #758671",
"g  c #BF803A",
"h  c #829443",
"j  c #968257",
"k  c #A7895F",
"l  c #A98A5F",
"z  c #B0905E",
"x  c #868579",
"c  c #9B8C72",
"v  c #958C78",
"b  c #9A9477",
"n  c #8C8D6C",
"m  c #AA8C60",
"M  c #B59465",
"N  c #B59569",
"B  c #A79679",
"V  c #B49B7D",
"C  c #A69269",
"Z  c #A9A479",
"A  c #B2A27C",
"S  c #B9B97D",
"D  c #C4A168",
"F  c #698585",
"G  c #7D8D8A",
"H  c #789294",
"J  c #7DA3A7",
"K  c #899687",
"L  c #979687",
"P  c #889A97",
"I  c #999D97",
"U  c #898D86",
"Y  c #A39A87",
"T  c #A79D94",
"R  c #8DA084",
"E  c #94AA8B",
"W  c #96A88A",
"Q  c #98A996",
"!  c #9DB494",
"~  c #9DB49A",
"^  c #85A29D",
"/  c #A8A888",
"(  c #B7A984",
")  c #BBB58C",
"_  c #A8A898",
"`  c #B5A999",
"'  c #A5B89A",
"]  c #BAB598",
"[  c #ACB68C",
"{  c #98AAA9",
"}  c #99B3AB",
"|  c #88AEB6",
" . c #98B8B8",
".. c #8DADAD",
"X. c #AAACA7",
"o. c #B5ACA2",
"O. c #B7ADA5",
"+. c #AAB8A6",
"@. c #B9B2A9",
"#. c #A6BCB9",
"$. c #B5BCB3",
"%. c #BABBB7",
"&. c #C5B68E",
"*. c #C6BB95",
"=. c #DABA96",
"-. c #C7AA89",
";. c #C3B5AB",
":. c #C6B8AC",
">. c #C8BDB3",
",. c #D0BFB4",
"<. c #AAC19E",
"1. c #8DC6BD",
"2. c #97C4BC",
"3. c #ACC4A2",
"4. c #AEC5A9",
"5. c #B1C4AD",
"6. c #B5CDAC",
"7. c #B1CBA5",
"8. c #B9D4AD",
"9. c #B6D2AA",
"0. c #B7C6B5",
"q. c #BBD4B6",
"w. c #BFDDB3",
"e. c #BDD2BB",
"r. c #BCD7BA",
"t. c #A4C3BE",
"y. c #D7C899",
"u. c #D4CD95",
"i. c #E9C69D",
"p. c #EBC89F",
"a. c #E5C29C",
"s. c #EFDE9F",
"d. c #E6D49B",
"f. c #F0DD9D",
"g. c #EAED9D",
"h. c #DCCEA2",
"j. c #C8C7B8",
"k. c #D4C5BA",
"l. c #D9C8BE",
"z. c #D1C4B7",
"x. c #C1DEB4",
"c. c #C1DCBC",
"v. c #D0D1B5",
"b. c #ECC8A1",
"n. c #E4D4A4",
"m. c #EFDEA4",
"M. c #EEDEAC",
"N. c #E7D9A7",
"B. c #F0DEA3",
"V. c #F0DFAA",
"C. c #C3E1B6",
"Z. c #C6E3BA",
"A. c #C9E6BD",
"S. c #C9E8BE",
"D. c #EFE0AC",
"F. c #EFE0A7",
"G. c #F1E0A3",
"H. c #F0E0AD",
"J. c #F0E9A8",
"K. c #DEE299",
"L. c #98BEC5",
"P. c #8DBDC9",
"I. c #8ECAC1",
"U. c #99C3CA",
"Y. c #8DD4C8",
"T. c #95D4C9",
"R. c #9CCBD6",
"E. c #99D9D5",
"W. c #A4C5C8",
"Q. c #B8C9C5",
"!. c #A4D4DD",
"~. c #A3CDD5",
"^. c #99E9DA",
"/. c #ABDEEC",
"(. c #A7D8E5",
"). c #9EF4E3",
"_. c #9EEEE0",
"`. c #ABE1EE",
"'. c #A0F5E5",
"]. c #ADE4F2",
"[. c #B1E6F4",
"{. c #B4ECFB",
"}. c #B3E9F7",
"|. c #C5C5C3",
" X c #C8C8C7",
".X c #CCCDCB",
"XX c #C6C9C5",
"oX c #DCCCC2",
"OX c #D1CFC7",
"+X c #C4DDC2",
"@X c #CAD2CD",
"#X c #D1D2CE",
"$X c #D8D6C8",
"%X c #D4D5D2",
"&X c #DCDDDB",
"*X c #D7DAD8",
"=X c #CAD6D4",
"-X c #E1CEC3",
";X c #E4D1C6",
":X c #E6D4CA",
">X c #E9D6CC",
",X c #EBD8CE",
"<X c #E1DFD1",
"1X c #C6E1C4",
"2X c #C9E5C4",
"3X c #CCEAC3",
"4X c #CFEDCC",
"5X c #CBE6CA",
"6X c #D0EECE",
"7X c #CFF0CD",
"8X c #D1F0CF",
"9X c #CFEED0",
"0X c #D4ECD2",
"qX c #D4F3D3",
"wX c #D8F5D6",
"eX c #CFF2D0",
"rX c #E7E7DB",
"tX c #F7F7D6",
"yX c #CFEEEE",
"uX c #E4E4E3",
"iX c #ECECEB",
"pX c #E7E8E7",
"aX c #F0EFEA",
"sX c #F2F2EE",
"dX c #FCFCED",
"fX c #F4F4E6",
"gX c #F4F4F4",
"hX c #FEFEF2",
"jX c #FEFEFE",
"kX c #EFF1F0",
/* pixels */
"9 V n.V.G.F.m.m.m.m.F.m.D.M.H.H.M.M.M.M.M.M.M.M.M.M.M.M.M.M.M.D.D.M.M.M.M.M.M.M.M.M.M.M.M.H.V.V.N.h.*.&.&.) ` ] &.] &.*.y.",
"# 9 C y.G.J.m.F.m.m.F.D.D.D.H.M.M.M.M.M.M.M.M.M.M.M.M.M.M.M.M.M.M.M.D.D.n.M.M.M.M.H.M.M.N.h.*.] ] >.k.rXrXrXrXrXrXrXrX$Xj.",
"    1 9 D H.B.B.m.m.m.D.H.M.M.M.M.M.M.N.M.M.M.M.H.H.M.M.M.M.M.M.M.M.M.*.K N.M.M.H.H.n.*.] j.<XfXdXdXhXhXhXhXhXhXdXhXhXhXhX",
"8 $   + 1 ( G.m.G.m.m.D.M.M.M.M.M.M.M.D.N.M.M.M.y.v.M.M.M.M.M.M.M.M.] } { N.M.D.N.*.*.$XsXhXhXhXdXfXrX$Xj.%.>.>.j.j.$XrXfX",
"N m 0 . + =.G.f.m.m.M.M.M.M.M.M.D.N.M.D.M.M.M.M.W Q F.D.D.D.M.M.M.] L.].+.V.M.y.] $XfXhXhXdXiXoX@./ B b B v c c c c c v L ",
"M N N 9 b F.m.m.m.m.m.M.M.M.M.M.D.D.M.D.M.M.M.N.X.P.@.H.D.D.M.N.( U.{.(.' M.&.j.fXhXhXdXOX` Y Y Y c c c B V V V ( V B B c ",
"M M M m A G.s.m.m.m.H.M.M.M.M.M.N.D.M.M.M.M.D.n.X.}. .] D.M.M.] W.{.{.(.' *.OXdXdXdXrXT Y Y B 9 B -.&.a.a.b.b.b.a.b.i.i.i.",
"M M M m A s.m.m.m.m.H.H.M.M.M.M.M.D.M.M.M.M.D.h. .{.].L.] D.*.U.{.{.{.R.L oXhXhXdXj.L ( B c ( =.i.i.p.p.i.i.a.p.p.a.i.i.i.",
"M M M l A H.m.m.M.V.V.M.M.H.M.M.M.M.M.M.M.M.M.h.X.{.{.[.P.T X.[.{.{.{.R.$.hXdXfX@.b ( c ( =.b.b.i.i.i.i.i.i.i.i.a.i.i.i.i.",
"M M M l A G.m.F.V.M.M.M.H.H.M.M.M.M.M.N.M.M.H.N.X.[.{.{.{.!./.[.{.}.{.R.@XhXfX` B / c -.b.b.b.i.i.i.i.p.i.i.i.i.i.i.i.i.i.",
"M M M l A s.m.m.V.M.M.M.M.M.M.M.M.M.H.( _ *.h.h./ (.{.{.[././.].{.{.{.(.#..XI q K < < 8 N -.-.a.i.i.b.b.i.i.i.i.i.i.i.i.i.",
"M M M k A G.m.m.B.m.M.M.M.M.M.M.M.M.H.*...R.L. . .[.].L.{ X.X.{  .R.}.{.(.~.~.(./.(.< * * * * * 8 c V D -.y.a.i.p.p.p.p.i.",
"M M M k V G.m.m.m.M.M.M.M.M.M.M.M.H.M.M.` /.{.{.{.R.H X.:X,X,X;Xl.@.{ (.{.{.{.{.{.P.: e e e e e w * * * * > j n N -.-.=.a.",
"M M M l V f.m.s.m.M.M.M.M.H.M.M.M.H.M.M.y.{ {.{.R.J | L.X.>X,X,X>X,Xk.X.(.{.}.{.`.< e r r e e w e e r r t r r e e * : : 8 ",
"M M M l V g.m.m.m.m.M.H.M.H.M.M.H.H.M.M.V.] ~.].H { X. .L.X.>X,X>X>X,Xl.X.[.}.{.J $ # $ $ $ $ = e e e r r r r t i i t y r ",
"M M M l A G.s.f.m.V.M.H.M.M.M.H.V.M.M.V.V.n.I (.I -X,X:. .L.X.l.-X-X;X,X@.~.{.`.< # % % % 6 . $ r e e r e e t t i a y y h ",
"M M M l A G.s.m.m.m.F.D.M.m.V.M.M.M.M.H.N.) t.P.@.,X,X>X>.{ L.| { { { oX-X{ {.R.0 2 g g g 2 @ + * r e e e r r t y y a a a ",
"M M M k A f.s.s.m.m.m.F.D.D.M.M.M.M.n.*.X.U.]...O.,X,X>.oX;.X.{ | { P oX>XX.[.[.P.U 7 2 g 2 @ o & r e e r r t y y y a a a ",
"M M M k A G.m.s.s.m.m.m.F.D.D.M.M.H.y.U ~.{.R.%.:X:X>Xk.T O.-X-X;X;XO.,.>XX./.{.{.{.P.x 7 2 @ O # e e e e r t y y a a h a ",
"M M M k A G.s.m.m.B.m.V.V.D.M.M.H.H.M.n.` W.| U O.;.O.O.q U T ;.@.;.T X.,XO./.{.{.{.{.!.< 6 O + # e e e r r t h h h h h h ",
"M M M m A G.G.G.m.m.m.m.B.m.m.M.H.M.M.H.N.] ^ #XgXgXgXkXI %.&XgXgXgX&XO.,XO.(.{.{.!.P 8 5 2 @ + # e e e r h y y a h h h h ",
"M M M l A G.f.f.f.m.m.B.m.V.D.M.M.H.M.M.V.y.{ #.kXjXgX.XO.;.jXjXjXjX.X>.>XO./.`.P 0 5 3 g 2 @ + # e e e r r y h h h h h h ",
"M M M l A G.m.s.s.f.m.m.G.M.D.D.M.H.M.M.n._ ~.P O.>.@.L :X>.%..X%X|.;.:X>XX././.G 5 g 3 3 2 @ + # r r r r t h y a h h h h ",
"M M M l A G.s.s.m.B.m.m.m.V.G.V.M.M.M.y._ !.`.H T o.O.O.l.l.;X>.;.>.;.,.:XX.].{.].^ 7 3 g 2 @ o & r e r r h h y a h h h h ",
"M M M m A G.G.f.s.s.f.B.V.m.F.V.M.M.M.) Q R.| L l.,.,.;.O.k.,X,.o.` ;.;X:XI L.}.{.}.P.8 5 2 @ O # r e r a a a a h h h h h ",
"M M M m A G.f.f.f.f.f.f.m.B.V.M.V.M.V.V.n.*.L T ;X,Xl.Y O.:X:X>X:X:X,X>XoXT O.!.{.`.P., % % . o # e r t a a h a h h h h h ",
"M M M k A G.f.f.f.f.f.B.B.m.V.V.M.M.M.M.M.H.Y x ;X,X:X,.;X>X>X>X>X>X>X>Xk.O.O.L.F - X . . . . o $ r r t i a h h h h h h h ",
"N M M k A G.f.f.f.f.s.B.V.f.V.V.M.M.M.V.M.*.{ ..-X>X>X,X,X>X>X>X>X>X>X,X;.L #.!.$ o o X o o o . $ t r i a a h h h h h h h ",
"N N M k A F.s.f.f.s.s.m.B.B.B.M.M.M.M.V.M.( I G oX,X,.,.>X;X>X>X>X>X>X,Xo.L./.].H & = = = * * w e e t a a h h h h a i h h ",
"N N M k A G.s.m.B.m.m.m.B.f.m.V.M.M.V.V.M.M.( P >.,X;.;.:.;.:X>X>X>X>Xl.{ F < < ; * w w w w e r t t t a a h h i i * # * i ",
"z M M k ( G.s.m.m.B.m.m.m.m.D.M.V.M.V.V.M.M.] / o.,X;.q ` ` ;X>X,X>X,XO.U.J = * s b , ; ; = r e r t a a h h h i < f U G f ",
"M M M k ( G.s.m.s.m.m.B.m.V.V.H.V.M.V.V.M.M.V.M.` ,.;X:.T ` >X>X>X,Xk.q K < * * [ <X} E.f ; e r r i a a h h h i U yXyXyXP ",
"M N M m S f.f.f.s.s.G.G.B.H.G.H.F.H.H.H.M.N.N.n.y.B :.,Xk.oX,X,X>X:.T L Y = e * ] $X .E.F ; e r r a a a h h h u K yXyXyXU ",
"j j c 9 c &.=.y.u.d.d.d.m.H.H.m.h.*.( / [ [ ` ' +.+.' _ ;.k.k.>.T +.4.+.' n d d W _ ^ 1., ; e r t a a a a h h a < Q P K f ",
"+X5X+X+Xc.c.6.3.' ' ' / / ( ) / ! <.q.Z.1X9XqXqXwXwXwXr.L ;.*.;.L e.e.0.0.5.9XqX9X+Xr.0.~ x s u i a a a a a a i n j.j.v.] ",
"wXwXwXwXqX8XwXqXqXqX4XC.w.! R 8.C.Z.3X3X3XqXqXqXwX8X2X+._ :Xl.l.x %.*X&XuX%X+.0XwXqXqXwX0X6X2X3.d p a h a a a i [ tXtXtXv.",
"0XqXwXwXqX8X8X8X6X6XS.x.x.E 8.w.C.S.3X8XqXqXqX4Xq.5.%.I ^ } } 1...%XjXjXjXjX*X0.0XwXwXwXqX6X6X8XS.' ; i a a a e ] tXtXtXv.",
"wXwXqX0XqX8X8X0X6X3XZ.x.3.! C.w.C.S.3X8XeXqXeX4.%XgX%XX.T.).^.).I.|.&XjXjXjXjX Xe.wX0XwX7X8X6X4XS.Z.R : i a a w [ $Xv.v./ ",
"wXqXwXqX8XqX0X6X6X2Xx.x.E 7.w.C.S.3X8X8XqXqX+X|.jXgX|.#.^.).).).I.0X|.jXjXjXjXjX0.+XwXqXqX4X8X4XS.C.3.R s a a r u : u u * ",
"0XwXqXqX8X6X8X6X3XZ.x.8.E w.w.C.3X8X8XqXqXqX6.uXjX%X&X#._.).).).I.iX.XiXpXiXjXjXiX$.4XqX9X4X9X4XS.C.7.! f r y y a a a a a ",
"wXwXqXqXqX4X4X4XS.C.x.3.! C.x.Z.4X8XeXqXwX7X4.uXiX XgX .'.).).).I.kXuX%XiX%.gXjXjX*X5.wXqX4X4X4XS.C.9.! ~ w a a a i a a a ",
"wXqXqX9X7X4X7X4XZ.x.C.! <.w.C.S.4X8XeXqXwX3X+.#X XpXpX2.'.).).).I.gXgX|.jX@.%.jXjXjX Xe.qX9X4X4X3XC.9.! 3.p a a a a a a h ",
"qXqXqX9X7X7X7X3XC.x.w.E 9.x.C.3X8X8X8XqXqXe.%. X XjX%XY.'.).).).U.gXjX XgX.X~ *XjXjXgX%.1X4X6X4X3XC.3.~ 7.p a a a a a a a ",
"wX0XqX4XqX7X4XA.C.w.w.R w.x.A.4X8X8X8XwXqX5..XX.iXjXXXE.'.'.)._.2.gXjX*XuX*Xe.$.gXjXjXpX$.3X4X4XS.Z.<.<.3.p a a a a a a a ",
"qX8X6X6X4X7X4XZ.x.x.3.! x.C.S.6X6X8XqXwX5X0..XX.jXjX$.^.).).).^.t.jXjXuX*X*Xr.1X0.jXjXjX*X5.6X3XS.Z.<.3.<.u a a a a a a a ",
"wX8X8X6X4X4X3XC.w.C.' <.C.C.3X6X6X7XqXqXe.#X.X|.uXgX#._.).).).^.t.jXjX.X&X&XXXwXq..XjXjXjX0.e.3X3XZ.<.3.! u a a a a a a a ",
"qX8X8X8X7X4X3Xx.w.x.E 9.w.C.3X6XqX7XqXwX0.pX XpX XiX2.).).).).^.Q.jX%X#XjX*Xc.wX0X5.&XjXjXgX$.Z.3XZ.! 7.E u a i a a a a a ",
"qX0X6X8X4X4XS.x.w.8.E w.w.Z.4X9X7XqXqX9X$.kX XgX0.#XU.'.).).).^.Q.*X#XjXjX&Xe.0XqX4X$.kXjXjX&X+.S.Z.~ 9.b i a i a a i a a ",
"8X8X4X6X7X3XS.x.x.<.! C.w.Z.6X8XqXqXwX1XXXkX X X&X XE.'.).'.'.Y.=X|.iXjXjX%X+XwXqXqXr.|.jXjXjX.X3.Z.! 6.n a a i t t t t t ",
"8X8X7X7X8X3XC.C.C.! <.C.C.S.6X8XeXqXwXq.0XuXI uXjXQ.^.'.'.'.'.I.*XiX|.gXjX.X+XqXqXqX7X5.#XjXjXjX0.6.! 6.d i a i t r t r t ",
"9X4X4X7X8X3XC.x.w.E 9.C.C.3X6X8XqXqXqX$.gX%X|.jXhX#._.'.'.'.'.1.pXjX*X#XjX X+XqX7X7X6X3X+.pXjXjXiX+.E 9.d r i i r t r t r ",
"4XqX4X4X4X3Xx.x.8.E x.w.C.3X6X8XqXqX2X0.jX%.|.jXiX .'.'.'.'.'.1.iXjXjX XiX%.5XqX7X7X6X4X+X5.jX&XgX&Xx 8.d r t i t r t r t ",
"9X6X4X6X4XA.x.x.3.! x.x.Z.6X6X8XqXqXq.%XjXX. XjXuX2.).'.).).).1.gXjXgX XgX$.9XqX8X6X6X4X3X6.+..XjXjXj.3.> u * w e r i i r ",
"6X6X6X6X4XA.x.x.<.' C.x.S.3X8X8XqXqX4.iXjXX.#XjX.XT.).'.'.).).2.jXjX&X*XiX0.qXqX9X6X6X6X4X5.%.jXjXjX&XQ d R 3.! n - # # $ ",
"6X4X4X4X4XZ.x.C.! 3.x.x.A.6XqXqX9X2X$.jXgXX.#XjX#.^.).'.'.).^.Q.jXjX|.gX%Xr.qX9X6X6X6X6X6.j.jXjXjXjX%.K 3.1XeXeX9Xr.< % = ",
"4X3X3X4X3XZ.x.w.E 9.x.x.S.8X9X6X9Xq.%XjXiX%.%XgX#.'.'.'.'.'.E.Q.jXpX.XjX%.4XqX9XqX4XqX~ G W.Q.kXjXgX+.Z.2X4X9X9XqXeXe.> 0 ",
"4X4X4X3XS.C.w.w.E 8.w.C.3X7X7X8X4X+.kXjX*X X%XpXI.'.).).).).Y.*XjX.XpXgX$.qXqXqX9X4X3.f Q ..1.^ uX|.K ~ ~ ~ +.4.q.3XS.d 7 ",
"3X3X3X3X3XC.w.w.E w.w.C.S.7X4XqX5.#XjXjX X*X#X#XT.'.).).).).I.pXgX XjX*Xe.qXqXqX2XR U oX>Xk.P Q X.+.q.2X4X3X1Xr.+.+.x.d j ",
"S.3X3X3XS.C.w.9.E x.w.C.3X7X7Xr.0.jXjXgX XiX#XQ.^.'.).).).).2.gXuX%XjXj.3XqXqXQ.[ Z ,.,X>X,XY 4.R e.8X6X4X9X4X9X7X4.! j j ",
"3XS.3XS.Z.C.w.9.E w.w.C.3X7X4X+.kXjXjXuX*XgXuX#.'.'.).).).).2.jX XkXgX%.qXqX9.<.K.c -X>X>X,XT ~ q.8X6X9X4X4X7XqX7X3XG n D ",
"3XS.S.A.C.x.x.9.! x.x.x.Z.3X7.*XjXjXjX@.iXjXiX2.'.'.'.'.).^.Q.gX.XjXuX0.wX+X[ g.u.n -X:X:X,X` +X8X6X6X6X6X4XqX9X6X6X' > j ",
"A.Z.C.C.C.w.x.7.E x.x.x.C.7.0.jXjXjXj.I jXjX.XT.'.'.'.'.).Y.=XjXjXjXOXq.6X' K.g.S L :X>X,X,Xo.+X8X6X4X4X9X4X4X9X6X3X' N D ",
"x.x.x.w.x.w.x.7.! x.x.x.9.+.gXjXjX*XL #XjXjX#.^.'.'.'.'.).I.pXjXjXjX0.8.3.) g.g.Z _ :X:X:XoXo.c.qX4X4X4X4X7X7X8X3XS.E j z ",
"w.x.w.w.w.x.x.9.W x.x.q.' pXjXjXkXX.~ iXjXiX ._.'.'.'.'.). .gXjXjXjX+.8.W K.g.g.B _ >.;.>.o.O.c.4X9X4X4X6X6X8X6XA.S.n 0 7 "
};
