/* XPM */
static char *frame15[] = {
/* columns rows colors chars-per-pixel */
"61 64 227 2 ",
"   c #241D14",
".  c #39271A",
"X  c #3D2E26",
"o  c #452B1C",
"O  c #4A321F",
"+  c #4B3223",
"@  c #473B2A",
"#  c #513821",
"$  c #55572E",
"%  c #595932",
"&  c #4D562F",
"*  c #6F5130",
"=  c #596233",
"-  c #6A7939",
";  c #626D37",
":  c #4E534C",
">  c #5C6B4E",
",  c #6B7A44",
"<  c #7A775A",
"1  c #6F714B",
"2  c #6E796D",
"3  c #5E6861",
"4  c #BB7D39",
"5  c #B57939",
"6  c #AA753A",
"7  c #856137",
"8  c #C07F39",
"9  c #887C58",
"0  c #947D57",
"q  c #917249",
"w  c #837E76",
"e  c #6E8139",
"r  c #73863B",
"t  c #758A3C",
"y  c #798E3F",
"u  c #79903F",
"i  c #6F8142",
"p  c #738443",
"a  c #798E40",
"s  c #748645",
"d  c #7D9342",
"f  c #738157",
"g  c #798667",
"h  c #758672",
"j  c #BF803A",
"k  c #829443",
"l  c #9B8257",
"z  c #A7895F",
"x  c #A98A5F",
"c  c #B0905D",
"v  c #968765",
"b  c #87867A",
"n  c #9A8C73",
"m  c #9A9577",
"M  c #849071",
"N  c #AA8C60",
"B  c #B59465",
"V  c #B59569",
"C  c #A79679",
"Z  c #B49B7D",
"A  c #A79269",
"S  c #A9A47A",
"D  c #B2A27C",
"F  c #BABA7F",
"G  c #C4A168",
"H  c #698685",
"J  c #7D8E88",
"K  c #789295",
"L  c #7CA3A7",
"P  c #8A9787",
"I  c #979587",
"U  c #899A96",
"Y  c #9A9D98",
"T  c #8B8D84",
"R  c #A39A87",
"E  c #A69C93",
"W  c #94AA8B",
"Q  c #96A78A",
"!  c #97A995",
"~  c #9DB494",
"^  c #9DB39C",
"/  c #89A190",
"(  c #A8A888",
")  c #B8A984",
"_  c #A8A898",
"`  c #B4A999",
"'  c #A5BC9B",
"]  c #A6B698",
"[  c #BAB597",
"{  c #B3B58D",
"}  c #8AA7A6",
"|  c #98AAA9",
" . c #9AB4A9",
".. c #99ADB0",
"X. c #9AB8B9",
"o. c #88B1B6",
"O. c #A9ACA7",
"+. c #B4ACA2",
"@. c #B9ACA3",
"#. c #B5AEA8",
"$. c #AAB7A6",
"%. c #B9B3AA",
"&. c #A7BCB8",
"*. c #B5BCB3",
"=. c #BBBBB7",
"-. c #C6BB95",
";. c #DABA96",
":. c #C8B18C",
">. c #C3B5AB",
",. c #C7B9AE",
"<. c #C9BDB3",
"1. c #A9C19D",
"2. c #8DC6BD",
"3. c #96C4BC",
"4. c #ACC4A2",
"5. c #AEC7A6",
"6. c #B1C5AD",
"7. c #B3CCA8",
"8. c #B6D2AA",
"9. c #B9D5AD",
"0. c #B7D4AB",
"q. c #B4C3B2",
"w. c #B8C8B6",
"e. c #BBD4B5",
"r. c #BFDDB3",
"t. c #BDD3BB",
"y. c #BED9BB",
"u. c #A4C3BE",
"i. c #D7C899",
"p. c #D2CD94",
"a. c #E9C69D",
"s. c #EBC89F",
"d. c #E5C39D",
"f. c #EFDE9F",
"g. c #E6D49B",
"h. c #F0DD9D",
"j. c #EAED9D",
"k. c #DCCDA1",
"l. c #C9C7B7",
"z. c #D5C5BA",
"x. c #D6C6BB",
"c. c #C1DEB4",
"v. c #C1DABD",
"b. c #D0D1B6",
"n. c #ECC8A0",
"m. c #E4D5A4",
"M. c #EFDEA4",
"N. c #EEDEAC",
"B. c #E7D9A9",
"V. c #F0DEA3",
"C. c #F0DFAA",
"Z. c #C3E1B6",
"A. c #C6E3BA",
"S. c #C8E6BE",
"D. c #CAE8BE",
"F. c #EFE0AC",
"G. c #EFE0A7",
"H. c #F1E0A3",
"J. c #F0E1AD",
"K. c #F0E6AB",
"L. c #DFE19C",
"P. c #97BEC5",
"I. c #8DBCC8",
"U. c #A1BFC0",
"Y. c #8ECAC0",
"T. c #98C2C9",
"R. c #95D4C9",
"E. c #9CCBD6",
"W. c #99D8D5",
"Q. c #8DD5C8",
"!. c #A4C6C9",
"~. c #B7C9C6",
"^. c #A2CDD6",
"/. c #A4D4DE",
"(. c #99E8DA",
"). c #A8DAE7",
"_. c #9FF4E4",
"`. c #9EEEE0",
"'. c #ABE0EE",
"]. c #A0F5E5",
"[. c #ADE4F3",
"{. c #B1E6F4",
"}. c #B4ECFB",
"|. c #B3E9F7",
" X c #C5C5C3",
".X c #C8C8C6",
"XX c #CCCDCB",
"oX c #C4CBC6",
"OX c #DCCCC2",
"+X c #D1CFC7",
"@X c #C6DAC6",
"#X c #D1D2CE",
"$X c #D8D6C8",
"%X c #D4D5D2",
"&X c #DCDDDB",
"*X c #D7DAD8",
"=X c #CAD4D2",
"-X c #E1CEC3",
";X c #E4D1C6",
":X c #E6D4CA",
">X c #E9D6CC",
",X c #EBD8CE",
"<X c #E1DFD1",
"1X c #C6E2C4",
"2X c #CCEAC3",
"3X c #CEEDCB",
"4X c #CAE6C7",
"5X c #D0EECD",
"6X c #CFF0CD",
"7X c #D1F0CF",
"8X c #D4EDD2",
"9X c #D4F3D3",
"0X c #D8F5D6",
"qX c #E7E7DB",
"wX c #F7F7D6",
"eX c #CFEEEE",
"rX c #E4E4E3",
"tX c #ECECEB",
"yX c #E7E9E7",
"uX c #F2F2EE",
"iX c #FCFCED",
"pX c #F4F4E6",
"aX c #F4F4F3",
"sX c #FEFEF2",
"dX c #FEFEFE",
"fX c #F8F7F7",
"gX c #EFEFEA",
/* pixels */
"0 Z m.C.V.V.M.M.M.C.M.F.J.N.N.N.N.N.N.N.N.N.N.N.N.N.N.N.N.J.N.N.N.N.N.N.N.F.F.N.N.N.N.N.J.N.C.J.B.i.i.:.[ { [ :.[ [ -.-.i.",
"% 0 A i.V.C.M.M.M.M.M.M.F.J.J.N.N.N.N.N.N.N.N.N.N.N.N.N.F.F.N.N.N.N.F.F.m.B.N.N.N.N.N.J.B.k.-.[ @.l.b.&XqXqXqXqXqXqXqX$Xl.",
"  . * v G N.V.V.M.M.M.J.N.N.N.N.B.N.F.F.N.N.N.N.J.J.N.N.B.J.N.N.N.N.N.-.I B.B.F.N.J.m.-.[ l.$XpXiXiXsXsXsXsXsXsXiXsXsXsXsX",
"9 @   @ 1 ) V.h.M.M.V.F.J.J.N.N.F.F.F.B.N.N.N.N.i.b.N.N.N.N.N.N.N.N.[ X.| B.F.F.B.-.-.$XiXsXsXsXiXpXqX$Xl.<.<.<.<.l.$XqXpX",
"V N q . @ -.V.V.M.V.M.N.N.J.N.N.F.F.B.F.N.N.N.N.I ! B.N.N.N.N.N.B.[ P.'.$.F.M.i.[ $XpXsXfXiXqXOX%.( C m C n n n n n n n I ",
"B V V 0 m G.V.M.V.M.N.N.N.N.N.N.F.F.F.F.N.N.N.m.O.T.-.C.N.N.N.B.[ !.}.).$.B.[ l.pXsXsXiXOX+.R E C n n n C R Z Z Z Z C C n ",
"B B B N D h.h.M.M.M.N.N.N.N.N.N.F.B.N.N.N.N.N.m. .|.X.7.N.N.N.[ P.}.}.).[ -.b.sXsXsXqX_ R R C 0 C ) ;.d.a.n.s.s.n.n.a.a.d.",
"B B B N Z j.V.M.M.M.J.N.N.N.N.N.F.F.B.N.N.N.N.k.X.}.{.X.%.C.-.&.}.}.}.E.P $XsXsXsXl.m Z C n ) ;.n.n.n.d.a.a.a.a.a.a.a.a.a.",
"B B B N D H.M.M.N.J.N.N.J.N.N.N.N.N.N.N.N.N.N.m.O.}.}.}.I.E O.|.|.}.}.E.*.sXsXpX%.m ( n ) ;.n.n.a.a.a.a.a.a.a.a.a.d.a.a.a.",
"B B B x D J.M.M.C.N.N.J.J.N.N.N.N.N.N.B.N.J.N.B._ {.|.}.}./.'.|.|.}.}./.=XsXpX` R Z v :.n.n.n.n.a.a.a.a.a.a.a.a.a.a.a.a.a.",
"B B B x D V.M.M.C.M.N.N.N.N.N.N.N.N.B.( _ -.i.k._ ).}.}.[.'.).{.}.}.}.).O.=XY w T 2 2 0 V ) :.d.a.s.a.n.a.a.a.a.a.a.a.a.a.",
"B B B z D V.M.M.V.M.N.N.N.N.N.J.N.N.J.i.| E.P.P.X.[.'.P...O.O...X.^.{.{.)./.^./.).).h - - - - - 9 v A :.:.i.d.s.a.n.a.a.a.",
"B B B z Z f.f.M.M.N.N.N.N.N.N.N.N.N.N.N.` ).}.}.}.E.K +.:X,X,X:Xx.%...).}.}.}.}.}.I., r r r r r - - - - - 1 l v V :.:.;.a.",
"B B B x Z V.H.M.M.N.N.J.N.J.N.N.N.F.N.J.i. .}.}.E.L o.P.O.>X,X:X>X,X<.O.).}.|.}.'.h r r r r r e r r t u y t t e - - , , 9 ",
"B B B x D j.M.M.M.M.N.N.N.J.N.N.F.F.N.M.J.[ E.'.K | O.X.P.#.>X,X>X>X,XOXO.{.}.}.L & % $ $ & & - r r t t y t r t a d u u y ",
"B B B x Z V.M.V.M.M.J.N.N.N.N.J.F.N.N.J.J.m.Y ).Y -X>X>...P.O.z.-X-X;X,X>.!.}.'.2 $ * * * 7 . & r t r t t t y y y d u d d ",
"B B B x D H.f.M.M.M.M.M.N.F.C.N.N.C.N.N.B.[ 3.T.#.>X>X>X<...P.P.....| OXOX..}.E.< 5 j j 8 5 + @ - r r r t t t u u d d d d ",
"B B B z D h.f.M.f.M.M.F.F.F.N.N.N.N.m.-.O.!.[.} >.>X>X<.OX>.E ....| U OX>XO.{.|.T.T q 5 4 5 # + = t r r t t t u u d d d d ",
"B B B z D H.M.f.M.V.M.M.M.F.F.N.N.J.k.T ^.}.E.=.>X>X>Xz.E @.-X;X-X-X@.<.>XO.'.}.}.|.P.b q 5 # + * r r r r t y d d d d d k ",
"B B B z D H.f.V.M.M.M.V.J.N.N.N.J.J.N.k.` !.o.T #.#.>.#.w T E >.%.%._ ` >X#.).}.}.}.}.).2 7 # + $ r r r r t y d d k k k k ",
"B B B z D H.H.H.M.V.M.V.M.M.N.M.J.N.N.J.B.` } =XaXaXfXtXY =.rXaXaXaX&X%.>X#.).}.}.E.} 9 6 5 # + $ t r r t t u k d k k k k ",
"B B B N D H.M.h.f.M.M.M.M.V.C.F.F.C.N.N.J.i.} &.aXfXfX.X#.>.fXfXdXdXXX<.>X#.).'.U q 6 5 8 5 # + % r r t t y u d d k k k k ",
"B B B N D f.f.f.M.H.M.M.J.C.F.F.N.N.N.C.m.` ^.U @.<.#.I :X<.>.XX%X X=.;X>X#.).'.J 6 8 4 4 5 + + % t t t t y u d d k k k k ",
"B B B N D H.f.f.M.M.M.M.M.V.F.C.J.N.N.i._ /.'.K E @.@.@.OXOXOX<.,.<.>.<.>XO.{.}.[.U q 4 4 5 # + % t t t y k k d d k k k k ",
"B B B N D H.H.H.h.h.V.V.M.M.N.C.N.N.J.) ! E.o.I OX<.<.>.@.z.>Xz.` ` >.;X:XI P.{.}.}.I.9 6 5 # + % t t t d d d k k k k k k ",
"B B B N D H.h.h.h.h.h.h.V.M.C.C.C.N.J.J.m.-.I E ;X,Xx.E @.>X:X>X>X>X,X>X-X` @./.}.'.I.3 * * . + % t r t d d d d k k k k k ",
"B B B N D f.h.h.h.h.h.V.C.V.C.C.C.N.N.J.N.J.R T ;X,X>X<.;X>X>X>X>X>X>X>Xz.@.@.P.H : X . . . . o $ p t a d d d k k k k k k ",
"A B B z D f.f.h.h.h.V.V.V.V.C.N.J.N.C.N.N.-.| } ;X,X,X,X>X>X>X>X>X>X>X>X>.Y &./.& o O . o o o . $ t t a d d d k k k k k k ",
"V B V z D H.h.h.h.h.M.V.V.V.M.J.N.N.N.C.N.) ! T -X>X,.<.,X>X>X>X>X>X>X>X+.P.[.[.K = ; ; ; - - e r t a d d k k k k d a k k ",
"B B B z ) H.f.M.V.V.M.V.V.h.M.M.N.N.N.M.N.N.) K <.,X>.>.,.>.:X>X>X>X>X-XY H 3 2 > - e e e e t t t t d d d k k k s , % - s ",
"B B B z ) H.V.V.M.M.M.M.M.M.F.M.C.C.N.N.N.N.[ ( ` ,X>.b @.` ;X>X>X>X,X@.T.L - r f m > 3 : - r r t d d d k k k s < h J J b ",
"B B B z D H.f.M.f.M.V.M.M.C.C.J.J.C.N.N.M.N.J.J.:.<.;X,.E ` >X>X>X,XOX2 P 2 - - [ 3XX.W.h > r t t t d d k k k s P eXeXeXP ",
"B B B x ) j.h.h.h.f.H.H.V.V.J.J.N.N.M.N.M.B.B.m.i.R ,.>Xz.-X>X>X>X,.Y R R ; t - [ b.3./.H > t t t d d d k k k p P eXeXeXT ",
"v v v 9 C :.;.i.i.g.g.g.M.J.J.M.k.-.{ { { ` ] ' ] ' ] O.>.x.z.<.E O.5.$._ M g g Q ] } o.2 = t t a d d d k d k d g ! / P h ",
"@X1X1X@Xy.e.8.4.' { ] ( ( ( { S Q 4.9.c.1X3X7X0X0X0X0Xy.I @.[ ,.E w.t.w.6.q.6X9X6X1X~.q. .h f i a d d d d d d d M l.l.b.%.",
"0X0X0X0X9X9X9X9X0X9X3XA.c.~ Q 9.c.A.2X2X3X9X9X9X0X9X1X$.` >X>Xb.b *.*X&XrX%X$.9X0X0X0X0X6X7X4X4.h s d d d d d s ( wXwXwXl.",
"0X0X0X8X9X9X7X5X5X5X1XZ.r.W 0.r.c.D.2X5X7X9X0X3Xt.*.*.Y /  . .o.o.%XdXdXdXdX*Xq.9X0X0X9X7X7X7X5XS.1.> t d d d r 7.wXwXwXb.",
"0X9X0X9X9X9X5X5X5X2XZ.Z.1.~ Z.r.A.2X5X7X9X9X9X4.%XaX%XO.W.`.(._.Y.w.&XdXdXdXdXXXt.0X9X8X9X7X5X5XA.c.P , y u a r ( b.b.b.( ",
"0X9X0X9X7X7X7X8X5XD.Z.c.W 7.Z.r.D.2X5X7X9X9X@X.XdXaX X&.(._._._.Y.&X.XdXdXdXdXfX=.@X0X9X7X7X5X3XD.Z.1.W i d a t , s p p e ",
"8X0X9X9X7X7X7X5X2XA.c.9.W r.r.A.2X7X7X9X9X0X6.qXdX#X&Xu.`._._._.Y.tXXXtXrXaXdXdXtX*.3X9X7X7X7X3XD.Z.7.~ M s a u y k u d d ",
"0X0X9X9X7X5X5X5XD.Z.c.1.~ Z.r.A.2X7X7X0X0X7X$.yXtX.XuXX.]._._._.2.aXrX%XtX=.fXdXdX&Xq.9X9X3X3X3XD.Z.0.~ ' i u d k d d d d ",
"0X9X7X7X7X5X7X2XA.c.Z.~ 1.Z.Z.2X7X7X7X9X0X2X$.%XXXyXyX3.]._._._.3.aXaX.XdX*.=.dXdXdX.Xt.9X7X3X3X2XZ.7.~ 1.s d d d d d d d ",
"9X9X9X7X7X5X7X2XZ.c.r.W 8.Z.Z.2X7X7X7X9X0Xt.=.oX.XdX%XR.].].]._.T.fXdX.XaXXX] *XdXdXfX*.4X9X5X3X2XA.5.' 5.s d d k k d d k ",
"9X9X5X5X7X5X5XD.Z.r.0.W r.r.S.3X5X7X9X9X9Xq..XO.yXdXoXW.].]._.`.3.fXdX*XrX*Xw.*.aXdXdXyX$.2X5X3X2XA.4.' 4.s d d d d d d d ",
"9X7X7X6X5X7X2XS.c.Z.4.~ c.c.2X5X3X9X9X8X4Xw..XO.dXdX&.(._._._.(.u.sXdXrX*X*Xv.@Xw.fXdXdX%X6.6X2XD.A.1.1.1.i d d d d d d d ",
"9X7X7X3X7X2X2XZ.r.Z.] 1.Z.Z.2X5X6X6X9X0Xt.%XXX XrXfX&.(._._._.(.!.dXdXXX&X&Xt.0Xt.XXdXdXdXl.e.2X2XA.1.4.~ i d d d d d d d ",
"9X7X7X7X6X5X2XZ.r.r.W 8.r.A.2X3X7X9X9X0Xq.rX.XyX.XtX3._._._.].(.~.dX%X#XdX&Xt.0X9Xq.&XdXdXaX$.@X2XA.' 5.W t d d d d d d d ",
"8X9X7X7X3X3XS.c.r.0.W r.r.A.3X9X7X7X0X7Xq.aX XfX=.$XR.]._._.].Q.~.%X#XdXdX&Xt.0X0X4X*.aXdXdXrX$.S.A.~ 7.P s d a d a a a d ",
"7X7X7X5X6X2XA.c.c.1.~ Z.Z.A.3X7X9X9X0X@XoXuX X X&XXXR.]._._.].Q.=X XtXdXdX%Xt.0X9X9Xy.l.dXdXdXXX5.A.] 7.M a d u u u u u u ",
"7X8X5X7X6X2XA.c.A.~ 1.Z.Z.D.5X7X9X9X0Xe.8XrXO.&XdX~.(.].].]._.Q.&XtX XfXdX#X@X9X9X7X7X6.%XdXdXdX*.8.~ 7.h t u u u t t y y ",
"5X3X3X6X7X2XZ.c.r.W 9.r.Z.2X5X7X9X9X9Xq.fX%X XdXfX&.].]._.].].2.rXdX*X#XdXoX1X0X7X7X5X2X$.yXdXdXgX$.Q 8.g s y y t t t t t ",
"3X5X7X6X5X2Xc.c.0.W c.r.Z.2X5X7X9X9X4Xw.dX=. XdXtXX.].].].].].2.tXdXdX XtXw.4X9X7X7X5X5Xv.q.fX&XfX*XT 8.g t y y u t y t y ",
"5X5X5X5X3X1Xc.c.4.~ c.c.A.2X5X7X9X9Xe.=XdXO..XdX&XT._._._._._.2.fXdXaXoXaX*.9X7X6X6X6X3X2Xe.O.=XdXdX=.6.f - e e r - t s t ",
"7X7X5X5X5XS.c.Z.' ' c.c.S.5X9X7X9X7X$.uXdXO.#XdX#XR._._._._._.T.dXdX&X*XtXq.9X9X7X8X7X3X3X5.w.fXdXdX&X~ 2 Q $.~ M > & % % ",
"5X5X2X5X2XS.c.c.~ 4.c.c.D.5X9X7X7X4X*.dXfXO.#XdXw.(._._._._.(.~.dXdX XaX%Xt.9X5X5X5X5X3X7.l.dXdXdXdX=.P 4.4X7X9X7Xv.h * * ",
"5X2X3X2X2XS.c.c.W 9.c.c.D.5X9X7X7Xe.%XdXyX=.%XfX&.`._._.].].W.~.dXyXXXdX=.3X9X9X9X5X5X .J !.~.tXdXaX$.c.2X3X3X9X9X7Xy.1 q ",
"3X6X2X6XD.A.c.r.W r.r.r.D.7X7X7X3X$.aXdX*X.X%XyXT.]._._._._.Q.8XdXXXyXgX*.8X0X9X7X3X4.b U } 2.} rX XP ] ^ '  .4.e.2Xv.M q ",
"2X2X2X2XD.Z.r.9.W r.r.Z.2X7X5X5X6.=XdXdX.X&X#X#XR.]._._._._.Y.yXfX XdX*Xv.0X9X9X1XQ b ;X,Xx.U ! $.$.t.1X3X2X2X~.$.] c.M 0 ",
"D.D.2X2XD.Z.r.0.Q r.r.Z.2X5X7Xy.w.dXdXaX.XtXXX~.(.]._._.]._.3.aXrX%XdX X1X9X9Xy.~ S l.>X,X,X( 6.P t.5X5X3X3X6X7X7X5.^ f 0 ",
"2X2XD.D.A.Z.r.0.W r.r.Z.2X7X2X$.uXdXdXrX%XfXrX&.(.]._._._.`.T.dX.XtXfX*.8X0X8.] L.n -X>X>X,XE ^ e.7X3X5X7X6X7X8X7X2XP v G ",
"D.D.D.A.Z.Z.r.7.~ c.c.c.A.2X6.*XdXdXfX%.yXdXyX3.]._.].]._.(.~.aX#XdXqXq.0X@X] j.p.v OX>X>X>X+.S.7X5X5X5X5X5X6X7X7X6X~ q 0 ",
"D.A.Z.Z.Z.r.c.7.! c.c.c.Z.7.w.sXdXdX XY dXdX#XR.].]._.]._.Q.=XdXfXdX+Xw.6X] L.j.F I >X>X>X>X+.@X7X5X5X5X6X6X8X7X6X2X~ x G ",
"r.c.c.r.c.r.Z.7.W Z.c.c.9.$.aXdXdX&XP #XdXdXu.(._._.].]._.Y.yXdXdXdXw.c.7.{ j.j.S _ :X>X:Xx.+.v.5X5X5X5X6X6X7X7X2XD.Q z c ",
"r.c.r.r.r.r.r.7.~ c.r.r.] rXdXdXaX] _ uXdXtXX._._._.].]._.X.aXdXdXdX$.0.W L.j.j.C ` <.>.<.@.@.v.5X2X5X5X6X7X7X3X2XA.M q q "
};
