/* XPM */
static char *frame9[] = {
/* columns rows colors chars-per-pixel */
"61 64 235 2 ",
"   c #241D14",
".  c #39271A",
"X  c #462B1C",
"o  c #4C331F",
"O  c #4A3425",
"+  c #513821",
"@  c #443D31",
"#  c #54572E",
"$  c #595A32",
"%  c #4C4D32",
"&  c #705230",
"*  c #5B6333",
"=  c #6C7C3B",
"-  c #687738",
";  c #636D36",
":  c #4C5650",
">  c #685C48",
",  c #5C6B4C",
"<  c #6C7B45",
"1  c #6E724D",
"2  c #5E766F",
"3  c #707B71",
"4  c #B57939",
"5  c #BB7D39",
"6  c #B47937",
"7  c #A7743B",
"8  c #926736",
"9  c #C07F39",
"0  c #877B57",
"q  c #967E58",
"w  c #907249",
"e  c #847D6C",
"r  c #6E8139",
"t  c #74863B",
"y  c #758A3C",
"u  c #788E3E",
"i  c #708237",
"p  c #7A903F",
"a  c #6E8141",
"s  c #728343",
"d  c #798E40",
"f  c #738546",
"g  c #7D9343",
"h  c #718157",
"j  c #7B876E",
"k  c #BE803A",
"l  c #829443",
"z  c #9C8256",
"x  c #A7895F",
"c  c #A98B5F",
"v  c #B0905D",
"b  c #968765",
"n  c #9A8C73",
"m  c #999475",
"M  c #848F73",
"N  c #A98B60",
"B  c #B59465",
"V  c #B59569",
"C  c #A7977A",
"Z  c #B39C7D",
"A  c #A69269",
"S  c #A7A47B",
"D  c #B2A27B",
"F  c #B7A87F",
"G  c #BAB97F",
"H  c #8CA17F",
"J  c #C4A268",
"K  c #7C8B86",
"L  c #718E8F",
"P  c #7DA6AC",
"I  c #739AA3",
"U  c #848E85",
"Y  c #8A9688",
"T  c #979688",
"R  c #899996",
"E  c #979B95",
"W  c #928D84",
"Q  c #A39A89",
"!  c #A69C93",
"~  c #94AA8B",
"^  c #96A88A",
"/  c #9AAB96",
"(  c #9DB493",
")  c #9DB49C",
"_  c #8AA294",
"`  c #A9A889",
"'  c #B7A885",
"]  c #BBB58C",
"[  c #A8A898",
"{  c #B5AA99",
"}  c #A5BC9B",
"|  c #A5B699",
" . c #B9B598",
".. c #ABB68C",
"X. c #9AACAA",
"o. c #8DB5BC",
"O. c #98B6B7",
"+. c #90AEAC",
"@. c #A8ACA7",
"#. c #B5ACA2",
"$. c #BAADA3",
"%. c #B0ADA8",
"&. c #ABB9A7",
"*. c #B8B6A6",
"=. c #A7BDB9",
"-. c #B5BCB3",
";. c #B9BBB7",
":. c #879FA2",
">. c #C6AA88",
",. c #C5BA95",
"<. c #DABA96",
"1. c #C8B68D",
"2. c #C3B5AB",
"3. c #C7BAAE",
"4. c #C8BCB2",
"5. c #AAC29E",
"6. c #8CC7BE",
"7. c #96C4BC",
"8. c #ACC5A2",
"9. c #AEC7A6",
"0. c #B2CAAA",
"q. c #B9D4AD",
"w. c #B6D2AB",
"e. c #B4C3B2",
"r. c #B8C7B6",
"t. c #BBD4B5",
"y. c #BFDDB3",
"u. c #BCD3BA",
"i. c #BBD7B9",
"p. c #A4C3BE",
"a. c #CEC197",
"s. c #D7C89A",
"d. c #D4D291",
"f. c #E9C69D",
"g. c #EBC89F",
"h. c #E5C39D",
"j. c #EFDE9F",
"k. c #E6D49B",
"l. c #F0DD9D",
"z. c #EAED9C",
"x. c #EEF19F",
"c. c #C9C5A6",
"v. c #DACDA1",
"b. c #C9C5B7",
"n. c #D1C1B6",
"m. c #D5C5BB",
"M. c #D8C9BE",
"N. c #C1DEB4",
"B. c #C2DCBD",
"V. c #C0D5BD",
"C. c #D9D5B2",
"Z. c #EBC8A0",
"A. c #E4D4A4",
"S. c #EFDEA4",
"D. c #EEDEAC",
"F. c #E7DAA7",
"G. c #F0DEA3",
"H. c #F0DFA9",
"J. c #EFDFB0",
"K. c #C3E1B6",
"L. c #C6E3B9",
"P. c #C8E6BD",
"I. c #C9E8BF",
"U. c #EFE0AC",
"Y. c #F1E0A3",
"T. c #F0E0AD",
"R. c #F1E0B0",
"E. c #DFE19A",
"W. c #97BDC5",
"Q. c #8DB7C1",
"!. c #A0BCC1",
"~. c #97C5C9",
"^. c #8ED3C8",
"/. c #9CCBD6",
"(. c #99DBD2",
"). c #93D2C7",
"_. c #A5C4C6",
"`. c #B8C7C4",
"'. c #A4D3DD",
"]. c #A6CED5",
"[. c #98E8D9",
"{. c #AADEEC",
"}. c #A5D7E3",
"|. c #9FF4E4",
" X c #9EEEE0",
".X c #ADE1EE",
"XX c #A0F5E5",
"oX c #ADE3F2",
"OX c #B1E7F5",
"+X c #B4ECFB",
"@X c #B2E9F7",
"#X c #B1E3EF",
"$X c #C6C5C4",
"%X c #C8C8C6",
"&X c #CCCDCB",
"*X c #C5CAC6",
"=X c #DCCCC2",
"-X c #D0CFC2",
";X c #C8D7C7",
":X c #D1D2CF",
">X c #D8D6C7",
",X c #D4D5D2",
"<X c #DCDCDA",
"1X c #D7DAD8",
"2X c #CAD6D4",
"3X c #E1CEC4",
"4X c #E3D1C6",
"5X c #E6D4CA",
"6X c #E9D6CB",
"7X c #EBD8CD",
"8X c #E0DFD8",
"9X c #C6E2C4",
"0X c #CCEAC3",
"qX c #CFEDCC",
"wX c #C9E5C5",
"eX c #D0EECD",
"rX c #CFF0CD",
"tX c #D1F0CF",
"yX c #D7E9D5",
"uX c #D4F3D3",
"iX c #D8F5D6",
"pX c #E8E8DB",
"aX c #F7F7D6",
"sX c #CFEEEE",
"dX c #E4E4E3",
"fX c #ECECEB",
"gX c #E7E9E7",
"hX c #F2F2EE",
"jX c #FCFCED",
"kX c #F4F4E6",
"lX c #F4F4F3",
"zX c #FEFEF2",
"xX c #FEFEFE",
"cX c #F8F7F7",
"vX c #EFF0E8",
/* pixels */
"q Z A.G.G.G.G.S.S.S.S.U.U.D.D.D.F.J.J.F.J.U.F.J.J.U.F.J.D.J.U.U.J.D.D.D.D.D.D.D.D.D.H.J.D.J.T.H.F.k.,.1.]  .] 1.{ ,.,.,.a.",
"$ 0 A s.G.l.S.S.S.S.U.U.U.U.D.H.U.U.U.U.F.U.U.U.U.U.U.J.F.D.D.D.D.D.U.S.A.U.D.D.J.D.D.H.F.s.,.] *.3.M.8XpXpXdXpXpXpXpX>Xm.",
"  . > q >.z.j.S.S.Y.S.U.U.D.D.D.J.U.U.U.J.D.J.J.J.J.U.U.D.D.D.D.D.J.F.` ` U.D.D.H.H.F.,. .b.8XkXjXzXzXzXzXzXzXzXzXzXzXzXzX",
"q @   O > ' Y.S.S.S.S.U.U.U.D.D.F.U.U.J.U.U.U.F.a.F.J.F.D.D.D.D.U.A.[ o.&.U.D.U.D.,. .>XjXzXjXzXjXkXpX>Xb.r.4.4.4.b.>XpXkX",
"B v w . @ ,.Y.S.S.G.H.T.J.J.D.D.U.F.U.F.U.D.U.A.U c.T.U.U.U.D.D.A.[ './.c.T.D.s. .>XkXzXzXjXgX=X*.Q Q C n n n n n n n n T ",
"B B V q A G.j.Y.S.S.S.D.D.D.D.D.U.U.U.U.D.U.U.s.O.+.v.T.U.U.D.A.[ }.+X/.c.F.,.b.kXzXzXjX-X{ Q Q C m n n C Z Z Z Z ' C C n ",
"B B B N D Y.S.S.S.U.S.U.D.D.J.D.F.U.D.D.D.D.U.a._..XX.v.U.U.F.[ '.+X+X~.c.,.-XjXzXzX8X{ Q Q C q C ' <.h.f.f.Z.Z.Z.Z.g.f.h.",
"B B B N Z Y.S.S.S.G.H.D.D.D.J.D.D.D.D.D.D.D.U.a.].+X}.+.v.F...].+X+X+XO.` >XzXjXjXb.C Q C A ' <.f.Z.f.f.f.f.f.f.f.h.f.f.f.",
"B B B c D T.S.S.D.D.H.T.D.D.J.D.D.D.D.D.D.D.R.a._.+X+X{.X.! !.@X+X+X+Xo.;.zXzXkX*.C ` n ' <.Z.Z.f.f.f.f.f.f.f.f.f.f.f.f.f.",
"B B B c Z Y.S.G.H.H.D.D.D.D.D.D.D.D.D.J.J.D.R.s.O.+X+X+X@X/.OXOX+X+X+X~.pXxXkX{ C Q b >.Z.Z.Z.Z.f.f.f.f.f.f.f.f.h.f.f.f.f.",
"B B B x D z.S.S.H.D.D.D.J.D.D.D.J.D.F.`  .s.A.v.[ OX+X+X@X.X.XOX+X+X+X/.;.*XX.e Y K , n V >.1.h.h.f.Z.Z.f.f.f.f.h.f.f.h.f.",
"B B B x Z G.S.S.j.S.D.D.D.U.D.U.H.D.D.` +.~.O.X.O.@X{.W.X.@.@.X.!.'.@XOX'.'.'.}.oX/.1 - - - - < 0 b V F <.<.h.g.g.g.g.g.f.",
"B B B c D G.S.S.S.H.D.D.D.D.U.D.D.D.D.A.@.+X+X+X+X/.X.n.5X5X5X3X4.$.O.#X+X+X+X+X+XI r y t y i i r = = = < < q b V >.>.h.h.",
"B B B c D G.S.j.S.S.T.D.D.D.U.U.J.D.D.U.,.!.+X+X}.@.=X7X6X6X6X6X7X7X4.@..X+X+X+X/.1 i i t t y y t t y y u y y i = = = < 0 ",
"B B B c Z G.S.j.G.D.D.D.D.U.J.U.J.D.D.D.A.[ {.oXo.=X7X7X6X6X6X6X7X5X7X4.X.+X+X+XL % * # # # # - t t t y y y u y d d p p p ",
"B B B c Z G.z.l.S.G.U.D.D.U.D.D.D.D.D.D.J.s.X.}.%.7X7X7X6X6X6X6X7X7X7X7X$.}.+X'., & & & & & . # t t t y y y y u d g g p p ",
"B B B c Z l.l.Y.S.S.S.H.D.S.H.D.D.D.J.J.F. ._.o.@.$X3X6X6X6X5X5X=X=X5X7Xn.=.+XQ.w 4 9 5 9 4 + O = t t t y y y p p g g g g ",
"B B B x D l.z.Y.j.S.D.D.U.U.H.D.D.D.A.a.[ ~.@XI :.W.X.@.@.@.X.X.X.:.;.7X=XX.+XOX/.Y w 4 9 4 + O * y t t i y y p g g g g l ",
"B B B c Z G.G.S.S.G.S.S.U.U.U.D.D.H.1.U }.+X{.R %.@.@.O.Q.Q.o.X.X.@.=X6X5X@.OX+X+XOXW.W w 7 + O $ t t t y y p g g g g g g ",
"B B B x D l.S.G.j.S.S.H.H.T.D.D.D.D.J.s.[ }.W.4.7X7X3X4.$Xn.m.=X5X7X7X6X5X@..X+X+X+XOXW.3 8 + O $ t t t y y p g g g l l l ",
"B B B N F Y.l.G.S.l.S.H.S.H.H.D.U.D.D.R.A.[ I ! { $.{ 2.7X4.$.2.$.#.#.4.6X@..X+XOXW.U w 4 4 + X $ t t t y y p g g l l l l ",
"B B B N D Y.j.l.j.S.S.S.H.S.S.T.U.H.D.H.J.a.R ;.4X3X=X3X7X3Xm.3X=X=X4X6X5X@.#X}.K w 4 9 9 4 + O $ t t t y p g p l l l l l ",
"B B B N F Y.j.S.j.S.S.S.H.H.S.D.D.H.D.H.F.[ /.U 3.7X4X2.6X7X6X4.=Xm.2.4X5X@.#X{.U 7 9 5 5 4 + O & y y y p p p l g l l l l ",
"B B B x D Y.l.j.S.Y.S.S.G.S.H.D.D.J.D.A.[ '.{.K ! 2.2.$.=X3X6X4.#.2.4.6X4X@.OX+XoX:.w 5 9 4 + O # y t y p p l p g l l l l ",
"B B B N F Y.G.G.j.j.j.G.H.S.S.H.D.D.D.' / }.o.E m.m.3.2.#.4.7X7X6X6X7X7X4XW W.+X+X+XW.3 5 5 + O $ y y y d g g l l l l l l ",
"B B B N D l.l.l.l.l.l.l.G.G.H.H.H.D.D.F.s.{ W ! 5X7X4.! 2.7X7X6X6X6X6X6X=X#.#.}.@X}.P : & & . O $ y y y g g g g l l l l l ",
"B B B x D l.l.l.l.l.l.G.H.G.H.H.H.D.D.H.H.H.Q W 6X7X7X4.6X7X6X5X6X6X6X6X4.$.$.W.2 % . . . . . X $ t y y d g g l l l l l l ",
"V B B x Z l.j.l.l.l.G.G.G.G.H.H.H.J.H.D.H.s.X.I ! 4.4.m.4.m.3X5X3X4X6X7X2.E !.}.: X X . X X X . # y y d g g l l l l l l l ",
"V V B x Z S.l.l.l.j.S.S.G.G.G.D.D.D.D.H.D.C ^ 3 ! 2.2.2.2.$.{ { #.2.7X5X#.Q.}..XL * ; - - - - = t y g g l l l l l l d l l ",
"B B B x D U.S.G.S.G.S.G.G.j.S.H.D.H.S.D.U.U.] L ! M.7X7X6X5X4X2.! 4.7X3XX.L 1 3 , = r r i i y y y y g g l l l g s < $ < d ",
"B B B x ' G.G.G.S.G.S.j.S.D.H.D.H.J.D.D.U.D.' E { 7X6X6X6X6X6X3X=X5X7X#._.I - = 1 m , 2 : - t y y y g g l l l d 1 K K U j ",
"B B B x F z.l.G.S.S.S.S.S.H.H.H.D.H.D.H.U.U.J.J.>.4.7X6X6X6X6X6X7X7Xm.M Y 2 - = ] yXO./.j , t y y u g g l l l < Y sXsXsXR ",
"V V V z J Y.l.l.j.j.Y.U.T.Y.T.U.T.R.U.U.H.F.F.A.a.Q 4.5X7X7X7X7X7X4.E Q Q ; i -  .>X6.'.j , t y u d g g l l l f Y sXsXsXU ",
"b b b b C 1.1.s.s.k.k.k.S.T.T.S.v.] ] ' ` ..| &.&.| | #.3.M.M.4.! @.9.&.[ M M j ^ [ :.o.2 , t d d g g g l g l g M _ R R j ",
"B.wXwX9X`.K.w.9.} ....` ` ` ] S ( 5.q.B.wXeXuXuXiXiXiXu.T $.{ 2.Q r.u.r.e.e.0XtXqXwXi.p.) j h a d g g g g g g d b b.w.C.*.",
"iXuXiXiXiXiXuXuXuXuXqXL.N.( ~ q.N.P.0X0XeXuXuXiXiXuXwX&.[ 6X5X>XM ;.<X<XdX,X&.tXiXiXiXuXtXtXwX8.j f g g g g g u ` aXaXaXc.",
"iXiXyXiXiXuXeXeXeXeXL.N.y.~ w.y.N.I.0XeXtXuXuXrXt.e.;.E :.+.) +.+.,XxXxXxXxX1Xe.uXiXuXuXuXtXtXeXI.} , y p g g a 5.jXaXaXb.",
"iXuXuXuXuXtXtXeXeXeXL.N.5.( K.y.L.I.qXtXtXuXtX&.,XhX,X%.(.|. X|.^.r.<XxXxXxXxX&Xu.iXiXuXtXtXeXqXP.K.H h u p d t ` C.C.b.` ",
"iXuXuXuXtXtXyXeXeXI.N.N.~ 0.K.K.P.qXeXtXuXiX;X$XxXlX$X=.[.XX|.|.^.1X%XxXxXxXxXcX;.;XuXuXtXtXqXeXI.K.5.Y f d d u s s s a s ",
"iXuXuXiXtXtXtXeX0XL.N.q.~ y.y.K.0XtXtXtXuXiXw.dXxX:X8X=.|.XXXX|.~.fX&XfXdXlXxXxXfX-.eXuXtXtXtXqXI.K.w.( j d d d p p g g g ",
"uXuXuXtXtXtXtXeXI.L.K.5.( K.K.K.qXtXtXuXuXuX&.gXfX%XlX=.|.|.|.|.6.hX<X1XfX4.lXxXxX1Xe.uXuXrXrXqXI.K.w.( ( a g g g g g g g ",
"uXiXuXtXtXeXqXqXK.y.K.( 5.K.K.I.eXtXuXtXiX0X@.,X&XgXdX7.|.|.|.|.6.lXcX%XxX-.;.xXxXxX*X`.uXrXqXqX0XK.9.( 5.f g g g g g g g ",
"iXuXuXtXtXeXqXwXK.K.y.~ w.y.L.0XeXtXtXtXiXu.r.%X%XxX,X).|.|.|.|.7.cXxX%XlX&X) <XxXxXcXe.;XrXqXqX0XL.8.} 9.f g g l g g g g ",
"uXuXtXeXeXeXqXP.K.K.q.~ y.y.L.qXeXtXuXiXuXe.%X%.gXxX*X(.|.|.|.|.7.cXxX1XdX,Xt.e.lXxXxXfX&.qXqXqXI.L.8.5.8.f g g g l l g l ",
"iXtXtXqXrXrXqXL.K.y.5.~ N.K.I.qXeXtXuXuXwXr.&X@.cXxX=.[.|.|.|.[.p.xXxXdX1X<XV.;Xr.cXxXxX,Xe.qX0XI.L.5.5.} f g g g g g g g ",
"uXtXtXeXrXqX0XK.y.K.} 5.K.L.I.eXtXtXuXuXu.,X&X$XdXzX=. X|.|.|.[.p.xXxX&X<X<Xu.iXt.&XxXxXxXr.t.0XI.P.5.8.( a g p g g g g g ",
"uXrXtXtXrXeXwXK.y.y.^ w.N.L.0XeXtXtXuXiX-.gX$XgX%XgX7.|.|.|.|.[.`.xX,X:XxX<Xu.iXuXe.<XxXxXlX-.B.0XL.( 0.~ r g d d g g g g ",
"tXtXeXrXrXrXL.y.y.w.^ y.K.K.qXtXtXuXuXeXe.lX$XlX;.:X).|.|.|.|.[.`.1X,XxXxX1XV.iXuXqX-.lXxXxXpX&.P.K.( w.~ a g d g d d g g ",
"rXrXrXrXrXqXK.N.K.5.( K.K.P.qXtXuXuXiX`.;XhX$X%X<X&X).XX|.|.|.^.2X$XfXxXxX,Xi.iXuXuXu.r.xXxXxX:X9.L.( 0.H y u u u u u u u ",
"tXrXqXrXtX0XK.K.K.( 5.K.K.P.qXrXtXuXiXt.yXdX@.<XxX`.[.XX|.|.|.^.<XfX$XcXxX&X;XuXuXuXuX9.:XxXxXcX-.w.( w.j i u u u y u u u ",
"qXeXtXrXqX0XL.N.y.~ w.y.L.0XtXtXuXuXuX-.cX,X$XxXcX=.XXXX|.|.|.~.dXxX1X:XxX*X;XuXtXeXtXqX&.gXxXxXfX&.~ 0.j y u u y u y y u ",
"tXqXqXrXeXP.N.N.w.~ y.y.L.0XtXtXuXiXwXr.xX;.$XxXhXO. XXX|.|.|.6.fXxXxX$XfXr.wXuXtXeXqXrXB.e.cX<XcX<XM q.j y u u u y u u y ",
"eXeXqXeXqXwXN.N.9.~ K.y.L.qXeXtXuXuXi.2XxX%.%XxX<X~.|.|.|.|.|.7.cXxXlX%XlX-.tXuXtXtXqXqXrXw.@.:XxXxX;.9.h = r r i t t y y ",
"eXeXeXeXqXP.y.K.5.} K.y.L.qXtXtXtXtX9.fXxX@.:XxX&X(.|.|.|.|. X7.xXxX<X1XfXe.uXuXqXtXqXqX0X9.r.cXxXxX8X/ 3 ^ &.( M , % $ # ",
"eXqXqXqXqXP.K.K.( 5.y.K.P.rXtXtXtXwX-.xXlX%.:XxXe.[.|.|.|.|.[.`.xXxX%XlX,Xu.uXtXtXqXqXeX0.*XxXxXxXxX;.Y 5.wXtXtXrXi.j & & ",
"qXqX0X0XI.K.y.y.~ w.y.K.I.tXtXtXtXt.,XxXgX;.,XcX=.|.|.|.|.XX[.`.xXgX%XxX;.qXuXuXeXqXuX) K _.`.hXxXlX&.N.0XqXqXtXuXuXi.1 w ",
"rXrX0XrXI.K.y.y.~ y.y.N.I.tXrXtXqX&.hXxX1X*X,XgX7.XX|.XX|.|.^.1XxX&XgXhX-.uXuXuXrXqX&.j R +.6.:.gXb.Y | ) ) } &.t.0XP.M w ",
"0X0X0X0XI.N.y.y.~ y.y.K.I.rXrXtXe.,XxXxX%X<X:X,X).XXXXXX|.|.^.gXcX%XxX1Xu.iXuXuXP.^ m >X5Xm.R / &.@.i.9XqXwXwXB.&.| N.M q ",
"I.I.0XI.P.K.y.w.~ y.y.y.I.rXtXi.r.cXxXlX%XfX&X`.[.XX|.|.|.|.7.lXdX,XxXb.wXuXuXi.` S 4.6X7X7X! 9.Y t.eXeXqXeXeXtXrX9.) 1 q ",
"0X0XI.I.L.K.y.w.~ y.y.K.I.qXqX&.hXxXxXdX,XcXdX=. X|.|.|.|.[.7.xX%XfXcX-.tXtXt...z.m M.6X5X7X! ) i.rXeXqXqXqXeXtXrX0XY b J ",
"0XI.I.P.L.N.y.w.~ N.N.K.L.0X9.<XxXxXcX-.gXxXvX7.|.|.XXXX|.[.`.hX&XxXdXe.uX9X..Y.d.e 5X6X5X6X#.L.tXqXeXeXeXeXeXtXtXqX| 1 q ",
"L.L.L.K.K.y.y.0.( N.N.N.K.w.r.zXxXxX$XE xXxX&X).|.|.|.|.|.^.2XxXcXxX:Xt.rX) E.x.G T 6X6X6X6X#.;XrXqXeXqXeXtXtXtXqXI.| v J ",
"y.N.N.N.y.y.y.w.~ L.N.N.w.&.lXxXxX<XY :XxXxX=.[.|.|.XX|.|.~.gXxXxXxXe.q.8.5.z.z.` [ 5X5X5X=X#.B.tXeXqXqXtXeXtXtX0XP.H x v ",
"y.N.N.y.y.y.y.w.~ N.N.t.| dXxXxXhX[ | hXxXfX7.|.|.XXXX|.|.7.lXxXxXxX8.q.S E.z.E.C [ 4.2.4.{ #.B.eXqXqXeXtXtXtXtXI.L.M w w "
};
