/* XPM */
static char *frame22[] = {
/* columns rows colors chars-per-pixel */
"61 64 230 2 ",
"   c #241D14",
".  c #39271A",
"X  c #3D2E26",
"o  c #462C1C",
"O  c #4D341F",
"+  c #493425",
"@  c #513821",
"#  c #595832",
"$  c #51572F",
"%  c #6F5130",
"&  c #5A6233",
"*  c #6A7939",
"=  c #626D37",
"-  c #4E534B",
";  c #5C6B4E",
":  c #6C7A44",
">  c #71724F",
",  c #59726E",
"<  c #71796D",
"1  c #6E5D46",
"2  c #B67939",
"3  c #BD7E39",
"4  c #B77937",
"5  c #AA753A",
"6  c #846136",
"7  c #967449",
"8  c #887A57",
"9  c #947C57",
"0  c #896E49",
"q  c #837E76",
"w  c #6E8039",
"e  c #73863B",
"r  c #758A3C",
"t  c #798E3E",
"y  c #7A903F",
"u  c #6E8042",
"i  c #728343",
"p  c #798D41",
"a  c #71824B",
"s  c #7D9342",
"d  c #738156",
"f  c #798666",
"g  c #758671",
"h  c #BF803A",
"j  c #829443",
"k  c #968257",
"l  c #A7895F",
"z  c #A98A5F",
"x  c #B0905E",
"c  c #878679",
"v  c #9B8C72",
"b  c #958C77",
"n  c #9A9477",
"m  c #8C8D6C",
"M  c #AA8C60",
"N  c #B59465",
"B  c #B59569",
"V  c #A79679",
"C  c #B49B7D",
"Z  c #A69269",
"A  c #A9A479",
"S  c #B2A27C",
"D  c #B9B97D",
"F  c #C4A168",
"G  c #698585",
"H  c #7D8D8A",
"J  c #789294",
"K  c #7DA3A7",
"L  c #899687",
"P  c #979687",
"I  c #889A97",
"U  c #999D97",
"Y  c #898D86",
"T  c #A39A87",
"R  c #A79D94",
"E  c #8DA084",
"W  c #94AA8B",
"Q  c #96A88A",
"!  c #98A996",
"~  c #9DB494",
"^  c #9DB49A",
"/  c #85A29D",
"(  c #A8A888",
")  c #B7A984",
"_  c #BBB58C",
"`  c #A9A898",
"'  c #B5A999",
"]  c #A5B89A",
"[  c #BAB598",
"{  c #ACB68C",
"}  c #98AAA9",
"|  c #99B3AB",
" . c #98B8B8",
".. c #8CADB0",
"X. c #A9ACA7",
"o. c #B5ACA2",
"O. c #B7ADA5",
"+. c #AAB8A6",
"@. c #B9B2A9",
"#. c #A6BCB9",
"$. c #B5BCB3",
"%. c #BABBB7",
"&. c #C5B68E",
"*. c #C6BB95",
"=. c #DABA96",
"-. c #C7AA89",
";. c #C3B5AC",
":. c #C6B8AC",
">. c #C8BDB3",
",. c #D0BFB4",
"<. c #AAC19E",
"1. c #8DC6BD",
"2. c #97C4BC",
"3. c #ACC4A2",
"4. c #AEC5A9",
"5. c #B1C4AD",
"6. c #B5CDAC",
"7. c #B1CBA6",
"8. c #B9D5AD",
"9. c #B6D2AA",
"0. c #B7C6B5",
"q. c #BBD4B6",
"w. c #BFDDB3",
"e. c #BDD2BB",
"r. c #BCD7BA",
"t. c #A4C3BE",
"y. c #D7C899",
"u. c #D4CD95",
"i. c #E9C69D",
"p. c #EBC89F",
"a. c #E5C29C",
"s. c #EFDE9F",
"d. c #E6D49B",
"f. c #F0DD9D",
"g. c #EAED9D",
"h. c #DCCEA2",
"j. c #C8C7B8",
"k. c #D4C5BA",
"l. c #D9C8BE",
"z. c #D1C4B8",
"x. c #C1DEB4",
"c. c #C1DCBC",
"v. c #D0D1B5",
"b. c #ECC8A1",
"n. c #E4D4A4",
"m. c #EFDEA4",
"M. c #EEDEAC",
"N. c #E7D9A7",
"B. c #F0DEA3",
"V. c #F0DFAA",
"C. c #C3E1B6",
"Z. c #C6E3BA",
"A. c #C9E6BD",
"S. c #C9E8BE",
"D. c #EFE0AC",
"F. c #EFE0A7",
"G. c #F1E0A3",
"H. c #F0E0AD",
"J. c #F0E9A8",
"K. c #DEE299",
"L. c #98BEC5",
"P. c #8DBDC9",
"I. c #8ECAC1",
"U. c #99C3CA",
"Y. c #8DD4C8",
"T. c #95D4C9",
"R. c #9CCBD6",
"E. c #99D9D5",
"W. c #A4C5C8",
"Q. c #B8C9C5",
"!. c #A4D4DD",
"~. c #A3CDD5",
"^. c #99E9DA",
"/. c #ABDEEB",
"(. c #A7D8E5",
"). c #9EF4E3",
"_. c #9EEEE0",
"`. c #ABE1EE",
"'. c #A0F5E5",
"]. c #ADE4F2",
"[. c #B1E6F4",
"{. c #B4ECFB",
"}. c #B3E9F7",
"|. c #C5C5C3",
" X c #C8C8C7",
".X c #CCCDCB",
"XX c #C6C9C5",
"oX c #DCCCC2",
"OX c #D1CFC7",
"+X c #C4DDC2",
"@X c #CAD2CD",
"#X c #D1D2CE",
"$X c #D8D6C8",
"%X c #D4D5D2",
"&X c #DCDDDB",
"*X c #D7DAD8",
"=X c #CAD6D4",
"-X c #E1CEC3",
";X c #E4D1C6",
":X c #E6D4CA",
">X c #E9D6CC",
",X c #EBD8CE",
"<X c #E1DFD1",
"1X c #C6E1C4",
"2X c #C9E5C4",
"3X c #CCEAC3",
"4X c #CFEDCC",
"5X c #CBE6CA",
"6X c #D0EECE",
"7X c #CFF0CD",
"8X c #D1F0CF",
"9X c #CFEED0",
"0X c #D4ECD2",
"qX c #D4F3D3",
"wX c #D8F5D6",
"eX c #CFF2D0",
"rX c #E7E7DB",
"tX c #F7F7D6",
"yX c #CFEEEE",
"uX c #E4E4E3",
"iX c #ECECEB",
"pX c #E7E8E7",
"aX c #F0EFEA",
"sX c #F2F2EE",
"dX c #FCFCED",
"fX c #F4F4E6",
"gX c #F4F4F4",
"hX c #FEFEF2",
"jX c #FEFEFE",
"kX c #EFF1F0",
/* pixels */
"9 C n.V.G.F.m.m.m.m.F.F.M.M.M.M.M.M.M.M.M.M.M.M.M.M.M.M.M.M.M.M.M.M.M.M.M.D.D.D.H.M.M.M.M.H.V.V.N.h.y._ &.[ _ [ ' &.&.*.y.",
"# 9 Z y.G.J.m.F.m.m.F.D.D.D.H.M.M.M.M.M.M.M.M.M.M.M.M.M.M.D.D.M.M.M.M.M.n.N.N.M.M.M.M.H.N.h.*.[ [ >.OX<XrXrXrXrXrXrXrX$Xj.",
"    1 9 F H.B.B.m.m.m.D.M.H.H.M.M.M.M.M.M.M.M.M.H.H.M.M.M.M.M.M.M.M.M.*.P N.D.D.M.V.N.*.[ j.<XfXdXhXdXhXhXhXhXhXdXhXhXhXhX",
"8 $   + 1 ) G.m.G.m.m.D.M.H.M.M.M.M.M.N.M.N.M.M.y.v.M.M.M.N.M.M.M.M.[  .} M.D.D.M.*.[ $XsXhXdXhXdXfXrX$Xj.%.>.>.j.j.$XrXfX",
"B M 0 . + =.G.f.m.m.m.M.M.M.M.M.M.M.D.D.M.M.M.M.P ^ M.M.M.M.M.M.M.[ L.].] M.M.y.[ oXfXhXhXhXiXoXO.( V V n n v v v v b b P ",
"N B B 9 n F.m.m.m.m.M.M.H.M.M.M.M.M.D.D.M.M.M.N.} U.@.H.M.M.M.M._ U.{.(.+.M.[ >.fXhXhXdXOX' T T T v v v V C C C C C V V v ",
"N N N M S G.s.m.m.m.M.H.M.M.M.M.M.M.M.M.M.M.H.n.+.}.P.*.D.M.M.[ L.{.{.(.[ *.l.dXhXhX<X` V T V 9 V ) =.a.a.b.b.i.i.b.i.b.i.",
"N N N M S s.m.m.m.m.H.M.M.M.M.M.M.N.D.M.D.N.D.h.| {.[. .[ D.*.L.{.{.{.R.L $XdXhXdXj.T ( V v ) =.i.p.i.a.a.b.a.i.i.i.i.i.i.",
"N N N z S H.m.m.M.V.M.M.H.H.M.M.M.M.M.M.M.M.M.h.| }.{.}.L.R } [.{.}.{.R.%.hXhXfX@.V ( v ) =.b.b.i.i.i.i.i.i.i.i.i.i.i.i.i.",
"N N N z S G.m.F.V.M.M.H.H.M.M.M.M.M.M.N.M.M.H.M.X.[.}.{.{.!./.[.{.{.{.R.@XhXfX` V ( v -.b.b.b.i.i.i.i.i.i.i.i.i.i.i.i.i.i.",
"N N N l C g.m.m.V.m.M.M.M.M.M.M.M.M.H.) ` *.y.h.( (.{.{.].`./.].{.{.{.(.#..XU q Y < < 9 B -.-.a.i.p.b.b.i.i.i.i.i.i.i.i.i.",
"N N N l C B.m.m.B.m.M.M.M.M.M.M.M.M.H.*...R.L. . .[.].L.} X.X.X. .R.}.{.(.~.~.!.(.(.g = * * * : 8 v C F &.=.a.i.p.p.i.i.i.",
"N N N z C G.m.m.m.M.M.M.M.H.M.M.M.H.M.M.' /.{.{.{.R.J o.:X,X>X;Xl.@.} (.{.{.{.{.{. .: e r e e w w w * * * > k m Z -.-.=.a.",
"N N N z C B.m.s.m.M.M.H.M.M.M.M.M.H.M.M.y.} }.}.R.....L.X.>X>X>X>X>Xl.X.(.{.{.{.`.g w p e e e w w e e r t r r e * e : : 8 ",
"N N N z C g.m.m.m.m.H.M.M.M.M.M.H.M.H.M.V.[ R.].J } X. .L.X.:X>X>X>X,XoXX.[.{.{.K $ & $ $ & $ * r e e r r r r t p j t t t ",
"N N N z S f.s.s.V.m.M.M.H.M.H.M.M.M.M.V.V.N.U (.U -X>X;. .L.X.l.-X-X;X,X@.W.{.]., % % % % % . $ e e e e r r r t p s y s s ",
"N N N z C f.f.B.m.m.F.M.m.D.V.M.M.M.H.H.N._ t.P.@.,X,X>X>.} P.L.} ..} oXoX} {.R.0 2 h h 3 4 O + * e e e r r r r y y s s s ",
"N N N z S g.s.B.s.m.m.D.D.D.M.M.M.V.n.*.X.U.]...O.,X,X>.oX;.R } } } I oX>XX.}.}.R.Y 7 2 3 4 O + = e e e r r r y y y s s j ",
"N N N l S f.m.s.s.m.m.m.F.D.D.M.H.M.y.Y ~.{.R.@.,X>X:Xk.R o.;X;X;X;Xo.,.,XX.`.{.{.}.P.c 7 4 @ + # e e e e r y y j s s s s ",
"N N N z ) B.s.B.s.m.V.V.V.D.M.M.M.H.M.n.' ~...Y @.O.O.O.q Y R ;.@.@.R o.,XO.(.{.{.{.{.!.< 6 O + # e e e r r y j s j j j j ",
"N N N l C G.s.B.m.f.m.m.V.M.m.M.M.H.M.M.N.[ / #XgXgXgXiXU %.&XgXgXkXuX@.,XO.(.{.{.R.I 8 5 2 @ O # r e e r r y y s j j j j ",
"N N N l S G.s.s.m.f.m.m.m.m.G.D.H.M.M.M.H.y./ #.kXjXjX XO.;.jXjXjXjX.X>.,XO././.J 9 5 3 h 2 @ + # r e r e j y y j j j j j ",
"N N N M S G.s.s.s.m.m.m.V.B.F.M.M.M.M.M.n.` !.I O.>.@.P :X>.;..X%X|.@.:X,XX./.`.H 5 h 3 3 2 @ + # r r r r r j j s j j j j ",
"N N N z S G.s.s.m.f.F.m.m.V.H.V.H.M.M.y.` (.].H R o.O.O.l.l.-X>.;.,.;.,.:XX.].{.].I 7 3 3 2 @ o # r r r r j j y s j j j j ",
"N N N M S G.f.f.B.s.f.B.V.m.m.V.M.M.M.-.! W...P oXk.:.;.O.k.>X,.' ' ;.;X:XY L.}.{.{.P.8 5 2 @ O # r r r p s s s j j j j j ",
"N N N M S G.f.f.f.f.f.B.B.m.V.M.H.V.M.H.N.*.P R :X,X,.R O.>X>X>X>X>X,X>XoXo.o.(.{.`.P., % % . o # r r r s s s j j j j j j ",
"N N N M S G.f.f.f.f.f.f.B.m.V.V.V.M.M.M.V.H.T q ;X>X>Xk.;X>X>X>X>X>X>X>Xl.O.;.L.G - X . . . . o # e r t s s s j j j j j j ",
"B N N l S G.f.f.f.f.f.m.V.B.V.V.V.M.M.M.H.*.} ..-X,X>X>X>X>X>X>X>X>X>X>X;.P  .~.$ o o X o o o . $ r r p s s s j j j j j j ",
"B B N l S F.s.f.f.s.m.m.B.f.V.m.M.M.M.V.M.) U H oX,X,.,.>X:X>X>X>X>X,X,Xo.L./.].J & = = * * * * e r t s s j j j j s p s j ",
"B B N l S G.m.s.B.m.m.m.f.m.B.M.M.M.M.V.M.M._ J |.,X;.O.,.;.:X>X>X>X>Xl.} G < < ; * w w w w r r r t t s j j j j p * # : p ",
"x N N l ) G.s.m.m.B.m.m.m.m.M.M.V.M.V.M.M.M._ ( ' ,X;.c ' o.;X>X>X>X>XO.U./ = * a n , ; - = e r r t s s j j j p < g H Y g ",
"N N N l ) G.s.m.s.m.m.G.m.H.H.G.M.M.V.V.M.M.H.H.) ,.:X:.R R >X>X>X,Xz.c I , * * [ <X| E.g ; r r r p s s j j j i L yXyXyXL ",
"N N B M D f.f.f.s.G.G.F.V.H.H.G.D.D.V.V.F.N.N.n.y.n :.,Xk.oX,X,X>X:.R P ( = w * [ v.2.E.G ; e r t s s s j j j i L yXyXyXL ",
"k k v 9 V &.=.y.u.d.d.d.m.G.H.V.h.*.) { { ` [ ] +.+.] ` ;.k.k.>.R ] 4.+.` m g f Q ` / 1., & e r p s s s s j j s < ! I I g ",
"+X5X+X+Xc.q.6.3.] ] ] ( ( ) _ ( Q 3.8.C.1X4XqXwXwXwXwXr.U ' [ ;.R 0.e.0.0.6.7XqX7X1XQ.0.+.c d u p s s s s s s s m j.j.h.[ ",
"wXwXqXwXqXqXqXqXqXqX3XC.w.~ E 8.C.A.3X3X4XeXqXqXwXqX2X+.' >X:X$Xc %.&X&XuX%X+.8XwXwXwXwXqX0X1X3.f a s s s s s r { tXtXtXj.",
"0XwXqX0XqXqX8X6X6X6XS.x.w.W 9.w.C.S.3X8XeXeXwX4Xq.5.0.U / | ^ ....%XjXjXjXjX%X0.qXwXwXqXqX9X6X6XS.<.; p s s s i 3.tXtXtXv.",
"wXwXwXwXqX8X8X6X6X3XZ.x.<.~ x.w.C.S.3X8XeXwXeX+.%XgX%XX.E._.^.).I.|.&XjXjXjXjX.Xe.wX0XwXqX8X6X4XS.C.E : p s s w ( $Xv.v.( ",
"wXqXqXqXqX6X6X6X6XA.x.x.~ 7.w.C.S.3X8X8XeXwX+X|.jXkX|.$.^.).).).1.0XXXjXjXjXjXjX%.+XwXqX4X8X6X4XS.C.3.E a s t r i i u i * ",
"0XqXwXqX6X8X6X0X5Xx.x.x.W w.w.C.3X8X8XqXqXwX6.uXjX#X&X#._.).).).I.iX.XiXuXkXjXjXiX$.4XqXeX4X6X6XS.C.7.~ g p t y t j s s s ",
"wXwXqXqX6X6X6X4XS.C.C.3.~ C.w.Z.8X8X8XqXqXeX4.uXiX XsX#.'.)._.).I.kXuX%XiX%.gXjXjX&X5.qXqX4X4X4XS.C.9.^ ~ u s s p s s s s ",
"wXqXqXeX4X7X4X4XZ.x.C.~ <.w.C.S.3X8X8XwXwX3X+.#X XiXuXI.'.).).).I.gXgX XjX%.%.jXjXjX Xe.qX9X4X4X3XZ.7.^ 7.a s s s j s s s ",
"qXqXqX9X7X7X7X3XC.x.w.W 9.x.C.3X8X8XqXqXqXe.%. X|.jX%XT.'.).'.).U.gXjX XgX.X^ &XjXjXgX%.1XqX6X3XS.Z.3.^ 7.u s s s s s s s ",
"0XwXqX9XqX7X4XA.C.w.8.W w.x.A.4X8X8XqXqXqX5..XX.iXjXXXE.'.'.).).2.gXjX*XuX%Xe.$.gXjXjXiX+.4X6X6XS.Z.<.<.7.u s s j s j s j ",
"qX8X6X6X4X7X4XZ.x.x.7.~ C.C.S.4X6X8XqXqX5X0..XX.gXjX%.^.).).).^.t.jXjXuX%X&Xe.1X0.jXjXjX%X5.6X3XS.S.<.<.<.u s s s s s s s ",
"wX8X8X6X4X4X3XC.w.C.] ] x.C.3X6X6X8XqXwXQ.#X.X|.uXhX .).).).).^.t.jXjX.X&X&Xe.wX0..XjXjXjXj.q.3X3XZ.<.3.~ u s s s s s s s ",
"qX8X8X8X7X4X3Xx.w.w.W 9.w.Z.3X6X8XqXqXwX5.uX XpX XiX2.).).).).^.Q.jX%X%XjX&Xe.wXqX4.0XjXjXkX$.1X3XZ.~ 7.W p s s p s s s s ",
"qX6X6X6X7X4XA.x.x.9.W w.w.Z.4X6X7XqXqX9X0.gX XgX%.#XT.'.).).).E.Q.%X#XjXjX&Xe.wXwX4X$.kXjXjX&X+.S.Z.~ 6.n i s r s s p s s ",
"6X8X6X6X7X3XA.x.C.<.~ C.w.Z.4X8X8XqXwX1XXXkX|. X&X@XE.).).'.'.Y.@X|.iXjXjX%XQ.wXqXqXc.0.jXjXjX.X7.Z.` 9.m p s y t t y y y ",
"8X8X4X8X8X3XZ.x.C.~ <.C.C.S.6X8XqXqXwXq.0XuXX.&XjX%.^.).'.'.'.Y.*XiX|.jXjX#X+XwXqXqX9X5.#XjXjXjX$.9.~ 6.g p y y t t r r t ",
"9X9X4X7X6X3XC.x.w.W 9.C.C.3X6X8XqXqXqX$.gX%X|.jXgX#.'.'.'.'.'.1.pXjX%X#XjXXX+XqX6X6X6X4X+.iXjXjXiX+.W 9.f r t t r t r t r ",
"9X9X4X7X6X3Xx.x.8.W w.w.C.3X6X8XqXqX5X0.jX%.|.jXgX ._.'.'.'.'.1.kXjXjX|.kX0.5X7XqX6X6X6Xc.5.gX&XgX*XY 9.f r t p r r t r t ",
"6X6X6X4X4XA.x.x.7.~ x.x.Z.6X8X8XqXqXq.=XjX@. XjX&XU.).'.).).).1.gXjXgXXXgX%.9XqX4X6X6X4X6X6.X..XjXjXj.3.> u w w e * i p r ",
"6X6X4X6X6XA.x.x.] ] x.x.A.3X8X8XqXeX4.iXjXX..XjX@XT.).).'.).).2.jXjX&X*XiX$.wXqX9X6X6X6X3X7.0.jXjXjX&X! f E +.~ m ; $ # $ ",
"6X4X3X6X3XA.x.x.~ 7.x.x.A.6XqXqXqX2X$.jXgXX.#XjX0.^.).).).'.^.Q.jXjX|.gX%Xc.qX9X6X6X6X6X4.Q.jXjXjXjX%.L 3.2XeXeX7Xr.g % = ",
"6X4X3X4X3XZ.x.w.W 9.x.x.A.6XqX6X9Xq.%XjXpX%.%XgX#.).).).'.'.E.Q.jXpX XjX0.5XqXqX9X4XqX^ H t.@XkXjXgX+.Z.2X4X9XeXqXqXj.> 0 ",
"7X3X3X3XS.Z.x.w.W 8.w.C.S.7X7X7X4X+.kXjX*XXX%XiXI.'.).).).).Y.*XjX.XpXsX$.qXwXqX7X4X3.c I ..1./ pX|.L ] ^ ^ +.3.q.3X2Xm 7 ",
"3X7X3X7XS.C.w.8.W w.w.C.3X7X4XqX5.#XjXjX X&X.X%XT.'.).).).).I.pXgXXXjX*Xe.wXqXqX1XW c $X>Xl.I ! +.X.q.1X5X5X1Xr.+.] x.m 9 ",
"S.3X3XS.S.Z.w.9.W w.w.C.3X7X7Xr.0.jXjXgX XiX.XQ.^.'.).).).).2.gXuX#XjX|.5XqXqXr.( A ,.>X>X>XT 4.L q.8X6X7X8X4XqXeX4.^ > 9 ",
"3XS.3XS.Z.C.w.9.W w.w.C.3X4X4X+.kXjXjXuX%XgXpX#.'.'.).).).).2.jX XkXgX%.eXqXq.{ K.n oX>X>X>X` ~ q.8X6X6X4X7X9X4XeX3XL m F ",
"3XS.S.A.C.x.x.7.! x.x.x.Z.3X4.*XjXjXjX@.iXjXiX2.'.'.'.'.).^.Q.gX.XjXrX0.qX+X{ J.u.m -X>X>X>Xo.+X8X6X6X4X6X4X9XqX7X7X^ 0 k ",
"A.Z.C.C.C.x.w.9.~ x.x.x.Z.7.0.jXjXjXj.U jXjX.XT.'.'.'.'.).Y.=XjXjXjX.X6.9X] K.g.D P :X>X>X,Xo.+X8X8X4X4X4X6XeXeX7X3X] Z F ",
"x.x.x.x.w.w.x.9.Q C.x.x.8.+.gXjXjX*XP #XjXjX#.^.'.'.'.'.).I.pXjXjXjX0.x.7.{ g.g.A ` :X:X:Xl.o.c.6XeX4X4X7X7X7X8X3XS.W k x ",
"w.x.w.w.w.w.x.9.W x.w.w.] uXjXjXkXX.^ iXjXiX ._.'.'.'.'.). .gXjXjXjX+.9.Q K.g.g.V ` ,.:.>.o.o.c.9X4X4X4X7X8X8X7XS.Z.m 0 7 "
};
