/* XPM */
static char *frame10[] = {
/* columns rows colors chars-per-pixel */
"61 64 233 2 ",
"   c #241D13",
".  c #39271A",
"X  c #452B1C",
"o  c #4B321F",
"O  c #4B3223",
"+  c #473B29",
"@  c #513821",
"#  c #443D30",
"$  c #55572E",
"%  c #595932",
"&  c #4C5031",
"*  c #705230",
"=  c #596233",
"-  c #6A7A39",
";  c #636D36",
":  c #4C5650",
">  c #685D48",
",  c #5C6B4C",
"<  c #6C7A45",
"1  c #747A46",
"2  c #7A7759",
"3  c #696F4F",
"4  c #5E766F",
"5  c #6E7A72",
"6  c #B57939",
"7  c #BB7D39",
"8  c #B47937",
"9  c #A7743B",
"0  c #926736",
"q  c #C07F39",
"w  c #94744A",
"e  c #887B56",
"r  c #967E59",
"t  c #866C48",
"y  c #847D6C",
"u  c #6F813B",
"i  c #74863B",
"p  c #758A3C",
"a  c #788E3E",
"s  c #708237",
"d  c #79903F",
"f  c #728343",
"g  c #798E41",
"h  c #728448",
"j  c #7D9342",
"k  c #708050",
"l  c #798666",
"z  c #7D8675",
"x  c #BE803A",
"c  c #829443",
"v  c #9C8256",
"b  c #A7895F",
"n  c #A98A5F",
"m  c #B0905D",
"M  c #978766",
"N  c #998C73",
"B  c #9A9477",
"V  c #848F73",
"C  c #A98B60",
"Z  c #B59465",
"A  c #B59568",
"S  c #A7967A",
"D  c #B49C7E",
"F  c #A7926A",
"G  c #A8A37A",
"H  c #B2A27B",
"J  c #B9BA7F",
"K  c #8CA17F",
"L  c #C4A268",
"P  c #7C8B86",
"I  c #718E8F",
"U  c #7EA7AC",
"Y  c #739AA3",
"T  c #848E84",
"R  c #8A9687",
"E  c #989689",
"W  c #969C95",
"Q  c #8C938E",
"!  c #A49A88",
"~  c #A69C93",
"^  c #94AA8B",
"/  c #96A88A",
"(  c #9AAB96",
")  c #9DB493",
"_  c #9EB59D",
"`  c #8AA294",
"'  c #A9A889",
"]  c #B7A884",
"[  c #BBB58C",
"{  c #A8A998",
"}  c #B4A999",
"|  c #A5BB9B",
" . c #A5B698",
".. c #BAB497",
"X. c #ABB68C",
"o. c #9AACAA",
"O. c #8DB5BC",
"+. c #98B6B7",
"@. c #90AEAC",
"#. c #A8ACA8",
"$. c #B5ACA2",
"%. c #BAADA3",
"&. c #B0ADA8",
"*. c #AAB8A7",
"=. c #B7B7A7",
"-. c #A7BDB9",
";. c #B8BBB6",
":. c #879FA2",
">. c #C8B88D",
",. c #C5BB94",
"<. c #DABA96",
"1. c #C7AA89",
"2. c #C3B5AB",
"3. c #C7BAAE",
"4. c #C9BDB2",
"5. c #A9C29E",
"6. c #8CC7BE",
"7. c #96C4BC",
"8. c #ADC5A2",
"9. c #AEC6A7",
"0. c #B4CCAC",
"q. c #B1C9A9",
"w. c #B9D4AD",
"e. c #B6D2AB",
"r. c #B4C3B2",
"t. c #B8C7B7",
"y. c #BFDDB3",
"u. c #BDD4BA",
"i. c #BBD5B7",
"p. c #A4C3BE",
"a. c #CEC198",
"s. c #D7C89A",
"d. c #D6D992",
"f. c #E9C69D",
"g. c #E9C69E",
"h. c #EFDE9F",
"j. c #E6D49B",
"k. c #F1DD9D",
"l. c #E9EC9C",
"z. c #EEF19F",
"x. c #C9C5A7",
"c. c #DACDA2",
"v. c #C9C6B7",
"b. c #D1C1B6",
"n. c #D5C5BB",
"m. c #D8C9BE",
"M. c #C1DEB4",
"N. c #C1DBBD",
"B. c #D9D5B1",
"V. c #EBC8A0",
"C. c #E4D4A4",
"Z. c #EFDEA3",
"A. c #EEDEAC",
"S. c #E7DAA7",
"D. c #F0DEA3",
"F. c #F0DFAA",
"G. c #EFDFB0",
"H. c #C3E0B6",
"J. c #C6E3B9",
"K. c #C8E6BD",
"L. c #C9E8BF",
"P. c #EFE0AC",
"I. c #F1E0A3",
"U. c #F0E0AD",
"Y. c #F1E0B0",
"T. c #DFE19B",
"R. c #97BDC5",
"E. c #8DB7C1",
"W. c #A0BCC1",
"Q. c #98C3CA",
"!. c #94D4C8",
"~. c #9CCBD6",
"^. c #97DCD2",
"/. c #8ED1C6",
"(. c #A5C4C6",
"). c #B8C7C4",
"_. c #A5D3DD",
"`. c #A6CED5",
"'. c #98E8DA",
"]. c #AADEEC",
"[. c #A5D7E4",
"{. c #9FF4E4",
"}. c #9DEFE0",
"|. c #ADE1EE",
" X c #A0F5E5",
".X c #ADE3F2",
"XX c #B0E7F5",
"oX c #B4ECFB",
"OX c #B2E9F7",
"+X c #B0E2EE",
"@X c #C6C5C4",
"#X c #C8C8C6",
"$X c #CCCDCB",
"%X c #C5CAC6",
"&X c #DCCCC2",
"*X c #D0CFC1",
"=X c #C8D8C7",
"-X c #D1D1CF",
";X c #D7D6C8",
":X c #D4D5D2",
">X c #DCDCDA",
",X c #D7DAD8",
"<X c #CAD6D4",
"1X c #E1CEC4",
"2X c #E3D1C6",
"3X c #E6D4CA",
"4X c #E9D6CB",
"5X c #EBD8CD",
"6X c #E0DFD8",
"7X c #C6E1C3",
"8X c #C9E6C4",
"9X c #CCEAC3",
"0X c #CFEDCC",
"qX c #C9E5C8",
"wX c #D0EECE",
"eX c #CFF0CD",
"rX c #D1F0CF",
"tX c #D7E9D5",
"yX c #D4F3D3",
"uX c #D8F5D6",
"iX c #E8E8DB",
"pX c #F6F7D6",
"aX c #CFEEEE",
"sX c #E4E4E3",
"dX c #ECECEA",
"fX c #E7E8E7",
"gX c #F1F2EE",
"hX c #F9F9EA",
"jX c #F4F4F3",
"kX c #FEFEF2",
"lX c #FEFEFE",
"zX c #F8F7F7",
"xX c #EFEFEA",
/* pixels */
"r D C.D.D.D.Z.Z.Z.Z.A.P.P.A.A.A.A.G.A.A.A.A.P.A.A.A.A.A.A.A.A.A.G.A.P.A.P.A.A.A.A.A.A.A.F.G.F.F.S.c.a.,.[ ..[ ..1...>.,.a.",
"% e F s.I.D.h.I.Z.Z.I.P.P.P.A.A.A.A.A.A.A.A.P.P.A.A.A.A.A.A.A.A.A.A.P.S.C.P.A.A.A.A.A.F.S.c.,...%.x.n.6XiXiXiXiXiXiXiX,Xv.",
"  . > r 1.k.D.D.Z.Z.Z.P.P.A.A.A.A.A.A.S.A.A.B.P.Y.Y.A.A.A.A.A.A.A.G.S.' ' P.A.A.G.G.S.,...v.6XpXhXkXkXkXzXkXkXkXkXkXkXkXkX",
"e +   + > ] D.D.Z.I.Z.P.P.P.A.A.A.A.A.P.A.A.Y.P.a.B.A.A.A.A.A.A.P.C.{ O.=.P.A.P.S.,.,.;XhXkXkXkXkXhXiX;Xv.3.v.4.v.v.;XiXhX",
"A Z t . # >.D.D.Z.D.D.P.G.A.A.G.P.P.P.P.P.P.P.C.R a.P.P.P.P.A.A.C.{ _.~.8.U.F.s...;XhXkXkXhXdX&X..! ! S S N N N N N N N E ",
"Z Z A r S D.D.D.I.Z.Z.F.G.A.A.A.S.P.S.P.A.P.G.s.+.O.c.P.A.A.A.C.{ [.oXQ.x.D.,.v.xXkXkXhX*X} ! ! S B N N S S D D D D S S N ",
"Z Z Z C D D.k.Z.A.Z.A.A.G.A.A.A.P.P.A.A.A.A.P.a.(.|.@.c.P.A.C.{ _.oXoXQ.x.,.*XkXkXkX6X{ ! ! S r S ] <.<.V.V.g.g.V.g.g.f.f.",
"Z Z Z C H l.D.D.Z.Z.Z.A.A.A.A.G.P.S.A.A.A.A.P.a.(.oX].o.c.A.X.`.oXoXoXR.' m.kXkXhXv.S ] S N ] <.V.V.g.g.g.g.g.g.g.g.f.f.f.",
"Z Z Z n H U.Z.Z.A.P.A.F.F.A.G.A.A.A.A.A.A.A.U.a.(.oXoX].o.~ W.XXoXoXoXO.t.kXkXhX%.E ] N ] <.V.g.f.f.f.g.f.f.f.f.f.f.f.f.f.",
"Z Z Z n D I.Z.D.F.A.F.A.G.A.A.A.A.A.A.A.G.G.Y.s.+.oXoXoXOX~.XXXXoXoXoXQ.iXzXhX{ S S M 1.V.V.V.V.f.f.f.g.f.f.f.f.f.f.f.f.f.",
"Z Z Z n H l.Z.Z.D.A.A.A.G.A.A.A.A.A.S.' ..s.c.C.{ XXoXoXOX+X|..XoXoXoX~.;.$XW y Q P , N A 1.1.s.f.g.V.V.f.f.f.f.f.f.f.f.f.",
"Z Z Z b D D.Z.Z.D.A.A.A.A.P.A.P.A.G.F.' @.Q.+.o.+.OX].R.o.#.#.o.+._.OXOX[._.[.]..X~.3 - - - - 1 e M A D <.<.g.V.g.g.g.V.f.",
"Z Z Z n H I.Z.Z.Z.A.A.A.A.A.P.A.A.A.A.C.#.oXoXoXoX~.o.@X2X4X4X1Xn.$.-.].oXoXoXoXOXI s s i p s s s - - - - 1 e M S 1.>.<.f.",
"Z Z Z n G I.Z.D.Z.I.A.A.A.A.P.P.G.P.A.P...W.oXoX[.#.1X4X4X4X4X4X5X5X4.o.].oXOXoX~.k p s i i p s i p p a a p p i - - - 1 e ",
"Z Z Z n D I.Z.h.Z.I.A.A.A.P.G.P.P.P.A.A.S.{ [.OX+.&X5X4X4X4X4X4X5X4X4Xb.+.OXoXoXY $ = $ $ $ $ - i i i p a p a a c a d d a ",
"Z Z Z n H I.h.Z.Z.Z.P.A.A.P.A.A.A.A.A.A.U.s.o.[.&.5X4X4X4X4X4X5X5X5X4X5X%._.oX_.: * * * * * . $ i i i p p p p a a a d j d ",
"Z Z Z n D k.l.D.Z.Z.Z.A.A.P.D.A.A.A.G.G.S...(.E.~ n.&X3X4X3X3X2X&X&X3X4Xb.-.oXE.t 8 q 7 q 6 O + - p i i p p p a d d j j j ",
"Z Z Z n H k.k.D.Z.Z.Z.P.I.U.A.A.A.A.S.,.{ (.XXY O.E.+.#.#.#.#.o.@.:.4.5X&Xo.oXXX~.Q w 6 q 6 @ O = p i i s p a a j j j j j ",
"Z Z Z b H D.Z.h.h.Z.Z.D.A.P.P.A.G.G.>.R [.oX].Q &.#.#.+.E.E.O.o.o.#.&X4X3X#.XXOXoXoXR.T w 9 @ O % i i i p p a j j j c c c ",
"Z Z Z n H D.h.D.D.Z.Z.A.A.U.A.A.A.A.G.a.( [.R.4.5X4X1X4.@Xb.b.&X3X5X4X3X6X#.+XoXoXoXoXR.2 0 @ O % i i i p p a j j j j c c ",
"A Z A b H I.k.I.h.D.Z.D.D.A.F.A.P.A.A.G.C.{ Y ~ %.%.} 2.5X4.%.%.%.$.} 4.4X#.+XoX.XR.T w 6 6 @ O % i p p p p j j j c c c c ",
"Z Z Z n H I.k.k.h.D.Z.Z.D.D.Z.P.U.A.F.G.Y.a.Y 4.2X1X1X1X5X2X&Xn.&X&X2X5X3X#.+X[.P w 6 7 q 6 @ O * i s p p a j j c c c c c ",
"Z Z A n H I.k.Z.Z.h.D.A.P.F.Z.A.A.F.F.F.S.{ (.Q 4.5X2X2.4X4X3Xn.&X&X2.2X3X#..X|.P 9 7 7 7 6 @ O % p p p a d c j j c c c c ",
"Z Z A C H I.k.Z.Z.k.Z.Z.Z.D.U.F.G.A.F.C.{ `.].I ~ %.2.%.&X1X4X4.%.%.4.4X2X#.XXoX.X:.w 7 q 6 @ O % p s p a d d c j c c c c ",
"Z Z Z b H I.D.D.D.h.k.D.F.Z.A.F.A.A.A.] :.[.O.E 4.m.3.2.%.n.5X5X4X4X5X5X2XQ R.XXoXoXR.5 7 7 @ X $ p p p j j j j c c c c c ",
"Z Z Z b H k.k.k.k.k.k.D.D.Z.D.A.F.A.A.S.s.[ R } 4X5X4.~ %.4X4X4X4X4X4X4X&X$.%._.XX[.U : * * . O % p p p j c j c c c c c c ",
"Z Z Z b H k.k.k.k.k.k.D.F.D.F.F.F.A.A.A.P.P.! E 4X5X5X4.4X5X4X4X4X4X4X5X4.%.%.R.4 & . . . . . X % p p g g j j c c c c c c ",
"A A Z b D k.k.k.k.k.k.D.D.D.F.F.F.F.A.F.A.<.o.Y ~ 4.4.n.4.n.1X4X&X2X4X5X2.W W.[.: X o . X X O . $ p p g j j j c c c c c c ",
"Z Z Z b H I.k.k.k.h.h.Z.D.D.D.P.F.G.A.F.A.S W 5 ! 2.2.2.2.%.} } $.2.5X4X$.R.[.].I = ; ; ; u ; s i p g g j c c c c j g j c ",
"Z Z Z b ] I.D.D.Z.D.Z.D.D.h.Z.Z.A.A.A.F.P.I.[ I ~ 1X5X5X5X3X2X2.~ 4.4X1Xo.I 3 2 , - s s s s p p p g g j j c c c g < % < g ",
"Z Z Z b H I.l.D.Z.D.h.Z.Z.Z.A.F.A.F.A.A.P.A.[ E } 5X5X4X4X3X4X1X1X3X3X&.Q.Y < - 2 B 4 , : - i p p j j j j c c f 2 z P T z ",
"Z Z A b ] I.D.D.Z.Z.Z.Z.Z.F.F.U.F.A.A.A.P.A.G.A.] 4.5X5X4X4X4X4X4X4X&XV R 4 - - X.tX@.^.z , i p p g j j c c c f T aXaXaXQ ",
"Z Z A C L I.k.k.h.h.Z.I.I.U.P.P.Y.U.U.U.Z.A.S.C.s.! 3.3X5X5X5X5X4X4.~ E ! ; s - ..*X7._.z , p p p j j j c c c f R aXaXaXT ",
"M M M e S >.>.s.s.j.j.S.Z.U.U.Z.c.[ [ ' ' { ..| | | { &.3.m.m.4.~ #.*.*.{ K l l /  .:.O.4 , u g j j j j j j c j V ` :.Q z ",
"=X7XqX7X).H.0.9.| X.X.' ' ' [ G X.5.w.J.8X0XyXyXuXuXuXu.E %...=.! t.u.t.0.r.0XrXeX8X).r._ z k h g j j j j j j j V x.x.B.=.",
"uXyXuXuXuXuXyXyXyXyX9XK.y.) / w.M.K.9X9X0XyXyXyXuXyX7X*.} 3X4X&XV ;.>X>XsX:X*.rXuXuXuXuXrXeXqX5.z h j j j j j g ' pXpXpXx.",
"yXuXyXuXyXyXwXrXwXwXK.M.y.^ e.y.M.K.9X0XrXyXyX0Xu.;.;.W ` @.o.@.@.:XlXlXlXlX,Xr.uXuXyXuXrXrXrXwXJ.| , p j j j u 8.hXpXpXv.",
"yXuXyXyXuXyXwXwXwXwXM.M.5.) H.y.J.9X0XeXyXyXrX*.:XjX:X#.^.{.}.{./.).>XlXlXlXlX$Xu.uXyXyXyXrX0X0XK.H.R < d d j i ' B.B.v.' ",
"uXuXuXyXwXwXwXwXwXK.M.M.^ q.y.H.K.0XwXyXyXyXN.%XlXjX@X-.'. X{.{.6.>X@XlXlXlXlXzX;.=XyXrXrXrXwX0XL.M.5.^ h j d p i f f f f ",
"uXyXyXyXwXwXwXwXwXK.M.w.^ y.y.H.9XeXrXrXyXyXi.sXlX-X6X-.{. X{.{./.dX$XdXsXjXlXlXdX-.wXyXrXrXwXwXL.M.e.) z p d d g g d j j ",
"yXyXyXrXrXrXwXwXL.M.M.5.) H.M.K.0XeXyXyXyXyX*.fXdX@XjX+. X X{.{.6.gX>X,XdX;.zXlXlX>Xr.yXrXwXwX0XL.J.e.) ) f d j j j j j j ",
"uXyXyXrXrXwXwX0XJ.M.H. .5.y.H.L.0XeXeXyXyXqX*.:X$XfXsX7. X X{.{.7.jXzX@XlX;.;.lXlXlX#Xu.yXrXwX0XL.J.8.) 8.h j j j j j j j ",
"uXyXyXrXeXwX0X8XH.M.y.^ e.y.J.9XeXwXyXyXuXi.;.@X@XlX,X!. X X{.{.7.zXlX$XjX$X#.tXlXlXzX;.7XrX0X0X9XH.8.| 8.h j j c j j j j ",
"yXrXrXwXyXwX0XK.H.y.e.^ y.M.K.0XwXyXyXyXyXr.$X#.dXlX@X^. X X{.{.+.zXlX,XsX:Xu.*.jXlXlXfX*.0X0X0XL.J.5.5.8.h j j j c c j j ",
"uXrXwX0X0XeX0XJ.M.M.5.) H.H.L.wXrXrXyXuXqXt.$X#.lXlX;.'.{.{.{.'.(.lXlXiX,X,X%X7Xt.zXlXlX,Xr.0X9X9XJ.5.5.5.f d j j j j j c ",
"yXrXrXrX0XeX9XH.y.H.| 5.H.J.L.0XwXrXyXyXu.-X$X@X>XkX+.{.{.{.{.'.p.lXlX-X>X>Xu.uXu.$XlXlXlXt.i.9XL.K.5.8.) f j j j j j j j ",
"yXrXwXeXeX0X8XM.y.y.^ e.y.H.9XrXeXrXyXyX;.fX@XfX#XdX6.{.{.{.{.'.).lX:X-XlX>Xu.uXyX;.tXlXlXjX=.N.9XH.| 8.^ p j j g j j j j ",
"rXwXrXeXeX0XK.M.y.e./ y.H.J.0XrXrXrXyXwXr.jX@XjX;.-X!.{.{.{.{.^.).,X-XlXlX,XN.uXyX0X*.jXlXlXsX*.L.H.) e.R f j g j g g j j ",
"eXeXeXeXeX0XJ.M.M.5.) H.H.K.0XrXyXyXyX=X%XxX@X#X>X#X^. X{. X X!.<X@XdXlXlX:Xu.uXyXyXu.t.lXlXlX$X8.J.) 0.K p d a a a a a a ",
"rXeX0XeXrX9XH.M.H.) 5.H.H.K.0XrXyXyXuXi.tXsX#.>XlX).^. X{.{.{./.,XdX@XzXlX-X=XyXyXyXyX0.:XlXlXzXr.e.) 0.l f d a a a a p a ",
"0XwXeXeXwX9XM.M.y.^ w.y.H.9X0XrXyXyXyX;.zX:X@XlXlXp. X X{. X X6.sXlX,X-XlX%X=XyXeX0XrX9X*.fXlXlXdX*.^ e.l p a g p p a a a ",
"wXwX0XeXwX9XM.M.e.^ y.y.J.9XrXrXyXyX8Xt.lX;.@XlXxX+.}. X X X X6.dXlXlX@XdXt.qXyXrX0X0X0XN.r.zXsXzX>XV e.l p a g a p a p p ",
"wXwX0XwX0XL.M.M.5.) M.M.J.0XrXrXyXyXi.<XlX&.@XlX>X7.{.{.{.{. X7.zXlXzX@XjX;.rXyXrXwX0X0X0X0.#.*XlXlX;.9.k < - i s i p f p ",
"wXwXwXwX0XK.M.H.5.| H.y.J.0XrXrXyXrX9.dXlX&.-XlX$X^.{. X X{.'.p.lXlX>X,XdXr.yXrXwXwX0X0X0X9.t.zXlXlX6X( 5 / | ) V , & % % ",
"wX0X0X0X9XK.y.M.) 5.y.H.K.rXrXrXeX8X;.lXzX#.-XlX;.'. X{.{.{.'.(.lXlX@XzX:Xu.yXyXwXwX0X0X0.%XlXlXlXlX;.R 5.9XrXrXrXu.l * * ",
"0X0X9X9X9XK.y.y.^ e.y.H.L.rXrXrXeXi.:XlXfX;.:XzX+. X{. X X X'.).lXfX$XlXt.qXyXrXrX0XyX_ P (.).dXlXjX*.N.L.0XwXrXyXrXi.2 t ",
"9XeXeX9XL.J.y.y.^ w.y.M.L.rXeXeXqX*.gXlX,X#X:XfX7. X{.{.{.{./.,XlX$XdXgX;.yXyXyXrX0X8.z :.:./.:.sX@XR ) _ _ *.8.i.9XJ.l w ",
"9X9XL.eXL.H.y.w.^ y.y.H.L.eXeXrXr.:XlXlX#X>X-X:X!.{.{.{.{.{./.fXzX@XzX,Xu.yXyXyX7X^ N ;X4Xm.Q ( *.*.i.7X9XqX7Xu.*.| y.V v ",
"L.eXL.L.L.J.y.w.^ y.y.H.9XrXrXy.t.lXlXjX#XdX$X).'.{.{.{. X{.7.zXsX:XlXv.qXyXyXu.X.G 4.5X4X4X~ 9.R i.rXwX0X0XwXyXeX9.) 2 r ",
"L.L.L.L.J.H.w.e.^ y.y.H.L.rXqX*.gXlXlXsX:XzXsX-.}.{.{.{.{.}.7.zX@XgXzX;.eXrXi.X.d.B 1X4X4X4X' _ i.wXwXwX0XeXwXrXeX9XR M L ",
"L.L.L.K.H.H.y.e.^ M.M.H.K.9X9.,XlXlXzX;.dXlXfX7.{.{.{. X{.'.).jX-XlXiXr.yX7XX.l.d.y 2X4X4X4X$.J.rX0X0XwXwXwX0XrXrX0X) 2 v ",
"K.J.J.H.H.y.y.e.) M.M.M.J.q.t.kXlXlX@XW lXlX$X!.{.{.{.{.{./.<XlXzXlX-Xi.eX_ d.z.J E 4X4X4X4X$.=XwX0X0XwXwXrXrXrX0XL.) n L ",
"y.y.M.M.y.y.H.q.^ J.M.M.e.*.jXlXlX,XR $XlXlXr.'.{.{. X{.{./.fXlXlXlXr.w.5.5.z.l.H { 3X4X3Xm.$.N.wXwXwXwXwXwXrXrXL.K./ b m ",
"M.M.M.M.y.y.y.e.^ M.M.i. .fXlXlXgX#. .gXlXdX+. X{. X{.{.{.+.zXlXlXlX=.w./ T.l.l.B } 4.2.4.$.} N.wXwXwXwXrXrXrXrXL.K.V t w "
};
