/* XPM */
static char *frame5[] = {
/* columns rows colors chars-per-pixel */
"61 64 236 2 ",
"   c #241D13",
".  c #39271A",
"X  c #3E2E26",
"o  c #462B1C",
"O  c #48301E",
"+  c #4C3123",
"@  c #473B29",
"#  c #523821",
"$  c #443D30",
"%  c #56582E",
"&  c #5A5932",
"*  c #4D552F",
"=  c #705130",
"-  c #5A6232",
";  c #6C7C3A",
":  c #687737",
">  c #626C36",
",  c #4F534B",
"<  c #5C6B4F",
"1  c #6B7A45",
"2  c #7B7558",
"3  c #6E724A",
"4  c #59716E",
"5  c #71796D",
"6  c #6F5D45",
"7  c #BC7D39",
"8  c #B57938",
"9  c #AA753A",
"0  c #856137",
"q  c #897B57",
"w  c #957C57",
"e  c #917248",
"r  c #837E77",
"t  c #6F813A",
"y  c #73863B",
"u  c #758A3C",
"i  c #788E3E",
"p  c #708237",
"a  c #7A903F",
"s  c #6F8143",
"d  c #738343",
"f  c #7A8E41",
"g  c #748645",
"h  c #7D9342",
"j  c #738157",
"k  c #7A8667",
"l  c #748672",
"z  c #BE803A",
"x  c #829443",
"c  c #9C8256",
"v  c #A78A5F",
"b  c #A98B5F",
"n  c #B0915E",
"m  c #968665",
"M  c #85877A",
"N  c #9A8C72",
"B  c #968C76",
"V  c #999475",
"C  c #859172",
"Z  c #A98B60",
"A  c #B59465",
"S  c #B59568",
"D  c #A6967A",
"F  c #B49C7C",
"G  c #A6926A",
"H  c #B2A27B",
"J  c #B7A87F",
"K  c #AEAA7B",
"L  c #8DA17F",
"P  c #C4A268",
"I  c #6A8686",
"U  c #7C8C88",
"Y  c #749095",
"T  c #7CA4A9",
"R  c #8A9687",
"E  c #969688",
"W  c #889A98",
"Q  c #90938C",
"!  c #A59B86",
"~  c #A69D94",
"^  c #B19A80",
"/  c #95AA8B",
"(  c #96A78A",
")  c #9AA897",
"_  c #9DB493",
"`  c #9EB59A",
"'  c #8AA493",
"]  c #A8A989",
"[  c #B8A984",
"{  c #BBB48D",
"}  c #AAA798",
"|  c #B1A59B",
" . c #B8AD96",
".. c #A5B899",
"X. c #BCB393",
"o. c #B8B699",
"O. c #ABB68C",
"+. c #99ABA9",
"@. c #98B2AB",
"#. c #89ADB5",
"$. c #8DB4BA",
"%. c #98B9B8",
"&. c #8DABA7",
"*. c #A9ABA6",
"=. c #B4ACA3",
"-. c #B9ADA4",
";. c #AEB1AB",
":. c #A9B8A6",
">. c #BBB2AA",
",. c #B6B4A8",
"<. c #A5BBB9",
"1. c #B5BCB3",
"2. c #BABBB7",
"3. c #849FA5",
"4. c #C6AA88",
"5. c #C7BA8D",
"6. c #C7BC95",
"7. c #DBBB97",
"8. c #D1B28F",
"9. c #C3B6AC",
"0. c #C6B9AE",
"q. c #CBBDB3",
"w. c #C4BDB3",
"e. c #A9C29E",
"r. c #8CC8BE",
"t. c #96C3BC",
"y. c #ACC5A2",
"u. c #AEC6A8",
"i. c #B2CDA6",
"p. c #B1C4AC",
"a. c #B4CCAC",
"s. c #B1C5A5",
"d. c #B8D4AC",
"f. c #A7C5BB",
"g. c #B4C3B2",
"h. c #B9C7B7",
"j. c #BBD4B6",
"k. c #BFDDB3",
"l. c #BDD3BB",
"z. c #BCD8BA",
"x. c #D6C89A",
"c. c #D5CF96",
"v. c #E9C69D",
"b. c #EBC89F",
"n. c #E4C49B",
"m. c #EFDE9F",
"M. c #E5D49B",
"N. c #F0DD9D",
"B. c #E8EA9C",
"V. c #C9C6B8",
"C. c #D5C5BB",
"Z. c #D7C8BC",
"A. c #C1DFB4",
"S. c #C1D9BC",
"D. c #D3CFB0",
"F. c #ECC8A0",
"G. c #E4D4A4",
"H. c #EFDEA4",
"J. c #EEDEAC",
"K. c #E7D9A8",
"L. c #F0DEA3",
"P. c #F0DFA9",
"I. c #C3E0B6",
"U. c #C6E3BA",
"Y. c #C8E6BD",
"T. c #CAE8BF",
"R. c #EFE0AC",
"E. c #E9EBA0",
"W. c #F1E0A3",
"Q. c #F0E0AC",
"!. c #F0E6AB",
"~. c #98BEC5",
"^. c #8DBCC9",
"/. c #A1BEC0",
"(. c #99C6C7",
"). c #96D7CA",
"_. c #9CCBD7",
"`. c #99D9D5",
"'. c #8ED1C6",
"]. c #A5C6C8",
"[. c #B9C8C5",
"{. c #A4D4DE",
"}. c #A2CCD6",
"|. c #99E9DA",
" X c #9AF0DF",
".X c #AADEEC",
"XX c #A7D8E5",
"oX c #9FF4E4",
"OX c #9DEEE1",
"+X c #A0F5E5",
"@X c #ACE3F2",
"#X c #B4ECFA",
"$X c #B1E7F5",
"%X c #ACE1EE",
"&X c #C5C5C3",
"*X c #C8C8C6",
"=X c #CCCDCB",
"-X c #C6C9C5",
";X c #DDCCC2",
":X c #D0CFC2",
">X c #C7D7C7",
",X c #D1D2CE",
"<X c #D9D5C7",
"1X c #D4D5D2",
"2X c #DCDDDB",
"3X c #D7DAD8",
"4X c #CBD5D3",
"5X c #E5D4CA",
"6X c #E9D6CB",
"7X c #EBD8CD",
"8X c #E4D2C7",
"9X c #E0D2C6",
"0X c #C6E1C4",
"qX c #C9E6C3",
"wX c #CCEAC4",
"eX c #CFEDCB",
"rX c #CAE5C9",
"tX c #D0EECD",
"yX c #CFF0CD",
"uX c #D1F0CF",
"iX c #D8E8D7",
"pX c #D4F3D3",
"aX c #D8F5D6",
"sX c #E7E7DB",
"dX c #F7F7D6",
"fX c #CFEEEE",
"gX c #E4E4E3",
"hX c #ECECEB",
"jX c #E7E9E7",
"kX c #F1F1EE",
"lX c #FAFAEB",
"zX c #F4F4F3",
"xX c #FEFEF2",
"cX c #FEFEFE",
"vX c #F8F7F7",
"bX c #EFEFEA",
/* pixels */
"w F K.P.L.H.H.H.H.H.R.R.R.J.J.J.J.J.J.J.J.J.J.J.J.J.J.J.J.J.J.J.J.J.R.K.R.R.K.R.J.J.J.J.J.R.Q.Q.K.x.x.4.{ X.X.X.X.X.X.6.x.",
"& q G x.L.H.H.W.H.H.H.W.R.R.J.J.J.K.J.J.J.J.J.J.J.J.J.J.J.J.R.J.J.J.R.R.G.R.R.R.R.J.J.J.K.G.6.X.o.V.Z.iXsXjXsXsXsXsXsX<XV.",
"  . 6 w 4.B.H.H.H.H.W.R.R.R.R.J.R.R.J.J.J.J.J.J.R.R.J.J.J.J.J.J.J.J.R.6.R K.R.R.J.J.G.6.o.V.5XbXlXlXxXxXxXxXxXxXxXxXxXxXxX",
"q @   @ 6 J W.H.H.H.J.R.R.R.J.J.R.R.J.J.J.J.J.J.6.G.T.J.J.J.J.J.J.K.o.%.+.J.K.R.J.6.o.<XzXxXxXxXxXlXsX<XV.w.w.q.V.V.<XsXlX",
"S Z e . $ 6.W.H.H.L.P.J.R.R.J.J.J.R.R.K.J.J.J.J.! ) R.R.R.J.J.R.K. .~.@X@.J.J.x.X.:XlXxXxXxXsX*Xo.! ! D D B N N N N N N E ",
"A S S w G L.m.H.H.H.P.P.R.R.J.J.J.K.R.R.J.J.J.G.*.(.o.R.J.J.J.K.X.(.#XXXo.J.X.V.lXxXxXlX:X| ! ^ ! V N N D D ^ ^ ^ F D D N ",
"A A A Z H W.m.H.J.L.P.J.J.J.J.J.R.R.J.R.J.K.J.G.@.$X%.9.J.R.J.{ ].#X#XXXo.6.:XxXxXxXsX} ! ^ D N D [ 8.n.v.F.v.v.F.F.v.b.n.",
"A A A b F W.H.W.L.J.J.R.J.J.J.J.R.R.K.J.J.R.J.G.%.#X$X%.o.R.5.~.#X#X#X`.R Z.xXxXxXV.V ! D N ^ 7.v.v.F.F.v.v.v.v.v.v.n.v.v.",
"A A A b H Q.L.J.J.P.J.P.P.R.J.J.J.J.J.R.R.J.R.G.*.$X#X$X~.~ +.$X#X#X#X_.1.xXxXlX=.! [ N ^ n.F.v.v.v.v.v.v.v.v.v.v.v.v.v.v.",
"A A A b H W.H.L.P.J.P.J.R.R.J.J.J.J.J.K.J.J.R.K.*.$X#X#X#X{.@X$X$X#X#X_.4XxXlX} D D m 4.F.F.F.v.v.v.v.v.v.v.v.v.v.v.v.v.v.",
"A A A b H H.H.H.P.J.J.J.J.J.R.J.J.J.J.[ ] 6.x.x.] XX#X#X$X.X.X@X#X#X#XXX<.=X~ r R 5 5 q S 4.8.n.v.v.F.b.v.v.n.v.v.v.v.v.v.",
"A A A v H L.H.H.H.H.J.J.J.J.J.J.J.J.J.0.#._.(.%.%.$X@X^.+.*.*.*.%._.$X$XXX_._.{.XXXXl ; : : : ; q m G 4.8.7.n.G.v.F.v.v.v.",
"A A A v F W.H.H.P.P.R.J.J.J.J.J.J.J.J.J. ..X#X#X#XXX+.w.8X5X5X5XC.>.+.XX#X#X#X#X#X^.1 u u y p u t t : ; ; 3 c m S 4.8.7.n.",
"A A A v F L.H.H.P.J.R.R.J.J.R.R.J.J.J.J.x.+.#X#X.X+.;X7X6X6X7X5X6X7XC.*.XX#X#X#X@X5 t u y u p p y y y i i u u t t ; ; 3 q ",
"A A A b F B.H.H.L.J.R.R.R.J.R.R.R.J.R.R.P.X._.$X^.C.7X7X7X7X5X5X6X7X7X;X*.$X#X#XT * - % * * * : u y y u u u u u f h i a i ",
"A A A b F N.m.L.L.L.J.J.J.J.J.J.R.R.J.R.J.G.~ _.W ;.;.;.;.;.>.-.>.>.:X6X>.].#X%X4 = = = = 0 . * y y y u u u f u f h i h a ",
"A A A v H W.N.W.H.H.H.P.J.J.J.J.J.J.J.R.K.X.~.T Y ^.#.$.$.$.^.#.#.#.W 9X;X+.#X}.q 8 z z z 8 + + ; y y y u u i a a a h h h ",
"A A A v H N.m.W.m.H.J.J.R.W.J.R.J.J.G.X.*.].@X3.~ q.q.=.9.9.9.q.q.w.>.7X8X*.$X$X(.R e 8 z 8 # + - y y y y u i a a h h h x ",
"A A A v H W.m.L.H.L.H.J.J.R.J.R.J.J.x.Q }.#X_.2.7X7X7Xq.| | 8X6X6X6X-.q.6X*.%X#X#X@X^.M e 8 # + & y y y y y i h h h x h h ",
"A A A v H N.m.H.H.L.H.H.L.Q.P.R.J.J.J.G.} ].#.E | >.9.;.r M ~ 9.>.9.~ | 7X=.XX#X#X#X#X{.5 0 # + & y y y u u i a x h x x x ",
"A A A Z H N.N.W.H.H.L.L.L.J.P.J.Q.J.J.Q.H. .&.4XhXvXvXzX~ w.2XzXzXzX2X>.7X;.XX#X#X_.3.q 9 8 # + & u u u u u a h h x x x x ",
"A A A Z [ W.B.m.L.N.H.H.L.H.L.R.Q.J.J.J.Q.x.3.<.zXcXvX*X;.2.cXcXcXcX=Xw.7X=..X.XW e 9 7 z 8 # + & y p u p x a x x x x x x ",
"A A A Z H L.N.N.H.m.H.H.W.J.R.J.J.J.J.J.G.} {.W -.9.>.Q 5Xq.9.1X1X&X9.5X6X*..X.XR 9 7 7 7 8 # + & u u u u a x a h x x x x ",
"A A A b H L.N.L.m.H.H.L.J.L.P.P.J.Q.J.x.) {..XQ | | =.-.;XC.5Xq.0.q.9.q.6X*.%X#X.XW e 7 z 8 # + & u u u x a a x h x x x x ",
"A A A Z H W.W.L.L.N.N.L.H.J.L.P.J.J.Q.4.) (.#.Q ;Xq.q.9.-.q.7Xq.| | 9.5X5XQ /.$X#X#X^.q 9 8 # O % u u u h h h x x x x x x ",
"A A A Z H W.N.N.N.N.N.N.H.L.P.J.Q.J.R.R.K.6.E ~ 6X7Xq.~ -.6X6X6X6X6X7X6X;X| | {.#X.X^.4 = = . + & u u u h h h h x x x x x ",
"A A A Z H N.N.N.N.N.N.L.L.P.P.P.P.J.R.R.J.Q.^ M C.6X7X;X6X6X6X6X6X6X6X6XC.-.9.~.I , X . . . . o & u u f h h h x x x x x x ",
"S A A v H N.N.N.N.N.L.L.L.L.P.P.J.J.J.J.P.6.&.Y ~ 0.0.0.q.q.;X6X5X;X6X7X9.Q <.{.* o o X o o o . % g u f h h x x x x x x x ",
"S A S v F H.m.N.N.m.H.H.H.m.L.R.J.J.J.P.J.[ E U 9.9.q.0.9.9.-.| 9.| 9X7X=.~..X@XY - : > : : : : y u u h h x x x x h f x x ",
"A A A v [ W.H.m.m.H.H.H.H.N.H.L.J.J.J.R.J.J.[ Y ~ 6X7X6X6X6X7Xq.~ ~ 9XZ.+.I 5 5 < : t t p p u u u u h h x x x h g 1 & 1 f ",
"A A A v [ W.m.H.L.H.H.W.H.H.R.J.P.J.P.P.J.J.X.] | 6X6X6X6X6X6X8XC.Z.5X-.].T : ; j V < 4 , : u y u i h h x x x g 2 l R U l ",
"A A A v H W.H.m.H.H.L.H.H.P.P.Q.J.J.P.P.J.J.J.P.4.q.6X6X6X6X6X6X7X7XC.M R 4 : : ..7X@.`.l < u u u h h h x x x d R fXfXfXQ ",
"S S S Z P W.N.N.m.H.W.W.P.W.J.H.Q.Q.Q.Q.H.K.K.G.x.! 9.6X7X7X6X7X7Xq.~ E ! > y : o.<X%.|.l < u u u h h h x x x g R fXfXfXU ",
"m m m q D 5.5.x.c.M.M.M.H.Q.Q.H.x.{ { ] O.} o.:.o.....} 9.C.C.0.~ o.u.:.} C k k ( } T $.4 < u u f h h h x x x h k ' ' R l ",
"S.0XrX0X[.I.a.s...o...] ] [ { ] O.y.j.U.qXeXpXpXaXaXaXz.E >.-.9.E h.j.h.a.g.yXpXeXrXz.f.) C j s f h h x h x h f B D.V.D.,.",
"aXaXaXaXaXaXpXaXpXpXeXI.k._ ( d.A.U.wXwXwXpXpXpXaXpXrX:.} 6X6X;XM 2.2X2XgX4X:.pXaXaXaXaXaXpX0X:.l g h x h h h u ] dXdXdXD.",
"aXaXpXaXaXpXtXtXeXtXqXA.k./ d.k.A.Y.wXtXuXpXpXeXj.g.h.) ' &.@.&.&.1XcXcXcXcX3Xg.pXpXpXpXpXeXuXuXY...< u a a h g s.dXdXdXD.",
"aXpXpXaXpXuXtXtXtXwXU.A.e._ I.k.U.wXeXuXuXpXpXu.1XzX1X*.`.oXoXoX'.[.2XcXcXcXcX=Xj.aXaXpXuXpXtXeXY.I.' 1 h a h t ] <XD.D.] ",
"pXpXpXpXpXtXpXtXtXqXA.A./ i.I.I.Y.eXtXpXpXaX>X&XcXzX&X<.|.+XoXoX'.2X*XcXcXcXcXvXh.>XpXpXuXuXtXeXY.I.e./ 1 f f u d d d d 1 ",
"aXpXaXpXuXtXtXtXwXU.A.d./ k.k.I.wXyXyXpXpXaXa.gXcX=X2X<.oXoXoXoXr.hX=XhXgXzXcXcXhX1.uXpXuXeXtXtXT.I.i._ C f f f h f h h h ",
"pXaXpXuXuXtXuXuXT.I.I.e._ A.A.U.eXyXuXpXpXpX:.jXhX&XzX%.+X+XoXoXr.zXgX1XhX2.vXcXcX2Xg.pXpXeXeXeXwXI.d.` _ s h h h h h h h ",
"pXpXpXtXtXtXuXwXU.A.I._ e.I.I.T.eXuXuXpXaXrX;.,X=XhXgXt.+X+X+XoXt.zXvX&XcX2.2.cXcXcX*Xl.pXuXeXeXwXI.i.` y.g h h h h h h h ",
"pXpXpXtXyXeXeXwXI.A.k./ d.k.I.wXtXpXuXpXpXj.V.&X&XcX1X'.+X+X+XoXt.vXcX=XzX=X` 2XcXcXvX1.rXuXtXtXT.U.y.` y.g h h h h x x h ",
"aXpXpXtXtXtXeXqXI.A.d./ k.k.Y.eXtXuXpXpXpXg.=X*.hXcX-X`.+X+X+XoXt.vXcX1XgX1Xl.p.zXcXcXjX;.wXtXwXwXU.e.e.y.g h h h h h h x ",
"aXuXtXtXyXyXeXU.A.A.e./ A.I.T.eXuXuXpXpXrXh.=X*.vXcX1.|.oXoX X X].cXcXgX2X3Xl.>Xh.vXcXcX1Xg.tXwXT.Y.e.e.e.g h h h h h h h ",
"pXuXuXtXyXyXwXI.A.A.e.e.I.U.T.tXuXuXpXaXl.4X=X&XsXvX<.oXoXoXoX|.f.cXcX=X2X2Xl.aXj.=XcXcXcXh.l.wXT.U.e.y._ s a h h h h h h ",
"uXuXtXuXyXtXqXA.A.A./ i.A.I.wXuXuXuXpXpXg.jX*XjX-XhXt.oXoXoXoX|.[.cX1X,XcX2Xl.aXpX1.iXcXcXzX;.Y.wXU...i./ g h h h f h h h ",
"uXuXuXyXyXeXY.A.A.d.( A.A.U.eXuXuXpXaXtX1.kX*XzX2.,X).oXoXoXoX`.[.1X1XcXcX2Xl.aXpXeX1.kXcXcXgX:.Y.U._ i.L g f f h f f h h ",
"uXyXyXyXyXeXI.k.I.e._ I.I.Y.eXuXuXpXaX>X-XkX&X*X2X=X).+X+X+X+X).4X&XhXcXcX1Xl.aXpXpXz.h.cXcXcX=Xu.U...i.l h h a i i a a i ",
"uXuXyXyXuXwXI.I.I._ e.k.I.T.eXuXpXpXaXj.iXgX) gXcX[.|.+XoXoX+X'.3XhX&XvXcX,X>XpXpXpXuXu.,XcXcXcX1.a.} i.k g h a i i u i i ",
"yXtXuXyXtXwXU.A.k./ d.k.I.wXeXuXpXpXpXg.vX1X&XcXcX<.OXoXoXoXoXr.gXcX3X,XcX-X0XpXuXtXtXeX:.hXcXcXhX;./ d.k f f f u u i i u ",
"tXeXeXyXtXwXA.A.d./ k.k.I.wXuXuXpXpXrXh.cX2.&XcXhX%.oX+X+XoXoXr.kXcXcX&XhXh.rXpXeXtXyXyXS.1.vXiXvXiXM d.k u u h u i i u i ",
"tXtXtXtXeXT.A.A.e._ I.k.U.eXuXuXpXpXj.4XcX;.*XcX2X(.+XoXoXoXoXt.vXcXzX&XzX1.tXpXuXyXeXeXeXa.;.=XcXcX2.p.j ; t t t t u g u ",
"tXtXtXtXtXY.A.A.e...I.k.Y.uXuXuXuXpXu.hXcX*.,XcX=X).+XoXoXoX Xf.cXcX2X2XhXh.pXuXpXeXtXeXeXi.2.xXcXcXiX) 5 ( .._ l 6 & & % ",
"tXeXeXeXwXY.A.A._ y.k.I.Y.uXuXuXuXrX2.cXzX*.,XcXh.|.+XoXoX+X|.].cXcX&XzX1X[.pXuXpXeXtXtXa.[.cXcXcXcX2.R y.qXpXpXaXS.5 = > ",
"eXwXeXwXwXU.A.A./ d.k.I.T.uXuXuXeXj.1XcXjX2.1XvX%.+XoXoXoX+X`.[.cXgX=XcXh.rXpXuXuXeXpX` U ].[.kXcXzX:.U.wXrXeXuXpXuXl.3 e ",
"eXeXwXeXwXU.k.k./ d.k.I.T.yXyXyXeX:.zXcX3X&X1XhXr.oXoXoXoXoX'.3XcX=XjXkX1.aXpXuXyXeXe.l W &.r.' jX&X' _ ` ` :.y.j.wXqXk e ",
"wXwXwXwXT.I.k.d./ k.k.I.wXyXyXyXp.1XcXcX*X2X,X1X).oXoXoXoXoX'.jXvX&XcX3Xl.aXpXpXU./ R ;X7XZ.W ) :.*.j.0XqXrX0Xz.y...I.k c ",
"T.wXwXwXT.I.k.d./ k.k.I.wXyXpXz.2.cXcXvX-XhX=X[.`.+XoXoXoXoXt.vXgX1XcX&XrXaXpXz.O.K V.6X6X7X~ :.E j.uXtXeXuXtXpXuXu._ 2 c ",
"wXwXwXT.I.I.A.d./ k.k.I.T.yXwX:.kXcXcXgX1XvXgX<.OX+XoXoXoX Xt.cX=XhXvX1.pXpXa.O.M.V Z.6X6X6X} ` k.eXtXeXeXuXyXuXuXrXR m P ",
"T.T.T.Y.I.A.k.i./ A.A.A.U.eXu.3XcXcXvX;.hXcXjXt.oXoXoXoX+X|.[.zX,XcXgXg.pX0XO.E.c.m <X6X6X6X=.U.tXtXeXtXtXtXuXuXuXeX_ 2 c ",
"U.U.U.A.I.k.k.i._ A.A.A.I.i.g.cXcXcX&X) cXcX=X).+XoXoXoXoX'.4XcXvXcX=Xj.yX` c.E.K E 6X6X6X7X=.>XtXeXeXtXtXuXuXuXeXT...G P ",
"k.A.k.k.A.k.A.i./ A.A.A.i.:.zXcXcX3XE =XcXvXg.|.oXoXoX+XoXr.jXcXcXcXg.d.i.e.E.E.K } 5X6X<X;X-.S.uXeXeXtXuXuXuXuXwXY./ v n ",
"k.A.k.k.k.k.A.i._ A.A.A...jXcXcXkX*.` zXcXhX%.oXoXoXoXoXoXt.vXcXcXcX:.d.K B.B.B.D | q.9.0.-.-.S.tXtXeXeXuXuXuXuXT.U.l e e "
};
