/* XPM */
static char *frame25[] = {
/* columns rows colors chars-per-pixel */
"61 64 229 2 ",
"   c #241D14",
".  c #39271A",
"X  c #3E2E26",
"o  c #452C1C",
"O  c #4D341F",
"+  c #493425",
"@  c #513821",
"#  c #595832",
"$  c #51572F",
"%  c #6F5130",
"&  c #5A6232",
"*  c #6A7A39",
"=  c #626D37",
"-  c #4E534B",
";  c #5C6B4F",
":  c #6C7B44",
">  c #71714E",
",  c #59716E",
"<  c #71796D",
"1  c #6E5D46",
"2  c #B67939",
"3  c #BC7E39",
"4  c #B77937",
"5  c #AA753A",
"6  c #856036",
"7  c #C07F39",
"8  c #887C59",
"9  c #947C57",
"0  c #917249",
"q  c #827D76",
"w  c #6E8139",
"e  c #73863B",
"r  c #758A3C",
"t  c #798E3E",
"y  c #7A903F",
"u  c #728343",
"i  c #768944",
"p  c #7D9342",
"a  c #718151",
"s  c #7A8566",
"d  c #768871",
"f  c #BF803A",
"g  c #829443",
"h  c #958157",
"j  c #A7895F",
"k  c #A98B5F",
"l  c #B0905E",
"z  c #878679",
"x  c #9B8C72",
"c  c #968C75",
"v  c #849676",
"b  c #9A9477",
"n  c #918967",
"m  c #AA8C60",
"M  c #B59465",
"N  c #B59569",
"B  c #A79679",
"V  c #B49B7D",
"C  c #A69269",
"Z  c #A8A47A",
"A  c #B2A27C",
"S  c #B9B97D",
"D  c #8CA17F",
"F  c #C3A168",
"G  c #698685",
"H  c #7A908F",
"J  c #7CA4A8",
"K  c #899688",
"L  c #969487",
"P  c #889A97",
"I  c #9A9D97",
"U  c #8B8D84",
"Y  c #A39A87",
"T  c #A79D94",
"R  c #95AA8B",
"E  c #96A78A",
"W  c #99AA95",
"Q  c #9DB493",
"!  c #9DB49A",
"~  c #89A192",
"^  c #A8A889",
"/  c #B7A884",
"(  c #BBB38D",
")  c #ADA49A",
"_  c #A7AA98",
"`  c #B5AA98",
"'  c #A6B899",
"]  c #BAB598",
"[  c #ACB68D",
"{  c #89A7A7",
"}  c #98AAA9",
"|  c #99B4A9",
" . c #89AEB7",
".. c #98ADB0",
"X. c #99B7B8",
"o. c #89B6B6",
"O. c #A9ACA7",
"+. c #B5ACA2",
"@. c #B7ADA5",
"#. c #A9B8A6",
"$. c #B8B3A9",
"%. c #A7BBB9",
"&. c #B5BCB3",
"*. c #BABBB7",
"=. c #C7B68E",
"-. c #C6BB95",
";. c #DABA96",
":. c #C7AA89",
">. c #C3B5AC",
",. c #C5B8AC",
"<. c #CBBDB3",
"1. c #C4BDB4",
"2. c #A9C19D",
"3. c #8CC7BE",
"4. c #96C3BC",
"5. c #ACC5A2",
"6. c #AEC5A9",
"7. c #B1CDA5",
"8. c #B1C4AD",
"9. c #B4CAAA",
"0. c #B6D2AA",
"q. c #B9D5AD",
"w. c #BAD8AE",
"e. c #A3C2BE",
"r. c #B7C6B5",
"t. c #BBD4B7",
"y. c #BFDDB3",
"u. c #BDD3BB",
"i. c #BCD8BA",
"p. c #D7C89A",
"a. c #D4CD95",
"s. c #E9C69D",
"d. c #E9C69E",
"f. c #EFDE9F",
"g. c #E5D49C",
"h. c #F0DD9D",
"j. c #EAED9D",
"k. c #DCCEA2",
"l. c #C8C7B8",
"z. c #D4C5BA",
"x. c #D9C8BE",
"c. c #D1C4B8",
"v. c #C1DEB4",
"b. c #C1DBBC",
"n. c #D0D1B6",
"m. c #ECC8A0",
"M. c #E4D4A4",
"N. c #EFDEA3",
"B. c #EEDEAC",
"V. c #E7D9A7",
"C. c #F0DEA3",
"Z. c #F0DFAA",
"A. c #C3E1B6",
"S. c #C6E3B9",
"D. c #C8E6BD",
"F. c #C9E8BF",
"G. c #EFE0AC",
"H. c #EFE0A7",
"J. c #F1E0A3",
"K. c #F0E0AD",
"L. c #F0E4AC",
"P. c #DEE29A",
"I. c #97BDC6",
"U. c #8DBCC9",
"Y. c #A0BFC0",
"T. c #98C4C9",
"R. c #96D5C9",
"E. c #9CCAD5",
"W. c #9CCEDB",
"Q. c #99D8D6",
"!. c #8DD1C6",
"~. c #A4C5C8",
"^. c #B7C8C5",
"/. c #A5D4DE",
"(. c #A2CDD6",
"). c #99E8DA",
"_. c #A9DAE7",
"`. c #9EF4E3",
"'. c #9DEEE0",
"]. c #AAE0EE",
"[. c #A0F5E5",
"{. c #ACE3F2",
"}. c #B1E6F4",
"|. c #B4ECFB",
" X c #B2E9F7",
".X c #C5C5C3",
"XX c #CCCDCB",
"oX c #C7C9C6",
"OX c #DCCCC2",
"+X c #D1CFC7",
"@X c #C4DEC2",
"#X c #CAD1CD",
"$X c #D1D2CE",
"%X c #D8D6C8",
"&X c #D4D5D2",
"*X c #DCDCDB",
"=X c #D7DAD8",
"-X c #C9D6D4",
";X c #E1CEC3",
":X c #E3D1C6",
">X c #E6D4CA",
",X c #E9D6CC",
"<X c #EBD8CE",
"1X c #E1DFD1",
"2X c #C6E2C4",
"3X c #C9E5C4",
"4X c #CCEAC3",
"5X c #CFEDCC",
"6X c #CBE6C9",
"7X c #D0EECE",
"8X c #CFF0CD",
"9X c #D0F0CF",
"0X c #D4EDD2",
"qX c #D4F3D3",
"wX c #D8F5D6",
"eX c #E6E6DC",
"rX c #F7F7D6",
"tX c #CFEEEE",
"yX c #E4E5E3",
"uX c #ECECEB",
"iX c #E7E9E7",
"pX c #F0EFEA",
"aX c #F2F2EE",
"sX c #FCFCED",
"dX c #F4F4E6",
"fX c #F4F4F4",
"gX c #FEFEF2",
"hX c #FEFEFE",
"jX c #EFF0F0",
/* pixels */
"9 V M.Z.N.N.N.N.Z.N.N.G.G.B.B.B.B.B.B.B.B.B.B.B.B.B.L.B.B.B.G.G.G.B.B.B.B.B.B.B.K.B.B.K.B.K.K.Z.V.k.p.=.=.( ` =.] ( =.-.p.",
"# 9 C p.C.h.N.N.N.N.H.H.G.G.K.B.B.B.B.B.B.B.B.B.B.B.B.B.B.G.B.B.B.B.B.B.M.B.B.B.B.B.B.Z.M.k.-.( $.,.+X%XeXeXeXeXeXeXeX%Xl.",
"    1 9 :.f.N.J.N.N.J.G.B.K.K.B.L.B.B.B.B.B.B.B.B.B.B.B.V.B.B.B.B.B.B.-.K B.V.G.Z.Z.V.-.] l.1XdXsXsXgXgXsXgXgXgXgXgXgXgXgX",
"8 $   + > A J.h.f.N.N.G.B.K.B.B.V.G.B.B.B.V.B.B.p.n.B.B.B.B.B.B.B.B.] X.} V.G.G.B.-.] %XfXgXsXgXsXdXeX%Xl.l.1.1.l.l.%XeXdX",
"N m 0 . + -.J.N.N.N.B.B.B.B.B.B.V.B.B.B.B.B.B.B.I W G.G.B.B.B.B.B.( I.].' Z.B.p.] %XdXsXgXsXuXOX$.^ Y B B c x x x x c c L ",
"N M N 9 C Z.h.N.N.N.N.B.K.B.B.B.G.G.B.B.B.B.B.V.O.T.$.B.B.B.B.B.` T.|._.#.B.=.1.dXgXgXsX+X) Y Y B x x x B B V V / V B B x ",
"M M M k A C.N.N.N.N.B.K.B.B.B.B.V.G.B.B.B.B.K.M.|  XI.-.G.B.B.] ~.|.|._.] =.+XsXsXsXeX` Y A B 9 B / ;.;.m.d.s.m.d.d.s.s.d.",
"M M M k A Z.N.C.N.N.K.B.B.B.B.B.B.B.B.B.B.B.K.k.| |.}.X.] G.-.I.|.|.|.W.K %XgXsXsXl.L Y B x / ;.m.m.m.d.d.d.d.d.d.d.s.s.s.",
"M M M k A J.N.N.B.Z.Z.B.Z.K.B.B.B.B.B.B.B.B.B.k... X|. XI.T O. X X X|.E.&.gXgXdX$.B ^ x V ;.m.m.s.s.s.s.s.s.s.s.s.s.s.s.s.",
"M M M k V J.N.Z.Z.B.B.B.B.K.B.B.B.B.B.V.B.B.B.B._  X X|.|.W.]. X|.|.|.W.#XgXdX` Y B x :.m.d.m.d.s.s.s.s.s.s.s.s.s.s.s.s.s.",
"M M M j A J.N.N.Z.B.B.B.B.B.B.B.B.B.K./ _ -.k.k._ _.|.|.{.{._.}.|.|.|._.%.$XI q K < < 9 N :.;.;.d.s.m.m.s.s.s.s.s.s.s.s.s.",
"M M M j A J.N.N.C.N.B.B.B.K.B.B.B.K.B.-.{ W.I.X.X.}.{.I...O.O...X.E. X|./.(.(._._.W.d * * * * : 8 n N :.=.;.s.s.d.m.d.m.s.",
"M M M j A C.N.N.N.B.B.B.B.B.B.B.K.B.B.B._ _.|.|.|.W.H +.:X<X,X:Xx.$..._.|.|.|.|.|.U.: e e e e w w * * * * > h n C :.;.;.s.",
"M M M j A J.N.N.N.B.B.B.B.B.B.B.B.B.B.B.p.O.|. XE.{  .I.@.>X,X,X<X<Xx.O._.|.|.|._.d e r e e e e e e r r r r r e * * * : 8 ",
"M M M k A h.N.N.N.N.B.K.B.K.B.B.K.B.B.B.L.-.(.].J } O.X.I.O.:X,X,X<X<Xx.O.}. X|.J $ # $ $ $ $ = r e e r r r e t p p t t r ",
"M M M k A f.f.h.N.Z.B.B.K.B.B.K.B.B.B.B.K.M.I W.I ;X<X>.I.I.O.z.;X;X;X<X$.~.|.].< # % % % 6 . $ r e e e r e t t t p y y y ",
"M M M k A f.f.J.N.N.N.G.B.H.B.B.B.B.B.K.V.( Y.I.$.<X<X,X<...U.I.....} OX;X..|.E.8 2 7 f f 2 o + * r e e r r r r y y p p p ",
"M M M j A f.J.J.N.N.N.G.G.G.B.B.B.B.M.] _ (.{.{ @.,X<X<.OX>.) ....} P OX>XO.}.}.I.K 0 2 7 2 @ + & r e e r r r y p p p p p ",
"M M M j A J.f.N.f.f.N.N.N.G.K.B.B.B.k.U (.|.E.*.<X,X<X<.) ) ;X;X;X:X+.<.<XO.].|.|. XT.z 0 2 @ O # e e e r r y p p p g g g ",
"M M M j A J.f.f.N.Z.N.N.J.G.K.K.B.B.B.M.` (. .U @.@.>.@.q U T >.$.$.) ) <X@._.|.|.|.|.W.< 6 @ O # e e e r r y p p p p g p ",
"M M M m A J.J.J.N.C.N.C.N.N.Z.B.K.B.B.K.V.` { $XfXfXfXjXI *.*XfXfXjXyX@.<XO._.|. XW.P 8 5 2 @ + # r e e r r y p p g g g g ",
"M M M m A J.f.N.N.h.N.N.N.N.J.B.K.B.B.B.Z.p.{ %.jXhXhXoX@.>.hXhXhXhXXX<.<X@._.}.P 8 5 7 3 2 @ + # e e e r r y p g g g g g ",
"M M M m A f.f.f.f.N.N.N.J.B.G.B.B.B.Z.K.M._ (.P @.1.@.L >X<.1.XX&X.X*.:X,XO._.].U 5 7 3 3 2 @ o # r r r r y y g p g g g g ",
"M M M m A J.f.f.C.N.N.N.Z.Z.J.Z.B.B.B.p._ /._.P ) ) @.@.OXOX:X<.,.<.>.<.,XO.}.|.{.P 0 2 7 2 @ + % r r r y y g y p g g g g ",
"M M M m A J.J.f.J.h.h.C.N.N.G.Z.B.B.B.:.W T. .L ;Xz.<.>.@.<.<X<.` ` >.:X>XL I. X|.|.I.8 5 2 @ O # r r r p p p p g g g g g ",
"M M M m A J.h.f.h.h.h.C.C.N.Z.B.B.B.B.K.V.-.L T :X<Xz.Y @.,X<X,X,X,X<X,X;X) @./.|.{.U., % % . o # r r r p g p g g g g g g ",
"M M M j A f.h.h.h.h.h.h.Z.N.Z.Z.B.B.K.K.K.K.Y U :X,X,X<.:X,X,X,X,X,X,X,Xx.@.@.I.G - X . . . . o $ e r y i p g p g g g g g ",
"C M M j A f.h.h.h.h.h.C.C.h.Z.Z.B.B.B.B.K.=.} { ;X<X<X<X,X,X,X,X,X,X,X,X>.L %./.$ . o X o o o . $ r r y p p p g g g g g g ",
"N M N j A Z.h.h.h.h.N.C.C.C.C.B.B.B.B.B.B./ I H ;X<X<.<.,X,X,X,X,X,X,X,XO.I.].{.H & = = * * * * e r t p p g g g g g t g g ",
"M M M j A J.N.C.N.J.N.N.C.h.Z.B.B.Z.Z.B.B.B.( H <.<X>.>.<.>.:X,X,X,X,X;X} G < < ; * w w w w r e t t t p g g g g i * # * i ",
"M M M j / J.J.C.N.C.N.N.N.B.B.G.Z.B.B.B.N.B.( ^ ) <X,.q ` ` :X,X,X,X,X@.E.P * * a b , ; - = r e r t p p g g g i < d U H d ",
"M M M j A J.J.J.N.N.C.N.N.J.Z.J.B.Z.Z.B.B.B.K.K.` <.>X<.T ) ,X,X,X,Xz.q K , * * ] 1X| E.G : e r r p p p g g g e U tXtXtXP ",
"M M N m F h.J.h.f.N.J.J.Z.B.B.N.G.G.K.K.B.B.M.M.k.b ,.,Xz.;X<X,X,X<.Y Y Y = w * ] %X4./.G ; r r t y p p g g g u U tXtXtXK ",
"n n n h B =.a.a.a.g.g.g.N.K.J.N.k.-./ ^ ^ ( ' #.#.#.' ` >.z.z.<.T #.8.#._ v d s E _ ~ o., ; e r y p p p g p g p < W P K d ",
"b.@X3Xb.^.i.0.#.' ' ' ^ ^ / ( ^ Q 2.q.A.3X5XqXqXwXwXwXi.I ` ] >.I r.t.r.r.r.8X9X8X3X^.r.! v a u y p p p p p p p v n.l.n.] ",
"wXwXwXwXwXwXqXqXqXqX5XA.y.Q E w.A.S.4X4X5X9XqXqXwX9X3X#.) ,X,Xn.z &.*X*XeX$X#.9XwXwXwXwXqX8X2X#.d a p g p p p r ^ rXrXrXl.",
"wXwXwX0XwX9X9X7X7X7XF.v.A.R 0.y.A.D.4X9X8XqXqX5Xt.8.*.I { | | o.{ &XhXhXhXhX=Xr.qXqXqXqX9X9X7X7XS.2.: w p p p e 7.rXrXrXn.",
"wX0XwXwXwX9X7X7X7X4XS.v.2.Q A.y.A.F.5X9XqXqXqX5.&XfX&XO.R.`.).`.!..X*XhXhXhXhXoXu.wXwX0X9X9X7X5XS.A.~ : i p p w ^ x.n.n.^ ",
"wX0XwX7X7X0X7X7X7XD.v.v.R 7.y.A.F.4X5X9XqXqXb..XhXfX.X%.).`.`.`.!.=XoXhXhXhXhXhX*.@XwXqX0X9X7X5XF.A.2.E : p i r : i u u : ",
"wXwXwXqX7X7X7X7X7Xv.v.v.R y.y.A.4X9X9X9XqXwXr.yXhX$X*X%.'.`.`.`.!.uXXXuXyXjXhXhXuX&.7XqX7X7X7X5XF.A.7.Q v e y y t g y p p ",
"qXqXqXqX9X7X7X5XF.A.A.5.Q A.v.S.5X9X9XwXwX8X6.yXuXoXaXX.[.[.`.`.3.jXeX&XuX*.fXhXhX*X8.qX9X9X5X5XF.S.7.' Q w p p g t p p p ",
"wXqXqX9X9X7X5X5XA.v.A.Q 2.y.A.F.8X9X9XqXwXF.O.#XXXiXiX4.[.[.`.`.4.fXfX.XhX&.*.hXhXhXXXu.qX7X7X5XF.S.7.Q 2.a p p g p p p g ",
"wXqXqX9X8X9X5X4XA.y.y.R 0.v.A.4X8X9X9XqXwXu.r.oX.XhX$XR.[.`.`.'.4.fXhXXXfX#XO.=XhXhXfX&.3XqX7X7X4XS.7.! 7.a p p p p p p p ",
"0XqX9X7X8X8X5XD.A.y.w.R y.v.D.5X9X9XqXwX0X8.XXO.uXhX.XQ.[.[.`.'.4.hXhX&XyX&Xt.8.fXhXhXuX#.6X7X4XF.S.2.2.5.u p p p g p p p ",
"wX9X7X7X7X8X5XA.A.A.2.Q A.A.F.5X7X9XqXqX6Xr.XXO.fXhX%.).`.`.`.).e.hXhXyX=X=Xi.3Xr.hXhXhX&X8.7X4XF.S.2.5.2.u p p p p p p p ",
"qX9X9X7X8X5X4XA.y.A.' 2.A.A.F.5X9X9XqXwXu.$XXX.XyXgX%.[.`.`.`.).e.hXhXXX*X*X^.wXr.XXhXhXhXl.t.4XF.S.2.5.Q u p p p p p p p ",
"qX9X9X9X8X7X4Xv.y.y.R 0.y.A.5X5X9X9XqXwX8.yXoXiXoXuX4.`.`.`.`.).^.hX&X$XhX*Xl.wXqX8.0XhXhXjX&.b.4XS.' 7.R e p p p p p p p ",
"7X7X7X9X5X5XD.v.y.q.E y.A.A.5X9X9XqXqX9X*.jXXXfX*.$XR.`.`.`.`.).^.=X$XhXhX=Xu.wXwX6X&.fXhXhXyX#.D.A.' 9.D u p r p p i p p ",
"9X9X9X7X8X5XA.v.A.2.Q A.y.S.9X9XqXqXwX^.@XaXoXoX*XXXR.[.`.`.[.R.-X.XuXhXhX&Xi.wXqX0Xu.u.hXhXhXXX6.S.' 9.v r y y y t t t r ",
"9X9X9X9X8X4XA.A.A.Q 2.A.A.F.9X9XqXqXwXt.eXyXI yXhX^.).[.[.[.`.!.=XuX.XfXhXXX@XqXqX9X9X9.$XhXhXhX&.0.Q 9.d r y y r t r r y ",
"5X8X7X7X5X4XA.v.A.E q.y.A.F.7X9XqXqXqX&.fX&X.XhXfX%.[.[.[.[.`.3.yXhX=X$XhXoX2XqXqX7X7X6X#.uXhXhXjX#.E 0.s r y i t r r t t ",
"7X9X5X5X5X4Xv.v.q.E y.y.S.4X7X9XqXqX6Xr.hX*..XhXaXX.[.[.[.`.`.3.jXhXhX.XjXr.6XqX7X7X7X7Xb.8.fX*XfX*Xz 0.s r y p r t t r t ",
"7X7X7X5X5XD.v.v.2.Q v.v.S.5X7X9XqXqXt.-XhXO.oXhX*XT.`.`.`.`.`.4.fXhXfXoXfX&.9XqX7X7X7X5X5X0.O.XXhXhX*.6.a * * w w e e u r ",
"7X5X7X7X7XD.v.A.2.' v.v.D.5X9X9X9X9X6.uXhXO.$XhX#XR.`.[.[.`.'.T.hXhX*X=XuXr.qX9X7X7X7X5X5X6.r.hXhXhXeXW < E ' Q v ; $ # # ",
"7X7X5X7X4XS.v.A.Q 5.A.v.D.7X9X9XqX3X&.hXfXO.&XhXr.).`.`.[.`.).^.hXhX.XfX&Xl.qX7X7X7X7X7X9.l.hXhXhXhX*.K 5.3X8XqX5Xi.d % % ",
"7X4X4X4X4XS.v.y.R q.v.v.F.9XqX9X7Xt.&XhXuX*.&XfX%.'.`.`.[.[.Q.^.hXiXXXhXr.6XqX9X9X9X9X| H e.^.jXhXfX#.v.3X5X5XqX9X7Xi.> 0 ",
"8X4X4X5X4XA.y.w.E w.y.v.4X8X8X8X5X#.jXhX=XoX&XiX4.[.[.`.`.`.!.=XhXXXiXjX&.qXqXqX8X5X5.d P { 3.{ iX.XK ! ' ' | 5.t.4X3Xs 0 ",
"4X5X4X4XF.A.A.w.R y.y.A.F.8X5X8X8.&XhXhXXX*X$X&XR.[.[.`.`.`.!.iXfX.XhX=Xu.wXqXqXS.E U OX,Xx.P W #.O.i.2X6X6X3Xi.#.#.b.n h ",
"F.4X4XF.D.A.y.w.R v.y.A.4X8XqXi.&.hXhXfX.XuXXX^.).[.`.`.[.`.4.fXyX&XhX.X6XqXqXi.[ Z c.<X,X<X^ 6.K y.7X5X5X5X5XqX8X6.Q > h ",
"4X4X4XF.A.A.y.q.R y.v.A.4X9X6X#.jXhXhXyX&XfXyX%.'.[.`.`.`.`.4.hXXXuXfX*.9XqXt.[ P.b x.,X,X,XT ! t.7X7X5X7X7X5XqX8X4XK n F ",
"F.F.F.F.A.v.v.7.Q v.v.v.S.5X6.=XhXhXhX$.uXhXuX4.[.[.[.[.`.).^.fXXXhXyX8.qX^.2.j.a.z :X,X,X,X+.@X9X7X7X7X7X5X8X9X9X5X' > h ",
"S.S.S.A.v.y.v.7.R v.v.v.A.7.r.gXhXhXl.I hXhX#XR.[.[.[.`.[.!.-XhXhXhXXXt.7X' P.j.S b >X>X,X,X+.@X9X7X5X5X5X8X8X8X5XF.' m F ",
"v.v.v.v.v.y.v.0.Q v.v.v.q.#.fXhXhX*XK $XhXhX%.).'.[.[.[.`.3.iXhXhXhXr.w.2.( j.j.^ ) >X,X>XOX+.b.7X7X7X5X7X9X9X9X4XD.E j l ",
"y.v.v.y.y.v.v.7.R v.v.t.' yXhXhXjX' _ jXhXuXX.[.[.[.[.[.`.4.fXhXhXhX#.w.Z j.j.j.b ) <.>.<.` +.b.7X5X7X5X9X9X9X9XF.S.v 0 0 "
};
