/* XPM */
static char *frame19[] = {
/* columns rows colors chars-per-pixel */
"61 64 231 2 ",
"   c #241C13",
".  c #38271A",
"X  c #3D2E26",
"o  c #452B1C",
"O  c #4B321F",
"+  c #4B3223",
"@  c #473B2A",
"#  c #513821",
"$  c #55572E",
"%  c #595932",
"&  c #4D562F",
"*  c #6F5130",
"=  c #5A6233",
"-  c #6A7939",
";  c #626D37",
":  c #4E534C",
">  c #5C6B4E",
",  c #6C7A44",
"<  c #7A775A",
"1  c #70714B",
"2  c #6E786B",
"3  c #5E6861",
"4  c #BC7D39",
"5  c #B67939",
"6  c #AA753A",
"7  c #846136",
"8  c #C07F39",
"9  c #957449",
"0  c #887C58",
"q  c #947C57",
"w  c #886E49",
"e  c #837E76",
"r  c #6E8139",
"t  c #74863B",
"y  c #758A3C",
"u  c #798E3F",
"i  c #7A903F",
"p  c #6E8043",
"a  c #728343",
"s  c #7A8E41",
"d  c #738545",
"f  c #7D9342",
"g  c #738156",
"h  c #7A8567",
"j  c #758771",
"k  c #BF803A",
"l  c #829443",
"z  c #9B8257",
"x  c #A7895F",
"c  c #A98A5F",
"v  c #B0905D",
"b  c #968765",
"n  c #87867A",
"m  c #998C74",
"M  c #9A9477",
"N  c #859173",
"B  c #AA8C60",
"V  c #B59465",
"C  c #B59569",
"Z  c #A79679",
"A  c #B49B7D",
"S  c #A6926A",
"D  c #A8A479",
"F  c #B2A27C",
"G  c #B9B97D",
"H  c #8DA17F",
"J  c #C4A168",
"K  c #698685",
"L  c #7C8D8A",
"P  c #779396",
"I  c #7DA3A7",
"U  c #8A9788",
"Y  c #979687",
"T  c #889A97",
"R  c #9A9C98",
"E  c #898D86",
"W  c #A39A88",
"Q  c #A69D94",
"!  c #94AA8B",
"~  c #96A88A",
"^  c #98A896",
"/  c #9DB494",
"(  c #9EB49C",
")  c #89A193",
"_  c #A8A888",
"`  c #B7A984",
"'  c #BAB48D",
"]  c #A8A898",
"[  c #B4A89A",
"{  c #A6BC9B",
"}  c #A6B798",
"|  c #BAB698",
" . c #ABB68D",
".. c #8AA7A6",
"X. c #99ABA9",
"o. c #99B3AB",
"O. c #98ADB0",
"+. c #99B8B8",
"@. c #88B1B6",
"#. c #A9ABA7",
"$. c #B9ADA3",
"%. c #B5ADA4",
"&. c #AAB8A6",
"*. c #B9B2AA",
"=. c #A6BCB9",
"-. c #B5BCB3",
";. c #BBBAB6",
":. c #C6B68E",
">. c #C6BB95",
",. c #DABA96",
"<. c #C7AA89",
"1. c #C3B5AB",
"2. c #C7B9AD",
"3. c #CBBDB3",
"4. c #C3BEB5",
"5. c #AAC19E",
"6. c #8CC7BD",
"7. c #97C3BC",
"8. c #ACC4A2",
"9. c #AFC6A8",
"0. c #B4CCAC",
"q. c #B1C7A9",
"w. c #B6D1AA",
"e. c #B9D4AD",
"r. c #B7D4AB",
"t. c #B7C6B6",
"y. c #BBD4B6",
"u. c #BFDDB3",
"i. c #BDD3BB",
"p. c #BCD8BA",
"a. c #A4C2BE",
"s. c #D7C99A",
"d. c #D2CC93",
"f. c #E9C69D",
"g. c #EBC89F",
"h. c #E6C39D",
"j. c #EFDE9F",
"k. c #E5D49B",
"l. c #F0DD9D",
"z. c #EAED9D",
"x. c #EFF29F",
"c. c #C8C7B8",
"v. c #D5C6BB",
"b. c #C1DEB4",
"n. c #C1DBBC",
"m. c #D2CFB0",
"M. c #ECC8A1",
"N. c #EFDEA4",
"B. c #EEDEAC",
"V. c #E5D5A5",
"C. c #F0DEA3",
"Z. c #F0DFAA",
"A. c #C3E0B6",
"S. c #C6E3B9",
"D. c #C9E6BE",
"F. c #C9E8BF",
"G. c #EFE0AC",
"H. c #EFE0A7",
"J. c #F1E0A3",
"K. c #F0E0AD",
"L. c #F0E0B0",
"P. c #DEE299",
"I. c #98BEC5",
"U. c #8DBCC9",
"Y. c #98C4C9",
"T. c #95D5C9",
"R. c #9CCBD6",
"E. c #99D8D6",
"W. c #8DD1C6",
"Q. c #A4C5C8",
"!. c #B7C9C5",
"~. c #A2CDD6",
"^. c #A4D4DD",
"/. c #98E8DA",
"(. c #9AF0DF",
"). c #ABDEEB",
"_. c #A7D8E5",
"`. c #9EF4E4",
"'. c #9DEDE0",
"]. c #AAE0EE",
"[. c #A0F5E5",
"{. c #ADE3F2",
"}. c #B1E6F4",
"|. c #B4ECFB",
" X c #B2E9F6",
".X c #C5C5C3",
"XX c #C9C8C7",
"oX c #CCCDCB",
"OX c #C5CAC4",
"+X c #DCCCC2",
"@X c #D1CFC7",
"#X c #C4DDC2",
"$X c #CAD2CD",
"%X c #D1D2CE",
"&X c #D8D6C8",
"*X c #D4D5D2",
"=X c #DCDDDB",
"-X c #D7DAD8",
";X c #CAD4D3",
":X c #E1CEC3",
">X c #E4D1C6",
",X c #E6D4CA",
"<X c #E9D6CC",
"1X c #EBD8CE",
"2X c #E1DFD1",
"3X c #C6E3C4",
"4X c #C9E6C3",
"5X c #CCEAC3",
"6X c #CFEDCC",
"7X c #CBE5CA",
"8X c #D0EECD",
"9X c #CFF0CE",
"0X c #D1F0CE",
"qX c #D2EFD0",
"wX c #DEE0DC",
"eX c #D4F3D3",
"rX c #D8F5D6",
"tX c #E7E6DB",
"yX c #F7F7D6",
"uX c #CFEEEE",
"iX c #E4E4E3",
"pX c #ECECEB",
"aX c #E7E9E7",
"sX c #F0EFEA",
"dX c #F2F2EE",
"fX c #FCFCED",
"gX c #F4F4E6",
"hX c #F4F4F4",
"jX c #FEFEF2",
"kX c #FEFEFE",
"lX c #EFF1F0",
/* pixels */
"q A V.B.C.Z.C.N.C.N.G.G.G.B.B.B.B.B.B.B.B.B.G.L.G.G.G.G.B.L.B.G.G.B.B.B.B.B.B.B.L.B.B.B.B.Z.Z.L.V.s.d.<.:.' [ :.| ' :.>.s.",
"% q S s.Z.Z.N.N.N.N.N.H.G.G.B.B.B.B.B.B.B.B.G.L.G.G.B.G.B.G.B.B.B.B.B.B.V.B.B.B.B.B.B.Z.B.s.>.' 1.c.m.=XtXtXtXtXtXtXtX&Xc.",
"  . * b J B.C.N.N.N.N.G.G.B.B.B.G.G.L.V.B.B.B.L.G.G.B.B.B.V.B.B.B.B.B.>.U B.B.B.L.L.V.>.| c.2XgXfXjXjXjXjXjXjXjXjXjXjXjXjX",
"0 @   @ 1 ` C.j.N.N.J.G.B.L.B.B.B.G.B.G.B.B.m.L.d.m.B.B.B.B.B.B.B.B.| +.X.V.B.B.V.>.>.&XhXjXfXjXjXgXtX&Xc.4.2.3.c.c.&XtXgX",
"C B w . @ >.J.N.N.C.Z.Z.B.B.B.L.B.V.G.G.B.B.B.B.Y ^ B.B.B.B.B.B.B.| I.].} Z.B.s.| &XgXjXjXjXtXXX%._ Z Z M m m m m m m m Y ",
"C C C q S J.j.N.C.N.N.B.L.B.B.B.B.B.G.G.B.B.B.V.#.Y.| L.B.B.B.B.' Q.|._.&.B.' 3.gXjXjXfX@X[ W Z Z M m m Z W A A A A Z Z m ",
"V V V B F J.N.N.N.N.N.B.B.L.B.B.B.B.B.B.B.B.B.V.o. X+.>.B.G.B.| I.|.|._.| >.@XfXjXjXtX[ Z _ S m Z ` ,.h.f.M.g.g.g.g.g.g.h.",
"V V V c F H.N.N.N.N.B.B.B.B.L.B.B.B.B.B.B.B.L.s.o.|. XI.*.G.>.7.|.|.|.R.U &XjXfXfXc.M W Z m <.,.M.M.h.h.f.f.f.f.f.h.f.f.f.",
"V V V c F K.N.N.B.Z.B.B.B.B.L.B.B.B.B.L.G.G.B.V.#.|.|.}.I.Q O.}.|.|.|.R.-.jXjXgX*.M ` m A f.M.M.f.f.f.f.f.f.f.f.f.f.f.f.f.",
"V V V c A J.N.Z.Z.B.B.L.B.L.B.B.B.B.B.V.B.L.B.B.#.}.|.|.|.^.). X X|.|.^.;XjXgX[ Z _ m <.M.M.M.M.f.f.f.f.f.f.f.f.f.f.f.f.f.",
"V V V c F z.N.N.Z.N.B.B.B.B.B.B.B.B.B.` _ s.s.s._ _.|.|.}.).).{.|.|.|._.=.oXR e U 2 2 q A A <.h.f.f.g.g.f.f.h.f.f.f.f.h.f.",
"V V V c A C.N.N.C.N.B.B.B.B.B.B.B.B.L.>...~.U.I.+.{.{.I.O.#.#.#.+.R.{. X_.~.~.^.)._.2 - - - - - 0 b Z <.:.,.h.k.g.g.g.g.f.",
"V V V x F N.N.j.C.Z.Z.B.B.L.B.B.B.L.B.B.[ ).|.|.|.R.P %.<X1X<X>X+X*.O._.|.|.|.|.|.U., t t t t r r - - - , 1 z b C <.<.h.h.",
"V V V c F J.N.N.N.K.B.B.B.B.L.B.G.G.B.B.s.O.|.|.R.I @.I.#.<X<X<X<X<Xv.#._.|.|.|.].2 t t t t t r t t y u i y y r r - - , 0 ",
"V V V c F j.N.j.N.N.B.B.B.G.G.B.G.G.B.B.K.' ~.].P X.#.+.R.#.,X<X<X<X<X+X#.}.|.|.I & = % & $ & - t t t y y y y y s f i i u ",
"V V V c F J.j.l.N.Z.B.G.B.B.B.B.B.B.B.G.K.V.R _.R :X<X1.O.U.#.v.:X:X>X1X*.Q.|.].2 * % * * 7 . & t t t y y y y s s f i i i ",
"V V V c A j.z.C.N.N.N.G.B.B.Z.B.B.Z.B.B.V.' I.I.*.<X<X1X3.O.I.O.O.O.X.+X+XO.|.R.< 5 k k 8 5 O @ - y t t t y y i i i f f f ",
"V V V c F J.C.C.j.N.N.B.H.K.B.B.B.B.V.:.} ~.{...*.<X<X3.+X1.#.O.O.X.T +X,X#.}. XY.E 9 5 8 5 # + = y t t t y y i i f f f f ",
"V v V c A C.C.j.j.N.N.N.N.G.G.B.B.L.s.E ~.|.R.;.1X<X<Xv.Q $.:X:X+X>X$.3.1X#.).|.|. XY.n 9 5 # + * t t t y y i i f f l f l ",
"V V V c F C.l.N.N.C.N.Z.K.B.B.B.L.L.L.V.[ Q.@.E $.*.*.$.e E Q 1.*.*.] [ <X%.).|.|.|.|.^.2 7 # + $ t t t y y i l l f l l l ",
"V V V x F J.J.C.N.N.N.N.N.N.Z.B.Z.B.B.L.Z.[ ..oXhXhXhXlXR ;.=XhXhXlXiX*.1X*._.|. XR.T 0 6 6 # + $ y t t y y i i f l l l l ",
"V V V B F J.j.l.j.N.N.C.Z.C.H.B.Z.B.B.B.Z.s...=.hXhXhXoX*.1.kXkXkXkXoX3.<X%.).).P q 6 k k 5 # O $ y t y y y i l f l l l l ",
"V V V B F j.j.j.j.j.N.N.Z.Z.G.B.B.Z.B.L.V.] ^.T *.4.*.Y >X3.;.oX*X.X*.,X<X#.).].L 6 8 k k 5 + + % y y y y i l i f l l l l ",
"V V V B F J.N.j.J.N.N.N.C.N.J.Z.B.L.B.s.] ^.].L Q [ $.$.+X+X:X3.1.3.1.3.<X#.{.|.{.T 9 4 k 5 # + % u t y l i i l f l l l l ",
"V V V B F J.J.l.l.l.C.C.N.N.G.Z.B.B.L.' ^ Y.@.Y :Xv.2.1.$.v.1X3.[ [ 1.>X,XE I.|.|. XI.< 5 5 # + % y t y s f f f l l l l l ",
"V V V B F j.l.J.l.l.l.l.C.N.Z.B.Z.B.Z.Z.V.>.Y Q >X1X+XW $.<X,X1X<X<X1X<X+X[ $._.|.].U.3 * * . + % t y y f f l f l l l l l ",
"V V V B F j.l.l.l.l.l.C.Z.C.Z.Z.Z.B.B.Z.G.K.W E >X<X,X3.>X<X<X<X<X<X<X1Xv.1.$.I.K : X . . . . o % t t s s f f l l l l l l ",
"C V V x F j.l.j.l.l.l.C.C.C.Z.Z.Z.B.Z.B.G.>.X...:X1X<X1X<X<X<X<X<X<X<X1X1.E =.^.: o o o o o o . & s s s f f l l l l l l l ",
"C V C x F N.j.j.l.j.N.C.C.l.Z.N.Z.L.B.Z.B.` R E :X<X3.3.<X>X<X<X1X1X,X,X#.I.).}.P & ; ; ; - - - t y u s f f l l l f s l l ",
"V V V x ` N.N.j.N.J.N.C.C.N.C.B.B.B.B.N.B.B.` P 3.1X1.1.3.1.,X<X,X,X1X:XX.K 2 2 , ; r r r r y y y i s f f l l l d , % - s ",
"V V V x ` J.j.N.N.N.N.N.N.B.B.N.Z.Z.B.B.B.B.' _ [ 1X1.e [ [ >X<X1X1X,X%.Y.I - - < H > 3 > ; t y y i f f l l l s < j E L j ",
"V V V x F J.N.N.j.N.j.N.N.J.Z.K.B.B.B.Z.N.B.L.L.[ 3.,X3.Q [ <X<X1X1Xv.e U 2 - - | 8Xo.E.j > y y y s f f l l l a U uXuXuXT ",
"V V V B J l.l.l.N.z.J.H.Z.K.B.G.G.G.Z.Z.B.N.V.V.s.W 2.1Xv.+X1X1X,X2.Q Y _ ; t - | &X7.E.K > y y u s f f l l l d E uXuXuXL ",
"b b b 0 Y :.d.s.s.k.k.k.N.J.K.B.s.>.`  . .[ } { | { ] } 2.v.v.2.Q } 9.&.] N N g ~ ] ) @.2 > t i u s f f l l l f h ^ T U j ",
"#X#X#X#Xn.n.0.8.}  .} _ _ ` ' D / 5.e.S.3X6XeXrXrXrXrXp.Y *.%.1.Q t.i.t.t.t.6XeX6X3X!.t.( j g , s f f l f f f s N m.c.m.$.",
"rXrXrXrXrXeXeXeXrXqX5XA.u./ ! e.A.S.4X4X6XqXeXeXrXeX4X&.] <X<Xv.n ;.=X=XwX*X&.qXrXrXrXrXqX9X7X8.j d f f f f f u _ yXyXyXm.",
"rXrXqXrXrX0X0X8X8X8XS.b.u.! r.u.A.F.5X0X0XeXeX7Xy.t.-.R ) o.o.o...*XkXkXkXkX-Xt.eXrXeXeXeXqX8X8XD.5., t f f f d | fXyXyXm.",
"rXrXqXrXrX0X0X0X8X8Xn.b.5./ A.u.S.F.5X0XeXeXeX9.*XlX*X#.T.(.(.`.W..X=XkXkXkXkXOXi.rXrXqXeX8X8X6XS.A.) , d s s r  .m.n.m._ ",
"rXrXrXqX0XqX8X8X8XF.b.b.! w.u.A.D.6X0X0XeXeX#X.XkXhX!.-./.`.`.`.W.=X.XkXkXkXkXkXt.#XeXeX9X8X8X6XD.A.8.H , s s y p a p d p ",
"rXrXqXrX8X8X8X8X6XS.b.e.~ u.u.A.F.0X0XeXeXeX0.iXkX%X=X=.(.`.`.`.W.pXoXpXaXpXkXkXpX-.qXeX0X6X6X8XF.A.w./ N s s s s f s f f ",
"eXeXrXqXqX8X8X6XF.A.b.8./ A.b.S.6X0X9XeXeXeX9.iXpXXXdX+.[.[.`.`.6.lXiX*XpX;.hXkXkX=Xt.eX0X8X8X6XF.A.w.{ / p i f f f f f f ",
"eXrXqXqX8X8X8X6XS.b.A./ 5.u.A.F.0X0XeXeXrX5X&.$XXXpXaX7.[.`.`.`.7.lXhX.XkX-.;.kXkXkXOXi.eX8X6X6XF.A.8.( 8.d f f f f f f f ",
"rXrXqXqX9X9X6X5XA.A.u.! w.b.A.5X0X0X0XeXrXt.;.XX.XkX*XW.[.[.`.`.7.hXkXoXhX%XX.=XkXkXhX-.#XeX8X8X5XS.8.( 8.d f f f f f f f ",
"eXqXqX8X8X9X6XD.A.A.e.! u.b.D.6X0X0X0XrXeXt.oX#.pXkXOXE.[.[.[.(.7.kXkX*XiX*Xy.q.hXkXkXaX&.8X7X8XF.S.8.8.8.d f f f f l f l ",
"rX0X8X8X8X9X6XA.b.b.8.! u.A.4X8X6X9XeXrX7Xt.oX#.kXkX-./.`.`.`.(.a.kXkXiX-X-X!.4Xt.kXkXkX*Xt.5X5XF.S.5.5.5.d f f f f f f f ",
"rX0X8X8X6X9X5XA.u.A.{ 5.A.S.5X6X9X9XeXrXp.;XoXc.wXkX+.`.`.`.`./.a.kXkXoXwX=Xi.rXy.oXkXkXkXt.n.6XF.S.5.8./ r f f f f f f f ",
"eX0X0X0X6X8X5Xb.u.A.! r.u.A.5X6X9X0XeXrXt.aXXXaX.XsX7.`.`.`.`./.!.kX*X%XkX=Xi.rXqX9.wXkXkXhX&.n.F.S.{ 9.! d f s f f f f f ",
"eX8X8X0X0X8XD.b.u.r.! u.u.S.6X0X0XeXeX8X-.lXXXhXt.%XY.`.`.`.`.E.!.-X%XkXkX-Xc.rXrX7X-.hXkXkXiX&.D.A.} 0.H d f s f s s f s ",
"8X0X8X8X9X5XS.u.A.5./ A.A.S.9X8XeXeXrX#X!.dX.X.X=XXXE.`.`.[.[.W.;X.XaXkXkX*Xn.rXrXqXp.t.kXkXkXoX9.S.} 0.N s f i u u i i i ",
"0X0X6X0X6X6XS.A.A./ 5.A.A.F.8X0XeXeXrXy.tXiX#.wXkX!./.`.[.`.`.W.-XpX.XkXkXoX#XeXeXrXqXq.%XkXkXkX-.w./ w.j y i i i y y u y ",
"6X9X9X9X0X4XA.b.u.! e.b.A.5X8X8X0XeXqXt.hX*X.XkXjX=.(.[.`.[.`.W.iXkX-XoXkX.X#XeXqX8X8X6X&.pXkXkXsX&.~ w.h s y s y y i u i ",
"6X6X8X6X0X4Xb.b.r.! b.u.A.5X8X0XeXeX7Xt.kX;..XkXsX+.[.[.[.[.[.6.pXkXkX.XpXc.8XeXqX8X8X8Xn.q.hX=XhX=Xn w.h t i f y y y y y ",
"eX6X6X8X8XD.b.b.8./ b.b.S.5X0X0XeXeXy.*XkX#.XXkXwXY.`.`.`.`.'.7.hXkXhXOXhX-.0XeX8X8X8X8X6X0.&.oXkXkX;.9.g - - r r r t d y ",
"8X8X8X8X6XD.b.A.5.{ b.b.S.8X0X0X0X0X9.pXkX#.%XkXoXT.`.`.`.`.(.Y.kXkX=X-XpXt.eX0XqX8X8X8X6X9.;.kXkXkXtX^ 2 ! { / N > $ % % ",
"8X6X6X8X5XD.b.b./ 8.b.b.D.8XeXeXeX3X-.kXhX#.%XkXt./.`.`.[.`./.!.kXkX.XhX*X!.eXqX8X6X8X8X0.c.kXkXkXkX;.U 8.4X9XeX9Xp.h * * ",
"6X6X5X5X5XA.b.u.! r.b.b.F.8XeX8XqXy.*XkXpX;.*XhX+.`.`.`.[.[./.!.kXaXoXkXt.7XeXqXqX6XqX} L a.!.pXkXhX&.A.4X6X6XeXeX0Xy.< w ",
"6X9X5X9XF.S.u.u.! e.u.u.F.0X9X0X7X&.lXkX-XXX*XaX7.`.`.`.`.`.W.-XkXoXaXlX-.eXeXeXqX6X&.j ....6...aXc.U ( ( ( 8.8.y.5Xn.N 9 ",
"5X5X5X5XF.A.u.r.! u.u.A.5X0X9X0Xq.*XkXkXoX=X%X%XT.`.`.`.`.`.W.pXhX.XkX-Xi.rXeXeXS.~ M +X,Xv.T ^ &.#.p.3X5X7X3X!.&.( b.N q ",
"F.F.5XF.F.A.u.r.! u.u.A.5X8X6Xp.;.kXkXhX.XpX%X!./.`.`.`.`.`.7.hXiX*XkXc.7XeXeX!. .D c.1X1X1XQ 9.U p.9X6X9X6XqXqX9X9./ g q ",
"5X5XF.F.S.A.u.r.! u.A.A.F.8X6X&.lXkXkXwX*XhXiX=.`.`.`.`.`.'.7.kXoXpXhX;.0XeXw.5.P.M v.<X1X,XQ } y.9XqX6X6X0X9X0X9X5XU b J ",
"5XF.F.S.A.A.A.q.^ b.b.b.S.F.9.-XkXkXkX-.pXkXaX7.`.[.[.[.`./.!.hXoXkXiX0.eX!.5.z.d.n >X<X,X1X[ 3X0X8X8X6X6XqX6XqX9X9X( w q ",
"S.S.S.A.A.u.u.w./ b.b.b.S.w.t.kXkXkXc.R kXkXoXT.`.`.[.`.`.W.;XkXkXkXoXy.9X{ P.x.G Y >X<X1X1X%.#X0X8X6X6X6X9X0X0X6X5X} v J ",
"b.u.A.A.b.u.u.r.~ A.u.b.w.&.dXkXkX-XU %XkXkX=./.`.[.[.[.`.6.aXkXkXkXc.e.8.G z.z.D ] ,X<X,X+X$.p.8X8X8X6X6XeX9X9X5XD.H x v ",
"u.u.u.u.u.u.u.w.~ A.u.u.} aXkXkXlX] } sXkXpX7.`.'.[.[.[.`.+.hXkXkXkX&.r.~ P.z.z.Z ] 3.1.3.[ $.n.8X6X6X8X6X9X9X9X5XS.N w 9 "
};
