/* XPM */
static char *frame18[] = {
/* columns rows colors chars-per-pixel */
"61 64 230 2 ",
"   c #241C13",
".  c #38271A",
"X  c #3D2E26",
"o  c #452B1C",
"O  c #4B321F",
"+  c #4B3223",
"@  c #473B2A",
"#  c #513821",
"$  c #55572E",
"%  c #595932",
"&  c #4E552F",
"*  c #6F5130",
"=  c #5A6233",
"-  c #6A7939",
";  c #626D37",
":  c #4E534C",
">  c #5C6B4E",
",  c #6C7A44",
"<  c #7A775A",
"1  c #70714B",
"2  c #6E786B",
"3  c #5E6861",
"4  c #BC7D39",
"5  c #B67939",
"6  c #AA753A",
"7  c #846136",
"8  c #C07F39",
"9  c #957449",
"0  c #887C58",
"q  c #947C57",
"w  c #886E49",
"e  c #837E76",
"r  c #6E8139",
"t  c #74863B",
"y  c #758A3C",
"u  c #798E3F",
"i  c #7A903F",
"p  c #6E8043",
"a  c #728343",
"s  c #7A8E41",
"d  c #738645",
"f  c #7D9342",
"g  c #738156",
"h  c #7A8567",
"j  c #758771",
"k  c #BF803A",
"l  c #829443",
"z  c #9B8257",
"x  c #A7895F",
"c  c #A98A5F",
"v  c #B0905D",
"b  c #968765",
"n  c #87867A",
"m  c #998C74",
"M  c #9A9477",
"N  c #859173",
"B  c #AA8C60",
"V  c #B59465",
"C  c #B59569",
"Z  c #A79679",
"A  c #B49B7D",
"S  c #A69169",
"D  c #A8A479",
"F  c #B2A27C",
"G  c #B9B97D",
"H  c #8DA17F",
"J  c #C4A168",
"K  c #698685",
"L  c #7C8D8A",
"P  c #779396",
"I  c #7DA3A7",
"U  c #8A9788",
"Y  c #979687",
"T  c #889A97",
"R  c #9A9C99",
"E  c #898D86",
"W  c #A39A88",
"Q  c #A69D93",
"!  c #94AA8B",
"~  c #96A88A",
"^  c #98A896",
"/  c #9DB494",
"(  c #9EB49C",
")  c #89A193",
"_  c #A8A888",
"`  c #B7A984",
"'  c #BAB48D",
"]  c #A8A898",
"[  c #B4A89A",
"{  c #A6BC9B",
"}  c #A6B798",
"|  c #BAB698",
" . c #ABB68D",
".. c #8AA7A6",
"X. c #98ABAA",
"o. c #99B3AB",
"O. c #99B8B8",
"+. c #8CB0B5",
"@. c #A9ABA7",
"#. c #B9ADA3",
"$. c #B5ADA4",
"%. c #AAB8A6",
"&. c #B9B2AA",
"*. c #A6BCB9",
"=. c #B5BCB3",
"-. c #BBBAB6",
";. c #C6B68E",
":. c #C6BB95",
">. c #DABA96",
",. c #C7AA89",
"<. c #C3B5AB",
"1. c #C7B9AD",
"2. c #CBBDB3",
"3. c #C3BEB5",
"4. c #AAC19E",
"5. c #8DC6BD",
"6. c #97C3BC",
"7. c #ACC4A2",
"8. c #AFC6A8",
"9. c #B4CCAC",
"0. c #B1C7A9",
"q. c #B6D1AA",
"w. c #B9D4AD",
"e. c #B7D4AB",
"r. c #B7C6B6",
"t. c #BAD3B5",
"y. c #BFDDB3",
"u. c #BDD3BB",
"i. c #BDD9BB",
"p. c #A4C2BE",
"a. c #D7C99A",
"s. c #D2CC93",
"d. c #E9C69D",
"f. c #EBC89F",
"g. c #E6C39D",
"h. c #EFDE9F",
"j. c #E5D49B",
"k. c #F0DD9D",
"l. c #EAED9D",
"z. c #EFF29F",
"x. c #C8C7B8",
"c. c #D5C5BA",
"v. c #D6C6BB",
"b. c #C1DEB4",
"n. c #C1DCBB",
"m. c #D2CFB0",
"M. c #ECC8A1",
"N. c #EFDEA3",
"B. c #EEDEAC",
"V. c #E5D5A5",
"C. c #F0DEA3",
"Z. c #F0DFAA",
"A. c #C3E0B6",
"S. c #C6E3B9",
"D. c #C9E6BE",
"F. c #C9E8BF",
"G. c #EFE0AC",
"H. c #EFE0A7",
"J. c #F1E0A3",
"K. c #F0E1AD",
"L. c #F0E0B0",
"P. c #DEE299",
"I. c #98BEC5",
"U. c #8DBCC9",
"Y. c #98C4C9",
"T. c #95D5C9",
"R. c #9CCBD6",
"E. c #99D8D6",
"W. c #8DD1C6",
"Q. c #A4C5C8",
"!. c #B7C9C5",
"~. c #A2CDD6",
"^. c #A4D4DD",
"/. c #99E9DA",
"(. c #ABDEEB",
"). c #A7D8E5",
"_. c #9EF4E4",
"`. c #9DEDE0",
"'. c #AAE0EE",
"]. c #A0F5E5",
"[. c #ADE3F2",
"{. c #B1E6F4",
"}. c #B4ECFB",
"|. c #B2E9F6",
" X c #C5C5C3",
".X c #C8C8C6",
"XX c #CCCDCB",
"oX c #C5CAC4",
"OX c #DCCCC2",
"+X c #D1CFC7",
"@X c #C4DDC2",
"#X c #CAD2CD",
"$X c #D1D2CE",
"%X c #D8D6C8",
"&X c #D4D5D2",
"*X c #DCDDDB",
"=X c #D7DAD8",
"-X c #CAD4D3",
";X c #E1CEC3",
":X c #E4D1C6",
">X c #E6D4CA",
",X c #E9D6CC",
"<X c #EBD8CE",
"1X c #E1DFD1",
"2X c #C6E2C4",
"3X c #C9E6C3",
"4X c #CCEAC3",
"5X c #CFEDCC",
"6X c #CAE6CA",
"7X c #D0EECD",
"8X c #CFF0CE",
"9X c #D1F0CF",
"0X c #D2EFD0",
"qX c #DEE0DC",
"wX c #D4F3D3",
"eX c #D8F5D6",
"rX c #E7E6DB",
"tX c #F7F7D6",
"yX c #CFEEEE",
"uX c #E4E4E3",
"iX c #ECECEB",
"pX c #E7E9E7",
"aX c #F0EFEA",
"sX c #F2F2EE",
"dX c #FCFCED",
"fX c #F4F4E6",
"gX c #F4F4F4",
"hX c #FEFEF2",
"jX c #FEFEFE",
"kX c #EFF1F0",
/* pixels */
"q A V.N.C.N.N.N.N.N.N.G.G.B.B.B.B.B.B.B.B.B.B.L.L.B.B.V.B.B.B.B.B.B.B.B.B.B.B.B.L.B.B.B.B.L.K.Z.V.a.s.,.;.' ' ;.[ ' ;.:.a.",
"% q S a.Z.C.N.N.N.C.H.H.G.G.L.B.B.B.B.B.B.B.L.B.L.B.B.L.B.B.B.B.B.B.B.B.V.B.B.B.B.B.B.Z.V.a.:.' <.x.m.*XrXrXuXrXrXrXrX%Xx.",
"  . * b J B.N.N.N.N.H.G.G.B.B.B.B.B.G.G.B.B.L.V.G.G.L.B.B.B.B.B.B.B.B.:.Y V.B.B.L.L.V.:.#.x.1XfXdXhXhXhXdXhXhXhXhXhXhXhXhX",
"0 @   @ 1 ` J.h.N.N.C.G.L.B.B.B.B.B.V.G.B.L.B.L.s.m.B.B.B.B.B.B.B.B.| O.X.V.B.B.V.:.:.%XdXhXdXhXdXdXrX%Xx.3.3.2.x.x.%XrXfX",
"C B w . @ :.J.N.N.C.C.B.B.B.B.B.B.B.B.G.B.B.B.Z.~ ^ L.G.B.B.B.B.V.| Y.'.( B.B.a.| %XfXhXhXhXrXc.$._ Z M Z m m m m m m m Y ",
"V C C q S J.h.N.C.N.N.B.B.L.B.B.B.B.V.G.B.B.L.V.@.I.| K.G.B.L.B.' Q.}.).%.B.;.x.fXhXhXdX+X[ W W Z M m m Z W A A A A Z Z m ",
"V V V B F J.N.N.N.N.B.B.B.L.B.B.B.B.B.B.B.B.B.V.o.|.O.| L.L.B.' Y.}.}.).} :.v.hXdXhX1X] Z W m S Z ` >.g.d.d.M.M.f.f.f.f.g.",
"V V V B F H.N.N.C.B.N.B.L.B.L.B.B.B.B.B.B.B.B.a.o.}.|.I.| G.:.I.}.}.}.R.Y %XdXhXdXx.W _ Z m ,.>.M.M.g.g.d.d.d.d.f.g.d.d.d.",
"V V V c F K.C.B.B.Z.Z.B.L.L.B.B.B.B.B.B.B.B.L.V.X.{.}.{.U.Q @.{.}.}.}.R.-.hXdXsX&.Y ` m ` g.M.M.d.d.d.d.d.d.d.d.d.d.d.d.d.",
"V V V c A J.N.C.C.B.B.B.B.B.B.B.B.B.B.V.B.B.L.L.@.{.}.}.}.^.'.{.|.}.}.^.#XhXfX[ Z D m ,.M.M.d.d.d.d.d.d.d.d.d.d.d.d.d.d.d.",
"V V V x F l.N.N.Z.B.B.B.B.B.B.B.B.B.B._ ] :.a.a._ (.}.}.{.'.(.[.}.}.}.).*.XXR e E 2 2 q A A ,.g.d.d.d.f.d.d.d.d.d.d.d.d.d.",
"V V V x A C.N.N.C.N.B.B.B.B.B.L.L.B.N.a...~.Y.O.O.{.[.I.X.@.@.@.O.~.[.}.).^.~.^.(.^.j - - - - - 0 b Z ,.,.a.g.M.f.f.f.d.d.",
"V V V c F N.N.h.N.C.Z.B.B.B.B.B.B.L.B.B.[ (.}.}.}.R.P $.>X,X,X:XOX$.X.(.}.}.}.}.}.U., y y t t t r - - - - 1 z b C ,.;.>.g.",
"V V V x F J.N.N.N.K.B.B.B.B.L.B.B.G.B.B.a.X.}.}.Y...+.I.@.>X,X,X,X,X2.@.).}.|.}.(.j t y y t t t t t y u u y y r - - , , 0 ",
"V V V c F h.N.N.C.B.B.B.B.G.L.B.L.G.B.B.G.' ~.'.P X.@.I.I.@.:X,X,X,X<XOX@.[.}.}.I & & & & $ $ - t t t y y y y u f u i i y ",
"V V V c F J.h.k.N.C.G.B.B.B.B.B.B.B.B.B.K.V.R ).R ;X,X<.I.I.$.OX;X;X:X<X<.Q.}.[.2 * * * * * . & t t t y y y u u u l i f i ",
"V V V c A k.l.C.N.N.H.G.B.N.Z.B.B.B.B.B.V.' Y.Y.&.<X,X<X2.X.U.+.X.X.X.OXOXX.}.R.< 5 8 8 k 5 + @ - y t t y y y u i i f f f ",
"V V V x F k.C.C.N.N.N.G.G.G.B.B.B.Z.V.;.@.Q.[...&.,X,X2.OX<.@.X.+.X.T ;X,X@.{.{.R.E 9 4 4 5 # + = y t t y y y i i f f f f ",
"V V V c F C.C.k.N.N.N.N.H.G.G.B.B.L.a.E R.}.R.-.<X,X,Xc.Q #.;X:X;X:X#.2.,X@.(.}.|.|.Y.j 9 5 # + * t t t y y i f f f l l f ",
"V V V c F C.h.N.N.C.N.C.Z.G.B.B.L.L.L.V.[ Q.+.E #.&.&.#.e E Q <.&.<.Q @.<X$.(.}.}.}.}.^.2 7 # + $ t t t y y i i f l f l l ",
"V V C x F k.k.C.N.N.N.N.N.C.C.B.B.B.B.L.N.[ ..#XgXgXgXkXR -.*XgXgXkXqX&.<X$.(.}.|.R.T 0 6 5 # + $ y t t y y i l f l l l l ",
"C V C B ` C.k.C.k.N.N.C.N.N.K.B.G.B.B.B.B.a...*.gXgXgXXX&.<.jXjXjXjXXX2.<X$.(.(.T 0 6 8 k 5 # + % y t y y y i i l l l l l ",
"V V V c F k.h.h.N.k.N.B.Z.C.H.B.B.Z.B.L.V.] ^.T &.3.&.Y :X2.-.XX&X X&.>X>X$.(.'.L 6 8 4 4 5 + + % y y y y i i l f l l l l ",
"V V C B F C.N.h.h.C.N.N.C.G.K.Z.Z.B.N.a.] ).'.L Q [ #.#.OXOX;X2.1.2.<.2.>X@.[.}.[.T 9 4 k 5 # + % y t y i l l i f l l l l ",
"V V V c F J.k.C.k.h.k.C.N.B.C.Z.B.L.B.' ^ Y.+.Y OXOX<.<.#.c.<X2.[ [ <.:X>XY I.{.}.}.U.0 6 5 # + % y y y s f f l l l l l l ",
"V V V x F J.k.J.k.k.k.C.C.C.Z.B.Z.B.Z.Z.V.:.Y Q :X<X2.Q #.,X,X,X,X,X<X,X;X@.#.).}.'.U.3 * * . + % y y y f f f f l l l l l ",
"V V V x F J.k.k.k.k.k.C.C.B.Z.Z.Z.Z.B.Z.Z.L.W n :X<X<X2.:X,X,X,X,X,X,X,Xc.#.#.I.K : X . . . . o $ t t s f f f l l l l l l ",
"V V V x F k.k.k.k.k.k.C.C.C.Z.Z.Z.B.Z.B.B.:.X.+.:X<X<X<X,X,X,X,X,X,X,X,X<.R *.~.& o o X o o o . $ d y s f f l l l l l l l ",
"C V V x F H.h.k.k.h.N.J.C.h.C.G.L.B.L.B.B.` Y E ;X,X2.2.,X,X,X,X,X,X,X,X@.I.[.[.P = ; ; ; - - - t y u i f l l l l f s l l ",
"V V V x ` J.h.C.k.N.N.N.k.N.N.C.B.B.N.Z.B.B.' P 2.<X<.<.2.<.>X,X,X,X,XOXR K 2 2 > - r r r r y y y u i f f l l f s , % - d ",
"V V V x F J.h.N.J.N.N.N.N.Z.B.B.Z.Z.N.B.B.B.' _ [ <X<.e [ [ :X,X,X,X>X#.Y.I - - d M > 3 > ; t y y i f f l l l s 2 j L L n ",
"V V V x ` J.h.N.N.N.h.N.B.C.C.K.B.B.B.B.B.B.L.Z.[ 2.:X2.Q [ >X,X,X<Xc.e T 2 - - | 1X+.E.j > y y y i f f l l l t E yXyXyXU ",
"V V V B G k.k.k.C.l.J.H.B.J.K.G.G.G.Z.Z.H.H.V.V.a.Z <.<Xc.OX<X<X,X1.R W W ; t - | %XO./.j > y y y i f f l l l d E yXyXyXL ",
"b b b q M ;.>.a.a.j.j.j.N.K.K.N.a.:.`  . .[ } %.%.%.} [ <.v.v.1.Q } 8.%.] N h h ~ ] I +.3 > t u i f f f l l l s h ^ T U j ",
"@X@X@X@Xn.n.9.8.}  .} _ _ ` ' D / 4.w.A.2X5XwXwXeXeXeXi.R | #.1.Q r.u.t.r.0.5XwX5X2Xi.r.o.N g p s f f f f f f s N x.m.m.&.",
"eXeXwXeXwX7XwXwXeX0X4XA.y./ ! e.b.D.4X4X5X8XwXwXwXwX2X%.] ,X<Xm.n -.=X*XuX&X%.wXeXeXwXeXwX8X2X%.j d f f f f f s _ tXtXtXm.",
"eXeXwXeXeX9X9X7X7X7XS.b.y.! e.A.b.F.4X7X8XwXwX6Xt.0.-.R ) o.o.+...&XjXjXjXjX=X0.eXeXeXwXwX0X7X9XF.4., d f f f y &.tXtXtXm.",
"eXeXeXwXwXwX9X7X7X7Xn.b.7.! A.y.S.4X7X9XwXwXwX7.&XgX&X@.T.`./._.W. X*XjXjXjXjXXX!.eXwXwX8XwX7X5XS.A.U , y f i p  .4Xm.m._ ",
"eXeXeX0X0X9X7X0X7XD.b.b.! q.A.A.D.5X7X9XwXeXn. XjXgX X*./._._._.W.=X XjXjXjXjXjX-.@XwXwXwX5X5X5XF.A.7.H p f s s , a p p , ",
"wXwXeX0X0X0X7X7X4Xb.b.b.! y.y.A.F.9X9X9XwXeX9.uXjX&X*X*._._._._.W.iXXXiXpXiXjXjXiX=.8XwX9X5X0X5XF.A.q./ j s s s i i f f f ",
"wXeXwXwX0X7X7X7XF.A.A.7./ b.b.S.5X9XwXwXwXwX7.pXiX.XsXO.]._._.`.5.kXuX&XiX-.gXjXjX*Xr.0X9X5X8X5XF.A.e.( / d i f l f f f f ",
"wXwX0X0X7X7X5X5XS.b.A./ 4.b.A.F.5X9X8XwXwX4X%.$XXXpXpX6.]._._._.6.gXgX XjX=.-.jXjXjX.Xu.wX5X5X5XF.S.7.( 7.d f f f f f f f ",
"eXeX0X0X8X9X5X4XA.A.y.! e.b.A.4X9X9X9XeXwXr.-..XoXjX&XT.]._._._.6.gXjXXXgXXX( =XjXjXgX=.2XwX5X5X4XS.7.{ 7.d f f f f f f f ",
"wXwX0X7X5X5X5XD.A.y.e.! y.y.D.5X9X9X9XeXwXr.XX@.iXjXoXT.]._._._.6.jXjX&XuX&Xu.=.gXjXjXiX%.5X5X5XF.S.7.{ 7.d f f l f l f l ",
"eX9X7X7X8X8X5XS.b.b.7./ b.A.3X5X8X9XwXeX5Xr.XX@.jXjX*./._._._./.p.jXjXuX=X=XoX@Xr.jXjXjX&Xr.5X4XF.S.4.4.4.p f f f f f f f ",
"wX9X9X7X5X9X4XA.b.b.( 4.b.S.3X5X5X9XwXwXu.-XXX XqXjX*.`._._._./.p.jXjXXX*X*Xu.eXt.XXjXjXjXr.t.4XF.D.4.7./ p f f f f f f f ",
"wX9X9X9X8X7X3XA.b.y.! q.b.S.4XwXwX9XeXeX0.pX XpX.XiX6._._._._./.!.jX&X$XjX*Xu.eX0X8.qXjXjXgX&.2XF.S.{ 7.! y f s f f f f f ",
"wX9X7X7X8X5XD.b.y.e.! y.b.S.4XwX9X9XwX0X=.gX XgX-.$XY._._._._./.!.=X$XjXjX=Xn.eXeX6X=.gXjXjXqX%.F.A.} 9.H d f s f s s f s ",
"7X9X7X7X8X5XS.y.A.4./ b.b.S.7X7XwXwXeX@XoXsX X X*XXXT._._.].].T.#X XiXjXjX&Xu.eXwXwXi.r.jXjXjXXX8.S.} 9.H y i u u u u u u ",
"9X9X7X9X8X4XA.A.A./ 7.b.A.F.7X9XwXwXeXt.qXuX@.qXjX!./.].]._._.W.=XiX XjXjX#X@XwXwXwX0X0.#XjXjXjX=.q./ 9.j t i u u y u y u ",
"5X8X7X8X9X4XA.b.b.! e.b.A.4X7X9XwXwXwXr.gX&X XjXjX*.`.]._.]._.5.uXjX=XXXjX.X2XwX0X0X7X5X%.iXjXjXiX%.~ q.j t y s u y y u u ",
"5X7X7X5X5X4Xb.b.e.! b.y.S.4X7X9XwXwX2Xr.jX-. XjXiXO.].].].].].5.iXjXjX XkXr.6XwXwX7X7X5XA.=.hX*XhXqXn q.h y u s y u u y y ",
"7X7X7X7X5XF.b.b.7./ b.b.S.4X7X9XwXwXt.-XjX@..XjXqXY._._._._._.6.gXjXgX.XgXr.5XwX5X7X7X5X5X9.%.XXjXjXx.8.< r - r r - u d y ",
"0X7X7X7X5XD.b.b.4.{ b.b.S.7X7XwXwX9X8.iXjX@.$XjX+XT._._._._./.Y.jXjX*X=XaXr.wX9X0X7X5X7X5X8.-.jXjXjX*X^ g U 7.( N > $ % $ ",
"7X5X5X5X4XD.b.b./ 7.b.b.D.7XwXwXwX2X=.jXgX@.$XjXr./._._._._./.!.jXjX XgX$X!.wX0X7X7X7X7X0.x.jXjXjXjX-.U 8.2X8XwX9Xn.h * * ",
"5X5X4X4X4XS.y.b.! e.b.b.4X7X7X7X0Xt.&XjXiX-.&XgXO._._._.].]./.!.jXpXXXjX-.5XwXwX7X5XwX( L Q.!.iXjXgX%.A.3X8X8X8X9X9Xi.1 w ",
"5X5X4X5XF.A.y.y.! w.b.b.F.9X8X9X5X%.kXjX=X.X&XpX6._._._._._.W.qXjXXXpXiXr.eXwX9X8X4X7.j ^ ..5...pXoXU / ( ( %.7.t.4Xn.b w ",
"4X4X4X4XF.S.y.e.! y.y.A.F.8X8X8X0.&XjXjXXX*X$X$XT._._._._._.W.pXgX XjX=X!.eXwXwX2X! E OX<Xv.T ^ @.@.u.2X4X4X3X!.%.} y.N z ",
"F.4X4X4XF.S.y.e.! y.y.A.4X7X7Xi.=.jXjXgX XiX$X!./.]._._._._.6.gXpX&XjXx.6XwXeXi. .D m.<X<X<XQ 8.! t.0X7X9X9X0X0X9X8.( g z ",
"4XF.F.D.S.A.y.q.! b.b.A.F.7X5X%.gXjXjXuX&XgXuX*.`._._._._.`.6.jX XsXgX-.8X8Xt. .j.M v.,X<X<XQ / t.5X8X8X5X8X8X8X9X4XU b C ",
"4XF.F.D.A.b.b.q./ b.b.A.S.4X8.=XjXjXjX&.iXjXuX6._.].].]._./.!.kXXXjXuXr.wXi. .l.s.n v.,X<X<X$.@X9X7X5X5X5X9X8X9X8X8X/ w z ",
"S.S.A.A.A.y.b.q./ b.b.A.A.9.r.jXjXjXr.R jXjX+XT.]._.].]._.W.-XjXjXjXXXt.8X%.P.z.G Y <X,X>X<X[ @X7X7X5X5X7X5X9X9X8X4X{ S J ",
"y.y.b.b.y.y.y.q.! b.b.b.q.%.gXjXjX*XY $XjXjXp./._.].].]._.5.pXjXjXjXr.w.7.4.H.l.D ] >X>X>XOX#.i.7X7X7X5X5X9X8X8X4XD.! z v ",
"y.b.y.y.y.y.y.q.~ b.b.w.} pXjXjXkX] ( iXjXiXO._._.].].]._.6.gXjXjXjX7.e.D P.z.P.Z ] 2.1.1.#.#.n.7X5X5X7X9X8X8X8XF.D.N w 9 "
};
