/* XPM */
static char *frame14[] = {
/* columns rows colors chars-per-pixel */
"61 64 227 2 ",
"   c #241D14",
".  c #39271A",
"X  c #3D2E26",
"o  c #452B1C",
"O  c #4A321F",
"+  c #4B3223",
"@  c #473B2A",
"#  c #513821",
"$  c #55572E",
"%  c #595932",
"&  c #4D552F",
"*  c #6F5130",
"=  c #596233",
"-  c #6A7939",
";  c #626D37",
":  c #4E534C",
">  c #5C6B4E",
",  c #6B7B43",
"<  c #7A775A",
"1  c #6F714B",
"2  c #6E796D",
"3  c #5E6861",
"4  c #BB7D39",
"5  c #B57939",
"6  c #AA753A",
"7  c #856137",
"8  c #C07F39",
"9  c #887C58",
"0  c #947D57",
"q  c #917249",
"w  c #837E76",
"e  c #6E8139",
"r  c #73863B",
"t  c #758A3C",
"y  c #788E3F",
"u  c #79903F",
"i  c #6F8143",
"p  c #738443",
"a  c #798E40",
"s  c #748645",
"d  c #7D9342",
"f  c #738157",
"g  c #77866D",
"h  c #BF803A",
"j  c #829443",
"k  c #9B8257",
"l  c #A7895F",
"z  c #A98A5F",
"x  c #B0905D",
"c  c #968765",
"v  c #87867B",
"b  c #9A8C73",
"n  c #9A9577",
"m  c #859071",
"M  c #AA8C60",
"N  c #B59465",
"B  c #B59569",
"V  c #A79679",
"C  c #B49B7D",
"Z  c #A79269",
"A  c #A9A47A",
"S  c #B2A27C",
"D  c #BABA7F",
"F  c #C4A168",
"G  c #698685",
"H  c #7D8E88",
"J  c #789295",
"K  c #7CA3A7",
"L  c #8A9787",
"P  c #979587",
"I  c #899A96",
"U  c #9A9D98",
"Y  c #8B8D84",
"T  c #A39A87",
"R  c #A69D93",
"E  c #94AA8B",
"W  c #96A88B",
"Q  c #97A896",
"!  c #9DB494",
"~  c #9DB39C",
"^  c #89A190",
"/  c #A8A888",
"(  c #B8A984",
")  c #A8A898",
"_  c #B4A999",
"`  c #A5BC9B",
"'  c #A5B698",
"]  c #BAB597",
"[  c #B3B58D",
"{  c #8AA7A6",
"}  c #98AAA9",
"|  c #9AB4AA",
" . c #99ADB0",
".. c #9AB8B9",
"X. c #88B1B6",
"o. c #A9ACA7",
"O. c #B9ACA3",
"+. c #B5ADA4",
"@. c #AAB7A6",
"#. c #B9B3AA",
"$. c #A7BCB8",
"%. c #B5BCB3",
"&. c #BBBBB7",
"*. c #C6BB95",
"=. c #DABA96",
"-. c #C8B18C",
";. c #C3B5AB",
":. c #C7B9AD",
">. c #CBBCB2",
",. c #C3BEB5",
"<. c #A9C19D",
"1. c #8DC6BD",
"2. c #96C4BC",
"3. c #ACC4A2",
"4. c #AEC7A6",
"5. c #B1C5AD",
"6. c #B3CCA8",
"7. c #B6D1AB",
"8. c #B9D5AD",
"9. c #B6D4AB",
"0. c #B4C3B2",
"q. c #B8C8B7",
"w. c #BBD4B5",
"e. c #BFDDB3",
"r. c #BDD3BB",
"t. c #BED9BB",
"y. c #A4C3BE",
"u. c #D7C899",
"i. c #D2CD93",
"p. c #E9C69D",
"a. c #EBC89F",
"s. c #E5C39D",
"d. c #EFDE9F",
"f. c #E6D49B",
"g. c #F0DD9D",
"h. c #EAEC9D",
"j. c #DCCDA1",
"k. c #C9C7B7",
"l. c #D5C5BA",
"z. c #D6C6BB",
"x. c #C1DEB4",
"c. c #C1DABD",
"v. c #D0D1B5",
"b. c #ECC8A0",
"n. c #E4D5A4",
"m. c #EFDEA4",
"M. c #EEDEAC",
"N. c #E7D9A9",
"B. c #F0DEA3",
"V. c #F0DFAA",
"C. c #C3E1B6",
"Z. c #C6E3BA",
"A. c #C8E6BE",
"S. c #CAE8BF",
"D. c #EFE0AC",
"F. c #EFE0A7",
"G. c #F1E0A3",
"H. c #F0E1AD",
"J. c #F0E6AB",
"K. c #DFE19C",
"L. c #97BDC5",
"P. c #8DBCC8",
"I. c #A1BFC0",
"U. c #8ECAC0",
"Y. c #98C2C9",
"T. c #95D4C9",
"R. c #9CCBD6",
"E. c #99D8D5",
"W. c #8DD5C8",
"Q. c #A4C6C9",
"!. c #B7C9C6",
"~. c #A2CDD6",
"^. c #A4D4DE",
"/. c #99E8DA",
"(. c #A8DAE7",
"). c #9FF4E4",
"_. c #9EEEE0",
"`. c #ABE0EE",
"'. c #A0F5E5",
"]. c #ADE4F3",
"[. c #B1E6F4",
"{. c #B4ECFB",
"}. c #B3E9F7",
"|. c #C5C5C3",
" X c #C8C8C6",
".X c #CCCDCB",
"XX c #C4CBC6",
"oX c #DCCCC2",
"OX c #D1CFC7",
"+X c #C7DAC6",
"@X c #D1D2CE",
"#X c #D8D6C8",
"$X c #D4D5D2",
"%X c #DCDDDB",
"&X c #D7DAD8",
"*X c #CAD4D2",
"=X c #E1CEC3",
"-X c #E4D1C6",
";X c #E6D4CA",
":X c #E9D6CC",
">X c #EBD8CE",
",X c #E1DFD1",
"<X c #C6E2C4",
"1X c #CCEAC3",
"2X c #CEEDCB",
"3X c #CAE5C7",
"4X c #D0EECD",
"5X c #CFF0CD",
"6X c #D1F0CF",
"7X c #D2EFD0",
"8X c #DEE1DC",
"9X c #D4F3D3",
"0X c #D8F5D6",
"qX c #E7E7DB",
"wX c #F7F7D6",
"eX c #CFEEEE",
"rX c #E4E4E3",
"tX c #ECECEB",
"yX c #E7E9E7",
"uX c #F2F2EE",
"iX c #FCFCED",
"pX c #F4F4E6",
"aX c #F4F4F3",
"sX c #FEFEF2",
"dX c #FEFEFE",
"fX c #F8F7F7",
"gX c #EFEFEA",
/* pixels */
"0 C n.V.B.B.B.m.m.m.m.F.D.M.M.M.M.M.M.M.M.M.M.H.M.M.M.M.D.H.H.H.M.M.M.M.M.D.D.M.M.M.M.M.M.H.V.V.n.j.*.*.-.[ ] -.] ] *.*.u.",
"% 0 Z u.V.V.m.m.m.m.M.F.D.H.M.M.M.N.M.M.M.M.M.M.M.M.M.M.D.N.N.H.M.M.D.D.n.N.M.M.M.M.M.H.N.j.*.] *.,.z.,XqXqXqXqXqXqXqX#Xk.",
"  . * c F M.B.B.m.m.m.G.H.M.M.M.D.D.D.N.M.M.M.M.H.H.M.M.D.D.M.M.M.M.M.*.P N.N.D.M.H.n.*.] k.,XpXiXsXsXsXsXsXsXsXiXsXsXsXsX",
"9 @   @ 1 ( B.g.m.m.V.M.H.M.M.M.D.D.D.D.N.M.M.M.u.v.H.M.D.D.N.M.M.M.] ..} N.D.D.N.*.*.#XaXsXiXsXiXiXqX#Xk.,.,.k.k.k.#XqXpX",
"B M q . @ *.B.B.m.g.V.M.M.M.M.M.D.D.D.D.M.M.M.M.P Q M.H.M.M.M.M.N.] L.`.@.M.M.u.] #XiXsXsXiXyXoX+./ T b V b b b b b b b P ",
"N B B 0 n F.B.m.B.V.M.M.H.H.M.M.D.N.N.D.M.M.M.N.o.Y.] H.M.M.D.M.[ Q.{.(.` M.] k.pXsXiXiXOX_ T R V n b b V C C C ( C V V b ",
"N N N M S g.g.m.m.m.M.M.M.M.M.M.D.D.M.M.M.M.M.n.| {...*.H.D.M.] Q.{.{.(.] *.z.iXiXiXqX) V T V 0 V ( =.s.s.b.b.p.p.b.p.p.s.",
"N N N M C h.B.m.m.m.M.H.M.M.M.M.D.D.N.D.D.N.D.j.| {.}.P.#.D.*...{.{.{.R.L #XiXsXiXk.P ( V b ( =.b.b.s.s.p.p.s.p.p.s.s.p.p.",
"N N N z S G.m.m.M.V.V.V.M.M.M.H.M.M.M.M.M.M.D.n.o.{.{.}.P.R o.}.}.{.{.R.%.sXsXpX#.n / b C s.b.p.p.p.a.a.p.p.p.p.p.p.p.p.p.",
"N N N z C G.M.m.V.M.M.M.M.M.M.M.M.M.M.N.M.M.D.M.o.].{.{.{.^.`.}.}.{.{.^..XsXpX_ T C c -.b.b.b.s.p.p.s.a.p.p.p.p.p.p.p.p.p.",
"N N N l S G.m.m.V.M.M.M.M.M.M.M.M.M.H.( ) ;.u.u./ (.{.{.[.`.(.[.{.{.{.(.$..XU w Y 2 2 0 B ( =.=.s.a.b.b.p.p.p.p.p.p.p.p.p.",
"N N N l S G.m.m.B.m.M.M.M.H.M.M.M.M.H.*.{ ~.Y.....].`.L. .o.o. ...R.[.[.(.^.~.^.(.(.g - - - - , k c C F -.=.s.f.p.b.p.b.p.",
"N N N l S G.m.m.V.V.M.M.M.M.M.M.M.H.M.M.[ (.{.{.{.R.J o.;X>X:X-XoX+. .(.{.{.{.{.{.P., r r r t r e e - - - < k c B -.-.=.s.",
"N N N z S G.m.m.m.M.M.M.M.M.H.H.M.M.M.H.u. .{.}.R.K X.L.+.;X:X:X:X>X>.o.(.{.}.{.`.g r p r r r r e e t t y t e e - - , , 9 ",
"N N N z C g.m.m.B.m.M.M.M.M.M.H.M.M.M.M.H.*.~.`.J } o...L.o.;X>X:X:X>XoXo.].{.{.K & % $ $ $ $ - t e r t y t t y a a y y t ",
"N N N z C B.h.g.m.m.H.M.M.M.M.M.M.M.M.M.M.n.U (.U -X:X;.L.L.o.l.=X=X-X>X;.Q.{.`.2 $ * * * * . & r t r t r r y y a j y d j ",
"N N N z S g.h.B.m.m.m.V.M.F.V.M.M.M.V.H.N.] y.Y.&.:X:X:X>. .L. . . .} oX=X .{.R.< 5 4 h h 5 + @ - r r r r t t y u u d d d ",
"N N N l S g.B.B.d.m.m.M.D.F.M.M.M.M.n.] o.Q.].{ O.:X:X>.oX;.o. . .} I oX;Xo.[.}.Y.L q 5 h 4 + + = t r r r t t u d d d d d ",
"N N N l S B.B.m.d.m.m.m.M.H.F.M.M.H.j.Y ~.{.R.%.>X:X:Xl.R O.=X=X=X=XO.>.:Xo.].{.{.}.Y.v q 5 # + % r r r t t u d d d d d j ",
"N N N l ( g.m.g.m.B.m.V.H.M.M.M.M.M.M.n.) Q.X.Y O.#.#.O.w Y R ;.#.#.R +.>X+.(.{.{.{.{.R.g 7 # + % t r r t t u d d j j j j ",
"N N N M C G.d.m.m.B.m.B.V.m.V.M.D.M.M.H.M._ { .XfXfXfXtXU &.%XaXaXuXrX#.>X+.(.{.{.R.I 9 6 5 # + % r r r t t u d d j j j j ",
"N N N z S G.d.d.d.d.m.m.m.V.m.V.D.M.D.H.H.u.{ $.aXfXfX XO.,.fXdXdXdX.X>.>X+.(.`.I q 6 4 4 5 # + % t r t t y d d d j j j j ",
"N N B z S g.d.d.d.B.m.M.V.V.M.M.M.D.M.H.b.) ^.I O.&.#.P ;X>.;.$X$X|.#.;X:Xo.(.`.H 6 h 4 h 5 + + % t r t y u u d d j j j j ",
"N N N M S G.d.d.m.g.m.m.m.B.V.V.V.M.D.u.) ^.`.J R _ O.O.oXoX-X>.;.>.;.>.:Xo.[.{.`.{ q 4 h 5 # + % r t t y u j d d j j j j ",
"N N N M S G.G.G.g.h.B.B.M.m.M.V.M.M.H.( U R.X.P oXl.>.;.O.l.>X>.O._ ;.-X;XP L.[.{.{.P.9 6 5 # + % r t t a d d d j j j j j ",
"N N N M S G.g.g.g.g.g.B.B.m.B.V.V.M.H.H.N.*.n R ;X>X>.R O.:X;X;X;X;X>X:X=X_ +.^.{.].P.3 * * . + % t r t d d j j j j j j j ",
"N N N l S g.g.g.g.g.g.B.B.B.V.V.V.M.M.H.V.H.T Y ;X>X:X>.-X:X:X:X:X:X:X:Xl.O.O.L.G : X . . . . o % r t a d d d d j j j j j ",
"B N N l S g.g.g.g.g.g.B.B.B.V.V.V.H.M.M.V.*.} { =X>X>X>X:X:X:X:X:X:X:X:X;.U ..^.& o O . o o o . = t r a d d j j j j j j j ",
"Z N N l S G.g.g.g.g.m.m.B.B.B.M.H.M.M.V.M.( Q H =X>X>.>.:X:X:X:X:X:X:X:XO.L.(.].J = ; ; ; - - - e t a d d d j j j d a j j ",
"N N N l ( G.m.m.B.B.m.B.B.g.B.M.M.M.V.M.M.M.( J >.>X;.;.>.;.;X:X:X:X:XoX} G 2 2 > ; e e e e t t t t d d d j j j a , % - s ",
"N N N l ( G.m.m.B.m.m.m.m.M.M.V.V.M.V.M.M.M.] / _ >X;.w _ _ -X:X:X:X:XO.L.K - - f n 3 3 > ; r t t d d d j j j a 2 g H H v ",
"N N N M S G.m.d.g.m.B.m.m.V.B.V.M.V.M.M.m.M.V.H._ >.;X>.R _ :X:X:X>Xl.w L 2 - - ] 2X| E.g > r t t t d d j j j s Y eXeXeXL ",
"N N B M F G.g.g.d.G.G.F.F.G.F.F.D.D.V.M.V.N.n.n.u.T ;.:X>.=X>X>X:X:.R P T ; r - ] A...^.g > r t t d d d j j j s L eXeXeXL ",
"c c c 9 V -.i.u.i.f.f.f.m.H.H.F.j.*.( [ / [ ' @.` ` ' _ :.z.l.>.R @.4.@.) m m g W ) { X.3 > t a a d d d j j j d g ^ ^ L g ",
"+X<X<X<X!.C.7.@.` ' ' / / ( ( / W 3.8.x.3X4X9X0X0X0X0Xc.U ;.] ;.R q.r.q.q.0.2X6X2X<X!.0.| g f i a d d d d d d d b k.k.v.] ",
"0X9X9X0X0X0X0X9X9X9X2XC.e.! E 9.C.A.1X1X2X9X9X9X0X7X<X@.) -X>Xv.v %.&X%XrX@X@.6X0X0X0X0X9X6X3X3.g s d d d d d s / wXwXwXk.",
"0X0X0X9X9X6X4X4X4X4XA.x.x.E 9.x.C.A.1X4X6X9X9X2Xr.%.&.U ^ | | X.{ $XdXdXdXdX$Xq.7X0X0X0X9X4X6X4XS.` , e d d d r 3.iXwXwXv.",
"0X6X9X9X0X9X4X4X4X2XZ.x.<.! C.e.C.1X4X6X9X9X9X3.$XaX$Xo.E.)./.).W.|.%XdXdXdXdX.Xr.0X9X7X6X6X4X4XA.C.^ , t d d e / v.v.v./ ",
"0X9X0X9X4X4X4X7X4XA.x.x.E 6.x.C.S.1X6X6X6X9X+X|.dXaX|.$./.'.).).U.8X|.dXdXdXdXfXq.+X0X9X9X4X4X2XS.C.<.^ i d d s - s i i i ",
"0X9X0X9X4X4X4X7X1Xx.x.x.E e.x.C.1X6X6X9X9X0X7.rXdX@X8X$./.).).).U.yX.XtXyXuXdXdXtX%.2X9X5X4X6X2XS.C.6.! g a a a u j d a d ",
"9X9X9X9X4X4X4X4XS.C.C.<.! C.e.Z.2X6X6X9X9X6X4.yXtX XuX..'.'.).).1.uXrX$XtX,.aXdXdX&X0.7X6X2X4X2X1XC.9.! ! s u d j d d d d ",
"0X9X9X6X6X4X4X2XC.x.C.! <.C.C.1X2X6X6X9X0X1Xo.@X.XyXyX2.'.'.).).1.aXaX XdX%.&.dXdXdX X!.9X6X4X2X1XC.6.! 3.s d d j d d j d ",
"0X9X9X6X5X6X4X1XC.C.e.E 9.x.C.1X6X6X6X9X9Xr.q. X|.dX$XU.'.'.).).U.fXdX.XaX@X~ &XdXdXfX0.<X9X2X2XS.C.4.` 4.s d d d d d d d ",
"0X7X4X4X5X5X2XA.x.x.9.E e.e.S.2X6X6X6X0X9X%..Xo.tXdX X/.'.'.)._.2.fXdX$XrX$Xq.%.uXdXdXtX@.2X4X2X1XZ.3.` 3.s d d d j d d d ",
"9X6X4X4X4X5X1XZ.x.C.3.! C.x.1X4X2X5X9X0X3Xq..Xo.dXdX$./.).).)._.y.dXdX8X%X%Xc.+Xq.dXdXdX$X5.5X1XS.Z.<.<.<.i d d d d d d d ",
"0X9X6X6X6X6X1XC.e.C.' <.e.C.1X4X5X5X9X0Xr.*X.X|.qXfX$./.).).)./.Q.dXdX.X%X%Xr.0Xr..XdXdXdXk.w.1X1XC.<.4.! s d u d d d d d ",
"9X4X6X6X5X4X1Xx.x.e.E 7.x.C.1X4X6X9X9X0X0.rX XyX XtX2.).).).'./.!.dX$X@XdX%Xr.0X7X0.%XdXdXaX@.+X1XZ.` 4.E t d a d d d d d ",
"9X4X6X1X6X4XA.x.e.9.E e.x.Z.2X6X5X9X0X4X%.aX|.fXq.$X2.).).).'.W.!.$X@XdXdX&Xc.0X0X3X%.aXdXdXrX@.A.C.' 6.L s a a d d a d d ",
"7X9X4X4X5X1XA.x.x.3.! C.C.Z.4X6X9X9X0X<XXXuX|. X&X.XT.).).'.'.W.*X|.tXdXdX$Xr.0X9X0Xt.k.dXdXdX.X4.Z.' 6.m d d u u u y u u ",
"7X7X4X2X5X1XC.C.C.! <.x.C.S.6X4X5X9X0Xq.8XrXo.8XdX!./.'.).).'.W.&XtX|.fXdX.X+X0X0X5X5X5.$XdXdXdX%.7.! 7.g t u u u t t y y ",
"2X2X2X5X4X1XC.x.e.E 9.e.C.1X4X4X9X0X0X5.aX$X|.dXfX$.'.'.).'.'.1.rXdX&X@XdXXX+X0X5X5X4X1X@.yXdXdXtX@.W 7.g t a t t y t y y ",
"7X9X2X5X4X1Xx.x.9.E x.x.Z.1X4X6X9X9X3Xq.dX&. XdXtX..'.'.'.'.'.1.uXdXdX|.tXq.2X9X5X7X4X6Xc.0.fX8XfX&XY 7.g r u u t t t t t ",
"4X4X4X4X2X1Xx.x.3.! x.x.Z.1X4X6X9X9Xw.*XdXo.|.dX8XY.).'.).).).1.aXdXaXXXaX%.7X5X7X7X7X2X1Xw.o..XdXdX&.5.f - e e e e s s t ",
"4X7X2X4X2XA.x.C.<.` x.x.A.4X6X6X6X9X5.tXdXo.@XdXOXT.).'.'.)._.Y.dXdX%X&XtX0.0X5X2X5X2X2X2X5.q.fXdXdX%X! 2 W @.! m > $ % % ",
"2X2X2X2X1XA.x.x.! 3.x.x.S.4X9X6X7X<X%.dXfXo.@XdXq./.'.'.).'./.!.dXdX|.aX@Xc.9X9X6X4X2X7X6.k.dXdXdXdX&.L 3.3X6X9X6Xt.g * * ",
"2X2X1X2X1XA.e.e.E 9.x.x.S.4X4X9X7Xw.$XdXyX&.$XfX..'.).).'.'.E.!.dXyX.XdX&.2X9X6X6X6X6X| H Q.!.uXdXaX@.x.1X2X2X9X9X6Xt.1 q ",
"5X5X1X1XS.Z.x.e.E 8.e.x.S.5X6X4X2X@.uXdX&X X$XyX1.).).).).).W.8XdX.XtXuX%.0X9X9X5X2X3.v I { 1.{ yX|.L ~ ' ` | 3.w.1XA.g q ",
"1X1X1X1XS.C.e.8.E x.e.C.1X5X4X6X5.$XdXdX.X&X@X@XT.).).).).).1.yXfX|.dX$Xr.0X9X9X<XE Y oX>Xz.L { @.o.t.<X3X1X<Xt.@.` e.m l ",
"1X1X1X1XS.C.e.9.E e.e.C.1X4X6Xt.q.dXdXaX XtX.X!./.'.).).).).2.aXrX$XdX|.3X0X9Xr./ A k.>X>X>X/ 4.L w.7X2X7X4X7X9X5X5.! < q ",
"1XS.S.S.Z.C.e.9.E C.e.C.1X4X1X@.uXdXdXrX$XfXrX$.'.'.).).).).Y.dX XtXfX%.7X0X7.' K.n oX:X>X:XR ~ t.6X4X2X4X4X2X7X5X1XL c F ",
"1XS.S.Z.C.x.x.6.! x.x.C.Z.1X4.&XdXdXfX#.tXdXyX2.'.).'.'.)./.!.aX@XdXrXq.0Xc.' h.i.c -X>X;X:XO.Z.6X4X4X4X4X2X5X5X6X2X! < k ",
"Z.Z.C.C.C.x.e.6.W x.x.x.C.7.q.dXdXdX|.U dXdXOXT.).'.'.).).W.*XdXfXdXOXw.2X' K.h.D P ;X:X:X:X+.+X4X4X4X2X4X6X6X9X4XS.' Z F ",
"x.x.e.x.x.e.C.6.! x.x.x.7.@.aXdXdX%XL .XdXdX$./.).).'.'.).U.yXdXdXdXq.8.3.<.h.h.A ) ;X;X;Xz.O.c.4X4X4X2X4X4X6X6X1XA.E k x ",
"e.e.x.e.e.e.x.7.W x.x.w.' rXdXdXuXo.' uXdXtX..'.).).'.).)...aXdXdXdX@.9.A K.h.h.V ) >.:.>.O._ c.4X4X4X4X4X6X6X6XS.Z.m q q "
};
