/* XPM */
static char *frame16[] = {
/* columns rows colors chars-per-pixel */
"61 64 226 2 ",
"   c #241D13",
".  c #39271A",
"X  c #3D2E26",
"o  c #452B1C",
"O  c #4B321F",
"+  c #4B3223",
"@  c #473B2A",
"#  c #513821",
"$  c #55572E",
"%  c #595932",
"&  c #4E552F",
"*  c #6F5130",
"=  c #5A6233",
"-  c #6A7A39",
";  c #626D37",
":  c #4E534C",
">  c #5C6B4F",
",  c #6C7A44",
"<  c #71724E",
"1  c #6E796D",
"2  c #5E6861",
"3  c #BC7D39",
"4  c #B67939",
"5  c #AA753A",
"6  c #856036",
"7  c #C07F39",
"8  c #877B57",
"9  c #947C57",
"0  c #917249",
"q  c #837E76",
"w  c #6E8139",
"e  c #73863B",
"r  c #758A3C",
"t  c #798E3F",
"y  c #79903F",
"u  c #6E8043",
"i  c #728343",
"p  c #798E41",
"a  c #738645",
"s  c #7D9342",
"d  c #738157",
"f  c #77866D",
"g  c #BF803A",
"h  c #829443",
"j  c #9B8257",
"k  c #A78A5F",
"l  c #A98A5F",
"z  c #B0905D",
"x  c #968765",
"c  c #878679",
"v  c #9A8C73",
"b  c #9B9477",
"n  c #849271",
"m  c #AA8C60",
"M  c #B59465",
"N  c #B59569",
"B  c #A79679",
"V  c #B49B7D",
"C  c #A7926A",
"Z  c #AAA37A",
"A  c #B2A27C",
"S  c #B9B97E",
"D  c #C4A168",
"F  c #698685",
"G  c #7C8D8A",
"H  c #779396",
"J  c #7DA4A7",
"K  c #8A9687",
"L  c #979687",
"P  c #889A96",
"I  c #9A9D98",
"U  c #8B8D84",
"Y  c #A39A87",
"T  c #A69D93",
"R  c #95AA8B",
"E  c #96A98A",
"W  c #98A996",
"Q  c #9DB494",
"!  c #9DB39A",
"~  c #89A190",
"^  c #A8A889",
"/  c #B7A984",
"(  c #BBB58D",
")  c #A8A899",
"_  c #B4A89A",
"`  c #A5BB9B",
"'  c #A6B698",
"]  c #BAB598",
"[  c #ACB68D",
"{  c #98AAA9",
"}  c #99B3AB",
"|  c #98ADB0",
" . c #99B8B8",
".. c #89ADB0",
"X. c #A9ACA7",
"o. c #B4ACA2",
"O. c #B9ADA3",
"+. c #B5AEA8",
"@. c #A9B7A6",
"#. c #B9B3AA",
"$. c #A6BCB9",
"%. c #B5BDB3",
"&. c #BBBBB7",
"*. c #C6BB95",
"=. c #DABA96",
"-. c #C7AF8B",
";. c #C3B5AB",
":. c #C7B9AD",
">. c #CBBCB2",
",. c #C3BEB5",
"<. c #A9C19E",
"1. c #8DC6BD",
"2. c #97C4BD",
"3. c #ACC5A2",
"4. c #AEC6A7",
"5. c #B1C5AC",
"6. c #B4CCA9",
"7. c #B9D4AD",
"8. c #B6D2AA",
"9. c #B4C4B2",
"0. c #B8C7B7",
"q. c #BAD4B5",
"w. c #BFDDB3",
"e. c #BDD3BB",
"r. c #BDD9BB",
"t. c #A4C3BE",
"y. c #D6C899",
"u. c #D4CD95",
"i. c #E9C69D",
"p. c #EBC89F",
"a. c #E6C39D",
"s. c #EFDE9F",
"d. c #E6D49B",
"f. c #F0DD9D",
"g. c #EAED9E",
"h. c #DCCEA1",
"j. c #C8C6B8",
"k. c #D5C5BA",
"l. c #C1DEB4",
"z. c #C1DBBC",
"x. c #D0D1B6",
"c. c #EBC8A0",
"v. c #EFDEA4",
"b. c #EEDEAC",
"n. c #E5D5A5",
"m. c #F0DEA3",
"M. c #F0DFAA",
"N. c #C3E1B6",
"B. c #C6E3BA",
"V. c #C8E6BD",
"C. c #C9E8BE",
"Z. c #EFE0AC",
"A. c #EFE0A7",
"S. c #F1E0A3",
"D. c #F0E1AD",
"F. c #EFE9A8",
"G. c #DEE29A",
"H. c #98BEC5",
"J. c #8DBCC9",
"K. c #98C3C9",
"L. c #96D4C8",
"P. c #9CCBD6",
"I. c #99D9D5",
"U. c #8DD0C5",
"Y. c #A4C5C8",
"T. c #B7C9C5",
"R. c #A2CDD6",
"E. c #A4D4DD",
"W. c #98E8D9",
"Q. c #ABDEEC",
"!. c #A7D8E5",
"~. c #9DEEE0",
"^. c #9FF4E3",
"/. c #ABE1EE",
"(. c #A0F5E5",
"). c #ADE3F2",
"_. c #B1E6F4",
"`. c #B4ECFB",
"'. c #B2E9F7",
"]. c #C5C5C3",
"[. c #C8C8C6",
"{. c #CCCDCB",
"}. c #C5CAC4",
"|. c #DCCCC2",
" X c #D1CFC7",
".X c #C4DDC2",
"XX c #C8D4CC",
"oX c #D1D2CE",
"OX c #D8D6C7",
"+X c #D4D5D2",
"@X c #DCDDDB",
"#X c #D7DAD8",
"$X c #CAD4D2",
"%X c #E1CEC3",
"&X c #E4D1C6",
"*X c #E6D4CA",
"=X c #E9D6CC",
"-X c #EBD8CE",
";X c #E1DFD1",
":X c #C6E2C4",
">X c #C9E5C4",
",X c #CCEAC3",
"<X c #CFEDCC",
"1X c #CBE6CA",
"2X c #D0EECD",
"3X c #CFF0CD",
"4X c #D1F0CF",
"5X c #D1EFD0",
"6X c #DEE1DD",
"7X c #D4F3D3",
"8X c #D8F5D6",
"9X c #E7E6DB",
"0X c #F7F7D6",
"qX c #CFEEEE",
"wX c #E4E4E3",
"eX c #ECECEB",
"rX c #E7E8E7",
"tX c #F0EFEA",
"yX c #F2F2EE",
"uX c #FCFCED",
"iX c #F4F4E6",
"pX c #F4F4F4",
"aX c #FEFEF2",
"sX c #FEFEFE",
"dX c #F8F7F7",
"fX c #EFF0EF",
/* pixels */
"9 V n.b.m.m.v.v.v.b.b.b.Z.b.b.b.b.b.b.b.b.b.b.b.b.b.b.b.b.b.b.b.Z.b.b.b.b.b.b.b.b.b.b.b.b.D.M.M.n.y.y.( ( ( _ _ ( -.*.*.y.",
"% 9 C y.M.m.v.v.v.m.v.S.D.Z.D.b.b.b.b.b.b.b.Z.b.b.b.D.b.b.b.b.b.b.b.b.b.n.b.b.b.b.b.b.D.n.h.*.] ;.j.k.;X9X9X9X0X9X9X9XOXj.",
"  X * x D b.m.m.v.v.m.M.b.b.b.b.b.b.b.b.b.b.b.Z.D.b.b.b.b.b.b.b.b.b.b.*.b b.b.b.b.D.n.*.] j.;XiXuXaXuXaXaXaXaXaXaXaXaXaXaX",
"8 @   @ < / m.m.v.v.v.b.D.D.b.b.b.b.b.b.b.b.b.C.y.h.b.b.b.b.b.b.b.b.]  .{ n.b.b.b.*.*.OXpXaXuXaXuXiX9XOXj.j.,.>.j.j.OX9XiX",
"M m 0 . @ *.m.m.v.m.b.b.b.D.b.b.b.b.b.b.b.b.b.b.L W b.b.b.b.b.b.b.] H./.} b.b.y.]  XuXaXuXuXeX|.O.^ Y B b v v v v q v v L ",
"M M N 9 b v.f.v.m.v.v.b.D.b.b.b.n.b.b.b.Z.b.b.n.X.K.] D.b.b.M.b._ Y.`.!.@.v.*.j.iXaXuXuX X_ Y Y B b v v B V V V V / B B v ",
"M M M m A f.m.v.v.v.b.D.b.b.b.b.b.b.b.Z.Z.b.b.n.} _. .] b.Z.Z.] K.`.`.!.] *.x.aXuXaX;X_ Y Y B 9 B / =.a.a.i.c.p.c.c.p.i.a.",
"M M M k V g.v.m.v.v.b.b.b.b.b.b.b.b.b.b.b.b.b.h.$.'._.H.#.Z.*.2.`.`.`.P.K  XaXaXuXk.L Y B C / =.c.c.a.a.a.i.i.i.p.p.i.i.i.",
"M M M l A S.v.v.b.M.M.M.b.D.b.b.b.b.b.D.b.b.b.n.X.'.`.'.J.T X.'.`.`.`.P.&.aXaXiX#.b / v Y a.c.c.i.i.i.i.i.i.i.i.p.i.i.i.i.",
"M M M l V S.M.M.M.b.b.b.D.D.b.b.b.b.b.n.b.D.b.n.X._.`.`.`.P.Q.'.'.`.`.P.XXuXiX_ B ^ x -.c.c.c.i.i.i.i.i.i.i.i.i.i.i.i.i.i.",
"M M M k Z S.m.v.M.b.b.b.b.b.b.b.b.b.b.^ ) *.y.h.^ !.`.`.'./.Q.).`.`.`.!.$.{.I q K 1 1 9 N -.-.a.a.i.c.c.i.i.p.p.i.i.i.i.i.",
"M M M k A S.v.v.m.v.b.b.b.b.b.b.b.b.b.y.{ P.K. . .).).H.| X.X.|  .R._.`.!.R.R.!.!.!.1 , - - - - j x N -.-.=.y.i.p.p.p.p.i.",
"M M M l A m.m.v.v.b.b.b.b.b.b.b.b.b.b.b._ !.`.`.`.P.H +.*X-X-X*Xk.#.| !.`.`.`.`.`.J., e e e e e w w - - - < j x N -.-.=.a.",
"M M M l A S.m.v.v.b.D.D.b.b.b.b.b.Z.b.b.h.| `.`.P.J ..H.X.-X=X=X-X-Xk.X.!.`.`.`./.f e e e e e w w e e r y r e e - - , , 0 ",
"M M M l Z f.v.v.v.b.b.b.b.D.b.b.Z.Z.b.Z.Z.( R./.H { X. .H.+.*X-X=X-X-Xk.X._.`.`.J & % $ $ & & - w r e r r r e t p s t y t ",
"M M M l V m.s.s.v.v.b.D.b.b.b.D.b.b.b.Z.Z.n.I !.I %X-X;.| J.+.k.%X%X%X-X;.Y.`./.1 $ * * * 6 . & e r e e r r t t t s t s s ",
"M M M l V f.f.m.m.v.A.b.b.A.M.b.b.b.M.D.n.] t.K.+.=X=X=X>.| H.H.| | { |.%X| `.P.< 4 g g g 4 + @ - e e e e r r y y y s s s ",
"M M M l A g.v.m.v.v.v.A.Z.Z.b.b.b.b.n.] X.Y./...;.=X=X>.|.;.T | | | P %X&XX._.`.Y.K 0 4 3 4 # + ; e e e e r r y y s s s s ",
"M M M k A m.s.v.v.s.v.v.v.Z.Z.b.b.D.y.U R.`.P.#.=X*X*Xk.T O.%X%X%X%XO.>.-Xo.Q.`.`.`.H.c 0 4 # + % e e e r r t s s s h s h ",
"M M M l / f.v.f.v.m.v.m.D.Z.b.b.D.D.b.n._ R...U +.;.+.+.q U T ;.#.#.T ) -X+.!.`.`.`.`.!.1 6 # + % e e e r r t s h s h h h ",
"M M M m V S.s.v.v.v.v.v.m.v.b.b.b.b.D.b.b._ ..{.pXpXdXfXI &.@XpXpXpX@X#.-X+.!.`.`.P.P 8 5 4 # + % e e e r r y s s h h h h ",
"M M M l A S.g.f.f.v.M.v.v.M.v.Z.M.b.b.b.M.y.W $.pXdXdX[.O.,.dXsXsXsX{.>.=X+.Q.Q.H 9 5 3 3 4 # + % r r e r t s s s h h h h ",
"M M M l A m.f.f.s.f.v.v.S.b.Z.Z.b.M.b.b.n.) E.P ;.,.+.L *X>.,.{.+X].#.*X=XX.Q./.G 5 7 7 3 4 + + % r e r r y h s s h h h h ",
"M M M m A m.s.m.v.v.v.v.m.M.S.M.b.D.b.y.) E.Q.H T _ O.O.|.|.%X>.>.>.;.>.=XX.).`.).P 0 3 3 4 # + % r e r t y y h s h h h h ",
"M M M m A S.S.f.S.s.f.m.M.v.v.M.b.b.D./ W Y...L |.k.>.;.O.k.-X>._ _ ;.%X*XU H.'.`.`.J.8 5 3 # + $ r e r p s s h h h h h h ",
"M M M m A S.f.f.f.f.f.f.m.v.M.b.M.b.D.D.n.*.L T *X-X>.T O.=X*X=X*X*X-X=X%Xo.O.!.`.).J.2 * * . + % e r t s s s s h h h h h ",
"M M M k A f.f.f.f.f.f.m.M.v.M.M.M.b.D.b.M.D.Y U &X=X=Xk.&X=X=X=X=X=X=X-Xk.O.;.H.F : X . . . . o $ e r t s s s h h h h h h ",
"C M M k A S.f.f.f.f.f.v.m.m.M.M.M.b.M.b.M.*.{ ..%X=X=X=X=X=X=X=X=X=X=X-X;.I | R.& o o . o o o . $ p e p s s h h h h h h h ",
"N M M m V v.s.f.f.s.v.m.m.m.M.v.b.b.b.M.b./ L G |.-X>.>.=X*X=X=X=X=X=X-Xo.H.Q.).H = ; ; ; - - - e r t s s h h h h s p h h ",
"M M M k A M.v.m.m.v.v.m.m.s.m.b.b.b.b.b.b.b.( H >.-X;.;.>.;.*X=X=X=X=X%X{ F 1 1 > - w w w w r r t r t s s h h s p , % , p ",
"M M M k / S.S.m.s.v.m.v.v.v.Z.v.M.b.M.b.b.b.( ^ _ -X;.q _ _ &X=X-X=X-XO.K.J - - d b > 2 > ; e r r t s s h h h p 1 f U G f ",
"M M M k A S.S.S.s.v.v.v.v.M.M.D.b.M.M.M.b.b.M.D._ >.=X>.T _ *X=X=X-Xk.1 K 1 - - ] 2X .P.f > r r r p s s h h h i U qXqXqXP ",
"N M N m A g.f.f.v.g.S.S.M.D.v.A.D.D.M.M.M.n.n.n.y.Y ;.=Xk.|.-X-X=X:.T Y Y ; w - ] x.2.I.F > e r r s s s h h h a K qXqXqXG ",
"x x x 9 B -.=.y.y.d.d.d.v.D.D.v.y.*./ [ ^ ' ] ` ] ` ' X.;.k.k.:.T @.@.@.' n n f E ) P U.1 % r t t s s s h h h s f ~ I K f ",
".X.X:Xz.z.q.8.4.] ' ' ^ ^ / ( ^ Q <.7.z.,X2X7X7X8X8X8Xr.I ] O.:.T 0.q.q.9.9.1X2X3X>XT.9.{ f f u p s s s s h s p v x.6.x.#.",
"8X8X8X8X8X8X7X7X7X4X,XN.w.Q R 7.l.V.,X,X<X7X7X7X8X5X>X@.) =X*Xx.c &.#X@XwX+X@.2X8X8X8X8X7X5X>X<.f a s h s s s r ^ 0X0X0Xj.",
"7X7X8X7X7X7X4X2X2X2XV.l.w.R 8.w.N.V.,X4X3X7X7X<Xe.9.0.I ~ } { } ..+XsXsXsXsX#X9.7X7X7X7X7X2X2X2XC.Q > r s s s i 6.0X0X0Xx.",
"7X8X8X8X7X4X4X2X2X,XB.l.<.Q N.w.B.,X2X4X7X7X7X3.+XpX$XX.I.^.~.^.U.].@XsXsXsXsX{.e.8X8X7X4X7X2X2XC.B.K , t s s w ^ x.x.x.^ ",
"8X7X8X5X7X2X2X5X2X,Xl.l.R 6.w.N.C.,X4X4X7X7X.X].sXpX].$.W.^.^.^.1.6X[.sXsXsXsXdX0.XX7X7X7X<X5X<XC.N.<.R u s s p , a i , w ",
"8X7X8X7X4X5X2X2X,XB.l.7.R w.w.N.,X4X4X4X7X8X9.wXsXoX@X$.~.^.^.^.1.eX{.eXwXpXsXsXeX%.5X7X4X<X<X2XC.N.8.Q f p p p h h s s s ",
"8X7X8X7X2X2X2X2XC.B.l.<.Q N.N.B.<X4X4X7X7X7X3.rXeX[.yX2.(.(.^.^.1.pX9X+XeX&.pXsXsX@X9.7X5X<X<X<XC.N.8.Q Q u s s t s s s s ",
"8X7X7X5X2X2X2X,XB.l.l.Q <.N.N.C.4X4X7X4X8X,XX.oX{.rXwX2.(.(.^.^.1.pXdX}.sX&.&.sXsXsX[.e.7X5X<X<X,XN.6.! 3.a s s s h s s s ",
"7X8X5X2X3X3X2X,XN.l.w.R 8.l.B.,X2X4X4X8X8Xe.0.[.[.sXoXL.(.(.(.^.K.dXsX[.pX{.} #XsXsXdX%.:X7X<X<X,XN.3.` 3.a s s s s s s s ",
"8X5X5X2X<X4X<XV.N.w.8.R w.w.B.<X4X4X7X7X5X9.[.X.rXsX[.I.(.(.~.~.2.dXsX#XwX+Xq.%.pXsXsXrX@.<X<X<X,XB.3.<.3.a s s h s h s h ",
"7X7X4X2X3X3X<XB.l.l.3.Q l.l.,X<X3X4X7X7X1X0.{.X.sXsX%.W.^.^.^.W.t.dXsXwX#X#Xj..X0.sXsXsX+X5.<X,XC.B.<.<.<.u s s s s s s s ",
"7X4X4X4X<X3X,XB.w.N.` <.N.l.,X<X4X3X7X8Xe.+X{.].9XdX .^.^.^.^.W.t.sXsX{.6X@Xe.8X0.{.sXsXsXj.e.,XC.B.<.3.Q u s s s s s s s ",
"7X7X4X4X3X2X>Xl.w.l.R 8.w.B.,X7X4X4X7X8X9.wX].rX[.eX2.^.^.^.^.W.T.sX+XoXsX@Xe.8X7X5.@XsXsXfX%.B.,XB.! 6.Q p s p s s s s s ",
"7X2X4X4X,X<XV.l.w.8.R w.w.B.,X7X4X7X8X5X%.pX].dX&.oXK.(.^.^.^.W.T.#XoXsXsX#Xz.8X8X<X%.pXsXsX6X@.V.B.Q 6.n a s p s p p s p ",
"2X4X2X2X3X<XB.l.N.<.Q N.w.C.<X4X7X7X8X.X}.fX].}.@X[.I.(.^.(.(.U.$X].eXsXsX+Xe.8X7X7Xr.0.sXsXsX{.4.B.' 6.n p s y y y t t t ",
"2X5X2X4X3X,XB.w.N.Q <.N.N.C.2X2X7X7X8Xq.6XwXX.6XsXT.W.(.(.^.(.U.#XtX].dXsX{..X8X7X7X5X5.+XsXsXdX%.8.Q 6.f r y y t t r t t ",
"4X<X<X3X4X,XN.l.w.R 7.N.B.,X2X4X7X7X7X9.dX+X].sXdX$.~.(.^.(.(.U.wXsX#X{.sX[..X7X7X2X2X<X@.rXsXsXeX@.R 8.f r p r r r t r t ",
"<X5X<X3X<X,Xl.l.8.R l.w.B.,X2X4X7X7X:X0.sX&.].sXfX .(.(.(.(.^.1.fXsXsX].fX0.1X7X5X2X2X<XN.%.sX@XdX@XU 8.f r t p t r r t r ",
"5X2X<X2X2XV.l.l.<.Q l.l.B.2X2X4X7X7Xq.$XsX+.[.sX@X2.^.^.^.^.^.2.pXsXpX}.pX9.7X4X2X2X2X<X,X8.X.{.sXsX&.5.d - w w w w e a r ",
"2X2X2X2X2XV.l.N.<.` N.l.B.,X4X4X4X7X5.eXsXX.{.sXoXL.^.^.^.^.W.Y.sXsX@X#XeX9.7X7X5X5X2X<X<X5.0.sXsXsX9XW 1 R @.Q n > $ % $ ",
"2X<X<X2X,XV.l.l.Q 3.N.l.V.2X7X7X3X>X%.sXdXX.oXsX0.W.^.^.^.^.~.Y.sXsX[.pXoXT.7X5X5X5X<X2X6.j.aXsXsXsX&.K 3.>X7X7X7Xr.f * * ",
"<X<X,X,X,XV.w.w.R 8.l.l.C.4X2X2X7Xq.+XsXrX&.oXdX$.~.^.^.^.^.W.T.sXrX[.sX0.1X7X5X5X5X5X` G Y.T.tXsXpX@.l.C.<X<X4X7X4Xr.< 0 ",
"3X,X3X,XC.B.w.w.R w.w.N.,X4X3X3X<X@.fXsX#X[.+XeXK.(.^.^.^.^.U.#XsX{.rXfX&.7X7X7X3X3X3.c P ..1...wX].K Q ! ! 3.3.q.>Xz.x 0 ",
",X,X,X,XC.B.w.7.R w.w.w.C.3X<X4X5.+XsXsX[.@X{.+XL.^.^.^.^.^.U.rXdX].sX#Xe.7X7X7XB.E c OX=Xk.P W @.@.r.:X<X1X:XT.@.' l.n j ",
",X,X,XC.C.N.w.8.R w.w.N.,X2X4Xr.0.sXsXpX[.eX{.T.W.(.^.^.^.^.2.pXwX+XsXj.1X7X8XT.[ Z k.-X-X-XY @.K e.4X2X3X<X5X4X3X4.! d 9 ",
",X,XC.C.B.N.w.8.R w.w.N.,X2X<X@.fXsXsXwX+XdXwX$.~.^.^.^.^.^.2.sX[.fXdX%.3X7X7.[ G.b k.=X=X=X) ' q.2X2X4X<X<X5X5X3X,XK x D ",
",XC.C.B.N.l.w.6.Q l.l.l.B.,X4.#XsXsXdX#.rXsXwX2.^.(.(.(.(.W.T.pX{.sXwX9.7X.X[ F.u.c k.=X=X-Xo..X4X2X2X2X2X<X4X4X4X,XQ 8 j ",
"B.B.N.B.N.N.l.6.W l.l.l.B.6.9.sXsXsX].I sXsXXXL.^.(.(.^.(.U.$XsXdXsX{.q.3X` G.g.S L -X=X=X-Xo.z.4X2X2X2X<X4X4X4X3X,X' C N ",
"l.l.w.w.l.w.w.8.E B.l.l.8.@.pXsXsX#XL oXsXsX%.W.^.^.(.^.^.1.rXsXsXsX9.q.<.<.g.g.Z ) *X=X*Xk.o.z.2X2X<X<X<X4X3X3X,XC.R j z ",
"w.w.w.l.w.w.w.8.E l.l.w.' wXsXsXfXX.! yXsXeX2.^.^.^.(.(.^.2.pXsXsXsX3.7.Z G.g.g.B _ >.:.>.O.O.z.2X<X<X2X2X3X4X3X,XB.n 0 0 "
};
