/* XPM */
static char *frame_002[] = {
/* columns rows colors chars-per-pixel */
"64 64 226 2 ",
"   c #060606",
".  c #080706",
"X  c #080807",
"o  c #0A0A09",
"O  c #0A0708",
"+  c #120D0B",
"@  c #130C07",
"#  c #13110E",
"$  c #1D130A",
"%  c #141312",
"&  c #191613",
"*  c #1D1916",
"=  c #0F0F10",
"-  c #2B1B0D",
";  c #25170B",
":  c #311E0D",
">  c #270C11",
",  c #201814",
"<  c #34161C",
"1  c #39230F",
"2  c #24221C",
"3  c #3D2612",
"4  c #1F1E25",
"5  c #201F25",
"6  c #1F2025",
"7  c #282525",
"8  c #352B24",
"9  c #3B3127",
"0  c #363933",
"q  c #49121D",
"w  c #6D0004",
"e  c #6A080B",
"r  c #730005",
"t  c #78050D",
"y  c #6A1916",
"u  c #790810",
"i  c #432912",
"p  c #492D15",
"a  c #593515",
"s  c #502F11",
"d  c #643C18",
"f  c #653C18",
"g  c #741727",
"h  c #6F172A",
"j  c #42342A",
"k  c #742826",
"l  c #763032",
"z  c #6C411A",
"x  c #7C4B1E",
"c  c #72451B",
"v  c #59483C",
"b  c #794C24",
"n  c #774C25",
"m  c #7D522D",
"M  c #7D5532",
"N  c #6F4B2A",
"B  c #383745",
"V  c #772F41",
"C  c #6B5546",
"Z  c #724E50",
"A  c #766359",
"S  c #54546C",
"D  c #6E6B72",
"F  c #8B0C19",
"G  c #991D34",
"H  c #9E1425",
"J  c #AF1C34",
"K  c #B7213B",
"L  c #AA2C3E",
"P  c #96353E",
"I  c #C61E3E",
"U  c #C4223F",
"Y  c #824E1E",
"T  c #83501F",
"R  c #855120",
"E  c #81532E",
"W  c #825632",
"Q  c #835B39",
"!  c #8A613E",
"~  c #BB364E",
"^  c #C61F41",
"/  c #C62240",
"(  c #C82241",
")  c #C62C44",
"_  c #C73743",
"`  c #965C4D",
"'  c #B94E59",
"]  c #8C6545",
"[  c #956D4D",
"{  c #916E58",
"}  c #A37857",
"|  c #A2744C",
" . c #9C7C67",
".. c #8F7B7B",
"X. c #A57C62",
"o. c #AE6969",
"O. c #A95B6A",
"+. c #CC4F46",
"@. c #CA6444",
"#. c #CF7541",
"$. c #CA6763",
"%. c #6D8779",
"&. c #DFDA3F",
"*. c #9A8B70",
"=. c #AA8162",
"-. c #A7846D",
";. c #B4886B",
":. c #AE8B73",
">. c #B38E73",
",. c #BC9277",
"<. c #B1986A",
"1. c #BDB06E",
"2. c #D59144",
"3. c #DBB844",
"4. c #D9A647",
"5. c #C49A7C",
"6. c #C5967A",
"7. c #CB8A76",
"8. c #B4C37E",
"9. c #DCDE4C",
"0. c #CEDE55",
"q. c #D5DD52",
"w. c #D8DE55",
"e. c #DCC844",
"r. c #E4DE44",
"t. c #E1DA48",
"y. c #E1CE46",
"u. c #E5E244",
"i. c #E1E14A",
"p. c #DDE14F",
"a. c #7F5E83",
"s. c #7B739E",
"d. c #6D6989",
"f. c #7C78A2",
"g. c #847BAD",
"h. c #8579A4",
"j. c #867DB0",
"k. c #826E9A",
"l. c #7FB69F",
"z. c #7C83AD",
"x. c #778AB2",
"c. c #6B98B0",
"v. c #6DA8B3",
"b. c #679B9E",
"n. c #7AD09B",
"m. c #58D1B9",
"M. c #5CCFB6",
"N. c #61D0B2",
"B. c #79D0AD",
"V. c #53B4C2",
"C. c #51B6C4",
"Z. c #62B8C0",
"A. c #3FCECF",
"S. c #38C7CB",
"D. c #3DCFD0",
"F. c #41CDCC",
"G. c #48C6C9",
"H. c #48D0CC",
"J. c #52D2CD",
"K. c #5EECD8",
"L. c #7AF3C6",
"P. c #68F3D7",
"I. c #73EECD",
"U. c #73CEDC",
"Y. c #909387",
"T. c #B4978C",
"R. c #8F87A5",
"E. c #93A7A3",
"W. c #BFAEA3",
"Q. c #BDAF87",
"!. c #C59D81",
"~. c #C99E83",
"^. c #CBA184",
"/. c #CBA68E",
"(. c #D1A486",
"). c #D5A98B",
"_. c #DAAD8D",
"`. c #D3A689",
"'. c #CCA992",
"]. c #C3AA9A",
"[. c #C5A693",
"{. c #D4AC91",
"}. c #DAAE91",
"|. c #DDB192",
" X c #D3B098",
".X c #E3B493",
"XX c #E8B796",
"oX c #EAB897",
"OX c #ECBA99",
"+X c #E7B896",
"@X c #F2BE9B",
"#X c #E5B68E",
"$X c #C4B4A9",
"%X c #C6BBB5",
"&X c #C1AEA3",
"*X c #83D693",
"=X c #8CD294",
"-X c #ABD295",
";X c #A8F191",
":X c #85DBBA",
">X c #90D3B0",
",X c #9BE8A1",
"<X c #8CECBC",
"1X c #F7C29F",
"2X c #F8C39F",
"3X c #CBC2BD",
"4X c #F9C4A1",
"5X c #F8C5A1",
"6X c #EBCDB7",
"7X c #8CBAD0",
"8X c #ACABD3",
"9X c #83DACB",
"0X c #ABC5DD",
"qX c #82EDCC",
"wX c #CDC6C3",
"eX c #D2CCC8",
"rX c #D6D0CB",
"tX c #DAD7D5",
"yX c #CECED0",
"uX c #E2DFDF",
"iX c #E3E1DE",
"pX c #ECEDED",
"aX c #E6E5E5",
"sX c #F3F4F4",
"dX c #FFFFFF",
"fX c #F7F8F9",
/* pixels */
"X X     o       o X               X   X             . @ $ 1 1 1 3 1 : - $ @ . X X                                               ",
"X       o .                           X         . ; s z x x x T Y Y x x x z a i ; X     = % o                     X X     X X   ",
"    X & o           X                       . ; a x T T T T T T T T T T T T T T x a 1 X 2 0 =                     X X     = &   ",
"    X % o o .       + o                 X ; a x T T T T T T T T T T T T T T T T T T x z 3 & X                     X X X     X o ",
"  X       o .       o X               ; d x T T T T R b T T T T T T T T T T T T T T T T T a $             +               X X   ",
"X o                 o o X         X i x T T T T T T Y R T T T T Y T T T T T T T T T T T T T z ;           =                     ",
"          o       X X o X       $ a T T T T T T T Y Y x x b m E W E m b x x x T T T T T T T T x 1                               ",
"        . # o       o X X X X o f T T T T T T T Y b W | ;.^..X.X+X+X.X).5.=.! m x x T T T T T T x 3                             ",
"                    o % X     3 T T T T T T x b ] ,..X1X4X2X2X2X2X2X2X2X4X4X@X).=.W x Y T T T T R x - X                         ",
"                  X X o     # c T T T T T x ! 5.1X4X2X1X2X2X2X1X2X2X2X2X1X1X5X4X2X.X=.m x x T T R R c $                         ",
"              X   X o   X X i T T T T T n =.1X5X1X1X1X1X2X1X1X1X1X1X2X2X1X1XXXXXOX1X2X).] x Y T T T R a # +                     ",
"              X   X   o & $ c T T T x m 5.+X).^.^.!.^._.1X1X1X1X2X1X1X2X2XXX5.^.!.5.^._.|.} n T T T R R s X                     ",
"        X o X         = 7 j T T T x W `.|.^.|.OX1X1X@X1X1X1X1X1X1X1X1X1X2X1X2X2X2X@XXX).^..X=.n T R R R x -                     ",
"  X     X X           X % a T T Y M (.4X1XOXXX|..X+X1X4X1X1X1X1X1X1X1X1X1X2X2X2X@X@X2X4X2X@X1XX.x x R x T f @ X                 ",
"                    X o ; x T T n 5.4XXX/.&X3XeX3X%X[.}.1X1X1X1X2X1X1X2X2X.X/.].&X&X].{.OX4X4X@X[ x R R Y Y ;                   ",
"                      X i T T x =.4X}.W.iXdXdXdXdXdXpX3X[.1X2X1X1X1X2X@X/.%XiXsXfXfXsXtXW.).1X4X.XQ x x Y Y s                   ",
"                  X o o f R x Q OX|.$XfXdXdXdXdXdXdXdXdXrX[.1X1X1X1XOX[.tXdXdXdXdXdXdXdXfX3X'.1X5X,.n T T T d .                 ",
"                      , Y T n 6.1X].sXdXdXdXdXdXdXdXdXdXdXwX_.2X1X2X/.tXdXdXdXdXdXdXdXdXdXdX%X|.4X1X[ x T T c o                 ",
"                      1 T Y ] @X{.tXdXdXdXdXdXdXdXdXdXdXdXsX].1X4X+X$XdXdXdXdXdXdXdXdXdXdXdXsX].1X2X5.b T T x @                 ",
"            .     X   3 T x ,.2X].pXdXdXdXdXaXpXdXdXdXdXdXdX%X.X4X).tXdXdXdXdXdXpXyXfXdXdXdXdXeX|.2X1X! x T x ;                 ",
"                X X X 3 Y W .X1X&XdXdXdXdXfXY.Y.dXdXdXdXdXdXrX|.4X[.pXdXdXdXdXdXtXD uXdXdXdXdXtX{.2X5X;.x x T i                 ",
"                      3 Y [ @X@X&XfXdXdXdXdXaXaXdXdXdXdXdXdXrX}.4X].sXdXdXdXdXdXfXpXfXdXdXdXdXtX'.2X2X).b T x z .   X o         ",
"              X   X   i x ;.4X2X].sXdXdXdXdXdXdXdXdXdXdXdXdX%X.X2X].pXdXdXdXdXdXdXdXdXdXdXdXdXtX{.2X2XOX! x T x ;   X X         ",
"                  . . a b 5.4X2X_.tXdXdXdXdXdXdXdXdXdXdXdXsX].@X2X).tXdXdXdXdXdXdXdXdXdXdXdXdX%X#X2X2X2X[ x T T - o             ",
"  .       X     X   + z m ).2X2XOXW.sXdXdXdXdXdXdXdXdXdXdXwX{.4X2XOX&XfXdXdXdXdXdXdXdXdXdXdXpX[.1X2X2X5X=.x T x -   X     o X   ",
"                    @ z M .X2X2X2X}.%XfXdXdXdXdXdXdXdXdXtX[.4X4X2X2X).wXdXdXdXdXdXdXdXdXdXsX$X.X2X2X2X5X;.x T z @ X o   + o     ",
"            X     o & c W +X2X2X@X4X{.$XaXdXdXdXdXdXsXwX[.@X4X.X@X2X2X/.wXsXdXdXdXdXdXdXsX$X{.4X1X1X1X2X;.x T 1     X   o X     ",
"  X X             o o z M .X2X2X4X1X4XXX[.$XeXtXrX%X]._.@X4X~.~.@X2X2X1X}.W.rXaXsXsXiX3X[.|.4X5X1X2X2X2X>.x c o     o X   o     ",
"  # %               = s M .X5X2X4X@X1X4X@XOX|.}.|.XX@X4X4X|.).4X4X4X4X@X1X@X}.'.[.].{.|.1X2X2X1X1X2X1X2X;.c 1                   ",
"                  o   1 N ).2X2X4X4X1X1X1X4X4X4X2X4X1X1X2X|.).@XXX(..X4X@X4X4X2X2X2X2X2X1X1X1X1X1X1X2X2X} s o X             + o ",
"                  o   v >.`.2X2X1X1X1X1X1X1X4X1X1X1X1X1X2X2X).(.(.XX4X1X@X4X@X4X1X1X1X1X1X1X1X1X1X1X2X1X=.j                 o o ",
"            X       9 #XOX5.2X2X1X1X1X1X1X1X1X1X1X1X1X4X4X4X2X@X@X2X4X4X4X4X@X4X1X1X1X1X1X1X1X1X1X1X1X+X5.{.9   X           o o ",
"o                   { 5X5X,.1X2X1X2X1X1X2X1X1X2X4X4X2X#X6.;.1.*.Y.Y.T.!.|.@X4X2X1X1X1X1X1X1X1X1X1X1X4X).).4X-.o   X .       X X ",
"                o o -.5X5X^._.5X1X1X1X1X1X1X1X2X4X_.} P K @.&.*XS.c.s.V g [ ).4X1X1X1X1X1X1X1X1X1X1X1X!.+X4X).*   X         X X ",
"                o   { 1X5X.X5.2X1X1X2X1X1X1X2X2X7.k w H U 2.u.*XF.c.j.k.t w k 6.4X4X1X1X4X1X1X1X1X1XXX!.2X2X!.#         X X o & ",
"                    8 ).5X2X5.+X2X1X1X1X1X1X2X6.y w F U U 2.u.*XA.V.g.k.g r r k _.4X1X4X1X1X1X1X1X4X~._.2X2XA           X o o o ",
"                      9 :.).>.>.2X2X2X2X1X4X.Xl w r F U ) 4.u.*XD.C.g.g.l r t w o.4X4X@X4X1X2X4X4XXX,.OXOX .&         X X X o   ",
"                    o   o * # 9 |.2X2X2X5X4X,.e w r H / _ e.u.*XD.C.f.j.Z t r w ` 4X4X4X@X1X1X4X4X .8 v j o         X X   X   X ",
"          o o       o o     X X C 1X2X1X1X4X,.e r r J U +.y.u.n.D.C.z.g.a.u r w | 4X1X1X4X4X4X4X).7                           o ",
"          o %   o o o =   o 2 & % -.5X1X1X2X#Xk w F K ^ +.r.u.n.D.F.x.g.h.g w y (.4X4X1X4X@X4XOXv             X = X           o ",
"                  X o X   o 9 2 X * >.2X2X2X4X6.y F U U #.r.i.n.D.F.x.j.R.l y X.4X@X4X4X4X4XOXC                             o o ",
"                  X X   o o o o     2 >.2X2X1X2X5.L ~ O.1.r.i.n.F.J.>XE.s.A ,.5X4X5X4X@X4XOXC o           o                 o o ",
"= X               X X   X o o         & -.2X2X2X1X$.O.E.-Xt.t.n.J.P.;X>XS %.1X4X@X4X4X4X_.v X         o o                 X o o ",
"o               X X     o   o X         o C _.5X+Xo.O.E.-Xw.;XI.K.P.B.R.*.1.#X5X4X4X4X:.8                                   o X ",
"  o o           X X       X X X             8  .7.) Y.7X0X>X<XU.U.P.Z.j.:.| | |.4X~.C +           o o       o o                 ",
"  o         X X X         X X X   X X         X k ' l.0X0XU.I.7X9XP.J.f.X. X X:.C &               o                       o o   ",
"                X   X X             X X       . V Y.>X9X9X;X;XL.K.K.C.z.T.6X6XA                   = o       o   o         o o   ",
"              X X X o X X           X X       $ b.b.B.:X,X;X8.L.P.I.J.x.Q.T.T.*.o                   o   o                       ",
"            o       o                         q *.l.:X9X:XL.,X-XP.P.J.x.T.h.f...C o   = %               o o           o   o     ",
"                                              h ' Y.,X<X<XqXL.<XqXI.F.c.T.g.g.d.A #   = %                                     o ",
"                              o       o     o G ( ) ' 8.;X,X,XL.K.m.F.v.R.j.j.d.% O O                 o     o           o   = o ",
"  o                                 X =     > K ( ( ) 3.i.9.9.N.D.S.F.v.j.h.j.s.4                     o     o o     o         o ",
"                      o     o               q / ( ( +.e.r.r.9.N.D.F.A.V.j.j.f.j.B                     o   =         o = o       ",
"                        o   o             X h / ( ^ +.t.r.r.9.M.A.A.A.C.f.g.j.j.S       o #               = o           o o =   ",
"                                X         o G / / ^ @.u.r.r.9.N.A.F.F.m.z.g.g.g.d.o     o o                                     ",
"                  o           = o         > K / / / #.u.r.r.q.M.A.F.A.S.x.g.g.g.s.4                       o X               o   ",
"                              o o         q / / / / 2.u.r.r.w.m.F.F.F.F.x.g.g.g.g.B         = o                             o o ",
"  o                             o o       h ( / / ) 4.u.r.r.q.m.F.F.F.F.c.g.g.g.g.S                   = o                     o ",
"o                             = o O     o G ^ / / ) 3.u.r.r.q.m.A.F.F.F.c.g.g.g.j.d.=                   X             o         ",
"                              o       o < K ^ / ^ +.y.r.r.r.0.m.A.F.F.F.C.g.g.g.j.s.5                 o       X       o         ",
"    o                                   q / / / ^ +.y.r.u.r.0.m.F.F.F.A.C.f.j.j.g.g.B   o                     X               = ",
"  o o = o           = =         O o     g / / / ^ @.r.u.r.r.0.m.F.F.F.F.C.z.g.g.g.j.S             o                         X = ",
"      o   o         o o               + G ) / / ^ #.u.r.r.r.0.m.F.F.F.F.C.x.g.g.g.j.d.=           o X       X X                 ",
"          o o                         > K ( / / / 2.u.r.i.i.0.m.A.F.F.A.A.x.g.g.g.j.s.4                     = =                 "
};
