/* XPM */
static char *frame_007[] = {
/* columns rows colors chars-per-pixel */
"64 64 233 2 ",
"   c #050505",
".  c #090707",
"X  c #080807",
"o  c #0A0A09",
"O  c #0B0709",
"+  c #110D0E",
"@  c #11100F",
"#  c #131312",
"$  c #1B1B1B",
"%  c #171A1B",
"&  c #110D10",
"*  c #27171D",
"=  c #240C1F",
"-  c #21201E",
";  c #35321F",
":  c #1B1D26",
">  c #371527",
",  c #1A2227",
"<  c #152A30",
"1  c #222324",
"2  c #26292B",
"3  c #2A2B2D",
"4  c #262726",
"5  c #2B2E32",
"6  c #272D32",
"7  c #2D3237",
"8  c #31363A",
"9  c #33393F",
"0  c #383838",
"q  c #382C28",
"w  c #76133A",
"e  c #512B31",
"r  c #6A2A29",
"t  c #772E34",
"y  c #71372E",
"u  c #552028",
"i  c #315015",
"p  c #2D5A1E",
"a  c #7A4628",
"s  c #7C4332",
"d  c #5E6232",
"f  c #4E4A27",
"g  c #063B5F",
"h  c #093D5F",
"j  c #383C42",
"k  c #1D1F64",
"l  c #391275",
"z  c #073C60",
"x  c #083D60",
"c  c #103D6F",
"v  c #6F134D",
"b  c #703155",
"n  c #58146B",
"m  c #551171",
"M  c #4F1275",
"N  c #75286A",
"B  c #5E2358",
"V  c #1A415A",
"C  c #184B46",
"Z  c #3B444B",
"A  c #394146",
"S  c #3E4A53",
"D  c #3B4B57",
"F  c #3A535E",
"G  c #0D4164",
"H  c #124466",
"J  c #144668",
"K  c #17486A",
"L  c #1B4C6C",
"P  c #1B4766",
"I  c #11506D",
"U  c #214F6E",
"Y  c #25516F",
"T  c #2B536D",
"R  c #3C596C",
"E  c #39566A",
"W  c #245372",
"Q  c #2A5572",
"!  c #2A5978",
"~  c #355971",
"^  c #3B5B71",
"/  c #325E7B",
"(  c #315771",
")  c #204F70",
"_  c #35617D",
"`  c #3A637E",
"'  c #257768",
"]  c #444B52",
"[  c #45535C",
"{  c #505052",
"}  c #734D50",
"|  c #586F47",
" . c #787A53",
".. c #697150",
"X. c #455866",
"o. c #525965",
"O. c #484A78",
"+. c #556469",
"@. c #5B6A79",
"#. c #496C7A",
"$. c #707475",
"%. c #97191B",
"&. c #9C0B1D",
"*. c #A70C18",
"=. c #A91119",
"-. c #B21318",
";. c #980B27",
":. c #9A142A",
">. c #861935",
",. c #8C0F2F",
"<. c #A20D25",
"1. c #8D2C2E",
"2. c #B82E31",
"3. c #BE3232",
"4. c #B73B36",
"5. c #A82831",
"6. c #8C201A",
"7. c #C2312F",
"8. c #C03230",
"9. c #C53639",
"0. c #9B5A3E",
"q. c #B14238",
"w. c #AC493C",
"e. c #9B2D4D",
"r. c #8F2C5E",
"t. c #923156",
"y. c #892C63",
"u. c #883A62",
"i. c #A12D4A",
"p. c #8A4849",
"a. c #95524C",
"s. c #A55241",
"d. c #88754E",
"f. c #837B51",
"g. c #94684B",
"h. c #985165",
"j. c #827470",
"k. c #B5796C",
"l. c #3FA04D",
"z. c #7C8453",
"x. c #7E8659",
"c. c #7E8E63",
"v. c #7FA17F",
"b. c #4F984E",
"n. c #38C154",
"m. c #87876F",
"M. c #80A27E",
"N. c #9D8266",
"B. c #151D8E",
"V. c #162991",
"C. c #191EBA",
"Z. c #171EBC",
"A. c #2A1EA6",
"S. c #1E21B6",
"D. c #1A21BA",
"F. c #1B28BC",
"G. c #1D32BB",
"H. c #2122B3",
"J. c #212FB6",
"K. c #4D168B",
"L. c #3C6682",
"P. c #3A6986",
"I. c #377390",
"U. c #1F40BA",
"Y. c #234CBB",
"T. c #2A7CBC",
"R. c #2865BB",
"E. c #45728C",
"W. c #4B7595",
"Q. c #547D9C",
"!. c #466C8A",
"~. c #677787",
"^. c #646A89",
"/. c #59609C",
"(. c #1F25C0",
"). c #369A8A",
"_. c #2F90BC",
"`. c #34B5BC",
"'. c #30AB97",
"]. c #55829C",
"[. c #4A8E8B",
"{. c #6E8294",
"}. c #72889D",
"|. c #7A9984",
" X c #5A83A2",
".X c #5F94A5",
"XX c #638AA8",
"oX c #768DA4",
"OX c #7895AD",
"+X c #6A95B7",
"@X c #789BBA",
"#X c #638FB0",
"$X c #7EA2BF",
"%X c #69A2B1",
"&X c #48A29B",
"*X c #39C9B8",
"=X c #3ADDBE",
"-X c #39D5BD",
";X c #34C3AA",
":X c #3AE0BE",
">X c #37E1BD",
",X c #47C4B0",
"<X c #3797C0",
"1X c #36ACC0",
"2X c #6E96C7",
"3X c #7DA5C8",
"4X c #7DAAD1",
"5X c #7CAFE0",
"6X c #7DB1E2",
"7X c #3CDEC1",
"8X c #3AE0C1",
"9X c #4CE3C9",
"0X c #68E5D7",
"qX c #9D988F",
"wX c #B6AA9B",
"eX c #89B2AA",
"rX c #85AACC",
"tX c #84A6C5",
"yX c #84AED3",
"uX c #86B3DC",
"iX c #88B3DB",
"pX c #93B8D8",
"aX c #83B4E3",
"sX c #87B9E7",
"dX c #8CD5DD",
"fX c #89D1C9",
"gX c #88E8DE",
"hX c #8BFDFA",
"jX c #87F9F2",
"kX c #93FEFB",
"lX c #96F4F3",
"zX c #96E7E9",
"xX c #90DCE1",
/* pixels */
"      X X   X                   X     X           . % j +.~.}.}.oX{.~.@.o.A 1 o             X X     X       X O X   X X X X X X ",
"  X X       X X   X                 @ # X X     3 @.@XyXuX6XaX6XaXaXaXaXaXuXtX}.o.2       X     X   X   X X X X X     o         ",
"X o $   X   X X                   X - e @   - @.rXuX6X5X5X5X5X5X4X5X5X5X5X5X5XaXaXrX~.8 O       X       X X X         X # #     ",
"X X   X X X o X   X           o   X o # 6 @.$XaX6X5X5X5X5X5X5X5X6X6X5X5X5X5X5X5X5X5XaXiX{.5       X   X X o X     X o X o o     ",
"X X X X             & o   X X X     % @.rXaX6X5X6X5X5X5X5X5X6X6X5X5X5X5X5X5X5X5X5X5X5X5XaXrX[ O         X O X X     o . X   X o ",
"X   X X X     X X   o o   O X     3 oXaX6X5X5X5X5X5X5X6X5X5X6X6X6X5X5X5X5X5X5X5X5X5X5X5X5XaXiX@.#       X X X   o   .   X   X o ",
"    X                     X   o ] tX6X5X4X6X5X5X5X6X6XuXaXuX4X4X4X4X4XuXuXaX6X5X5X5X5X5X5X4X5XaX{.:     X o X X     . .     . . ",
"  X     X                     ] iX6X6X5X5X6X6X6XuXuX4X#XW./ W L K K ) Q P. X+XuXsX6X5X5X5X6X5X5XaXoX$   X o X X     @ @     .   ",
"                    X X X   & OXaX5X5X5X5X5X6XuX+X!.K h g h h z z z z z g g G Q  X4XaX6X5X5X5X5X5XaX~.o o @ o                   ",
"                      o X   ] aX5X5X5X5X6XaX2XL.G g h h h z z z z z z z G g g g g K ].yXaX5X5X5X5X6XiXo.o o   X   o     o   o   ",
"                    o #   % OX5X5X5X4X6XuXQ.H z G z G h z z x x z x z z G g K L J z g Q @XaX5XuX5X5X6XrXA . o         o o       ",
"                    X     { aX5X5X6X6XyXP.K W / _ _ _ W z z x x x z x z g P ` _ L.P._ W U  XaXaX5X5X5XaX@X-   . o               ",
"                        O }.6X5X6XaX3X! ) _ ) G G z G z z x z x x z z x x x g g g x K Q / Y Q.aX5X5X5X5XsX~.o . o   o o     o   ",
"          X X           2 rX6X5X6XrX! g z H K L L K z h z z x x z x z z x z g G H G x g x x x  XaX6X5X5X6XyX7         o         ",
"                        o.aX5X5XiXP.g K ~ F 9 7 j Z R Y z z x x x x z z z K ( E F F E Q K z z x +XuX5X5X5X6X~.o                 ",
"                      o oXaX5XaX].h Y F *           # j ^ H z x x z z H ^ S * o   X + 4 X.T x g L 3X6X5X5X6XOX%       o       o ",
"    X     X           6 yX6X6X3XH Y S X                 2 R x z h g G R 1               X 9 ~ h g P.uX5X5X5XyX1       X       X ",
"o                     o.aX6XaXP.G E X                     9 Y z z g ~ 2                     A Y G G +XaX5X5XuX7           X     ",
"X                 X X ~.6X6X$XG T 3                       X E z g K S                       X E G g ` uX6X6XaXZ       X     X   ",
"              X X   o {.6XsXE.z E +         $ o             Z K g ( :           o 3           9 K g G 3XaX4XsX+.          X     ",
"  X X     X X       o }.6X4XK G D           $.$.            7 L g E #           3 qX$         1 T g g W.aX5X6XoX@         .   . ",
"  X   X X o         @ oXsX#XG G F           $ $             6 W z R X             #           $ ( g g ! uX6X6XyX3           .   ",
".       X o X X     @ oXsXQ.g G E O                         A K g E %                         2 Q g G G 3X6X5XuXX.    .     .   ",
". .   X X X o o     - 3XuX_ g g ( 2                         X.G g Y 2                         j L g g G +X6X5XaX@..     . .   . ",
"    . .   o         7 uXiXW G g J [ X                     7 Q z x H [                       % R x z z g Q.aX5XaX@.o .         X ",
".   . @   o o   o   Z iX4XL G g g Y A                   2 R z h x z Q j                     D L x x x g W.aX5XuXA .       X     ",
"  .   o     o o .   A iX4XP g G z z Q S %             8 ^ G G L G x z ~ 0 X             o D Y x x x x g W.sXaXoX@     .       X ",
"    X o   o       . 5 yX4XK g g z z z L ( S 7 2 2 A E W z z / / G x z z Q F 6 % o o $ j X.L x z x x x z !.sXiXj     .     X o   ",
"  X o               % $X4X) g g z z x z z J U Y U K G h h L Q g h z x x z H Y ~ E E T U x z x x x z x g Q.sX~.o   X X   X o % X ",
"X o o                 ~.pX! g g x z x x z h h h g g x x g W Q G K / L z z z g g x x z z x x x x x x h g .XrX8               X   ",
"  o o   o       X   @ +.W.! G G x x x x z x x x z z z x z z Q / / K z z z x z z x x x x x x x z x x z h XX$.% X   X   X   X     ",
"o o           o o . S L H ` g g x x z x x x x x z z x z g g G G z z g g h x x z x x x x x x x x x x x P ` U S X       X       X ",
"o o X       o X   % R z G L.G g g G g G g g g h g g g J P.I./.^.j.@.#.^ Y h g h g g G G g g g g G g g W ! g ~ $   X         X   ",
"X o X X X   X X   $ ~ g g _ Y g g g g h z G z h g U #X0X9X<X(.y.9.g.m.eXgX%XQ g g G g g G g G g g g G ` K g Y 7     X   X     X ",
"o # X     X       # R G g L ` g G g g g G g g g !.dXkX0X=XT.C.N 7.g.m.M.lXkXdXI.g g g g g g g g g G H L.G z Q 3   X X     X   X ",
"X o X X X     X     A T g h L.H g g G z h g g !.zXkX0X7X7XR.C.N 7.s.z.x.gXhXkXdX) g G g g G G g g g _ W z G X.#       X X   X   ",
"X X   X X X         @ S ( U #.!.g g g G z z K dXhXhX0X9X*XY.C.N 7.w.z.z.fXjXjXkX].g G G x z x z g K E.H P R 5         X     X   ",
"# X o X   X X       . O , 7 2 ] ) g g g z g P.lXhXhX0X8X7XG.C.y.3.q. .z.eXjXhXkX%Xg g g x x x z G ^ [ F S 4 X X X X   X   X     ",
"- X X     X   X X   . .       # R G g G z g E.lXhXkX9X8X`.G.C.y.7.q.m.z.M.jXhXkX.Xg x z x x z z Y A   o   o o X   X o X X       ",
"o   X     X   X o               2 ~ G g z z ) dXkX0X9X8X`.F.D.y.7.3.d.z.x.gXhXzX_ h x x x x z L [ ; #   X o o X X X # X   X     ",
"X o X   X X   X X   X   X     X   8 ~ G G g g P.zX0X9X8X<X(.C.r.3.3.d.z.x.fXlX[.h h g h g g J X., ; $ X X X o X X X   X         ",
"@ o         X     X X X   X   X . . 9 ~ G g g G P.,X8X8X_.Z.S.y.7.3.g.z.z.|.I.G g h z h g J X.$   o o o X X X         X   X   X ",
"@ o o o       X X   X X o X     .   . 7 ^ G g g G '.>X=XR.Z.C.y.7.7.0.z.z.| C G x x h z U X.$     X   o X   o X     X   o     o ",
"X o o   X X       X   X X X   X .       4 X.Y g I ;X=X-XU.Z.D.r.3.7.0.z.z...G G x z G ^ S @     X X X X X   X X X X             ",
"  X           X X X X   o   o o         . # Z R I.=X=X-XU.C.C.r.7.3.w.z.z.z.F G G Q X.6 X       X X X X X     X X     X   o &   ",
"  X o X   X           X             o   .     $ ).8X>X`.G.C.H.r.7.3.q.z.z.z.+.~ X.8 o   X X X     X X X   X X X   X         o   ",
"  X o o       X X X o     X o o   o           o ).8X=X`.F.D.S.r.7.3.4.f.z.z...3 o     X   X   X   X   X X o   X X     X         ",
"        X X   X X       X X o                 < ;X7X:X_.D.D.C.t.7.3.4.d.z.z. .#         X X X     X     X X o X X X X   X X   X ",
"X X X X X X       X o       o o       X $ X   C -X=X=XT.Z.D.S.e.7.3.3.g.z.z.z.0   X       X X       X                   O X X   ",
"o X   X X     X       o         X   X X $     ' =X=X=XR.Z.D.S.t.3.3.3.g.z.z.z.f X X X   X     X X   X   X         O     X X   X ",
"X o X X X X       o     X X     X           o '.8X>X-XY.Z.D.H.e.3.3.7.a.z.z.x.| - j 0 3   o X   X X     X             o X   X   ",
"X X X   X o O X X O     X &   o     X X   O $ &X*X>X*XU.Z.(.H.e.3.7.2.a. .} N } 4 { j ] o o     X   X X   X   X o         X X   ",
"X X X X & o X     X o o   X           O e h.e 0...*X`.G.D.D.H.e.7.2.:.:.B m m B e m.o.m.#         X X   X X                 X   ",
"X X o o X X     X X & &   X X       O * h.N.p.y t [.`.S.D.D.A.i.8.5.&.=.v n m n 0 m.j.qXe         X X X X X X       O   X   X   ",
"X X X   X   X X         X       + * & @ v u.N O.[.,X_.S.D.D.H.e.2.;.%.,.n n m b } j.wXwX+..     X X X       X X o       X       ",
"X X X X X X       X         X   = b >   O q b.&X`.:X_.C.A.v w ;.&.;.,.,.b o.}  .z.j.}././.%     o X X X   X X o               X ",
"o O   X o     o   X   X X X   X O > o   > y a s s [.R.C.M &.*.-.=.*.*.&.s z.z.z. .O.B.B.B.k O   &     X       X                 ",
"X   X                 X o o           e k.g.a r r a B A.m %.*.=.-.-.*.&.} z.z.z. .L.V.Q.2X2XX.&         X X       o   o o     o ",
"X   X           X   X X o   X       O } k.t e ; f y t b >.*.6.d a &.;.,.} z.z.z.z.^.2X6X5X6X6X!.& o X       X     o     o   o   ",
"X     X o & O   X         O         & h.h.u p p i r 1.1.:.%.b.n.l.6.&.w p.z.z.z.x.$X2XP.P.W.W.Q.< X     X               o   o   ",
"O o X X         X   X X   o     O   > h.u.r i i i r >.>.;.;.{ b.| %.*.w p.z.z.z.c.$XQ V V h h L ,       X X   X       X     o   ",
"& o   X             X &       o O & > y.v y y u u 6.>.v ,.;.,.y 6.*.&.5.q.f.z.z.c.#XP % * h % : %   X   X & X     X     &   & o ",
"      X   X     X X         o & e } b y.r v 1.1.,.v m K.K.v ,.;.<.;.;.5.4.d.z.z.z.~.h < < V , j ,       O &     X   & X X   X X ",
"  X         X X X #     O O O e k.k.h.b t y 1.1.:.n K.l l m ,.:.<.;.=.:.5.d.z.z. .^.c V U ! J L : X   X               X   X     "
};
