/* XPM */
static char *frame_005[] = {
/* columns rows colors chars-per-pixel */
"64 64 232 2 ",
"   c #050505",
".  c #080706",
"X  c #080807",
"o  c #0A0A09",
"O  c #090709",
"+  c #110E0E",
"@  c #1A0D0F",
"#  c #11100F",
"$  c #180A13",
"%  c #0A1514",
"&  c #131312",
"*  c #1A1B1B",
"=  c #1A1817",
"-  c #25181B",
";  c #2B2B1D",
":  c #1D1F22",
">  c #351526",
",  c #122F30",
"<  c #222324",
"1  c #26282A",
"2  c #292C2D",
"3  c #272828",
"4  c #2A2D31",
"5  c #2D3235",
"6  c #2E363C",
"7  c #343739",
"8  c #382F26",
"9  c #413D1A",
"0  c #7A0D39",
"q  c #4E2B2C",
"w  c #74332E",
"e  c #2F5516",
"r  c #774E39",
"t  c #53532F",
"y  c #063B5F",
"u  c #093C5F",
"i  c #15374C",
"p  c #353C42",
"a  c #383F41",
"s  c #073C60",
"d  c #083D60",
"f  c #1A3C7B",
"g  c #690F49",
"h  c #6A1747",
"j  c #72114D",
"k  c #74394A",
"l  c #783654",
"z  c #72294E",
"x  c #561373",
"c  c #521373",
"v  c #641964",
"b  c #5E2645",
"n  c #1B5653",
"m  c #3B444B",
"M  c #384248",
"N  c #3C4A54",
"B  c #3B4A56",
"V  c #3D505C",
"C  c #265557",
"Z  c #0D4164",
"A  c #124466",
"S  c #154768",
"D  c #17496A",
"F  c #1B4B6B",
"G  c #11556C",
"H  c #214F6E",
"J  c #224961",
"K  c #24506E",
"L  c #2D546F",
"P  c #3D5464",
"I  c #3B5A6D",
"U  c #38566C",
"Y  c #235372",
"T  c #2B5572",
"R  c #2B5977",
"E  c #2D5A79",
"W  c #265877",
"Q  c #335770",
"!  c #355971",
"~  c #315E7B",
"^  c #3B5A70",
"/  c #35637E",
"(  c #247F72",
")  c #434B53",
"_  c #404F5A",
"`  c #45525B",
"'  c #535751",
"]  c #774947",
"[  c #70504E",
"{  c #546552",
"}  c #77664D",
"|  c #777B54",
" . c #6A7048",
".. c #425969",
"X. c #455764",
"o. c #505B65",
"O. c #58626D",
"+. c #5D6A77",
"@. c #4F697A",
"#. c #616E7A",
"$. c #796F79",
"%. c #990F1E",
"&. c #A40D1B",
"*. c #A8161B",
"=. c #96221E",
"-. c #990B27",
";. c #8A0C35",
":. c #861634",
">. c #93102D",
",. c #882D31",
"<. c #AB2836",
"1. c #B52F38",
"2. c #BE3232",
"3. c #B93B36",
"4. c #AF232F",
"5. c #C03130",
"6. c #AC493C",
"7. c #B64139",
"8. c #89423D",
"9. c #822E4B",
"0. c #AB2E45",
"q. c #A22D4A",
"w. c #A52F4C",
"e. c #901C40",
"r. c #8C4F4D",
"t. c #A25741",
"y. c #8E6A4A",
"u. c #8A744E",
"i. c #847E53",
"p. c #996348",
"a. c #914A67",
"s. c #A2646B",
"d. c #A16353",
"f. c #268575",
"g. c #7C8453",
"h. c #7D875A",
"j. c #7E9169",
"k. c #46A249",
"l. c #88916D",
"z. c #391795",
"x. c #26389B",
"c. c #333798",
"v. c #191EBA",
"b. c #171EBB",
"n. c #261FB1",
"m. c #1721BC",
"M. c #1A22BB",
"N. c #1D2BB9",
"B. c #1D3BBA",
"V. c #2C21AD",
"C. c #2324A9",
"Z. c #3223A7",
"A. c #2837B1",
"S. c #471786",
"D. c #431D92",
"F. c #53238B",
"G. c #2D4D8E",
"H. c #3B6582",
"J. c #396683",
"K. c #3C7487",
"L. c #2A7A88",
"P. c #274EB7",
"I. c #296DBB",
"U. c #1C7680",
"Y. c #406B88",
"T. c #4B7897",
"R. c #4B7190",
"E. c #677889",
"W. c #6E7F90",
"Q. c #506EAE",
"!. c #6467B2",
"~. c #495FB7",
"^. c #3669C0",
"/. c #4862C3",
"(. c #31969D",
"). c #2FB299",
"_. c #3090BA",
"`. c #37B7B8",
"'. c #36ABB3",
"]. c #51879B",
"[. c #6E8191",
"{. c #73889B",
"}. c #6F8C94",
"|. c #43A29C",
" X c #5C87A6",
".X c #5C90A3",
"XX c #638DAD",
"oX c #758CA2",
"OX c #7995AD",
"+X c #6C94B4",
"@X c #6893B5",
"#X c #779AB9",
"$X c #6598AA",
"%X c #72ACB5",
"&X c #54A3B2",
"*X c #36C9AE",
"=X c #38CBB7",
"-X c #3ADDBE",
";X c #39D4BA",
":X c #39E1BE",
">X c #47CFB8",
",X c #69D2BC",
"<X c #7BA5C8",
"1X c #7DAAD1",
"2X c #77B9CE",
"3X c #7CAFE0",
"4X c #7DB1E2",
"5X c #6D8ED1",
"6X c #3BDEC0",
"7X c #3AE2C0",
"8X c #4CDDC6",
"9X c #53E6D0",
"0X c #73F2E7",
"qX c #81A585",
"wX c #8E9EAD",
"eX c #85B5AF",
"rX c #A6AFA9",
"tX c #9ECEBD",
"yX c #82A4C4",
"uX c #83AACD",
"iX c #83A7C8",
"pX c #83AED3",
"aX c #86B3DC",
"sX c #88B1D8",
"dX c #80BFCC",
"fX c #83B5E3",
"gX c #89B8E5",
"hX c #8AD1CF",
"jX c #8CFEFB",
"kX c #89FAF4",
"lX c #96FAF8",
"zX c #93EBEA",
/* pixels */
"      X     X                 O       .     . . . X * 7 ` +.E.W.{.{.{.[.+.) < .     .     . O .   X   X       o       o     o X ",
"  X X   X   X X   X             .   # & X   . : ) E.#XpXfXfXaXfX4XfX4XfXfXaXyXE.p o       .   .     X   O   o o O     o         ",
"X o *   X   X X       O       O . . - 7 # < O.#XaXfXfX3X3X3X3X3X4X3X3X3X3X3X4XfXsXW.6 O   . .                 X   X     & &     ",
"X X X   X X o X   X             . . o < +.yXfX4X4X3X3X3X3X3X3X3X3X3X3X3X3X3X3X3X3XfXuXW.7 o     X X   X   + O       o o # #     ",
"X X X   X       X   + o       X .   5 wXgX4X3X3X1X4X3X3X3X3X3X3X3X3X3X3X3X4X3X3X3X3X3XfXsX[.2       X   X o X   X   o X     . X ",
"    X X X           o o O       O ) iXfX3X1X3X3X4X4X3X3X3X3X3X4X4X3X3X3X1X4X3X3X3X3X3X3X3XfXyX) O     X X X X       X       X o ",
"X     X   X               X   % O.sX4X3X3X3X3X3X3X4X4XfXfXaXpX1X1X1XpXaXfXfX4X3X3X3X3X3X3X3XfXaX+.&     o o X     . X .   .     ",
"  X                       X o +.fX4X3X3X3X3X3X3X4XfX<X XY.E Y D S D Y E Y. X<XfXfX3X3X3X3X3X3X3XgX+.O   X o X X     # #       . ",
"                            _ sX4X3X3X3X3X3XfXsXXX~ S u y y y y s s s s y y A / XXpXfX3X3X3X3X3X4XuX2   o & X   X       X X     ",
"                    o o   4 iX4X3X3X3X3X4XfX@XE d y y u y d d d s s s s d d s y s W XXaX4X3X3X3X3XfXE.  o o X X     X         X ",
"                    o + : OXfX3X3X3X3XfXuXJ.Z d S F F Z d d d u d s s s s d d Z Z d d J.<XfX3X3X3X4XpX7   X X X X             X ",
"                      + E.fX3X3X3X3XfX#XE F ~ H./ ~ / Y d u d d d d d d s D ~ / / E R F W #XfX3X3X3X4X[.# X X X X X   X X X     ",
"                  .   ) sX3X3X3X3XfX+XY ~ E F A d d d d d d u d d s s d d d Z s d Z D E E F +XfX3X4X4XsX7   . X X     #       X ",
"                  . & OXfX3X3X3X4X#XF s d y d d A d d d d d d d d d d d d s Z A F Y F Z d y S #XfX1X3XgX`             o   X     ",
"                    m aX3X3X3X4XuXY y d d T U P V P U H d d d d d d d d s F U B p 5 6 m I H s H <X4X3X4X{.#       X X         X ",
"                    E.fX3X3X3XaXH.y s F X.6 + . . O & p I S y u d s d s T N *           & M ! s J.sX3X3XuX2   X         X X     ",
"        O         X oX4X3X3XfX XZ y F _ #               & X.D u s s s T a                   5 ! d  XfX3XfXO.X X X     X         ",
"X                 # #X4X3X4XpXH y A X.X                   & ..Z s s S _ X                     M F F <XfX4XoXo X X         X   X ",
"O                 * yX4X3XfX Xy y ! <                       2 L y s L <                       o ^ s T.gX3XyX=     X X X         ",
"          X       7 sX3X3XsXR y Z V           < *           X I d d P               *           N S Y aX3XiX<     X             ",
". . .             O.fX3XfX+XZ y D p           $.'             B S A B             7 wX=         p D s @XfXuX3 .       .     .   ",
"  .   . X + .   # OX4X3XfXT.u y F 6           &               m S A B             X -           6 F s R.fXuX<     .       . .   ",
".   .   X o X   2 uX4X4XaX~ y y D M                           V A d P                           N S s W aXpX1   X X   . .     . ",
".     . . . o X m aX3X4X1XF y y Z P                         & U d s ! :                       + X.d s S uXaXa . .     .   .     ",
"    . .     X   M aX4X4X#XA Z y s T 2                       6 K s s F N                       p Y s d Z #XgXo.        X   X     ",
"  . . # X X o   * #X4XfX+XZ y Z Z Z I &                   < I u s s y T a                   4 ^ d d d d @XgX#.    X   X       X ",
".     o   X o     O.fXfX+Xu y Z s s D X.:               1 ..A s d F Z u T B &           X p ! d d d s s @XgX#.      X   o       ",
"  . . o   o X     * #XfX+XZ y y s s s A ! m : & X & < m ! Z s s d R H.S y F U m 5 1 1 M P H d d d d Z d @XgXO.  X           o X ",
"  .   X     X       o.gX#XZ y y s d d s d F L U U U L S y u d d y y F ~ y y d S F T H F d s d d d d s d +XaX)     X   O   o * X ",
". o o     X         & {.uXA Z y s d s d s y y s s s s s d d A E F A F E d d d s s s y y d s d d d d s Z <XwX=   X               ",
"  o X X     X X       ` OXF y y d d s d d s d d s s s s d d d A R ~ E A s d d d d d d d d d d s s d s F R.R.4 X       X   X X   ",
"X X X X X       .   5 Q T R y Z d d d d d d d d s s d d y y y y y Z u y y y s d d s d d d d d d d d s W R d ..%   X     O     X ",
"o o o     X O     o I d D / y d y y y Z Z y y y Z u u y n W @.+.$.$.Q.J.K.K u u d d d d d d d d d d y H.D y L 4         o     X ",
"  o o       O X   = U s d Y.A d y Z y y y y Z y y y S .X2XtXl.i.3.q.n.^.8X8X#X~ d d d d d d d d d d d Y.Z y H 7       X         ",
"o % o     X X     & ^ s u Q R y Z y y y y y y Z y H 2XlXjXeXg.u.2.q.n.P.;X8XkXzX.Xd s d d d d d d d T ! y y L 2   X           X ",
"X +   X O       X O ) F s A H.d Z y Z y y Z u y Z %XlXjXkXqXg.u.2.q.n.B.=X-X0XjXlX$Xd s d d d d d d H.S u D P #   . .   X X     ",
"X X X X X X   X     * ..H Z J.W y y Z y u Z y y E zXjXjXzXj.g.p.5.w.n.N.`.7X9XjXjXlXH.s Z y Z y s Y R.K L ` *     .   .       X ",
"+ X o O X O       X   = M V V @.Z y Z y u u y y R.lXjXjXhXh.g.y.5.w.n.N.'.6X8XjXjXlX$Xd y y y y A X.2 5 2 # . .       .   X     ",
": X     X     X X         X   1 Q Z y u u u u y / lXjXjXeXg.g.6.5.0.V.M._.6X7X0XjXlX&Xy y Z Z y ! 2     . o o .   X # .     X   ",
"o X         X O o X             a L y y u u u u S 2XjXkXj.g.g.6.5.0.V.m.I.7X6X0XjXzXY.y y y y L ) < @ . o o o X X o %   X X     ",
"X o     .     X X   X   X   X   X N K Z y Z y y y T hXzXj.g.g.7.2.0.V.m.P.7X6X9XlX$Xd d Z y H ) & 8 * X   o +         X         ",
"o o . .   . X     X X X   X     . # N L y y Z y Z y W }.h.g.| 3.2.0.V.m.P.;X7X8X].d u d y K _ # X o o o X       X         o     ",
"& o o o   X           o o     X .   o m R Z y y Z y Z X.g.g.l.5.5.0.V.v.B.6X7X*XD s u d R ) +   X . o o     o X   X   X X     % ",
"X o o X       X X   X   X O X       . . 7 I D y Z Z Z { g.g.y.5.5.0.V.M.N.`.6X-XU.s D ..7 X     X X X X X     o X         X   X ",
"        X   X     o   X o   o o X         * V Q S y J | g.g.p.2.5.0.Z.m.M.'.:X6X(.R _ :         X X . X X     o X         X o X ",
"  o o X     X     X X               X   .   . 3 _ I I g.g.g.t.2.5.1.Z.M.m._.:X7X).5 .   . . . . X X X X       o   X   X X   X X ",
"  X o o       X o   o     X o o       . .   .   . * { g.g.g.6.2.5.1.Z.M.b.I.:X6X*X,       . .   X X       o   O O         X     ",
"X       X   X             o o     X             . + t g.g.g.6.2.2.0.Z.M.b.I.-X6X:Xn     . . .         X o o o   o     X       X ",
"    X X X X   O     X X X   X X X     O * O       =  .l.g.g.7.2.5.2.Z.v.n.P.>X>X-X(       X X       X     X X   X       X X   X ",
"o o   X   O X   X   X         O       O = X O + $ 8 } | g.u.3.2.2.<.S.S.z.R.%X>X:X).%           X   X   X       X     X         ",
"X o X X X   X     X X O X X       X           $ r.r.w } g.u.2.2.4.-.g x S.!.hX,X-X*X,   o o   X X X                     X   X   ",
"X X O   X o X X O X X X X X X X   X       + > + b k ] | g.y.4.4.>.-.v c z.!.rXeX-X-Xn   X o         X X X X   X   X X     X X X ",
"X X X X + o X       o o O X     O         $ > $ q r 8.} g.8.&.&.&.%.S.n.v.A.c.c.'.:Xf.        .   X X X X X       X     X X   X ",
"X X o o X X         + o       X     o %       q p.w q w ] ,.%.=.*.%.S.b.M.N.~.5X2X8X).%           X X   X   X       X       X   ",
"X O     X O     X   O         O     O o     $ l ] 9 e w ,.%.r k.,.;.z.M.m./.@XT.].&X*X,         X   X X     X X X     O X       ",
"X O X X X X   O X   X X X X     O O O       $ l z 9 9 w 0 >.r  .=.-.D.M.N.~.F , i C ;Xn   X   X #       X   X o   O X     X   X ",
"X X X   X         X     X X X O   % X   O q l l z ,.:.j x x ;.-.%.>.D.m.M.P.i , i C *Xf.X .   X +   O               O         X ",
"X X X       O   X   X X o o       O X   - s.s.9.w ,.,.v c D.;.&.-.>.z.b.M.C.f / K.G.`.).&   X o X       X X   X   X   X   X O X ",
"O   O   X X   O       X X X O           > a.s.l ,.8.r.j x x v >.-.;.c b.v.x.x.'.=X(.(.=X,   X X o X O           O   X   O     X ",
"        o X     X O     X X X X O       $ z a.z z ,.,.;.;.j c.j -.-.c b.b.G.x._.-X>X( (.C X   X X X       O X         X X X X   ",
"o o X       X O X X O X         X     X % > z h g g 0 0 ;.;.g 0 0 :.S.m.A.G.A._.:X-X(.U.(.X     X   X       X   O     O   X X X ",
"+ o   X X             X   O X X     O       4 [ k h h h g 0 0 ;.>.<.F.b.A.G.C.I.-X6X;X*X).%   o O     O X % X     X   X o o o X ",
"O     X X   X   O X X X     X X X         O t g.g.} [ ] 9.;.<.4.2.2.F.M.M.N.v.P.;X7X-X:X*X,       O       o   X     o X X   X X ",
"    X         X X % X   X   O X     X X X o  .g.g.g.g.| 6.2.2.2.2.1.F.M.M.M.M.B.=X-X-X-X:Xn       X X X     O   X   X X     O X "
};
