/* XPM */
static char *frame_003[] = {
/* columns rows colors chars-per-pixel */
"64 64 219 2 ",
"   c #050505",
".  c #080707",
"X  c #080807",
"o  c #0A0A09",
"O  c #070C0D",
"+  c #100F0D",
"@  c #0C100F",
"#  c #11100F",
"$  c #131312",
"%  c #1B1B1B",
"&  c #191B18",
"*  c #0A1313",
"=  c #201E1A",
"-  c #1F2118",
";  c #22211C",
":  c #1D1E20",
">  c #152924",
",  c #0F2826",
"<  c #222324",
"1  c #26292B",
"2  c #292A2B",
"3  c #2B2E32",
"4  c #252C31",
"5  c #2C3135",
"6  c #2B343C",
"7  c #31363A",
"8  c #33393F",
"9  c #363836",
"0  c #383928",
"q  c #7A163A",
"w  c #7D0935",
"e  c #543C24",
"r  c #782C34",
"t  c #515339",
"y  c #66643E",
"u  c #5D4824",
"i  c #063B5F",
"p  c #093D5F",
"a  c #19354A",
"s  c #373D42",
"d  c #073C60",
"f  c #083D60",
"g  c #5F0F5C",
"h  c #66155E",
"j  c #731343",
"k  c #702C50",
"l  c #56136D",
"z  c #661C61",
"x  c #572E6B",
"c  c #7A286C",
"v  c #1A4F49",
"b  c #3A4146",
"n  c #3B444B",
"m  c #374147",
"M  c #3E4A53",
"N  c #3B4B57",
"B  c #3D515E",
"V  c #0D4164",
"C  c #124566",
"Z  c #144668",
"A  c #17486A",
"S  c #1B4C6C",
"D  c #144861",
"F  c #1C4B76",
"G  c #214F6E",
"H  c #2A4E64",
"J  c #25516F",
"K  c #2C536C",
"L  c #3C596C",
"P  c #39566A",
"I  c #245372",
"U  c #2A5572",
"Y  c #2B5A78",
"T  c #355971",
"R  c #3B5B71",
"E  c #325E7B",
"W  c #315770",
"Q  c #204F70",
"!  c #35617D",
"~  c #3A637E",
"^  c #247B6D",
"/  c #444B52",
"(  c #45535B",
")  c #6C595B",
"_  c #656A46",
"`  c #757A54",
"'  c #6F7A54",
"]  c #455866",
"[  c #505B65",
"{  c #414F7A",
"}  c #46677A",
"|  c #5A6A77",
" . c #51686F",
".. c #7D7A7F",
"X. c #696975",
"o. c #546148",
"O. c #970C28",
"+. c #8F1131",
"@. c #8D3424",
"#. c #B62E32",
"$. c #BE3232",
"%. c #B73C36",
"&. c #AD2932",
"*. c #A30D1E",
"=. c #C2302F",
"-. c #C03130",
";. c #C53639",
":. c #C12F30",
">. c #9E583F",
",. c #AA483C",
"<. c #B14239",
"1. c #A5533F",
"2. c #840F40",
"3. c #9E2E4D",
"4. c #842D4A",
"5. c #A72C45",
"6. c #872C63",
"7. c #8B3D63",
"8. c #93564E",
"9. c #95664A",
"0. c #89754D",
"q. c #837C53",
"w. c #916E50",
"e. c #804962",
"r. c #807072",
"t. c #A35C69",
"y. c #278274",
"u. c #7C8453",
"i. c #798259",
"p. c #7D9063",
"a. c #7FA17F",
"s. c #828258",
"d. c #8A8C6C",
"f. c #80A27E",
"g. c #191EBA",
"h. c #1F1EB4",
"j. c #2D1FA9",
"k. c #1921BA",
"l. c #1C24B8",
"z. c #1D32BA",
"x. c #2720AD",
"c. c #2022B4",
"v. c #2036BC",
"b. c #3422A5",
"n. c #493980",
"m. c #3C6682",
"M. c #3A6986",
"N. c #317588",
"B. c #234ABC",
"V. c #286EBB",
"C. c #425496",
"Z. c #45718C",
"A. c #4B7594",
"S. c #547D9C",
"D. c #476A8B",
"F. c #677786",
"G. c #686785",
"H. c #1F25C0",
"J. c #389890",
"K. c #30AA93",
"L. c #2E83BE",
"P. c #2F99BC",
"I. c #32ACBB",
"U. c #36BDBB",
"Y. c #55839C",
"T. c #469092",
"R. c #6C8395",
"E. c #72889D",
"W. c #609B97",
"Q. c #4CA697",
"!. c #5A83A2",
"~. c #5F94A5",
"^. c #638AA8",
"/. c #768DA4",
"(. c #6B94B5",
"). c #789BBA",
"_. c #6E92AD",
"`. c #4AB6AB",
"'. c #70A1B5",
"]. c #35C8AC",
"[. c #39CBBD",
"{. c #3ADDBE",
"}. c #39D4BB",
"|. c #3AE1BE",
" X c #37E1BD",
".X c #4BC8B4",
"XX c #3798C0",
"oX c #5C80C2",
"OX c #739EC2",
"+X c #7DA5C8",
"@X c #7DAAD1",
"#X c #7CAFE0",
"$X c #7DB1E2",
"%X c #3BDEC1",
"&X c #3AE2C0",
"*X c #52DDC0",
"=X c #4CE3C9",
"-X c #6DE7DC",
";X c #949491",
":X c #89B1A2",
">X c #AFA28B",
",X c #85AACC",
"<X c #84A6C5",
"1X c #84AED3",
"2X c #86B3DB",
"3X c #88B4DD",
"4X c #88B1D7",
"5X c #93B8D8",
"6X c #83B4E3",
"7X c #87B9E7",
"8X c #8CD5DD",
"9X c #89D1CA",
"0X c #88E8DE",
"qX c #96E7E9",
"wX c #8BFDFA",
"eX c #87F9F2",
"rX c #93FEFB",
"tX c #96F4F3",
"yX c #90DCE1",
/* pixels */
"      X X   X   X           X   X     X X           % 8 [ F.E././.R.F.G.[ b < O             X X       X   .   X . . . X .   X X ",
"  X X       X X             X       * $ X       2 | <X1X6X6X6X6X6X6X6X6X6X1X<XE.[ <       X     X           . O   . . X .       ",
"X o %     X X X X   X             X : e o   < | <X6X@X#X#X#X#X#X@X#X#X#X#X#X$X$X7X,XF.7 o   X X X   X   . .   .       X $ +     ",
"X X X   X X O X             X     X O $ 3 | <X6X#X#X#X#X#X#X#X#X#X#X#X#X#X$X$X@X#X#X6X1XF.7         X   . + X . .   O X + +     ",
"X X X     X         + o       X     $ | ,X6X$X#X#X#X#X#X#X#X#X#X#X#X#X#X#X#X#X#X6X#X#X#X6X,X( O           + X       o X X   X X ",
"    X X       X     o o   X       3 /.7X#X#X#X#X#X#X#X#X#X$X#X#X#X$X#X#X#X#X#X#X#X#X#X#X#X6X3X| $       X X . . X X         X o ",
"X X   X X               .     O / <X6X#X#X#X#X#X#X#X#X6X6X2X@X@X@X@X@X2X6X6X$X$X#X#X#X#X#X#X#X6XE.%     X X X       X X         ",
"                          .   / 4X$X#X#X#X#X#X#X6X6X,X^.A.m.F S A A Q I M.!.(.2X6X#X#X#X#X#X#X#X6X/.%   . O X . X   $ +       X ",
"                            $ _.6X#X#X#X#X#X$X2X(.D.S f i i i d d d d d i i p Y S.@X6X#X@X$X$X#X#X6XF.X o $ X         X     X   ",
"                    X X X   / 3X#X#X#X#X#X6XOXM.V i i f d d f f d d f d f p f i i S S.4X6X$X#X#X#X#X6X[ X o X X   X X     X X   ",
"                    + $ . % /.6X#X#X#X#X2XS.C i V f f f d f f d d f d f i f A G Z i d Y ).6X#X#X#X#X$X1Xs   X X X   X X       X ",
"                      X   ( 6X$X#X#X#X1Xm.S I Y E ! E I f f f f f f f f p A ~ E ~ D.E I S ^.6X#X#X#X@X2X<X<   X X X     X X     ",
"                        o E.6X#X#X6X+XY G ! S C V V f f f f f f f f f d f f p i i f S U ! Q S.3X#X#X#X#X6XF.X   X X X o     X   ",
"          X             2 ,X#X#X6X,XY d f V S G S A f i f f d f d f f f f d i p V C f i f f f !.6X#X#X#X#X1X7   X X X X X       ",
"                        [ 6X#X#X2XM.i A T B 6 6 s n L J f f f f f f f d f A W P B ( P U Z d d V _.6X#X#X#X6XF.X           X     ",
"                      o /.$X#X3XY.i J ( %           $ s R V f f f f d V T M : o     o 1 ( U f d F +X6X#X#X#X).$   X X   X       ",
"      X   .           5 1X@X$X+XC Q M X                 1 L f f f f V L <                 8 T i i D.2X#X#X#X,X<     X           ",
"O                     [ 6X$X6XM.f ]                       8 J d f f W 1                     b G i f (.$X#X#X4X7                 ",
".                   X F.6X$X+Xf U 4                         L V f A M                       X L f i M.2X#X#X6Xs       X       X ",
"            X   X   O E.$X7XZ.d ] +         % o             b A i U :           + 2           8 S d V OX6X#X7X|         X X     ",
"  o                 o E.$X@XS V N           ..X.            5 S i L $           2 ;X%         < U d i A.6X2X$X/.#     .   .   . ",
"        X + X   .   o /.7X(.V V N           $ &             3 I i P X             $           % T d i Y 2X#X#X1X2         .     ",
"  .       + X X     # /.7XA.i f P o                         m A d P $                         1 U i i A +X#X#X6X[   .         . ",
". .         + O     % +X6Xm.i i W 1                         ] V d K 1                         s S i d f (.#X#X6X|       . .     ",
". . . .   . . .     5 2X2XI i i Z ( X                     6 K f d C ( X                     & L f p i i !.6X#X6X| X     X X     ",
".   . # X . O .   . n 3X@XQ i V f I b                   1 L f i d d U s                     N A i i i i A.6X#X4Xb   X       X   ",
"  . . o . . X .     b 2X@XA i f f d U N &             7 R V f S f f f T 8               o / I f f f i i A.6X6X/.#         X     ",
"  . . X   X .       3 1X,XS f f f f i S P N 5 1 1 b P I f f E E V f f f K P 3 $ o o % 7 ] A f f f f i i A.7X4Xs       X X X X X ",
"  . X .   . .       % ).1XQ i f f i f i f Z G J G S V i i S Y i i i V f i C K T P P W G f i f f f f f i S.7XR.o           X % X ",
". o X   .     . .     F.5XU i f f f f f f f i i i i f f i I U V A E S i p f i i f f i i f f f d f f i i ^.,X3     X   X   X X   ",
". o X .     .       $  .A.Y i i f f f i f f f f i i f f f f U E Y S f f f f i f f f f f f f f f f f p f ^.X.& X X       X     X ",
"X X X X   .   . X X / S C m.i i f f f f f i f f f f f i i i f V d f i i i f f f f f f f f f f p f f i S m.G M X     X     X     ",
"o X X   X X X   X $ L i V ~ V f f f i f f f i i f d f S N.Z.C.G.X.X.| ~ S i i V d f f f d f f f i f i U Y i T :       X   X     ",
"X O X X   X X X   % T i i ! I i f f f f f f f i d I ^.*X.XXXH.c ;.w.d.:X0X'.I i f f f f f f f f f f i m.Z d K 5       X X     X ",
"o $ X     X X     $ L V i S ~ i f f f f i f i i D.8XrX-X&XXXg.c =.9.s.f.eXrXyXN.i d f f f f f d p i Z m.f f K 3   X X   X   X   ",
"X o X X X       X   b U i i ~ D i f f f f f i Z.qXrX-X%X%XV.l.c =.1.s.p.0XwXrX8XI d f f f d f f f i E I f V ] $       X     X   ",
"X X X X X X   X     + M W Q D.D.i f i f d d A 8XwXwX-X=X}.B.l.c =.,.u.u.9XwXeXrXT.d f f f f f f i S Z.D S ] 3   X     X     X   ",
"$ X X X X X       X   o : 5 1 / G i f f d i M.tXwXwX-X%X[.v.k.c =.<.` u.:XwXwXrX'.i f f f f f f f L ( M n 1 X .   X     X       ",
"; X X       X X   X   X       $ L V f f f i M.tXwXwX=X%XU.z.h.6.=.<.s.u.f.eXwXrX~.i f f i V f i U b . . . O X .   X O X     X   ",
"o     X X     X o               2 R V i f f Q 8XwXeX&X XI.l.k.6.=.%.0.u.u.0XwXqXE i i f i i f S ] 2 $ . O o X O X X $   X X     ",
"X o   X     X X X       X   X     7 T f i f i Z.qX-X=X XXXg.l.6.=.-.0.u.u.9XtXY.i p p p i i Z ] : 0 = X X X O . X       X   X   ",
"o o X X   X     X   X X X           8 R f f i i D..X.XQ.C.g.l.6.=.&.4.) d./.M.V i p p p p Z ] %   o X X X . X     X X       X   ",
"$ o o X   X X       X X O X   X       8 R V i f p J.W.) x c.c.6.#.+.l k >X;XV V i V p i G ] &       X o .   +                 O ",
"X o o X X     X X     X X X       X     2 ] J f D T.`.) x x.l +.*.O.k ` G.C.F V i i V W M #       o X X X   X X X X   X X   X X ",
"  X X         X X X     X X O X X   X     $ n L N.}.p.r u k j @.@.O.8.s.F.oX^.F V U ] 1 X   .       o       X X X   .       +   ",
"  X X X   X         X       X X               : J.`.e.e 0 +.+._ u O.5.s.Y.H H ! ] 5 @     X .   . o o     X   X .         X X   ",
"  X X O     X X X X X   X X O X   X   O       O  ...c @.r g h +.*.&.#.q.] a a 5 @     . .     . . . . . X O   X X     . .   X   ",
"        X X     X   X   X X X X               & X.t.r r h l l 2.O.+.#.q.{  . .a X .     . O .       . . X X O X X   . .     X   ",
"X X X X . .       . . . .   . O   X   O %     v X.7.k q 4.+.h l +.O.&.q. .i.u.( 6 O       X X             X X   X       X X     ",
"X X   X .   .       . .     .   X     X % X   ^ `.G.k j q j j j w +.#.8.} u.u.o.a O X X                 X       X   X       X   ",
"X O X X . .   .   O .   . .     X           O K.&X[.K.n.l g g +.&.#.$.8.' i.u.y O       X O   X   o X   X   X     X       .   X ",
"X X     . X O   O X . . . X . .   X         , ]. X%X%Xv.h.x.c.3.-.$.$.>.u.u.u.` &   X X X X         X X   X   X       X . X X   ",
"X X . X + O .   .   O .   .   . X           v {.%X%X%Xl.g.g.c.3.-.$.:.,.u.u.u.u.0         .   X   X X   X X           X       . ",
"X X X + X .   .     + O           X o $     ^ |.{. XI.l.g.g.l.3.-.$.$.<.u.u.u.u.t         . .     X X X X X     . O     . .     ",
"X . .     .           .     O       X X   O K.{.{.|.P.k.g.k.x.5.:.$.$.%.q.u.u.u._ @     .     . X   X     X X X     X       .   ",
"X X X X X . . .   . O . .   .     X       , ].{.{.|.L.g.k.k.x.3.$.$.$.%.0.u.u.u.` ;   .   .   . + X   X X   X O .       X   .   ",
"X . O   .         .   . .     . X * .     v {.{.{.{.V.k.k.k.j.5.-.$.$.$.w.u.u.u.u.0 X .   .   . O                   .       .   ",
". .         .   .     . O O .   X         y.%X{.{.{.B.k.k.k.j.5.-.$.$.$.9.u.u.u.u.t X X     . O O .   O . .   O   .     .   . O ",
".     . . .   O   . . . . .   . .       * K.&X%X{.[.v.k.k.k.j.5.-.$.$.$.8.u.u.u.u._ #   X .   X X X                 O       .   ",
".     . . O   . . .   . . . . .     .   , ].&X%X{.[.z.g.k.k.j.5.-.$.$.$.1.u.u.u.u.` - X $   .   X . .     . .   .     . O . .   ",
"O O     .       .   . . . .         O   v  X{.{. XI.z.g.k.k.x.5.$.$.$.$.<.u.u.u.u.u.0 . . .   . . . . . .   .     .   . . . X . ",
"o +   .     .       . . .   . .         y.%X%X%X{.P.k.g.k.k.b.5.=.$.$.$.<.s.u.u.u.s.t X       O . . .   . + .   .   . . O X O . ",
".     .   .   .   O . O   . O .     O * K.&X{.{.&XL.g.k.k.k.b.5.$.$.$.$.<.0.u.u.u.u._ $     .             O .       O . . . . . ",
"  .   .     . . . $ .         .       , ].&X{.%X XV.g.k.k.k.b.&.=.$.$.$.$.0.u.u.u.i.` %   .     . . . . .         . . .   . . . "
};
