/* XPM */
static char *frame_000[] = {
/* columns rows colors chars-per-pixel */
"64 64 221 2 ",
"   c #060606",
".  c #080706",
"X  c #080807",
"o  c #0A0A09",
"O  c #070807",
"+  c #140D0A",
"@  c #100A08",
"#  c #12100E",
"$  c #1A120A",
"%  c #141312",
"&  c #1A1717",
"*  c #23160B",
"=  c #2A1B0E",
"-  c #331F0E",
";  c #2C0C13",
":  c #241C16",
">  c #310F14",
",  c #3A230F",
"<  c #35200E",
"1  c #362210",
"2  c #24221C",
"3  c #1D1C22",
"4  c #2B2521",
"5  c #3B3228",
"6  c #322F3C",
"7  c #363332",
"8  c #52131E",
"9  c #690609",
"0  c #730005",
"q  c #7A030C",
"w  c #691413",
"e  c #731514",
"r  c #462A12",
"t  c #5A3616",
"y  c #543315",
"u  c #633C18",
"i  c #6A3F19",
"p  c #603A17",
"a  c #521322",
"s  c #7A182B",
"d  c #44372E",
"f  c #4B3C32",
"g  c #792724",
"h  c #703636",
"j  c #6C401A",
"k  c #72451B",
"l  c #7C4B1D",
"z  c #78471C",
"x  c #544439",
"c  c #794C24",
"v  c #7B4F28",
"b  c #774B24",
"n  c #7C512B",
"m  c #7D5430",
"M  c #7A4137",
"N  c #363442",
"B  c #56494E",
"V  c #6E5749",
"C  c #6D665F",
"Z  c #514C62",
"A  c #645D7E",
"S  c #7D656E",
"D  c #8A0916",
"F  c #9D1D37",
"G  c #961A26",
"H  c #B6223D",
"J  c #A52B3D",
"K  c #922D35",
"L  c #C61F3F",
"P  c #C5213F",
"I  c #C4293F",
"U  c #C6343F",
"Y  c #824E1E",
"T  c #83501F",
"R  c #855120",
"E  c #845C3B",
"W  c #815733",
"Q  c #B13343",
"!  c #C61F41",
"~  c #C62240",
"^  c #C82241",
"/  c #C72A43",
"(  c #C83345",
")  c #94524B",
"_  c #A44A47",
"`  c #8D6546",
"'  c #946B4B",
"]  c #9D6855",
"[  c #997356",
"{  c #876B56",
"}  c #A3785B",
"|  c #B06B45",
" . c #967766",
".. c #A97A65",
"X. c #C94343",
"o. c #CC5544",
"O. c #C74D58",
"+. c #CF6A45",
"@. c #D27F43",
"#. c #CC7266",
"$. c #779378",
"%. c #CF993F",
"&. c #DBD03E",
"*. c #B88E72",
"=. c #BC9579",
"-. c #AF876A",
";. c #BBA067",
":. c #B9985E",
">. c #D38F45",
",. c #D5B14A",
"<. c #C39A7D",
"1. c #C5997C",
"2. c #CA916E",
"3. c #E18D7E",
"4. c #AEDC6E",
"5. c #B7DA6A",
"6. c #ABD773",
"7. c #BAE977",
"8. c #DCC244",
"9. c #DBD949",
"0. c #C8DB5B",
"q. c #D0DD56",
"w. c #DACC52",
"e. c #E5DE44",
"r. c #E5DB43",
"t. c #E0CD45",
"y. c #E5E145",
"u. c #E9E142",
"i. c #C1D163",
"p. c #C5E86B",
"a. c #665F83",
"s. c #676183",
"d. c #79719C",
"f. c #786E95",
"g. c #767EA7",
"h. c #847BAD",
"j. c #7C8E84",
"k. c #7A85AF",
"l. c #758BB2",
"z. c #6999B8",
"x. c #7794B7",
"c. c #5CA8BD",
"v. c #6AAD90",
"b. c #56D2BC",
"n. c #5BCFAB",
"m. c #76D1B3",
"M. c #48BDC6",
"N. c #53B5C3",
"B. c #56AFC2",
"V. c #3FCECD",
"C. c #49CEC6",
"Z. c #42CDCC",
"A. c #46C5CA",
"S. c #4ED2C6",
"D. c #7ACDC9",
"F. c #72E8D1",
"G. c #6FEDD1",
"H. c #889787",
"J. c #B49688",
"K. c #BDA89A",
"L. c #8B90B0",
"P. c #8BB0B4",
"I. c #B3A5A3",
"U. c #A290A8",
"Y. c #C69D82",
"T. c #CC9E81",
"R. c #CDA285",
"E. c #CCA58C",
"W. c #C5A58D",
"Q. c #D2A486",
"!. c #D3A788",
"~. c #D5A98A",
"^. c #DBAD8D",
"/. c #D8A585",
"(. c #C3A693",
"). c #C5A995",
"_. c #CBA992",
"`. c #C4AB9B",
"'. c #D9AE91",
"]. c #D2AB91",
"[. c #DEB092",
"{. c #E4B494",
"}. c #E8B796",
"|. c #E9B897",
" X c #EDBB99",
".X c #E7B897",
"XX c #F1BE9B",
"oX c #E6AD90",
"OX c #C4B5AB",
"+X c #C3B3A8",
"@X c #C9BCB4",
"#X c #C6BBB5",
"$X c #C3AFA2",
"%X c #E5B9A1",
"&X c #90D3B4",
"*X c #8EEDB2",
"=X c #A4F493",
"-X c #F7C29F",
";X c #F8C39F",
":X c #CAC2BD",
">X c #F6C3A0",
",X c #F9C4A0",
"<X c #FCC8A4",
"1X c #E3C8B3",
"2X c #D9C090",
"3X c #8EB7C2",
"4X c #92D2D7",
"5X c #A2D4CF",
"6X c #CBC6C3",
"7X c #D2CAC6",
"8X c #DCDCDC",
"9X c #D8D5D2",
"0X c #D5D0CB",
"qX c #E1DFDE",
"wX c #E1E0DF",
"eX c #DEDFE0",
"rX c #ECECEC",
"tX c #E7E6E5",
"yX c #F3F3F4",
"uX c #FFFFFF",
"iX c #F7F7F8",
/* pixels */
"X X     o       o                 X   X               X $ * = - , , , - * + .                   O                               ",
"X       o o       o                   X       . $ - y i z l Y Y Y Y Y Y l z t , @       # % o                       O     X o   ",
"    X & o                             .   X * y z T T T T T T T T T T T T T T Y j < .   2 7 %                     o X   O o &   ",
"    X # o o         #                 X * t l T T T T T T T T T T T T T T T T T T Y u < $ % O                       X   O   O o ",
"  o       o         o               X r l R T T T T T T T T T T T T T c T T T T T T T T j < X             #             O O X O ",
"  o                 o o o         + t T T T T T T Y T T T T T T T T T R T T T T T T T T T T t $           #               O     ",
"        . o         o o o       * i R T T T T T T T Y l l c n W W W R v l l Y T T T T T T T T j * o                             ",
"          $ o       o         * z R T T T T T T l c E } *./.[.}.}.{.[.Q.=.} E c l T T T T T T T z *                             ",
"                  O o % O   $ j T T T T T T l n [ T. X>X,X,X;X;X;X;X;X;X,X,X XR.[ n l T T T T T T p X                           ",
"                  O o o   o t T T T T T Y b ' /.-X,X,X-X;X-X;X-X;X;X;X;X-X-X>X,X;X~.[ b l T T T T Y -     .                     ",
"                O O o   X r T T T T T l W =.-X,X X{..XXX;X;X-X-X-X-X;X;X-X-X-XXX;X>X-X1.E l T T T T u @ . +                     ",
"    O         o   o     < l T T Y T l ` Q.{.R.<.<.R.Y.^.;X-X-X-X;X-X;X;X-X{.R.Y.R.Q./.{.~.` l T T T c 1 O O                     ",
"        X o           $ k T T T R l ` [.R.Q.{. X;X-X-X-X-X-X-X-X-X-X-X-X;X-X-X-X-X X{.!.!.{.' c T T T p .                       ",
"          X           r T T T T l ` .X,X-X<X;X-XXX-X;X;X-X-X-X-X-X;X-X;X-X;X-XXX[.[.{. X-X,X X` l T T l +     .                 ",
"      X             + k T T T l W ^.,X>XXX'.).$X+X`._.[.-X-X-X-X-X-X-X-X;X}.E.OX6X7X6XOX).[.>X[.W Y T T ,                       ",
"                    = Y T T T v <.,X,X[.K.7XrXiXiXiXrX6X(.|.;X-X-X;X;X-X~.+XtXiXuXuXuXuXrX#XE.>X1.v T T t                       ",
"                    r T T T l [ ;X;X[.+XrXuXuXuXuXuXuXuXtXK.{.-X-X-X,X'.#XiXuXuXuXuXuXuXuXuX7X_.,X} l T l *                     ",
"                    r T T T m ^.-X-XK.yXuXuXuXuXuXuXuXuXuXrXK.-X-X-X|.$XiXuXuXuXuXuXuXuXuXuXuX:X{.{.m T T ,                     ",
".           .       t T T l -.-X-X_.qXuXuXuXuXuXuXuXuXuXuXuX0X].,X,X_.8XuXuXuXuXuXuXuXuXuXuXuXrX(.;X-.l T t                     ",
".           X     @ k T T v /.-X-XK.iXuXuXuXuX8XeXuXuXuXuXuXyXK.XX-X`.iXuXuXuXuXuXiXqXiXuXuXuXuXOX X^.n T t                     ",
"                  * l T l ' -X>X|.#XuXuXuXuXuX$.I.uXuXuXuXuXuXOXXX X+XuXuXuXuXuXuX6XC eXuXuXuXuX7X{.;X' T t                     ",
"                  r T T l -.>X>X{.#XuXuXuXuXuXrXiXuXuXuXuXuXuXOX X X+XuXuXuXuXuXuXyX8XuXuXuXuXuX:X{.;X*.l j         X o         ",
"              X o j T T b R.>X>X|.@XuXuXuXuXuXuXuXuXuXuXuXuXuX+XXX-X`.iXuXuXuXuXuXuXuXuXuXuXuXuX@X|.;X~.v j         o o         ",
"                + z T T m {.>X>XXX`.yXuXuXuXuXuXuXuXuXuXuXuXrX).-X;X_.qXuXuXuXuXuXuXuXuXuXuXuXrX(.-X;X|.W k +     #             ",
"                + k T T m >X>X>X,X].9XuXuXuXuXuXuXuXuXuXuXuX6X'.;X;X|.K.uXuXuXuXuXuXuXuXuXuXuX:X^.;X;XXX` l *       X     o     ",
"          o       y T l ` >X>X>X-XXX(.tXuXuXuXuXuXuXuXuXuXeX(.-X;X;X,X~.6XiXuXuXuXuXuXuXuXuX9XE.-X;X;X;X' l =       o   + o     ",
"                  * l Y ' >X-X;X-X>X|.K.qXuXuXuXuXuXuXuX9X).XX-X-X[.-X-X].OXrXuXuXuXuXuXyX:X(.XX;X-X;X;X' Y =           o o     ",
"  o X               y l ' -X-X-X-X-X>X XE.@X8XrXyXrX9XOXE.XX-X-X-X~.1. X>X{.(.OX0X9X0X#X(.'.-X-X-X-X;X;X' l $       o o X X     ",
"  # %               $ k ` -X-X-X-X-X-X-X,X}.]._.)._.].|.,X-XXX-X,X,X{.Q.>X,X>X|.{.^.[..X-X;X;X-X;X;X-X-X' j $         X     X   ",
"                    o < m -X;X;X-X-X,X-X-X-X,X-X-X,X,X,X-X-XXXQ.[.XX{.Q.,X>X>X,X;X;X;X>X-X-X-X-X-X-X;X X` r                 o o ",
"                  o   2 { {.;X;X>X-X-X>X-X-X-X,X-X>X-X-X-X-X-XXX~.T.Q. X,X-XXX,X-X;X-X-X-X-X-X-X;X;X;X{.*.C #               o o ",
"                    : *.~.!.;X;X-X-X-X-X-X-X-X-X-X-X-X-X,X,X,X,X-X-X-X,X,X,X-X,X-X-X-X-X-X-X;X;X;X;X;X~.~.;XV   o           o o ",
"                    V <X.X<.;X;X-X;X-X;X;X-X-X-X-X,X,X,X%XY.J.J.H.H.;.2.2.~.XX>X-X-X-X-X-X-X-X-X-X-X,XY.{.<XY.%   X         X o ",
"                o    .<X-X=.-X;X-X-X-X-X-X-X;X-X-X,X|...g h f.g.M.n.9.%.Q J ) T.>X,X-X-X-X-X-X-X-X,X X1.-X;X^.:             X O ",
"            o       { <X;X!.~.;X-X;X;X-X-X-X-X;X,X^.M 9 e S L.l.A.b.p.i._ H q w } XX,X,X-X-X-X-X>X>X^.T.;X<X<.#         O O o & ",
"                    d .X;X X<.;X;X-X-X-X-X;X;X;X X) 9 g V P.L.x.Z.G.*X5.V Q G 0 9 ] XX,X-X,X-X-X-X-XY. X<X-Xx           O O o o ",
"                    o V [.;X<.^.;X-X-X-X-X;X-X,XQ.w 0 g C 3X3X3XG.G.=Xr.;.| G 0 0 9 1.,X-X-X>X>X,X~. .^.J.x X         X O X X X ",
"                    o   4 x x x -X-X-X-X-X;X-X,X*.9 0 e j.5X4XD.P.4Xp.&.2.=._ q 0 9 ' ,X-X-X-X,X-XV @ & & @         O O   X O X ",
"          o o     o o o       # ..,X-X-X-X-X-X,XT.w e C m.4X*X=XF.G.p.r.[.1X#.D 0 9 ) ,X,X-X>X,X-.#     . .     O       O   O o ",
"          o %   o o o o   X 2 & 4 T.,X-X-X-X-X-X}.R h v.m.D.*X=XF.G.7.y.2.| #.G 0 w 1.,X-X-X>XR.4       . .   X o O         O X ",
"                  X o X   o 5 2 o 7 Q.,XXXXX,X-X,XT.h $.&X*X*X*X*XG.7.9.#.^ O._ 9 ] >X>X,X,X^.d                 X X       O O o ",
"                  X X   X o o o     d Q.<X,X-X,X-X>X^. .L.4X&XF.F.m.q.9.,./ ~ Q ..>X>X>X,X~.f             X       O         X o ",
"o o               X X   o o o         5 J.>X,XXX-X>X,XK.h.h.l.Z.V.b.q.u.8.( ~ ( oX>X,X,X<.5           o o O       O     O X X o ",
"o o             X X     o   o X         : [ |.<X-X-X-XU.h.h.x.V.V.b.q.e.9.X.! ~ /.<X X .&             X     O           O X o X ",
"  o o           X O       X X .           . f *.%X<X%Xh.h.h.z.Z.V.b.q.e.r.o.! ! O.Y.f             o o O O   o X             X O ",
"              o O         X X       X         o f ..K.h.h.h.B.Z.V.C.q.e.y.+.! ^ J ;                         O           O O X O ",
"                O O X X     . .     X O             Z h.h.h.B.Z.Z.b.0.e.y.>.^ ^ H ;               o o       X   X   O   X o O   ",
"              o O X o X X           X X         O % s.h.h.h.N.Z.Z.C.0.r.y.>./ ! L 8                 o   X       X       O       ",
"            O       O O                   O       & d.h.h.g.M.Z.V.C.0.e.u.,./ P ! s   # %       O o     o o           o   O   O ",
"                                  O         O     6 h.h.h.k.A.Z.V.C.i.e.y.8.U P ^ F o o %                 O               O O o ",
"            O       O       O O     O o           Z h.h.h.l.A.Z.V.C.0.e.y.&.( P ^ H ;     O           O     o O         O O o @ ",
"  O o                     O O     O O o         O a.h.h.h.z.V.Z.V.C.0.e.e.r.o.L ~ ~ a         O   o   o     o O     o O   O O o ",
"    O               O X O   X O                 & d.h.h.h.z.V.Z.Z.Z.i.u.u.y.+.L ~ ^ s   O O           O   o O       o @ o O O   ",
"                      X O   X         O         6 g.h.h.h.c.V.Z.Z.C.5.u.9.y.>.L ~ ~ F @ X #               % O     O O O o o o O ",
"            O   O O         O X O           O   Z h.h.h.h.B.Z.Z.Z.C.5.u.y.y.>.~ ~ ^ H ; O o O X                             O   ",
"                X X         O o X           O # a.h.h.h.h.N.Z.Z.Z.C.5.u.e.y.,./ ~ ^ ! a   O O X           o O     O     o O O   ",
"                O     O       X o O O         3 f.h.h.h.k.M.Z.Z.Z.C.5.u.e.e.8.( ! ^ ^ s X   o o     O O               O     o o ",
"O O                           O o X O         6 h.h.h.h.k.A.Z.Z.Z.Z.5.r.e.e.t.X.^ ! ^ F @   O       O @ O O                 O O ",
"o                             o X X     O     Z h.h.h.h.l.A.Z.Z.Z.Z.4.u.e.e.r.o.! ! ! Q >             O O O           O         ",
"    o           O           O X O     o %   o s.h.h.h.h.z.V.Z.Z.Z.Z.4.u.e.r.r.+.! ! ! ~ a         O O O       O O     o O       ",
"    o               O X                     3 d.h.h.h.h.c.V.Z.Z.Z.Z.4.u.e.9.y.>.! ~ ~ ~ G O       O           O O           O o ",
"  o o # o         X o o         X X         N h.h.h.h.h.c.V.Z.Z.V.Z.4.e.e.e.e.>.~ ~ ~ ~ F +       o     O O                 O % ",
"  O   O   o o       X X       O O           Z h.h.h.h.h.N.V.Z.Z.Z.Z.6.y.y.y.y.,./ ~ ! ~ H ;       o O       O O       O         ",
"          o o               O X       O   o s.h.h.h.h.h.c.V.Z.Z.Z.Z.6.u.e.u.u.,.( ~ ~ ! ! a             O O @ #                 "
};
