/* XPM */
static char *frame_001[] = {
/* columns rows colors chars-per-pixel */
"64 64 216 2 ",
"   c #050505",
".  c #080706",
"X  c #080807",
"o  c #0A0A09",
"O  c #070808",
"+  c #100F0E",
"@  c #11100F",
"#  c #0A1515",
"$  c #131312",
"%  c #1A1B1B",
"&  c #1A1A16",
"*  c #201E1A",
"=  c #23221C",
"-  c #1D1F22",
";  c #13332D",
":  c #112F2C",
">  c #222324",
",  c #26282A",
"<  c #292C2E",
"1  c #272828",
"2  c #343626",
"3  c #2A2D31",
"4  c #2D3235",
"5  c #2E363C",
"6  c #323639",
"7  c #343839",
"8  c #2F3123",
"9  c #721A3E",
"0  c #4F3C21",
"q  c #6E2F29",
"w  c #4B5138",
"e  c #484A33",
"r  c #714F3B",
"t  c #063B5F",
"y  c #093C5F",
"u  c #1B3B4B",
"i  c #353C42",
"p  c #393F43",
"a  c #073C60",
"s  c #083D60",
"d  c #71154F",
"f  c #702D4C",
"g  c #661161",
"h  c #581472",
"j  c #1D5653",
"k  c #3B444B",
"l  c #384248",
"z  c #3C4A54",
"x  c #3B4A56",
"c  c #3D505C",
"v  c #22625A",
"b  c #0D4164",
"n  c #124466",
"m  c #154768",
"M  c #17496A",
"N  c #1B4B6B",
"B  c #11556C",
"V  c #214E6E",
"C  c #24506E",
"Z  c #2D546F",
"A  c #3D5464",
"S  c #36566C",
"D  c #3B5A6D",
"F  c #3B576C",
"G  c #235372",
"H  c #2B5572",
"J  c #2B5977",
"K  c #2D5A79",
"L  c #275979",
"P  c #335770",
"I  c #355971",
"U  c #3B5A70",
"Y  c #315E7B",
"T  c #234372",
"R  c #1C757F",
"E  c #34617D",
"W  c #3A637E",
"Q  c #434B53",
"!  c #404F5A",
"~  c #45525B",
"^  c #505354",
"/  c #7F4450",
"(  c #5D6147",
")  c #45615C",
"_  c #616744",
"`  c #73794E",
"'  c #706E53",
"]  c #425969",
"[  c #455763",
"{  c #535D69",
"}  c #58636D",
"|  c #5D6A76",
" . c #4F697A",
".. c #616F7C",
"X. c #796F79",
"o. c #8D1A2F",
"O. c #861336",
"+. c #95112B",
"@. c #882C33",
"#. c #B72E35",
"$. c #BE3132",
"%. c #B63038",
"&. c #B93936",
"*. c #AF2E3D",
"=. c #C03130",
"-. c #85413E",
";. c #AC4A3D",
":. c #B6433A",
">. c #A8513D",
",. c #892F4D",
"<. c #AB2D44",
"1. c #A02D53",
"2. c #A25642",
"3. c #966648",
"4. c #8A744E",
"5. c #867B52",
"6. c #8B6B4C",
"7. c #8C5C71",
"8. c #298775",
"9. c #7C8453",
"0. c #88916D",
"q. c #381997",
"w. c #3D319E",
"e. c #181EBA",
"r. c #171EBB",
"t. c #1721BC",
"y. c #1921BA",
"u. c #1C29B8",
"i. c #1D33BB",
"p. c #3423A5",
"a. c #2327BA",
"s. c #2239B8",
"d. c #471786",
"f. c #401890",
"g. c #4E258E",
"h. c #462295",
"j. c #57268A",
"k. c #3B6582",
"l. c #3A6783",
"z. c #35708C",
"x. c #1F40BA",
"c. c #2554B9",
"v. c #3047B6",
"b. c #296CBB",
"n. c #406B88",
"m. c #456897",
"M. c #4D758F",
"N. c #6A7B8D",
"B. c #637584",
"V. c #6E7F90",
"C. c #3569C1",
"Z. c #8B6E8A",
"A. c #329298",
"S. c #30B49C",
"D. c #30AF96",
"F. c #2C81BB",
"G. c #3094BC",
"H. c #338BAF",
"J. c #33A8BB",
"K. c #36BDBC",
"L. c #3AB3A7",
"P. c #51879B",
"I. c #6D8591",
"U. c #73889B",
"Y. c #5C85A4",
"T. c #5892B0",
"R. c #638DAD",
"E. c #758CA2",
"W. c #7995AD",
"Q. c #6C94B4",
"!. c #6893B5",
"~. c #779AB8",
"^. c #6598AA",
"/. c #5AB8B5",
"(. c #78A8BE",
"). c #6AA6B6",
"_. c #37CEB2",
"`. c #38CBBD",
"'. c #3ADDBE",
"]. c #39D5BD",
"[. c #36C9AE",
"{. c #3AE0BE",
"}. c #4DCCBA",
"|. c #61CFBF",
" X c #7BA5C8",
".X c #7DAAD1",
"XX c #7DBFCA",
"oX c #7CAFE0",
"OX c #7DB1E2",
"+X c #3BDEC0",
"@X c #3AE1C0",
"#X c #4CDCC3",
"$X c #67E6DB",
"%X c #76F7EB",
"&X c #829B92",
"*X c #9697A0",
"=X c #849EAF",
"-X c #87A3B6",
";X c #82A4C4",
":X c #83AACD",
">X c #82A7C8",
",X c #83AED3",
"<X c #8BAFD2",
"1X c #86B3DC",
"2X c #88B2D9",
"3X c #8CBEC8",
"4X c #83B5E3",
"5X c #89B9E5",
"6X c #87C7C8",
"7X c #8CD0D7",
"8X c #87DBE0",
"9X c #8CEAEC",
"0X c #8CFEFA",
"qX c #87FCF4",
"wX c #96FAF8",
"eX c #96ECED",
/* pixels */
"      O     X   O           X         .   .         % 6 ~ | B.V.U.E.E.V.| Q > X           X X X     X   O   O o       o     o   ",
"  X X   O   X X O               .   @ $ .     % Q N.~.,X4X4X4X4X4X4XOXOX4X1X;XN.i o       X     X   X       O o       o         ",
"X o %   O   X X       O     X     . = 7 + > } -X1X4X4XoXoXoXoXoX.XoXoXoXoXoXoX4X,XV.6 o   X X   X         O O   O X   o $ $     ",
"X X   X X X o X   X         O   . . o 1 ..-X4XOXoXoXoXoXoXoXoXoXoXoXoXoXoXoXoXoXoX4X<XN.7 o           X   + O       o o + +     ",
"X X X O       O     + o       X     6 W.4XOXoXoXoXoXOXoXoXoXoXoXoXoXoXoXoXoXoXoXoXoXoX4X,XU.<     X   O   o o   X   + .     . . ",
"    X   X       X   o o   X     X Q ;X4XoXoXoXoXoXoXOXOXoXOXoXoXOXOXOXoXoXoXoXoXoXoXoXoXoX4X;XQ o       o o O         .       + ",
"X O   X                       + } <XOXoXoXoXoXOXoXoX4XOXOX4X.X.X.X.X,X1X4X4XoXoXoXoXoXoXoXoXOX2X| $     o o o   X   . .         ",
"          O                 X ..5XoXOXoXoXoXoX.X4X4X XV.z.l.T m m M V K n.Y. X4X4XoXoXoXoXoXoXOX5X| X     o O   X   + +     .   ",
"                            ~ 2XOXoXoXoXoXoX4X1XR.E m t t t t t a a a a t t n E R.,X4XoXoXoXoXoXoX<X3   o $ .     X   X         ",
"                    o o   3 ;X4XoXoXoXoXOX1XQ.K y t t y t s s s a a a a s s y t t L R.1XOXoXoXoXoX4XB.  X + . . X     X   X   X ",
"                    o + % W.4XoXOXoXOXOX.Xl.b s n N N b y s s s s s a s s s s b b s s l. X4XoXoXoXoX<X4   X . o               X ",
"                      + N.4XoXoXOXOX4X~.K N Y k.k.Y W G t s s s s a s s t M Y W E K J N L ~.4XoXoXoX4XV.$   .   X X X     X     ",
"                      Q 2XoXoXoXOX4X~.V Y K N n y t t s s s s s s a s a s s b s b b M J K N Q.4XoXoXoX<X7 . . . X   o o X X     ",
"                    $ =XoXoXoXoXOX~.M a s a s s n b s t s s s y s s s s s a t n N V N n b t M ~.4XoXoX4X[         X X X       X ",
"                    p 4XoXoXoX4X:XV t t s H S A c A S C s s s s s s s s a N I x i 4 5 l F N a V  XoXoX4XU.o   X           X     ",
"                    B.4XoXoXoX1Xk.t t N ] 6 + X   X $ i D m t y s a s a H z % .         $ l I s k.1XoXoX:X<       X   X       X ",
"          o       X E.4XoXoX4XR.a t N ! $               $ [ N t a a a H p                   4 P a Y.4XoX4X{   O       X       X ",
"o                 $ ~.oXoXoX,XV t n [ X                   $ ] b a a m ! O                     l V N :XoX4XE.+   O         X     ",
"o                 % >XOXoX4XY.a a I >                       < Z t a Z >                       o U a M.5XoX;X%     X X X .     X ",
"                  4 1XoXoX1XL a s ! X         > %           X F s s A               %           x n G 1XoX>X-     X       X     ",
"X X               } 4XoXOX~.y t M i           X.^             c m b x             7 *X&         i M a !.4X:X1         .   .     ",
"      X X + X   @ W.4X.X4XM.y t N 5           $ .             k m n x             X > .         i N t M.4X:X>     .     .     . ",
"        X + X   < :XOXOX1XY t y M l                         . x n s A O                         k m a L 2X,X<     . .     . .   ",
"    X       o X k 4XOXOX.XN y y b F                         $ F s t I -                       + F a a m :X1Xp           .     . ",
"    . . . . .   l 1XOX4X Xn t y t H <                       5 C a a N z                       i G a a n ~.5X{   .   O       O   ",
"    . $ O . o   % ~.OXOX~.y t y t b ] $                   > F s a a t H p .                 3 U s a a a !.5XB.  .       O   O   ",
". . . o . . O   . { 4X4XQ.y s a t t M ] -               , ] n a s N b y H x $           X i I s a s a a !.5X|       O O   O     ",
"  X . .   O O O   % ~.4XQ.s s s t b t n I k - @ X $ > k I b a s s J k.m t N S k 4 , , k A V s s s s a a !.5X{   .       O X X X ",
". . . .   .     .   ^ 5X~.s s s b t b t t M Z S S S Z m t s s s t t N Y t t s m V Z V M s a s s a s a s !.5Xp         O   X % X ",
". o X . .     O     $ E.,Xm a a t t t t b t t t a a t a s y n K N n N K s s s s a a a a s s s a s s s n ~.-X-   X X         O O ",
". o X       .         ~ W.N y a b b t b t b t t a s a s s s s n J Y K n a a s s a s s a s s a a a a a N M.B.<         X   X     ",
"X X X X   .   . X   4 S L L y y t t t t t t t b a s s s t t t t t b y t t t s s s s s s s s a a a a a L K s [ $   O   O     O   ",
"+ o X     O o X   + ] s m n.a a s y s a s s a s y y y b m E  ...X.X.m.M.l.C b t y b t b t t b t t t t E M t C <     .         X ",
"  o o       X     $ P a y n.s a s s s s a s s s b t m P.7X6X0.5.&.1.a.b.#X|.).E y y y t t y t t b t n n.b t V 6       .   .     ",
"o $ X   O     O   $ U a y P J a s s s s s s a a t V XXwX9X&X` 4.$.<.q.w.}.}.qXeXY.n t t b b t b b t C Y t t H <   X X . X   O   ",
"O o   o   o X       Q N a n n.s y s s a s s a a b (.wX8X-X/ ' 3.#.+.g g.=X}.%X0XwX^.y t t t t t t b W n b M A +               . ",
"  o   o o           % ] V s k.J t a a s s a s t J eXqX8X=Xr r r +.+.d.a.v.T.$X0X0XeXl.t b t t t t C M.C Z ~ %   O   O       O   ",
"$   o O   o   O O     % p c !  .n y s s s s s t z.wX0X9X7.0 q o.r o.f.i.M. ./.qX0XwX).t t t b t n [ < 4 1 $ O O         X   X   ",
"= o     X         o       o   , I a a s a s a t k.eX9X*X/ q d g o.+.q.t.T u A.%X0X0X^.t t b b t I 8       + X     o +     .     ",
"+             o o               p Z a s s a a a m 3X6X7.,.@.d h d +.d.r.z.L.H.$X0XeXz.t t t b Z Q = $   X + X X   o $ X       X ",
"  o         X X X     O         o Q Z t t s s s t K 6XZ.f 9 o.d d O.q.p.A.+XL./.eX^.s s t t V Q $ 2 * . . . o .       .     .   ",
"+ o     O           X X   X   X . + ! G t t s s t t L I.' f 9 9 o.<.p.u.c.`.].}.P.s s s b C c + . X X . O . O . X     O O   .   ",
"+ o o o   o O     X X X o X     .   X k P s t s t b t D 9.9.6.#.$.<.p.r.s.+X{._.B a s s H z +     X o o . . o O         O     + ",
"O o o       O     X   X X   X     .   X 5 D N a t b b ' 0.9.3.$.$.<.p.r.u.K.{.'.z.a M U i X   X   o . . . . . X o   O         O ",
"O X X     O     O X     X O o X     X     % ! I m t j ` 9.9.>.$.$.<.p.t.u.J.{.{.A.G c =   .       X o . .   . O O   O     O +   ",
"  X X X       X     X     O X X X O     O   X , ! I D 9.9.9.3.$.$.<.p.t.r.G.{.'.[.3 X     X X   . X X   . .   O . .     O   O   ",
"  O X o O   O X O X X O   X o X   O O   O         % ( 9.9.9.>.$.$.*.p.t.r.b.{.'.[.#           . . X   . O o . O O     O O     . ",
"      X   X     X       O X X X             O       ( 9.9.9.;.$.$.%.p.t.r.b.'.'.'.j     . o X         . O O o O O     .     O   ",
"O   X X X X     X   X X X   O X .     o % O O O   & ` 9.9.0.&.$.$.$.p.y.e.c.].{.{.R       O       O     O O .     O     O   .   ",
"o X   X   O O   O   X     O           O & O O X   8 ` 9.9.4.$.$.$.$.p.y.e.s.`.{.{.D.+       X O .     .       .     .     O O   ",
"X o X X     O     +     O X O     . .       O X   e 9.9.9.4.$.$.=.%.p.y.t.i.`.{.{.}.:   X X X     X O     .     O   O O   .   . ",
"o X   O   + X   O X O   X X X X .     .           _ 0.9.9.6.$.$.=.%.p.t.e.u.J.{.'.'.j   X o     X X X   O   O O   .     . O O   ",
"O O   X + + X O     X X     O     O             & ` 9.9.9.3.=.$.$.%.h.t.y.e.G.{.'.{.8.      X X   X X   o X           O     O   ",
"X X X + O       O   + +   X X       o #         8 9.9.9.9.>.=.$.=.#.q.t.y.e.b.{.'.{.D.#             X X X       O O     O   O   ",
"X   X   O   O O       X       O     O +   X     w 9.9.9.9.>.$.$.$.%.h.t.y.e.b.'.{.{.[.;         X         O           O   O     ",
"X O X X O         O X X O X       o           + _ 9.9.9.9.;.$.$.=.&.h.t.y.e.c.].'.{.{.j     O O @ X   O     o +   X   O       O ",
"o X X   X   X   o       X O     O @ O   O     & ` 9.9.9.5.&.$.$.=.%.h.e.e.e.x.+X{.'.@X8.O   O   +   O   O       O       O       ",
"O X       O           O + o O     O .     .   2 9.9.9.9.5.&.$.$.=.%.g.t.y.e.a.K.'.'.@XS.#   O o O O         O   X   X     X X X ",
"    o   X O   O       X O X     .   O   O   O w 9.9.9.9.4.&.$.$.=.=.g.t.y.y.u.J.{.'.'._.;     X o o   O   O o           O   X X ",
"      O X X   X X O   X X X X X O       .   + ( 9.9.9.9.3.$.$.$.=.%.h.y.y.t.t.G.{.'.'.+Xv   O   O O     O         O X O X O X   ",
"+ X   O   X     X X   O     O         . o   * ` 9.9.9.9.3.$.$.$.$.$.g.t.y.y.e.F.{.'.'.{.A.o       O             X       X X X X ",
"+ o       X O       X X O   X X .   .       2 9.9.9.9.9.2.$.$.$.$.#.j.t.t.y.r.C.'.'.'.@XD.#           O   $ o       X O o X o X ",
"O   O           O X X X   X X X     . .   . w 9.9.9.9.9.>.$.$.$.$.$.j.t.y.y.e.c.].'.'.'.[.;   o     o     o   O     o X X   X X ",
"    X   O   X O X $ X   O     O .     .   o _ 9.9.9.9.9.:.=.$.$.$.=.j.t.y.y.t.x.`.'.'.'.'.v   O   o       X       X X X     O O "
};
