/* XPM */
static char *frame_004[] = {
/* columns rows colors chars-per-pixel */
"64 64 227 2 ",
"   c #060606",
".  c #080706",
"X  c #080807",
"o  c #0A0A09",
"O  c #070807",
"+  c #130D0A",
"@  c #120A09",
"#  c #12100E",
"$  c #1A120A",
"%  c #141312",
"&  c #191817",
"*  c #23160B",
"=  c #2A1B0E",
"-  c #331F0E",
";  c #2C0C13",
":  c #241C16",
">  c #320D14",
",  c #18221D",
"<  c #39220E",
"1  c #2D2216",
"2  c #1B2723",
"3  c #282722",
"4  c #363429",
"5  c #6A0608",
"6  c #730005",
"7  c #75050C",
"8  c #6B1416",
"9  c #7C0511",
"0  c #462A12",
"q  c #5A3616",
"w  c #543315",
"e  c #633C18",
"r  c #683E19",
"t  c #521422",
"y  c #771729",
"u  c #44372E",
"i  c #4B3C32",
"p  c #752F32",
"a  c #4C111A",
"s  c #2F4636",
"d  c #6C401A",
"f  c #72451B",
"g  c #7C4B1D",
"h  c #78471C",
"j  c #544439",
"k  c #7A4D25",
"l  c #7C512B",
"z  c #7E4A33",
"x  c #623346",
"c  c #355249",
"v  c #3E5255",
"b  c #524E4D",
"n  c #6E504C",
"m  c #446154",
"M  c #62615F",
"N  c #534D61",
"B  c #755C7D",
"V  c #497E6E",
"C  c #8C0C19",
"Z  c #9D1A32",
"A  c #B91E3A",
"S  c #A11831",
"D  c #B4233C",
"F  c #A4273A",
"G  c #802531",
"H  c #C5223F",
"J  c #824E1E",
"K  c #83501F",
"L  c #855120",
"P  c #825936",
"I  c #8F4E30",
"U  c #8F7233",
"Y  c #BA344B",
"T  c #902C4B",
"R  c #C61E41",
"E  c #C62241",
"W  c #C72843",
"Q  c #C83546",
"!  c #90534E",
"~  c #8D6546",
"^  c #946B4B",
"/  c #9D6855",
"(  c #997356",
")  c #876B56",
"_  c #A3775A",
"`  c #AB604F",
"'  c #957464",
"]  c #AD7563",
"[  c #C94948",
"{  c #CD5A44",
"}  c #CF6F45",
"|  c #D16A63",
" . c #598973",
".. c #B29D3B",
"X. c #CC953F",
"o. c #9A994D",
"O. c #B19051",
"+. c #B88E73",
"@. c #BC9478",
"#. c #AF8669",
"$. c #B9A35A",
"%. c #D39244",
"&. c #DCB644",
"*. c #D1AD4E",
"=. c #C4997D",
"-. c #CB8575",
";. c #D1B573",
":. c #E18E7E",
">. c #AFDB70",
",. c #BAE778",
"<. c #B5F874",
"1. c #CBDB59",
"2. c #D3DD53",
"3. c #D7CF4E",
"4. c #E5DE44",
"5. c #E8DE42",
"6. c #E2D245",
"7. c #E1D14C",
"8. c #DCE24E",
"9. c #E5E145",
"0. c #DACA62",
"q. c #D8DD6E",
"w. c #C8E86A",
"e. c #726A90",
"r. c #767EA7",
"t. c #816E98",
"y. c #847BAD",
"u. c #8378A7",
"i. c #B36891",
"p. c #7F8181",
"a. c #5CA392",
"s. c #6EB290",
"d. c #7B85AE",
"f. c #7093B5",
"g. c #5DA7BC",
"h. c #649F9E",
"j. c #58D1B9",
"k. c #59CFB3",
"l. c #74D2B0",
"z. c #7BCB9F",
"x. c #52B7C2",
"c. c #47BDC6",
"v. c #7CBAC2",
"b. c #3FCECE",
"n. c #41CDCD",
"m. c #46C8C8",
"M. c #4ED1C3",
"N. c #55D9CC",
"B. c #75D3D0",
"V. c #76F3CB",
"C. c #65EAD5",
"Z. c #69F4D8",
"A. c #74EECD",
"S. c #5BF2E3",
"D. c #65F2E1",
"F. c #66E8DC",
"G. c #889787",
"H. c #B49688",
"J. c #BDA89A",
"K. c #8799B2",
"L. c #908CB0",
"P. c #8BB5B5",
"I. c #91B1B2",
"U. c #B3A6A4",
"Y. c #A391A8",
"T. c #C69D82",
"R. c #CD9C81",
"E. c #DB9586",
"W. c #CDA285",
"Q. c #CBA58C",
"!. c #D2A586",
"~. c #D3A788",
"^. c #D5A98A",
"/. c #DBAD8D",
"(. c #C3A693",
"). c #C5A995",
"_. c #CBA992",
"`. c #C4AB9B",
"'. c #D9AE91",
"]. c #D2AB91",
"[. c #DEB092",
"{. c #DBB59E",
"}. c #E4B494",
"|. c #E8B796",
" X c #E9B897",
".X c #EDBB99",
"XX c #E7B897",
"oX c #F1BE9B",
"OX c #E7AD8F",
"+X c #C4B5AB",
"@X c #C3B3A8",
"#X c #C7BCB4",
"$X c #CEB0A5",
"%X c #E5B9A1",
"&X c #AEF08C",
"*X c #8BCEB4",
"=X c #98EBB7",
"-X c #8EEFB4",
";X c #9AF29D",
":X c #F7C29F",
">X c #F8C39F",
",X c #E5C780",
"<X c #CAC2BD",
"1X c #F6C3A0",
"2X c #F9C4A0",
"3X c #FDC9A4",
"4X c #E8C9B3",
"5X c #8AAFC4",
"6X c #AEBFE5",
"7X c #D1ADED",
"8X c #85D8C8",
"9X c #8CCCD3",
"0X c #85F3C6",
"qX c #B0C8E0",
"wX c #CBC6C3",
"eX c #D2CAC6",
"rX c #DCDCDC",
"tX c #D8D5D2",
"yX c #D5D0CB",
"uX c #E5D9D2",
"iX c #E1E0DF",
"pX c #D2D0E0",
"aX c #ECECEC",
"sX c #E7E6E5",
"dX c #F3F3F4",
"fX c #FFFFFF",
"gX c #F7F7F8",
/* pixels */
"X X     o       o                 X X .               o $ * = < < < < - * + .               O O                           O     ",
"X       o o       .                   X       . + < w r h g g J K K J J g h q < @       # % O O                   O O     O o   ",
"    X & o                                 X * w h J K K K K K K K K K K K K K K d < .   3 4 # O                   X X O O o &   ",
"    X # o o         # O               . * q g K K K K K J K K K K K K K K K K K K g e < $ # O O                   O X O O   O o ",
". X       X .       o o             . 0 g K K K K K K K K K K K K K K K K K K K K K K K d < X             o               o   O ",
"X o                 o o O         $ q K K K K K K K K K K K J J K K K K K K K K K K K K K K q $         O #               O     ",
"          o .     O o o o       * d K K K K K K K K J g g k L P P L l k k g J K K K K K K K K d *                               ",
".         $ o       o         * h K K K K K K K g k P _ =.=.}.XX XXX/.!.=._ P k g K K K K K K K k *                             ",
"        O         O o % O . $ d K K K K K K g l ( R..X2X2X2X>X>X1X1X2X2X2X2XoXR.( l g K K K K K L e X                           ",
"                  O O o O X q K K K K K J k ^ !.:X2X1X:X>X>X>X:X:X:X:X:X1X1X1X2X1X/.( k K K K K L K = O . .                     ",
"  O           O   O o O . 0 K K K K K g l =.:X:X.X|.XXoX:X:X>X:X:X:X>X:X1XoXoX1X>X2XoX=.l k K k K L e X . +                     ",
"            . O   O   O 1 g K K J K g ~ ~.}.W.=.=.W.T./.:X>X:X:X:X>X:X:X1X XW.T.R.!.~.}./.~ g L K K L - O O                     ",
"        . o           $ f K K K K g ~ [.W.~.}..X:X:X:X:X:X:X:X:X>X:X:X:X:X:XoXoX:XoXXX!.!.}.^ g K K L q .                       ",
"        . .           0 K K K K g ~ XX2X:X>X>X:X.X:X>X>X:X:X:X:X:X:X>X:X:X>X>XoXXX'.}..X1X2X.X~ g K L g +     .                 ",
"                    $ f K K K J P /.2X:XoX'.).@X@X`._.[.:X:X:X:X>X>X:X:X1XXX_.@X<XeXwX+X(.[.1X[.P J J L <                       ",
"                    = J K K J k =.2X1X}.J.eXaXgXgXgXaXwX(. X>X:X:X:X:X>X/.@XsXgXfXfXfXfXaX#X_.1XR.k J L q                       ",
"                    0 K K K k ( >X2X}.@XaXfXfXfXfXfXfXfXsXJ.}.:X:X:X:X/.#XgXfXfXfXfXfXfXfXfXeX_.1X_ g L g *                     ",
"                    0 K K K l /.2X.XJ.dXfXfXfXfXfXfXfXfXfXaXJ.:X>X>X X@XgXfXfXfXfXfXfXfXfXfXfX<X[.}.l K K <                     ",
"                  . e K K J _ 2X>X_.iXfXfXfXfXfXfXfXfXfXfXfXyX].1X1X_.rXfXfXfXfXfXfXfXfXfXfXfXaX).:X#.g K q                     ",
"            .   . @ r K K k /.2X:X`.gXfXfXfXfXrXrXfXfXfXfXfXdXJ.oX>X`.gXfXfXfXfXfXgXiXgXfXfXfXfX+X.X'.l K q                     ",
"                  * J K J ^ oX1X X#XfXfXfXfXfX .U.fXfXfXfXfXfX+XoX.X$XfXfXfXfXfXfXwXM sXfXfXfXfXwX|.>X^ K e                     ",
"                  0 J J h #.2X2X}.#XfXfXfXfXfXdXgXfXfXfXfXfXfX+X.X.X+XfXfXfXfXfXfXdXrXfXfXfXfXfXwX}.>X+.g e         X X         ",
"              X @ e K J k W.2X1X X#XfXfXfXfXfXfXfXfXfXfXfXfXfX@X.X:X`.gXfXfXfXfXfXfXfXfXfXfXfXfX+X X2X^.l d       X X X         ",
"                + f K J P }.1X1XoX`.dXfXfXfXfXfXfXfXfXfXfXfXaX).:X:X_.iXfXfXfXfXfXfXfXfXfXfXfXaX).:X:X XP f +     #             ",
".               # f K K ~  X:X:X2X].tXfXfXfXfXfXfXfXfXfXfXfXwX'.>X>X XJ.fXfXfXfXfXfXfXfXfXfXfX<X/.>X>XoX~ h *       X o   o     ",
"                  w K g ~ 1XoX1X1XoX(.sXfXfXfXfXfXfXfXfXfXiX(.:X>X>X2X^.wXgXfXfXfXfXfXfXfXfXtXQ.>X>X>X>X^ J = .     o   o #     ",
". .               $ g g ^ 1X1X1X:X2X XJ.iXfXfXfXfXfXfXfXtX).oX>X:X}.oX:X_.+XaXfXfXfXfXfXdX<X(.oX>X>X>X>X^ J =       X . o o     ",
". X .               w K ^ 1X1X1X:X:X1X.XQ.#XrXaXdXaXtX+XQ.oXoX>X:X^.=..X2X}.(.+XyXtXyX#X(.'.>X>X:X>X>X>X^ h $       X X . .     ",
"  # %       O       $ f ^ :X1X1X:X:X1X1X:X|.]._.)._.'.XX1X1XoX>X1X1X}.!.2X1X>X.XOX'.[. XoX2X1X2X:X:X>XoX^ d +                   ",
"                  X o < l :X2X1X:X:X:X:X:X1X2X2X>X1X1X>X>X1XoX!.OXoX}.!.1X1X:X>X2X2X1X1X>X>X1XoX>X:X1XoXU w                 o o ",
"                  X . : n ,X1X1X:X:X1X:X:X2X:X:X:X>X:X:X>X>X>XoX/.R.~.oX1X>X>X:X2XoX2X2X>XoX>X>X>X>X1XXX+.M o               o o ",
"                    : +.[.'.1X1X:X:X:X:X:X:X:X:X:X1X:X>X>X1X1X2X:X:X1X1X1X1X>X:X2XoX2XoX2X2X>X2XoX>X1X^.^.3Xn   o         o o o ",
"                    n >XXX=.>X>X2XoX2XoX>X>XoX>X>X:X:X:X XW.H.Y.G.G.$.+.=./.:X:X1X1X1X:X:X1X:X:X:X:X2XR.|.2XW.%   X o       o o ",
"              O o   #.3X:X@.:X>X2X2X2X2XoX1X2X>X:X1XXX] p p e.r.c.k.4.X.D F ! =.1X1X:X:X:X:X:X:X:X2XoX@.:X2X'.&   X         X   ",
"  O         O       ) 3X>X~.^.>XoX2XoX2X2X2X1X>X1X/.z 5 6 T y.d.m.k.8.&.H H 9 8 _ oX1X1X:X:X1X2X:X1X/.R.>X2X@.#             o % ",
"            O       4 XX:X:X=.>X2X2X2X2X2XoX1X2XoX! 5 7 7 B y.f.b.k.8.&.[ H C 6 5 / :X1X:X:X:X:X1X:XT..X>X Xn           . . o # ",
"                      n [.>X=.[.2XoX2X2X>X>XoX2X!.8 6 6 C u.y.f.n.k.8.6.[ H S 6 6 5 =.2X1X1X>X>X2X^.' /.=.b X         o o o o   ",
"          O         o   3 j j j oX2XoX2X>X>X1X2X+.5 6 6 x y.y.g.n.k.2.6.{ H A 6 6 5 ^ 1XoX2XoX2X:Xn @ & $ .                   o ",
"          O #       o o       # #.2X2X2X1X>X1X2X=.5 6 6 x y.y.x.b.j.2.5.} H A C 6 5 / 2X2X2X1X2X#.#     X .                   o ",
"        O o #   o o   # . o : & 3 R.2XoX1X1X1X1X.Xz 6 9 ' y.y.x.b.j.2.5.%.H H C 6 8 -.2X2XoX1XW.3   O   .     X o O           o ",
"                  O o O . o 4 :   4 !.>XoX>X>XoX2XE.p y t.y.d.c.n.j.2.9.%.W W S 5 / :X:X1X2X'.u                 o           o o ",
"                    O . o o o o     u !.2X2X2X2X:X2X!.) u.u.d.c.b.j.2.9.&.W E D #.:X:X:X1X/.i             o         .       o o ",
"o o             . o .   . o o         4 H.1X2XoX:X:X2XU.y.y.d.n.b.M.1.9.&.Q R Q |.1X:X:X=.4           o o                   o o ",
"o .             O .     o   o o         : ( oX2X:X:X:XY.y.y.f.b.n.j.2.9.6.[ R W E.3X.X( &             O                     o o ",
"  o o   o       O O     . . X .           . i +.1X3X%Xy.y.y.f.n.n.j.2.4.4.{ R R | +.i             o o O     o o             o   ",
"  o O       o   O . .     X X .   . o         o i ' J.y.y.y.x.n.b.M.1.4.4.} R E F ;               O O                     O o   ",
"                O . X O .     .     O             O N y.y.y.x.n.b.M.1.4.9.%.E E A ;             O o O       o   o       o o     ",
"                O O o O O           X .         O @ e.y.y.y.x.n.n.M.1.4.9.%.W R E a             O O O   o                       ",
"          .         O               O             & e.y.y.r.c.n.n.M.q.5.9.%.Y W R y   % %       . O O . X X O         o   O     ",
"                              O             . O , v f.L.r.d.n.n.n.N.w.&Xw.$.! Y E Z O o %                 O O           O O o X ",
"                  O         O O     O o       2 a.h.9XK.y.d.n.b.N.Z.;X&X&Xo.x T E D ;   O         .   O O   X O       O O O o o ",
"  o                   O   O   . . O O o   , c ,  .P.I.L.y.f.N.N.C.Z.;X&Xw.o.b n E R t     O   O   O O O   O o X     o O     o o ",
"                    O O O O O             & c % m v.5XK.L.v.S.S.S.D.&X9.5.3.q.0.[ R y               O O   o O       o o o O O   ",
"                      O O . o .               c h.9XqX9Xv.B.F.F.S.D.,.4.4.8.$.U I Y Z @ O %       O       % O       o   o o o O ",
"                O O           O             #  .5XpX7X9XB.C.I.i.B.Z.w.9.9...` #.] ` D ; O o O O             O               o   ",
"                O O   .       o o           2 s.8X6X6X9XV.V.9XL.F.C.w.4.9...{.uX4X$XW t     O O           X O               o   ",
"                O   O         O o       o c  .z.*XB.A.;X&X&XV.Z.D.C.1.5.4.;.4XuX4X#XQ y O O o o     O O                     o o ",
"O O               .         O O o o     2 a.a.z.8XB.B.;X<.<.V.C.Z.A.&X5.4.7.0.=.-.;.[ D @ O O         o O                     o ",
"o                         O   X o       s s.a.z.B.v.v.l.&X&X;XV.Z.0X&X5.5.0.0.{ Y | | R >   O         O O O                     ",
"    O     O               O O X       o 2 s.z.*X8X8XC.A.V.;X;.0XZ.Z.&X6.5.;.0.} R W E.] t O       O   o       O     o o         ",
"  O o             O O X                 . m s.*X=X=X8X0XV.V.-X0X0XA.,.4.3.=.0.} R E | E.G O       O           O O             # ",
"  o o o o O       o o o         . o         b I.*X=X=X=X-X-X0XV.A.N.>.4.3.;.7.%.R E W Q S @       o O   O                     # ",
"    o o O o X       X O     O               N u.L.K.I.P.*XA.N.M.n.b.>.4.4.6.9.&.W R E E R >     O o         O O                 ",
"        O X o               O O           o e.y.r.u.u.L.m.n.n.n.n.n.>.4.9.4.4.7.Q E E E E t                 # #                 "
};
