/* XPM */
static char *frame_006[] = {
/* columns rows colors chars-per-pixel */
"64 64 232 2 ",
"   c #060606",
".  c #080706",
"X  c #080807",
"o  c #0A0A09",
"O  c #0A0708",
"+  c #120E0A",
"@  c #130C07",
"#  c #13110E",
"$  c #1D130A",
"%  c #141413",
"&  c #191916",
"*  c #0F1411",
"=  c #2B1B0D",
"-  c #25170B",
";  c #311E0D",
":  c #261915",
">  c #39230F",
",  c #3B2713",
"<  c #24221C",
"1  c #1D1E22",
"2  c #292826",
"3  c #342C26",
"4  c #3B3127",
"5  c #262E35",
"6  c #323534",
"7  c #1D2721",
"8  c #6D0004",
"9  c #6A080B",
"0  c #730005",
"q  c #78050D",
"w  c #6F1314",
"e  c #462B13",
"r  c #593515",
"t  c #502F11",
"y  c #643C18",
"u  c #653C18",
"i  c #741725",
"p  c #42342A",
"a  c #722A24",
"s  c #792B34",
"d  c #46121C",
"f  c #33483D",
"g  c #6C411A",
"h  c #7C4B1E",
"j  c #72451B",
"k  c #59483C",
"l  c #434038",
"z  c #794C24",
"x  c #774C25",
"c  c #7D522D",
"v  c #7D5532",
"b  c #6F4B2A",
"n  c #7D7939",
"m  c #2B3944",
"M  c #772F41",
"N  c #374E48",
"B  c #484E49",
"V  c #71544D",
"C  c #4C7166",
"Z  c #5C605A",
"A  c #97192D",
"S  c #AF1B33",
"D  c #B7203B",
"F  c #8F1A25",
"G  c #C4223F",
"H  c #824E1E",
"J  c #83501F",
"K  c #855120",
"L  c #81532E",
"P  c #825835",
"I  c #906B36",
"U  c #A43A41",
"Y  c #C61F41",
"T  c #C62141",
"R  c #C82542",
"E  c #C73646",
"W  c #C13D53",
"Q  c #8F5C49",
"!  c #8C6545",
"~  c #966C4C",
"^  c #947058",
"/  c #A47659",
"(  c #9C7C66",
")  c #866678",
"_  c #AD766D",
"`  c #A9505B",
"'  c #CD5343",
"]  c #CD494D",
"[  c #CC6743",
"{  c #CE7C41",
"}  c #558B7A",
"|  c #DFDA3F",
" . c #9A9271",
".. c #A98264",
"X. c #B4886A",
"o. c #B38E73",
"O. c #BC9277",
"+. c #B2916C",
"@. c #B5AE74",
"#. c #A0984F",
"$. c #D28243",
"%. c #D59844",
"&. c #DBB446",
"*. c #C49A7C",
"=. c #C6977A",
"-. c #C78E72",
";. c #A8F864",
":. c #DEDD4A",
">. c #DAD04C",
",. c #E4DE45",
"<. c #E2DA47",
"1. c #E1CF47",
"2. c #E5E144",
"3. c #E8E242",
"4. c #FAFB74",
"5. c #D6E669",
"6. c #7F5E83",
"7. c #726C91",
"8. c #81739D",
"9. c #826E9A",
"0. c #847BAD",
"q. c #8179A7",
"w. c #847EB0",
"e. c #B768A9",
"r. c #BA4F8E",
"t. c #4E8A8F",
"y. c #659B96",
"u. c #6BB094",
"i. c #7888B2",
"p. c #6F91B3",
"a. c #6BB1BA",
"s. c #5DA9AB",
"d. c #7BCF9A",
"f. c #73D3A2",
"g. c #63D1B2",
"h. c #71CEA8",
"j. c #5FD0B3",
"k. c #4DBDC6",
"l. c #56B1C1",
"z. c #6DA4C4",
"x. c #3FCDCF",
"c. c #38C7CB",
"v. c #3DCFD0",
"b. c #41CDCC",
"n. c #46C5CA",
"m. c #47D1CE",
"M. c #56D8CE",
"N. c #77D8CE",
"B. c #6CD3D0",
"V. c #5EF1DA",
"C. c #79E7C9",
"Z. c #67EBD5",
"A. c #67F4D9",
"S. c #74F3D0",
"D. c #78D8E5",
"F. c #50EFE6",
"G. c #57F3E8",
"H. c #64F5E3",
"J. c #65E7E6",
"K. c #8E8F8A",
"L. c #AE918A",
"P. c #B1B48F",
"I. c #8785AD",
"U. c #9D95A8",
"Y. c #AA85B6",
"T. c #8CB2AD",
"R. c #BFAEA3",
"E. c #84A39D",
"W. c #C59D81",
"Q. c #C99E83",
"!. c #CBA184",
"~. c #CBA68D",
"^. c #D1A486",
"/. c #D5A98B",
"(. c #DAAC8D",
"). c #D3A689",
"_. c #CCA992",
"`. c #C3AA9A",
"'. c #C5A693",
"]. c #DAAE91",
"[. c #D4AC91",
"{. c #DEB092",
"}. c #E3B493",
"|. c #E9B695",
" X c #EAB897",
".X c #ECBB99",
"XX c #E5B89B",
"oX c #F2BE9B",
"OX c #C5ACA3",
"+X c #C4B4A9",
"@X c #C6BBB5",
"#X c #E6BCA4",
"$X c #83D691",
"%X c #B2F894",
"&X c #AEF08E",
"*X c #96D3AC",
"=X c #8BF2B9",
"-X c #97EBAD",
";X c #A0EA9F",
":X c #F7C29F",
">X c #F8C39F",
",X c #EEC194",
"<X c #CBC2BD",
"1X c #D5C7BE",
"2X c #F9C4A1",
"3X c #F7C3A2",
"4X c #E3C0AA",
"5X c #C1F690",
"6X c #84B9D6",
"7X c #8FB2C7",
"8X c #A3A1CD",
"9X c #D1AEED",
"0X c #C5B0D4",
"qX c #97D4D7",
"wX c #89CAD0",
"eX c #8CE9C4",
"rX c #92CEE1",
"tX c #B2CBE4",
"yX c #A9E0CC",
"uX c #CDC6C3",
"iX c #D7D0CB",
"pX c #DAD7D5",
"aX c #D1CDCA",
"sX c #E8DDD7",
"dX c #E8DACF",
"fX c #E9E4DF",
"gX c #ECEDED",
"hX c #E7E6E5",
"jX c #F3F4F4",
"kX c #FFFFFF",
"lX c #F7F8F9",
"zX c #CACDE3",
/* pixels */
"X X     o       o o               X . X             . @ - = > > > > ; = $ @ X X                                                 ",
"X       o .                                     . - t g h h J J J J H h j g r e - o     * % o                     . .     X X   ",
"    X & o             .               .   . . - r h K J J J J J J J J J J J J J h r > o 7 6 #                     o .     * &   ",
"    X # o o .       + o                 X - r h K J J J J J J J J J J J J J J J J J h g , $ o                     . X       X o ",
". X       X         o o               - r h K H J J J J J J J J J J J J J J J J J J J J J r $             +                   X ",
". o                 o o .         X e j K K K K J J J J J J J J H J J J J J J J J J J J J J g -           *                     ",
".         o .       o o .       $ r J J K K H K J H H H h z c L L L L z z h H J J J J J J J J h > X                             ",
"          # o       o         + u J J z K K K H H z P ~ X.!.{.}. X.X}./.*./ ! c h h J J J J J J h >                             ",
"                    o * X     , J J J J J J h x ! O.}.:X2X>X>X>X>X>X>X>X:X2X,X/...P h H J J J J K h = .                         ",
"                    o o X   # g J J J J J h I *.:X2X2X:X>X>X>X:X:X:X:X>X:X:X2X2X2X}./ c h h J J K K j $                         ",
"                X   o     . e J J J J J x ..,X>X:X:X:X:X>X:X:X:X:X:X:X:X:X:X X}..X:X2X(.! h J h K z K r # +                     ",
"              o   o   o & - j J J J h v *.XX/.).!.W.!.(.:X:X:X:X:X:X:X>X:X}.!.!.W.*.!.].{./ z J J J K K t X                     ",
"X       X o X       X o 2 e K z K h P ^.{.Q.}..X:X:X.X3X:X:X:X:X>X:X:X:X:X:X2X:X:X:X X/.!.{...x J J J J h =                     ",
"        X X         X X * y K K h c ^.2X:XoX}.{.}. X:X2X:X:X:X:X:X:X:X:X:X:X:X:XoXoX:X2X:X:X:X/ h J J J J u @ X                 ",
"                      o $ h K K x *.2X X~.OX<XaXuX+X`.(.:X:X:X:X:X:X:X:X:X X_.`.OXR.`./..X3X3X:X~ h J J H H -                   ",
"                        e J J z ..3X{.R.fXlXkXkXkXkXgX<X'.:X>X:X>X:X>X:X~.+XfXjXlXlXjXpXR./.:X2X}.P h J H H t                   ",
"                  X o o g J h I  X{.+XlXkXkXkXkXkXkXkXkXiX'.:X:X>X>X XR.pXkXkXkXkXkXkXkXlX<X_.:X2X*.x H J J u .                 ",
"                      : h J z O..XR.jXkXkXkXkXkXkXkXkXkXkXuX(.>X>X>X!.pXkXkXkXkXkXkXkXkXkXlX<X/.2X,X~ h J J g @                 ",
".                     > J h ! :X/.pXkXkXkXkXkXkXkXkXkXkXkXjX`.:X>X|.+XkXkXkXkXkXkXkXkXkXkXkXjXR.:X2X*.x J J j @                 ",
".           .     X   > J h O.>X`.jXkXkXkXkXhXgXkXkXkXkXkXkX@X}.2X/.pXkXkXkXkXkXgXaXlXkXkXkXkXuX}.2X.X! J J h -                 ",
"                . o   , J c {.:XOXlXkXkXkXlXK.K.kXkXkXkXkXkXiX}.>X'.gXkXkXkXkXkXpXZ gXkXkXkXkXsX/.3X2XX.h J J e                 ",
"                  .   , h ~ :X:X+XkXkXkXkXkXhXhXkXkXkXkXkXkXiX].>X`.jXkXkXkXkXkXlXgXlXkXkXkXkXpX_.:X2X).x J J u .   X X         ",
"              o   . . e h X.2X:X`.jXkXkXkXkXkXkXkXkXkXkXkXkX@XXX>X`.gXkXkXkXkXkXkXkXkXkXkXkXkXpX/.>X>X.XP J J h -   X X         ",
"                . . X r z *.2X>X/.pXkXkXkXkXkXkXkXkXkXkXkXjX`.oX>X/.pXkXkXkXkXkXkXkXkXkXkXkXkX+X X3X:X:X~ z J J ; o             ",
"        .       X   * g c /.>X:X XOXjXkXkXkXkXkXkXkXkXkXkXuX[.2X>X.XOXlXkXkXkXkXkXkXkXkXkXkXgXR.:X:X2X2X..h J J =   o     o     ",
"                    @ g c }.>X:X>X].@XlXkXkXkXkXkXkXkXkXpX'.oX2X>X>X/.uXkXkXkXkXkXkXkXkXkXjX+X}.>X:X>X2X..h J g o   o   o +     ",
"                . . # j P  X3X:X:X3X[.+XhXkXkXkXkXkXjXuX'.oX2X}.oX>X>X~.uXjXkXkXkXkXkXkXjX+X].3X:X:X:X2X+.h J >   . . . o o     ",
"  o X             . # g v  X:X:X:X:X2X}.~.+XaXpXiX@X`.(.oX3X!.Q.oX>X>X>X].OXaXhXjXgXhXuX'.{.3X3X:X:X>X2X+.h g @     o .   o     ",
"  + %   .         . o r v }.2X:X:X:X:X2X:X.X{.].{.}.oX2X2X}./.2X>X:X:X:X3X.X{._.'.'.[.{.oX>X:X:X:X>X:X2X..h >                   ",
"                  . o ; b /.2X:X>X:X>X:X:X>X2X>X2X2X:X:X>X{.(.oX|.).}.>X:X:X>X:X>X>X2X2X>X:X:X>X:X:X:X2X/ t X               o o ",
"                  o . k o.).2X:X:X:X>X:X:X:X:X:X2X:X:X:X>XoX(.Q.).}.:X:X:X:X:X:X:X:X:X:X>X:X:X:X:X:X>X:X( p             .   o o ",
"                    4 }..X*.>X:X:X:X:X:X:X:X>X:X:X:X:X2X2X2X3XoX>X>X2X2X2X:X:X:X:X:X>X:X:X>X:X:X:X3X2X}.!.(.4   o           o o ",
"                    ( 3X:X*.oX:X>X:X:X>X:X:X:X:X>X>X>X(.=.X.@. .K.K.L.^.|.2X2XoX:X:X:X:X:X:X:X:X:X:X>X/./.2XX.o . X         X o ",
"                o o ..3X3X!.(.3X:X:X:X:X:X:X>X>X>X}.~ U D [ 3.$Xc.p.7.M a Q (.2X:X>X>X:X:X>X:X>X:X>X>X*..X2X~.&   X .       X X ",
"            o   o   ! 3X3X}.W.:X:X3X:X:X2X:X2X3X-.a 8 A G $.3.$Xx.s.0.9.q 8 a =.>X>X:X:X:X>X:X:X2X2X X=.2X2XW.#             o % ",
"                    3 ).2X:XW. X>X:X:X:X:X:X2XO.w 8 F G G %.3.$Xv.l.0.9.i 0 0 a {.>X:X:X:X:X:X:X:X2X!.(.2X2XV         . X X X * ",
"  o                   6 +.).o.o.2X:X:X:X>X>X Xa 8 0 F D G &.3.d.v.l.w.w.M 0 0 8 _ >X>X>X:X:X>X>X>X XO.oX.X( %         X X X o   ",
"                    O   @ & # 4 }.>X:X:X>X>X=.9 0 0 A Y G 1.3.$Xv.l.w.w.V q q 8 ~ >X:X:X:X:X>X>X2X( 3 k p o           X   X   o ",
"          o #       o o         V 3X>X:X:X>XO.9 8 0 S Y ] >.3.d.v.n.7.I.9.w 0 8 / >X:X:X:X:X>X>X/.<                           o ",
"          O *   o o   #   o < & % ..2X:X:X:X}.a 8 F G Y ' 2.3.d.b.n.i.q.9.i 8 w *.>X:X:X>X:X>X Xk             O * o         X X ",
"                  o o X   o 4 7   & o.2X>X>X2X=.w F G G [ ,.2.d.v.b.i.w.0.s w ..2X2X2XoX>X>X:XV                               o ",
"                    X   o o o o     < +.2X>X:X:X*.W G G $.2.,.f.v.b.p.w.0.) O.:X2XoX2X2X>X XV X           o                   * ",
"o o               X X   o o o         & ..:X>X:XoX] R R %.2.,.f.b.b.z.7.w.Y.oX2X2X2XoX2X(.k           o o                 o O o ",
"O               o X     o   o           o V (.2X|.E Y R &.3.,.f.v.m.l.w.w.w.#XoXoX2XoXO.3               o                   o   ",
"  O o           X       . X X X             3 ( -.R Y E >.2.:.f.b.v.l.w.w.w.OXoX2XQ.V o           o o       o o             o   ",
"    o         o X         X X .     o           s T Y E 1.2.2.f.v.b.n.7.w.w.U.o.V &               o                         o   ",
"              o X   X X       O               X A T G ' 1.,.:.f.b.b.n.I.w.w.6.1                   o o       o   o       o o     ",
"                X X X X X           O O       $ D G G [ ,.,.:.h.v.b.n.i.w.w.7.1                     o   o                       ",
"                  o   o                       d G T T $.2.2.:.f.b.b.b.p.0.0.0.m       # %         o     o o           o   o     ",
"      o                                 .   X i T T T %.2.,.:.g.v.b.b.p.0.0.0.B       # %                                     o ",
"                              o     o o     X A T T R &.2.,.:.g.b.b.b.s.0.0.0.7.& p 3 5               o     o           o O o o ",
"  o                                 o o o * < ` W T E &.,.,.:.j.b.b.n.a.I.T.*XE.5 Z 6 B           o   o     o o     o       o o ",
"                      o     o         * C C y.6XU.E E 1.2.,.:.g.v.m.Z.Z.;X&X%X;Xm 5 2 5 o                 o         o o o       ",
"                        o   o         7 u.t.a.wXqX_ ' <.,.,.:.j.v.M.H.G.;X%X&X%XZ 5 5 5 & *               * o       O   o o o o ",
"                                & f * * } d.*XR._ W [ <.,.:.:.g.M.Z.H.S.;X%X%X*X7.5 m N 7 o   .                                 ",
"                  o           O f u.N   % Z _ _ W T { 2.:.-XS.A.J.H.S.S.;XT.T.I.7.N  .@.#.&   o           O o           o   o   ",
"                              o % f * o N y.7Xz.T._ %.,.&XH.G.F.F.G.G.H.T.w.w.w.q. .4.4.4.I + o       o                     o o ",
"o                               o     N t.a.6XqXqXwX*X5.&XH.G.G.F.F.G.H.a.w.0.0.I._.5.#.I I > X       o                       o ",
"o                             o o X * } t.wXyXzX9XrXN.*XN.G.D.7XrXG.Z.S.T.0.0.0.0. .I h h H h >         o             o         ",
"    O                         o     7 } s.yX0X9X9XrXN.wXZ.J.e.r.e.D.A.eXT.0.w.0.8.V ~ =.*.+.-.! #     o       o       o         ",
"    o                           X   B y.d.qX9X9X9XqXZ.C.A.Z.T.e.Y.D.G.S.a.I.I.w.8.Q ).#X#X3X#X!.1               O             * ",
"  o o o o           o *         X $ C d.*XqXrXtXqXC.=X=XS.S.S.rXD.G.A.Z.n.7.w.w.8.! {.gXhX4XfXiX3         O                   * ",
"  o o     o o       o         1 C t.y.$X-XeXN.N.S.=X&X;.&X=XS.A.G.A.H.M.m.i.w.w.q.o..XsXsX#XsX1X3           O                   ",
"          o o                 C t.t.u.h.eXwXB.M.C.;X;.5X5.&XS.A.A.A.J.J.M.7.w.w.q.P..XoX]./.#X/.3         O o *                 "
};
